<svg width="187" height="116" viewBox="0 0 187 116" fill="none" xmlns="http://www.w3.org/2000/svg">
<path d="M184.927 86.7604C184.841 86.2088 184.759 85.8251 184.725 85.4374C184.633 84.3782 184.583 83.315 184.468 82.2578C184.422 81.8361 184.29 81.4105 184.128 81.0168C183.828 80.2813 183.476 79.5679 183.145 78.8464C183.039 78.6186 182.977 78.3268 182.489 78.4407C182.905 79.5858 183.312 80.711 183.72 81.8361C183.059 81.3485 182.685 80.745 182.491 79.9955C182.257 79.1002 181.933 78.2249 181.604 77.3575C181.508 77.1037 181.254 76.9099 181.034 76.6401C181.414 76.0525 181.094 75.5689 180.686 75.0873C180.021 74.3019 179.401 73.4745 178.708 72.7151C177.747 71.6639 176.462 71.0703 175.229 70.4128C174.847 70.209 174.433 70.0611 174.065 69.8393C171.899 68.5322 169.471 67.9307 167.073 67.2592C166.473 67.0913 165.82 67.0054 165.2 67.0414C162.774 67.1793 160.406 67.6829 158.07 68.3264C157.72 68.4223 157.332 68.5342 157.072 68.7661C156.173 69.5675 155.066 69.9212 153.969 70.2949C153.291 70.5267 152.786 70.9424 152.552 71.5979C152.248 72.4513 151.67 73.0788 151.039 73.6743C149.862 74.7855 149.07 76.1764 148.185 77.5014C147.915 77.9051 147.496 78.2129 147.256 78.6286C146.762 79.4819 146.271 80.3513 145.921 81.2686C145.733 81.7622 145.821 82.3677 145.829 82.9233C145.855 84.4522 145.955 85.983 145.931 87.5098C145.911 88.7269 146.125 89.874 146.444 91.0431C147.302 94.1888 149.074 96.7408 151.329 99.0231C153.853 101.579 156.972 103.068 160.346 104.097C160.808 104.239 161.327 104.195 161.819 104.229C162.98 104.311 164.139 104.423 165.302 104.457C165.928 104.475 166.561 104.387 167.183 104.289C167.808 104.191 168.338 103.74 169.075 103.999C169.383 104.107 169.989 103.847 170.236 103.562C171.07 102.604 172.305 102.383 173.296 101.731C173.62 101.517 173.998 101.385 174.343 101.203C174.489 101.125 174.605 100.958 174.755 100.928C176.37 100.612 177.189 99.183 178.416 98.3276C178.762 98.0858 178.876 97.4842 179.483 97.6601C179.807 97.1645 180.171 96.6889 180.445 96.1673C180.638 95.7955 180.722 95.3659 180.838 94.9562C180.892 94.7663 181.002 94.5185 180.93 94.3786C180.447 93.4413 181.174 92.7578 181.344 91.9245C182.323 92.9937 182.353 93.1456 181.326 96.1053C182.301 94.8822 182.919 93.4813 183.231 91.9505C183.54 90.4236 183.792 88.8828 184.084 87.272C184.474 88.2393 184.573 89.7042 184.382 91.0811C184.106 93.0616 183.37 94.8403 182.243 96.503C180.648 98.8552 178.918 101.08 176.773 102.958C175.77 103.835 174.703 104.601 173.38 104.977C172.716 105.164 172.129 105.6 171.475 105.844C170.606 106.168 169.725 106.549 168.817 106.663C167.019 106.887 165.2 106.995 163.386 107.057C161.577 107.121 159.8 106.787 158.074 106.264C156.803 105.878 155.566 105.38 154.318 104.921C154.157 104.861 154.023 104.727 153.905 104.567C155.651 105.146 157.358 105.846 159.269 105.644C158.895 105.526 158.515 105.424 158.15 105.288C157.402 105.013 156.669 104.703 155.917 104.437C155.324 104.227 154.714 104.063 154.113 103.881C153.799 103.787 153.433 103.771 153.173 103.596C151.193 102.253 149.1 101.03 147.602 99.107C146.954 98.2776 146.43 97.3424 145.921 96.4191C145.393 95.4638 144.924 94.4745 144.486 93.4753C144.29 93.0276 144.224 92.52 144.122 92.0344C143.89 90.9312 143.671 89.8241 143.453 88.7169C143.409 88.4911 143.357 88.2593 143.363 88.0314C143.389 87.0362 143.457 86.0409 143.471 85.0457C143.489 83.6707 143.603 82.3258 144.262 81.0767C144.444 80.731 144.59 80.3373 144.64 79.9516C144.984 77.2896 146.207 75.0593 147.939 73.0648C148.195 72.769 148.413 72.4293 148.593 72.0815C149.028 71.2482 149.676 70.5047 150.529 70.3069C151.455 70.0931 152.18 69.5475 153.037 69.2517C153.463 69.1058 153.819 68.91 154.001 68.3704C154.129 67.9907 154.628 67.7109 155.004 67.4451C157.026 66.0181 159.329 65.4326 161.761 65.3047C162.824 65.2487 163.891 65.2927 164.956 65.2587C165.586 65.2387 166.213 65.1108 166.841 65.1108C167.428 65.1108 168.034 65.1508 168.602 65.2907C171.693 66.0561 174.645 67.1733 177.221 69.0918C178.204 69.8233 179.12 70.6626 179.981 71.534C181.148 72.7151 182.281 73.9361 183.346 75.2092C184.516 76.6101 185.213 78.2589 185.651 80.0335C185.841 80.8029 186.152 81.5484 186.462 82.2818C186.808 83.1072 186.778 83.8806 186.388 84.684C186.046 85.4014 185.837 86.1828 184.927 86.7604Z" fill="#333945"/>
<path d="M175.007 90.5216C173.938 90.5536 172.869 90.5856 171.8 90.6175C171.798 90.6695 171.796 90.7235 171.792 90.7754C172.021 90.8114 172.253 90.8494 172.483 90.8853C172.475 90.9193 172.469 90.9533 172.461 90.9873C171.756 90.9873 171.018 91.1192 170.353 90.9573C169.287 90.6975 168.252 90.8234 167.197 90.8813C165.672 90.9653 164.147 91.0112 162.621 91.0632C162.089 91.0812 161.557 91.0452 161.028 91.0772C159.703 91.1551 158.38 91.259 157.057 91.351C156.925 91.359 156.785 91.367 156.661 91.335C155.734 91.0912 154.9 91.329 154.111 91.8166C154.077 92.2103 154.001 92.608 154.019 92.9997C154.049 93.7012 154.161 94.3727 154.709 94.9163C155.058 95.264 155.37 95.6757 155.604 96.1094C156.839 98.3876 158.937 99.5428 161.272 100.192C163.406 100.786 165.632 100.738 167.753 99.9564C168.51 99.6767 169.323 99.4169 169.843 98.6854C170.011 98.4496 170.273 98.2577 170.531 98.1138C171.566 97.5343 172.299 96.629 173.103 95.7976C173.52 95.3639 173.668 94.8543 173.636 94.2568C173.62 93.961 173.704 93.6592 173.742 93.3595C173.816 93.3535 173.89 93.3475 173.964 93.3395C174.092 93.5793 174.218 93.8191 174.444 94.2408C174.669 93.2016 174.865 92.3043 175.063 91.4049C175.371 92.5321 175.331 93.6333 174.781 94.6305C174.14 95.7936 173.45 96.9387 172.685 98.0219C171.658 99.4728 170.205 100.382 168.55 101.008C167.331 101.469 166.11 101.891 164.791 101.925C164.633 101.929 164.475 101.925 164.281 101.925C164.325 101.757 164.353 101.651 164.403 101.457C163.686 101.509 162.988 101.651 162.309 101.591C160.682 101.449 159.081 101.194 157.724 100.128C156.783 99.3889 155.792 98.6714 155.134 97.6822C154.485 96.7049 153.663 95.8076 153.447 94.5586C153.32 93.8211 152.904 93.1376 152.716 92.4042C152.554 91.7747 152.532 91.1092 152.448 90.4557C153.394 90.1459 154.173 89.9501 155.046 90.4117C155.454 90.6275 155.996 90.6155 156.561 90.3657C157.199 90.0839 157.99 90.0979 158.715 90.0779C161.935 89.996 165.157 89.98 168.376 89.8781C169.999 89.8261 171.622 89.6643 173.24 89.5084C174.028 89.4324 174.553 89.7942 175.047 90.2858C175.031 90.3577 175.019 90.4397 175.007 90.5216Z" fill="#333945"/>
<path d="M160.16 82.8295C160.098 82.4897 160.039 82.148 159.977 81.8082C159.923 81.8142 159.871 81.8202 159.817 81.8262C159.879 82.3478 159.919 82.8734 160.011 83.3891C160.104 83.9167 160.029 84.3783 159.665 84.78C159.049 85.4595 158.598 86.3008 157.626 86.6106C156.607 86.9344 155.552 87.0223 154.609 86.6006C153.857 86.2649 153.122 85.6853 152.628 85.0278C152.003 84.1944 151.873 83.1113 152.099 82.076C152.248 81.3846 152.264 80.6371 152.818 80.0496C153.05 79.8038 153.172 79.554 153.569 79.528C153.769 79.514 153.977 79.2722 154.139 79.0923C154.491 78.7026 154.906 78.5387 155.432 78.4488C157.411 78.1111 158.879 78.9464 160.2 80.2974C160.674 80.783 160.858 81.3686 161.058 81.9541C161.22 82.4258 160.934 82.6756 160.16 82.8295Z" fill="#333945"/>
<path d="M177.241 82.1916C176.956 82.4355 176.698 82.6573 176.34 82.9631C176.214 82.4694 176.128 82.1377 176.042 81.8059C175.982 81.8139 175.922 81.8219 175.86 81.8319C175.922 82.3275 175.972 82.8272 176.05 83.3208C176.136 83.8764 176.064 84.374 175.649 84.7937C175.487 84.9576 175.353 85.1534 175.221 85.3433C174.08 86.996 172.007 86.95 170.54 86.5344C169.903 85.8109 168.842 85.5751 168.468 84.4999C168.142 83.5606 167.914 82.6773 168.24 81.72C168.428 81.1644 168.652 80.6228 168.854 80.0713C168.99 79.7015 169.166 79.4417 169.645 79.4757C169.805 79.4877 170.021 79.2559 170.149 79.09C170.522 78.6024 171.016 78.4725 171.606 78.3726C173.342 78.0788 174.695 78.7103 175.894 79.8934C176.514 80.5029 176.542 80.475 177.241 82.1916Z" fill="#333945"/>
<path d="M68.4981 45.1732C69.7851 46.762 68.7539 48.089 68.3961 49.464C70.4406 46.8759 70.6404 43.6903 71.258 40.6287C71.6896 42.3394 71.6117 44.0361 71.244 45.7328C70.9222 47.2217 70.2667 48.5606 69.3674 49.7777C68.3002 51.2206 67.267 52.6975 66.1039 54.0625C64.9408 55.4274 63.7037 56.7944 62.067 57.5838C60.0145 58.575 58.002 59.7182 55.6878 60.0579C55.5899 60.0719 55.4879 60.1259 55.394 60.1139C53.9571 59.91 52.5682 60.3897 51.1452 60.4096C48.2714 60.4496 45.5255 59.8661 42.8695 58.8069C42.236 58.555 41.6025 58.3072 41.0049 57.9515C42.7676 58.4731 44.4723 59.1986 46.6007 59.0607C46.151 58.9108 45.9112 58.8408 45.6774 58.7529C44.7461 58.4032 43.8208 58.0314 42.8835 57.6977C42.3539 57.5098 41.7943 57.4039 41.2628 57.2181C40.7731 57.0462 40.2655 56.8763 39.8318 56.6025C38.8766 56.001 37.9373 55.3615 37.034 54.684C35.667 53.6588 34.4579 52.4637 33.6086 50.9648C33.2328 50.3013 32.9711 49.5759 32.6613 48.8764C32.4315 48.3588 32.3175 47.7473 31.9638 47.3376C31.3423 46.6201 31.3083 45.7768 31.1624 44.9354C31.0145 44.086 30.8367 43.2427 30.6748 42.3953C30.6248 42.1335 30.5489 41.8697 30.5529 41.6079C30.5769 40.0771 30.6208 38.5482 30.6568 37.0194C30.6808 35.9622 31.0665 35.0129 31.5062 34.0716C31.6441 33.7799 31.732 33.4521 31.778 33.1304C32.1477 30.5863 33.3068 28.4259 34.9455 26.4874C35.2413 26.1377 35.5371 25.766 35.7389 25.3583C36.1646 24.5009 36.8681 23.7555 37.6935 23.6176C38.6847 23.4517 39.3642 22.7922 40.2535 22.5224C40.6452 22.4045 41.0129 22.2246 41.1289 21.687C41.1928 21.3953 41.5965 21.1495 41.8843 20.9376C44.0267 19.3608 46.4848 18.7433 49.0948 18.6274C50.126 18.5814 51.1592 18.6114 52.1925 18.5994C52.5582 18.5954 52.9459 18.6494 53.2856 18.5474C54.3348 18.2357 55.3241 18.4755 56.3233 18.7633C59.1212 19.5687 61.8111 20.6039 64.1973 22.3206C65.994 23.6116 67.4768 25.2344 69.0037 26.8092C70.2647 28.1082 71.3779 29.5271 72.0314 31.2278C72.6609 32.8686 73.2265 34.5373 73.7281 36.222C74.0718 37.3751 73.2205 39.2257 72.0454 39.9991C71.9634 39.5775 71.8575 39.2077 71.8235 38.83C71.7256 37.7708 71.6617 36.7076 71.5697 35.6485C71.5478 35.3847 71.5258 35.1069 71.4238 34.869C70.9942 33.8618 70.5385 32.8646 70.0769 31.8713C70.0349 31.7794 69.875 31.7414 69.6592 31.6095C69.7671 33.0124 70.7084 34.0497 70.7404 35.3447C70.2048 34.7072 69.7691 34.0517 69.5972 33.2063C69.3794 32.1411 69.0616 31.0899 68.3422 30.2166C68.2403 30.0927 68.1783 29.8329 68.2383 29.703C68.4321 29.2953 68.2782 29.0135 68.0304 28.7097C67.3989 27.9363 66.8014 27.1349 66.1539 26.3755C65.2286 25.2903 63.9995 24.6108 62.7624 23.9533C61.6753 23.3758 60.6221 22.6923 59.4709 22.2846C57.4405 21.5651 55.372 20.8997 53.2716 20.442C51.8167 20.1242 50.3079 20.462 48.855 20.8497C48.5033 20.9436 48.1375 21.0016 47.7738 21.0335C46.1151 21.1834 44.6142 21.6751 43.2652 22.7203C42.6857 23.1699 41.8823 23.3598 41.1548 23.5836C40.3834 23.8214 39.9617 24.327 39.618 25.0245C39.3302 25.6121 38.9505 26.1976 38.4809 26.6433C37.1359 27.9203 36.1466 29.4512 35.1874 31.01C35.0475 31.2358 34.9376 31.5156 34.7357 31.6635C33.5106 32.5608 33.2229 33.9557 32.8132 35.2727C32.7132 35.5945 32.7992 36.0022 32.8871 36.3479C33.1909 37.529 33.1909 38.7261 33.093 39.9212C32.8591 42.807 33.6685 45.409 35.0275 47.9251C36.1247 49.9536 37.7035 51.5584 39.2423 53.2131C39.4221 53.407 39.614 53.6108 39.8378 53.7427C41.9542 54.9958 44.0167 56.3387 46.3789 57.1361C47.7678 57.6058 49.2007 57.5238 50.6117 57.6937C51.0373 57.7457 51.471 57.7297 51.8987 57.7597C52.9019 57.8296 53.8932 57.8316 54.8484 57.4379C55.2002 57.294 55.5359 57.2221 55.9756 57.308C56.3953 57.3899 57.0408 57.1841 57.3365 56.8703C58.1739 55.975 59.339 55.7012 60.3223 55.0957C60.74 54.8379 61.1956 54.638 61.6313 54.4082C61.7192 54.3622 61.7892 54.2683 61.8811 54.2443C63.6158 53.7987 64.587 52.3258 65.8681 51.2766C66.0619 51.1187 66.1598 50.8069 66.4976 50.9928C66.8473 50.4892 67.235 50.0055 67.5348 49.4719C67.7386 49.1062 67.8266 48.6746 67.9505 48.2689C68.0164 48.049 68.1623 47.7473 68.0744 47.6074C67.4908 46.6621 68.3922 46.0725 68.4981 45.1732Z" fill="#333945"/>
<path d="M47.3323 36.324C47.2264 35.9223 47.1624 35.6784 47.0945 35.4166C47.0525 35.4566 46.9945 35.4866 46.9925 35.5166C46.9905 35.7824 46.9326 36.0721 47.0185 36.31C47.3623 37.2692 46.8926 37.9287 46.351 38.6562C45.3218 40.0371 43.9409 40.3709 42.378 40.1071C40.6693 39.8173 38.8287 37.9567 39.1765 35.9962C39.3244 35.1608 39.2764 34.2915 39.83 33.5421C40.0958 33.1823 40.2657 32.8186 40.7933 32.8366C40.9152 32.8406 41.093 32.6927 41.163 32.5688C41.4807 31.9912 42.0363 31.9673 42.5939 31.8294C44.7203 31.3018 46.1632 32.4409 47.4702 33.8139C47.8539 34.2176 48.0497 34.8611 48.1776 35.4306C48.2776 35.8823 47.8179 36.0622 47.3323 36.324Z" fill="#333945"/>
<path d="M63.4578 36.4038C63.3159 35.8263 63.2339 35.4905 63.152 35.1548C63.112 35.1628 63.072 35.1688 63.0321 35.1768C63.088 35.7184 63.13 36.2639 63.202 36.8035C63.2699 37.3271 63.1999 37.7928 62.7863 38.1685C62.6644 38.2784 62.5544 38.4103 62.4685 38.5502C61.4073 40.2889 59.4468 40.4907 57.804 39.9312C57.0706 39.6814 56.3352 39.0998 55.8775 38.4683C55.254 37.6109 55.0282 36.5158 55.266 35.4406C55.4278 34.7131 55.7596 34.0236 56.0254 33.3222C56.0714 33.2023 56.1693 33.0064 56.2392 33.0084C57.0047 33.0244 57.3024 32.3289 57.832 31.9952C57.916 31.9432 58.0079 31.8893 58.1018 31.8713C59.5727 31.6035 60.9996 31.6155 62.2307 32.6267C63.156 33.3861 64.1272 34.1176 64.2591 35.6284C64.1212 35.7603 63.8555 36.0161 63.4578 36.4038Z" fill="#333945"/>
<path d="M60.5179 47.3118C60.2361 47.4417 59.9663 47.6375 59.6705 47.6935C58.4075 47.9313 57.1404 48.1491 55.8674 48.329C55.5956 48.367 55.2998 48.2191 54.8942 48.1311C54.2926 48.7547 53.4053 49.0465 52.452 49.2683C51.6226 49.4621 50.8312 49.8219 50.0199 50.0997C49.7561 50.1896 49.5262 50.4874 49.1965 50.2276C49.1365 50.1816 48.9766 50.1796 48.9187 50.2256C47.9634 51.007 46.7224 51.0389 45.6432 51.4906C44.9417 51.7844 44.2442 52.0841 43.4748 52.4119C43.273 52.1401 43.0851 51.8903 42.9492 51.7064C43.0611 51.1688 43.9345 51.5446 43.7226 50.8371C43.8845 50.8051 44.0604 50.7172 44.2063 50.7532C44.7099 50.8751 45.0776 50.6213 45.5133 50.4374C46.4506 50.0377 47.4438 49.7659 48.4051 49.4202C48.6649 49.3262 48.8927 49.1484 49.1405 49.0165C49.3424 48.9086 49.5482 48.7247 49.7521 48.7247C50.3716 48.7247 50.8872 48.5728 51.4468 48.2471C52.1482 47.8394 52.9876 47.6495 53.787 47.4357C54.6164 47.2138 55.4837 47.1259 56.3071 46.8881C57.1185 46.6543 57.8979 46.5204 58.7372 46.7442C58.9591 46.8042 59.2528 46.5883 59.5906 46.4724C59.5686 46.6703 59.5446 46.8741 59.5106 47.1599C59.8164 47.1219 60.1222 47.0859 60.4279 47.048C60.4579 47.1359 60.4879 47.2238 60.5179 47.3118Z" fill="#333945"/>
<path d="M136.253 57.9393C138.022 58.327 139.626 59.2183 141.719 59.0085C141.149 58.7986 140.786 58.6687 140.424 58.5308C139.616 58.2231 138.817 57.8953 138.004 57.6075C137.474 57.4197 136.925 57.2858 136.385 57.1239C136.069 57.03 135.709 57 135.45 56.8221C133.609 55.5711 131.673 54.4419 130.182 52.7352C129.32 51.748 128.615 50.6848 128.137 49.4517C127.779 48.5284 127.236 47.6811 126.84 46.7698C126.632 46.2921 126.55 45.7565 126.44 45.2389C126.211 44.1677 125.999 43.0946 125.783 42.0194C125.737 41.7935 125.675 41.5617 125.681 41.3359C125.709 40.2747 125.777 39.2135 125.797 38.1503C125.823 36.8073 125.969 35.5003 126.61 34.2832C126.792 33.9375 126.914 33.5398 126.97 33.1521C127.342 30.5721 128.487 28.3757 130.192 26.4372C130.473 26.1175 130.729 25.7557 130.909 25.372C131.335 24.4727 132.06 23.7632 132.924 23.5434C133.735 23.3376 134.394 22.8919 135.156 22.6321C135.667 22.4582 136.165 22.2624 136.349 21.5829C136.443 21.2352 136.931 20.9614 137.288 20.7275C139.011 19.5944 140.878 18.825 142.96 18.7151C144.421 18.6371 145.884 18.6271 147.347 18.5772C147.81 18.5612 148.308 18.6151 148.73 18.4653C149.481 18.1995 150.162 18.3633 150.88 18.5432C153.51 19.2007 156.022 20.14 158.352 21.5509C159.761 22.4043 160.99 23.4675 162.145 24.6226C163.58 26.0575 165.107 27.4245 166.16 29.1851C166.738 30.1504 167.242 31.1716 167.659 32.2148C168.129 33.3839 168.437 34.617 168.866 35.8041C169.096 36.4396 169.096 37.0212 168.838 37.6387C168.497 38.4601 168.227 39.3194 167.459 39.913C167.058 39.6452 167.1 39.2515 167.068 38.9117C166.962 37.7866 166.906 36.6555 166.786 35.5303C166.74 35.1106 166.604 34.6889 166.442 34.2952C166.14 33.5598 165.799 32.8403 165.457 32.1229C165.369 31.937 165.211 31.7851 164.999 31.6592C165.017 32.9243 165.889 33.9455 166.012 35.3904C165.397 34.587 164.969 33.9495 164.791 33.1181C164.617 32.3127 164.292 31.5373 163.986 30.7659C163.87 30.4761 163.624 30.2363 163.384 29.9006C163.682 29.289 163.362 28.7674 162.927 28.2159C161.746 26.723 160.573 25.2341 158.83 24.3408C157.853 23.8392 156.855 23.3715 155.904 22.828C153.946 21.7088 151.747 21.2571 149.647 20.5337C148.484 20.134 147.259 20.2059 146.084 20.3938C144.223 20.6936 142.382 21.1292 140.542 21.5409C140.128 21.6329 139.662 21.7688 139.361 22.0425C138.617 22.716 137.732 23.0398 136.815 23.3436C135.833 23.6673 135.04 24.1669 134.684 25.2561C134.518 25.7637 134.099 26.2334 133.689 26.6051C132.36 27.8102 131.441 29.313 130.495 30.7999C130.232 31.2156 129.882 31.5573 129.572 31.921C129.009 32.5845 128.657 33.4479 128.303 34.2653C128.039 34.8748 128.063 35.5303 128.125 36.2178C128.261 37.7366 128.283 39.2715 128.257 40.7983C128.237 41.9814 128.359 43.1185 128.755 44.2317C129.064 45.109 129.202 46.0803 129.662 46.8677C130.543 48.3825 131.355 49.9653 132.64 51.2084C132.808 51.3703 132.972 51.5361 133.121 51.716C135.264 54.2761 138.17 55.649 141.157 56.9001C142.632 57.5176 144.199 57.5296 145.748 57.6715C146.309 57.7234 146.877 57.7334 147.441 57.7474C148.374 57.7714 149.303 57.7854 150.17 57.3317C150.454 57.1839 150.798 56.8681 151.07 57.3777C151.567 57.1998 152.175 57.1459 152.539 56.8181C153.25 56.1786 154.066 55.7709 154.903 55.3612C155.58 55.0275 156.234 54.6458 156.899 54.2861C156.929 54.2701 156.953 54.2401 156.983 54.2321C158.78 53.8264 159.771 52.3136 161.068 51.2284C161.33 51.0085 161.702 51.0445 161.846 50.8786C162.229 50.435 162.517 49.8994 162.789 49.3738C162.951 49.058 163.021 48.6943 163.119 48.3466C163.181 48.1247 163.326 47.8429 163.247 47.6791C162.773 46.7058 163.504 46.0103 163.692 45.135C164.657 46.1842 164.639 46.9856 163.484 49.3778C164.034 49.0161 164.028 48.9981 164.39 48.3466C165.309 46.6858 165.691 44.8672 165.98 43.0186C166.108 42.2032 166.244 41.3899 166.572 40.5685C166.634 40.9982 166.728 41.4238 166.756 41.8555C166.934 44.6694 166.28 47.2394 164.675 49.6036C163.079 51.9558 161.37 54.2001 159.244 56.0927C158.228 56.996 157.179 57.8813 155.784 58.1811C155.594 58.2211 155.416 58.335 155.245 58.4369C153.88 59.2463 152.397 59.8738 150.846 59.9737C148.252 60.1416 145.656 60.6732 143.036 60.1376C140.812 59.682 138.639 59.0804 136.573 58.1291C136.459 58.0812 136.359 58.0032 136.253 57.9393Z" fill="#333945"/>
<path d="M159.501 35.5944C159.294 35.7643 159.032 35.9761 158.66 36.2799C158.548 35.7763 158.474 35.4445 158.354 34.9029C158.112 35.5684 158.254 36.0401 158.348 36.4777C158.5 37.1952 158.344 37.7768 157.847 38.3063C157.309 38.8799 156.923 39.6134 156.07 39.8272C154.651 40.1809 153.37 40.2349 152.053 39.2556C150.804 38.3263 150.32 37.1952 150.426 35.7803C150.484 35.0149 150.81 34.2594 151.088 33.526C151.22 33.1762 151.449 32.8285 151.965 32.8465C152.129 32.8525 152.301 32.5927 152.471 32.4548C152.721 32.2509 152.946 31.9192 153.226 31.8652C154.825 31.5515 156.356 31.5475 157.701 32.7466C158.534 33.494 159.286 34.2414 159.501 35.5944Z" fill="#333945"/>
<path d="M142.474 36.0743C142.418 35.7346 142.362 35.3929 142.306 35.0531C142.252 35.0591 142.196 35.0671 142.142 35.0731C142.172 35.3229 142.202 35.5727 142.23 35.8205C142.26 36.0823 142.256 36.3541 142.32 36.6079C142.47 37.2135 142.322 37.7391 141.896 38.1668C141.303 38.7643 140.929 39.6037 139.988 39.8295C138.567 40.1712 137.264 40.2592 135.969 39.2579C135.084 38.5744 134.512 37.829 134.408 36.7618C134.288 35.5308 134.382 34.3197 135.178 33.2765C135.218 33.2245 135.236 33.1206 135.279 33.1106C136.383 32.8448 136.938 31.3579 138.331 31.7436C140.368 31.3659 141.607 32.6549 142.828 33.934C143.064 34.1798 143.15 34.5795 143.273 34.9192C143.553 35.6926 143.413 35.8965 142.474 36.0743Z" fill="#333945"/>
<path d="M140.718 47.7052C140.944 47.6712 141.135 47.6432 141.385 47.6052C141.341 47.3714 141.295 47.1376 141.241 46.8478C141.395 46.8678 141.499 46.8538 141.563 46.8978C141.669 46.9717 141.803 47.0676 141.831 47.1795C142.105 48.2467 142.85 48.9182 143.702 49.5258C143.831 49.6177 143.847 49.8675 143.943 50.1113C144.545 50.1113 145.204 50.0953 145.864 50.1153C146.503 50.1353 147.065 49.9475 147.672 49.7456C148.632 49.4278 149.189 48.7564 149.709 48.0249C150.001 47.6132 150.099 47.0656 150.298 46.54C150.542 46.54 150.798 46.54 151.11 46.54C151.11 46.7519 151.078 46.9417 151.12 47.1116C151.156 47.2535 151.28 47.3754 151.33 47.4493C151.1 47.8311 150.916 48.2088 150.666 48.5365C150.314 49.0022 149.937 49.4518 149.529 49.8695C149.171 50.2372 148.76 50.555 148.366 50.8887C148.292 50.9507 148.174 51.0386 148.104 51.0186C147.395 50.8208 146.829 51.4103 146.15 51.3584C145.488 51.3104 144.791 51.4043 144.175 51.2165C143.534 51.0206 142.96 50.583 142.381 50.2133C141.693 49.7736 141.155 49.23 141.181 48.3087C141.183 48.1468 140.926 47.9709 140.718 47.7052Z" fill="#333945"/>
<path d="M53.4702 86.7373C53.3883 86.2916 53.3043 85.9779 53.2763 85.6581C53.1784 84.565 53.1145 83.4698 53.0046 82.3786C52.9646 81.9869 52.8727 81.5872 52.7248 81.2255C52.397 80.4281 52.0293 79.6467 51.6536 78.8693C51.5696 78.6954 51.3818 78.5735 51.2419 78.4276C51.1779 78.4676 51.114 78.5056 51.048 78.5455C51.4737 79.7047 51.8994 80.8658 52.3231 82.0249C51.6676 81.4713 51.1999 80.8518 51.056 80.0104C50.8542 78.8273 50.3925 77.7342 49.6271 76.665C49.9289 76.0994 49.6711 75.6018 49.1974 75.0942C48.3821 74.2228 47.7385 73.1556 46.8232 72.4182C45.7221 71.5309 44.4151 70.8993 43.19 70.1659C42.9622 70.03 42.6984 69.9541 42.4745 69.8142C40.5 68.5731 38.2298 68.1155 36.0594 67.394C34.9023 67.0103 33.7172 67.0283 32.5061 67.1702C30.5996 67.394 28.735 67.7917 26.8864 68.2773C26.075 68.4912 25.3376 68.8469 24.694 69.4125C24.4342 69.6403 24.0565 69.7462 23.7208 69.8741C23.2252 70.066 22.7155 70.2199 22.2199 70.4077C21.6943 70.6076 21.3906 70.9993 21.1387 71.5089C20.819 72.1564 20.4593 72.8299 19.9536 73.3275C18.7326 74.5286 17.7213 75.8716 16.83 77.3225C16.4883 77.88 15.9747 78.3477 15.6309 78.8673C14.8036 80.1183 14.0681 81.4233 14.3439 83.1161C14.5877 84.6109 14.4598 86.1657 14.5378 87.6906C14.5857 88.6159 14.6117 89.5592 14.8195 90.4525C15.563 93.6421 17.2817 96.2781 19.464 98.6902C20.861 100.235 22.5497 101.316 24.3303 102.266C25.6713 102.981 27.1202 103.519 28.5611 104.014C29.2966 104.266 30.1219 104.28 30.9113 104.35C32.0365 104.45 33.1656 104.57 34.2908 104.55C34.9702 104.538 35.6457 104.272 36.3232 104.126C36.673 104.05 37.0167 103.607 37.3824 104.096C37.8481 103.938 38.4496 103.912 38.7554 103.599C39.5588 102.773 40.604 102.431 41.5692 101.926C42.0369 101.68 42.5025 101.428 42.9662 101.172C43.0821 101.108 43.178 100.98 43.2999 100.957C44.9806 100.629 45.832 99.1419 47.105 98.2446C47.3928 98.0427 47.4907 97.5291 48.0063 97.725C48.3401 97.1974 48.7038 96.6878 48.9956 96.1382C49.1775 95.7964 49.2474 95.3947 49.3733 95.021C49.4872 94.6833 49.7131 94.3575 49.3353 94.0218C49.2554 93.9518 49.2674 93.712 49.3134 93.5781C49.4992 93.0505 49.715 92.5329 49.9289 91.9873C50.6803 93.0745 51.084 92.5229 49.8769 95.9663C50.4305 95.5306 50.9961 94.6213 51.3478 93.4422C51.6516 92.423 51.9254 91.3918 52.1372 90.3506C52.3431 89.3473 52.455 88.3241 52.6848 87.3169C53.2184 89.735 53.0505 92.1032 52.0253 94.3575C51.068 96.4619 49.6511 98.2845 48.1682 100.037C47.3129 101.048 46.3556 101.982 45.3923 102.895C44.3751 103.862 43.23 104.624 41.853 105.055C40.8118 105.381 39.8565 105.971 38.8273 106.338C37.8281 106.696 36.7909 106.97 35.6977 106.76C35.5098 106.724 35.296 106.764 35.1061 106.812C32.5421 107.474 30.002 107.166 27.5059 106.516C25.9351 106.107 24.4163 105.493 22.8774 104.961C22.7635 104.922 22.6716 104.816 22.5856 104.694C24.3003 105.071 25.9031 105.969 27.7597 105.647C27.2981 105.505 26.8304 105.375 26.3748 105.219C25.7772 105.015 25.1897 104.782 24.5921 104.576C23.9066 104.342 23.2132 104.126 22.5237 103.9C22.2099 103.796 21.8542 103.75 21.5984 103.565C20.0935 102.473 18.5707 101.398 17.1358 100.217C15.9427 99.2358 15.0973 97.9628 14.4798 96.5259C14.0261 95.4687 13.7224 94.3415 12.969 93.4043C12.6912 93.0585 12.7311 92.453 12.6352 91.9653C12.4314 90.9221 12.2355 89.8769 12.0337 88.8337C11.9957 88.6379 11.9098 88.44 11.9197 88.2482C12.0277 86.3236 12.1516 84.4011 12.2715 82.4785C12.2735 82.4446 12.2695 82.4066 12.2835 82.3806C13.3946 80.4701 13.2787 78.1518 14.4059 76.2133C15.1113 75.0002 15.7229 73.7632 16.7661 72.7939C16.9559 72.618 17.1338 72.3782 17.2057 72.1364C17.4835 71.2051 18.2529 70.6335 19.0164 70.4057C19.7738 70.1799 20.4333 69.7862 21.1587 69.5284C21.7563 69.3165 22.4418 69.1747 22.5717 68.3413C22.5996 68.1634 22.8854 68.0135 23.0713 67.8776C24.732 66.6626 26.5247 65.8432 28.6211 65.5934C30.2818 65.3935 31.9306 65.2876 33.5953 65.2796C34.2228 65.2756 34.8503 65.1617 35.4779 65.1237C35.8036 65.1057 36.1434 65.0958 36.4571 65.1697C39.5528 65.8991 42.5525 66.8984 45.1745 68.749C46.3636 69.5883 47.4747 70.5596 48.518 71.5748C49.6831 72.708 50.7702 73.931 51.8214 75.1721C52.9106 76.4571 53.5981 77.964 54.0518 79.5927C54.3535 80.6779 54.8232 81.7151 55.1369 82.7963C55.4927 84.0014 54.7073 85.882 53.4702 86.7373Z" fill="#333945"/>
<path d="M0.0633468 103.493C1.00125 104.806 1.51181 106.664 2.76776 108.186C4.22986 109.945 6.14004 111.741 7.61046 113.214C8.84274 113.334 9.29561 114.715 10.415 114.578C11.128 113.011 9.36391 112.931 8.61547 112.409C8.33483 112.22 8.17462 111.781 7.82817 111.458C7.48173 111.135 7.08971 111.118 6.81826 110.89C6.16301 110.329 5.53398 109.273 4.79396 108.493C4.03952 107.776 3.35819 106.983 2.76042 106.125C2.03742 104.888 1.81724 103.334 0.508026 102.575C0.219274 102.729 -0.143082 103.179 0.0633468 103.493Z" fill="#333945"/>
<path d="M4.66278 99.5427C5.763 101.304 7.01595 102.972 8.40816 104.528C10.2271 107.039 12.5651 109.158 15.2747 110.752C15.4526 111.301 15.8477 111.75 16.5197 111.468C17.0411 109.576 14.6577 109.055 13.5153 108.109C11.1787 106.168 9.59638 103.814 7.64157 101.522C7.32966 101.163 5.55823 98.0298 5.13374 98.0413C4.3989 98.1339 4.40203 99.0137 4.66278 99.5427Z" fill="#333945"/>
<path d="M28.719 82.868C28.6491 82.5323 28.5811 82.1985 28.5112 81.8648C28.4612 81.8708 28.4092 81.8768 28.3593 81.8828C28.4172 82.4124 28.4912 82.94 28.5251 83.4716C28.5451 83.7633 28.6011 84.1191 28.4652 84.3409C27.8976 85.2742 27.3141 86.2235 26.2029 86.6192C25.1297 87.0029 23.9946 87.0448 22.9894 86.5812C22.2799 86.2534 21.6324 85.6319 21.1607 84.9904C20.5132 84.1091 20.3893 83.0299 20.6691 81.9507C20.809 81.4131 20.9729 80.8715 21.2007 80.3679C21.3846 79.9602 21.5964 79.5146 22.2 79.5585C22.3239 79.5685 22.5197 79.4206 22.5837 79.2947C22.9314 78.6112 23.5589 78.5933 24.1984 78.5273C25.0658 78.4374 25.9211 78.3714 26.7145 78.8211C27.9396 79.5166 29.0827 80.288 29.5104 81.7589C29.7242 82.4823 29.6363 82.6462 28.719 82.868Z" fill="#333945"/>
<path d="M45.8077 82.3104C45.5299 82.5302 45.2441 82.7561 44.8624 83.0558C44.7545 82.5502 44.6826 82.2145 44.6106 81.8767C44.5647 81.8827 44.5167 81.8887 44.4707 81.8967C44.5267 82.4583 44.5786 83.0199 44.6426 83.5794C44.6986 84.0671 44.5986 84.4867 44.2449 84.8605C43.6154 85.526 43.1857 86.3993 42.1905 86.6671C41.1333 86.9509 40.0421 87.0508 39.0728 86.5851C38.3634 86.2454 37.6619 85.6658 37.2362 85.0123C36.6587 84.129 36.4428 83.0558 36.7546 81.9666C36.8985 81.461 36.9944 80.9314 37.2102 80.4578C37.4061 80.0281 37.6119 79.5265 38.2614 79.5605C38.3854 79.5665 38.5632 79.4126 38.6392 79.2847C39.0169 78.6492 39.6364 78.6292 40.2739 78.5213C41.8967 78.2455 43.1437 78.849 44.3408 79.8922C45.0943 80.5477 45.416 81.3651 45.8077 82.3104Z" fill="#333945"/>
<path d="M41.2273 96.128C41.5011 96.2519 41.8369 96.4058 42.2445 96.5897C41.7349 97.0213 41.3133 96.9334 40.7757 96.5717C40.9535 97.1872 41.0894 97.6609 41.2253 98.1345C41.1574 98.1785 41.0894 98.2204 41.0215 98.2644C40.7557 98.0006 40.276 97.7448 40.264 97.471C40.2141 96.3698 39.3427 95.8223 38.8052 95.0588C38.2416 94.2574 37.4342 93.7378 36.409 93.3202C36.7127 93.2242 36.9246 93.1563 37.3023 93.0364C36.9785 92.8685 36.7507 92.6487 36.6128 92.6966C35.5976 93.0444 34.6003 92.7726 33.6011 92.6627C32.5659 92.5487 31.5826 92.6087 30.7093 93.2542C30.2996 93.556 29.8699 93.7478 29.3443 93.3361C29.1945 94.0056 28.7288 94.2774 28.3351 94.6611C27.5437 95.4326 26.5844 96.178 26.4465 97.437C26.4066 97.7968 26.2927 98.1485 26.2087 98.5302C25.6971 98.5302 25.1955 98.5302 24.56 98.5302C24.7139 98.1984 24.8298 98.0106 24.8877 97.8067C24.9457 97.5969 24.9457 97.3711 24.9916 96.9674C24.7039 97.1952 24.554 97.3131 24.3421 97.481C24.1982 96.9454 24.546 96.6556 24.8398 96.5477C25.3674 96.3559 25.4853 95.9681 25.6012 95.5205C25.6671 95.2687 25.6971 94.9289 25.869 94.797C26.8982 94.0156 27.6077 92.8485 28.8587 92.3349C28.9886 92.2809 29.0985 92.1311 29.1765 92.0012C29.5981 91.3037 30.1337 91.0679 30.8732 91.3397C31.3088 91.4995 31.5906 91.4476 31.9104 91.0739C32.0903 90.864 32.48 90.7641 32.7837 90.7441C33.3413 90.7061 33.9069 90.7841 34.4684 90.7781C36.395 90.7541 37.9958 91.4796 39.3507 92.8245C39.6165 93.0883 40.0022 93.2302 40.278 93.488C40.5298 93.7238 40.7976 94.0096 40.8956 94.3254C41.0654 94.883 41.1134 95.4745 41.2273 96.128Z" fill="#333945"/>
<path d="M24.5199 75.4819C25.3473 76.1115 25.9848 76.687 26.8622 76.8429C27.7015 76.9908 28.5329 77.1826 29.3802 77.3565C29.6141 77.976 29.0425 78.0999 28.8167 78.2938C27.8054 78.1399 26.8741 78.016 25.9508 77.8501C25.6051 77.7882 25.2514 77.6683 24.9476 77.4944C24.3561 77.1567 24.3101 76.9648 24.458 76.2134C24.492 76.0335 24.49 75.8497 24.5199 75.4819Z" fill="#333945"/>
<path d="M35.9692 76.7671C37.9457 77.0409 39.3487 75.9897 40.8435 75.1963C41.2652 75.7818 41.2472 76.1496 40.7656 76.4394C39.9862 76.907 39.2008 77.3607 38.4134 77.8143C38.2435 77.9122 38.0616 78.0102 37.8738 78.0541C36.9185 78.282 36.6747 78.1281 35.9692 76.7671Z" fill="#333945"/>
<path d="M89.9756 40.3989C91.7362 40.7746 93.331 41.6299 95.1816 41.3342C94.9158 41.2422 94.65 41.1543 94.3862 41.0584C93.4849 40.7246 92.5876 40.3749 91.6803 40.0551C91.1826 39.8793 90.663 39.7594 90.1594 39.5995C89.7198 39.4596 89.2341 39.3777 88.8624 39.1318C87.7013 38.3604 86.5362 37.581 85.465 36.6937C84.6016 35.9762 83.8042 35.1529 83.1068 34.2735C82.5792 33.61 82.2434 32.7907 81.8497 32.0272C81.3641 31.088 80.8965 30.1367 80.4388 29.1834C80.3269 28.9496 80.2689 28.6838 80.217 28.426C79.9332 27.059 79.6594 25.6901 79.3816 24.3211C79.3616 24.2232 79.3117 24.1252 79.3157 24.0313C79.3896 22.2727 79.4815 20.514 79.5415 18.7553C79.5695 17.918 80.0771 17.2685 80.3309 16.521C80.4268 16.2392 80.5867 15.9614 80.6027 15.6757C80.7326 13.4573 81.8817 11.6567 82.9749 9.83809C83.2107 9.44639 83.5864 9.13863 83.8882 8.78489C84.08 8.55906 84.3358 8.34123 84.4178 8.07543C84.6956 7.17212 85.415 6.68849 86.1025 6.16688C86.2584 6.04697 86.4582 5.87111 86.6201 5.88909C87.4195 5.97703 87.9471 5.38348 88.6066 5.13566C89.2042 4.91183 89.8317 4.70999 90.0295 3.92858C90.0955 3.66678 90.4912 3.47293 90.761 3.27907C92.5616 1.98206 94.5821 1.2746 96.7864 1.12071C98.1474 1.02479 99.5123 1.0128 100.873 0.94085C101.567 0.904877 102.258 0.804953 102.952 0.758988C103.243 0.741002 103.551 0.746997 103.835 0.812947C106.939 1.52241 109.898 2.60359 112.564 4.36825C113.418 4.93382 114.189 5.63728 114.931 6.34874C116.204 7.56982 117.471 8.80288 118.65 10.1119C119.769 11.3529 120.602 12.8058 121.176 14.3806C121.677 15.7536 122.133 17.1445 122.555 18.5455C122.895 19.6726 122.063 21.6012 120.936 22.3066C120.856 22.0108 120.744 21.7451 120.718 21.4693C120.614 20.3781 120.536 19.2829 120.448 18.1898C120.432 17.9899 120.466 17.7721 120.394 17.5962C119.931 16.4651 119.451 15.3399 118.962 14.2208C118.918 14.1208 118.776 14.0649 118.582 13.909C118.524 14.1708 118.412 14.3647 118.462 14.4986C118.634 14.9642 118.862 15.4099 119.065 15.8655C119.317 16.4271 119.641 16.9687 119.567 17.7621C119.002 16.9567 118.526 16.3072 118.43 15.3699C118.32 14.2867 117.928 13.2475 117.023 12.4081C117.373 11.5948 116.881 10.9972 116.37 10.3617C115.428 9.19458 114.565 7.95153 113.234 7.18811C112.255 6.62653 111.207 6.18087 110.232 5.6153C107.876 4.24634 105.284 3.52689 102.674 2.88737C101.889 2.69552 101.027 2.80743 100.2 2.79344C100.036 2.79144 99.872 2.86339 99.7082 2.87138C97.9135 2.96132 96.2088 3.50091 94.4781 3.9086C93.9366 4.0365 93.321 4.18439 92.9253 4.53412C92.094 5.26557 91.0907 5.55135 90.1035 5.91307C89.2821 6.21285 88.7205 6.72246 88.3768 7.57781C88.139 8.16936 87.6633 8.70096 87.1957 9.15861C85.9706 10.3577 85.0233 11.7526 84.156 13.2155C83.9701 13.5273 83.7823 13.867 83.5105 14.0949C82.3633 15.0581 81.9856 16.3851 81.6879 17.7581C81.6599 17.884 81.6659 18.0279 81.6958 18.1538C82.1015 19.9324 81.9297 21.7351 81.9017 23.5277C81.8817 24.7448 82.1235 25.8979 82.4693 27.055C83.5504 30.6903 85.8107 33.5421 88.5806 35.9762C89.7317 36.9875 91.2286 37.607 92.5836 38.3784C93.0732 38.6562 93.6108 38.8481 94.1224 39.0899C95.6912 39.8273 97.3879 39.9272 99.0727 40.0831C99.7661 40.1471 100.468 40.243 101.159 40.201C101.978 40.1511 102.794 39.9872 103.603 39.8353C104.003 39.7614 104.371 39.2737 104.796 39.7774C105.264 39.6175 105.883 39.5915 106.173 39.2697C106.999 38.3504 108.156 38.0727 109.151 37.4931C109.577 37.2453 110.018 37.0215 110.45 36.7836C110.538 36.7357 110.608 36.6417 110.7 36.6198C112.454 36.2101 113.404 34.7112 114.691 33.668C114.889 33.5081 114.981 33.1004 115.376 33.3862C115.402 33.4042 115.578 33.2463 115.662 33.1504C116.364 32.347 116.497 31.2958 116.879 30.3525C116.915 30.2646 116.931 30.1347 116.891 30.0587C116.392 29.0975 117.175 28.42 117.347 27.5047C118.658 29.0575 117.695 30.3865 117.321 31.8194C117.533 31.5156 117.772 31.2278 117.95 30.9041C118.872 29.2174 119.347 27.3888 119.621 25.5002C119.707 24.9067 119.773 24.3111 119.865 23.7196C119.909 23.4378 119.993 23.162 120.127 22.8982C120.778 25.8599 120.362 28.6718 118.802 31.2438C117.245 33.8099 115.436 36.1961 113.198 38.2305C112.033 39.2897 110.834 40.257 109.275 40.7027C108.739 40.8545 108.266 41.2123 107.746 41.4321C106.271 42.0556 104.788 42.6132 103.124 42.4353C102.616 42.3814 102.08 42.5872 101.557 42.6752C99.3444 43.0429 97.1601 42.7651 95.0297 42.2055C93.395 41.7758 91.8142 41.1403 90.2114 40.5907C90.1115 40.5608 90.0475 40.4648 89.9756 40.3989Z" fill="#333945"/>
<path d="M96.1049 18.5435C96.0469 18.1458 96.0009 17.8341 95.955 17.5243C95.897 17.5303 95.8391 17.5343 95.7811 17.5403C95.8411 18.0639 95.877 18.5935 95.971 19.1111C96.0669 19.6427 95.961 20.0924 95.5953 20.4901C95.3494 20.7599 95.0956 21.0296 94.8958 21.3334C94.5241 21.895 93.9925 22.2088 93.3689 22.3626C92.3517 22.6124 91.2825 22.6764 90.3472 22.2267C89.6638 21.899 89.0003 21.3414 88.5706 20.7199C87.9551 19.8326 87.8431 18.7374 88.071 17.6662C88.1989 17.0627 88.4347 16.4791 88.6605 15.9015C88.8084 15.5218 89.0422 15.2141 89.5359 15.2261C89.6698 15.2301 89.8636 15.1002 89.9316 14.9782C90.3173 14.2968 90.9588 14.2448 91.6403 14.1788C92.5076 14.0929 93.357 14.021 94.1464 14.4786C95.3315 15.1701 96.4386 15.9335 96.9063 17.3325C97.1641 18.1139 97.0981 18.2598 96.1049 18.5435Z" fill="#333945"/>
<path d="M111.979 18.5715C112.147 20.6959 110.592 22.4106 108.505 22.4785C108.273 22.4865 108.04 22.5105 107.808 22.5045C105.564 22.4485 103.585 20.1843 104.073 17.7641C104.249 16.8908 104.448 16.0134 105.194 15.3C105.589 15.296 105.995 15.1761 106.259 14.6964C106.369 14.4966 106.671 14.3267 106.91 14.2847C108.613 13.979 110.222 14.0929 111.553 15.3939C112.143 15.9715 112.802 16.4471 112.946 17.3764C113.07 18.1918 112.934 18.4736 111.979 18.5715ZM111.963 17.3264C111.897 17.3464 111.831 17.3684 111.765 17.3884C111.813 17.5962 111.861 17.8021 111.909 18.0099C111.961 17.9999 112.015 17.9899 112.067 17.9779C112.033 17.7621 111.999 17.5443 111.963 17.3264Z" fill="#333945"/>
<path d="M108.124 29.4333C107.586 29.751 106.98 29.4493 106.885 30.1567C107.038 30.1987 107.206 30.2447 107.574 30.3466C107.376 30.4345 107.294 30.4945 107.206 30.5065C106.551 30.5964 106.047 30.7803 105.877 31.5737C105.767 32.0833 105.318 32.437 104.682 32.439C104.005 32.443 103.331 32.8327 102.652 32.451C102.494 32.3611 102.348 32.2491 102.19 32.1612C102.032 32.0753 101.852 31.9194 101.706 31.9454C101.025 32.0593 100.753 31.6516 100.509 30.9661C99.9818 31.6116 99.5161 32.1892 99.0445 32.7608C98.2971 33.6681 96.1347 34.5494 94.6438 33.5801C94.5159 33.4962 94.3381 33.4342 94.1902 33.4462C93.4587 33.5082 93.2109 33.0445 93.037 32.459C92.9031 32.0073 92.7293 31.5657 92.5434 31.0381C92.6573 30.9421 92.8392 30.7863 93.087 30.5744C92.7293 30.4045 92.4515 30.2706 92.1577 30.1308C92.7752 29.5632 93.0331 29.5932 93.5347 30.1487C93.9983 30.6623 94.482 31.164 95.0016 31.6156C95.671 32.1972 96.4085 32.0093 97.2019 31.6116C97.1259 31.9114 97.074 32.1192 97.02 32.3251C97.058 32.3651 97.096 32.403 97.1319 32.443C97.2958 32.2871 97.5077 32.1572 97.6116 31.9674C97.7355 31.7415 97.7555 31.4637 97.8394 31.2139C98.2511 29.9669 99.7619 29.2754 100.997 29.747C101.391 29.8969 101.82 29.9589 102.206 30.1248C102.606 30.2946 102.95 30.5564 102.79 31.17C103.081 31.082 103.271 30.9621 103.443 30.9841C104.464 31.122 104.978 30.4305 105.244 29.6871C105.576 28.7558 106.431 28.5939 107.076 28.1263C107.164 28.0623 107.498 28.1742 107.574 28.2941C107.796 28.6419 107.94 29.0356 108.124 29.4333Z" fill="#333945"/>
<path d="M111.962 17.3264C111.996 17.5443 112.032 17.7621 112.066 17.9799C112.014 17.9899 111.961 17.9999 111.909 18.0119C111.861 17.8041 111.813 17.5982 111.765 17.3904C111.831 17.3684 111.897 17.3464 111.962 17.3264Z" fill="white"/>
<path d="M157.813 11.8656C157.65 11.8656 157.617 11.9925 157.487 12.0242C157.368 14.4873 160.745 14.1913 162.341 14.8573C164.871 15.9144 167.466 18.3458 169.616 19.7412C171.951 21.2424 174.644 21.8555 175.437 24.4561C175.437 25.9466 176.056 27.4583 177.381 27.1306C178.401 24.8578 176.295 22.0247 174.796 20.6821C173.298 19.3395 170.898 18.3353 169.008 16.8976C165.789 14.6167 162.178 12.9127 158.345 11.8656C158.236 11.6013 158.095 11.8973 157.813 11.8656Z" fill="#333945"/>
<path d="M165.906 13.2857C166.439 13.8224 167.689 13.5652 168.653 13.6211C169.759 14.9405 171.563 15.3765 173.08 16.6176C174.596 17.8587 175.754 21.2689 177.65 19.6141C176.256 16.0921 171.963 14.292 169.114 11.7875C167.597 11.7763 165.23 11.4297 165.906 13.2857Z" fill="#333945"/>
<path fill-rule="evenodd" clip-rule="evenodd" d="M96.7901 87.6307C93.1404 88.9734 90.3152 91.28 88.3786 94.6854C85.9236 98.9005 85.7096 103.26 88.0991 107.461C90.4551 111.609 94.1468 114.221 98.9257 114.826C101.551 115.157 104.367 115.456 106.614 113.383C107.236 112.81 107.819 112.196 108.403 111.582C108.925 111.033 109.447 110.483 109.997 109.964C114.252 105.938 114.809 101.092 113.305 95.7467C113.136 95.1382 112.936 94.4005 113.125 93.8526C113.75 92.0425 114.519 90.2809 115.286 88.522L115.291 88.5099C115.889 87.1398 116.503 85.7765 117.117 84.4131C117.755 82.9959 118.393 81.5786 119.013 80.1535C119.78 78.3891 120.495 76.6022 121.187 74.8087C121.75 73.3469 122.3 71.8798 122.849 70.413C123.906 67.5897 124.963 64.767 126.119 61.9833C126.176 61.8464 126.23 61.7167 126.282 61.5936C127.24 59.3053 127.249 59.283 124.831 57.893C124.623 57.7736 124.403 57.6735 124.183 57.5731C124.006 57.4926 123.829 57.4119 123.657 57.3211C122.562 56.7404 121.61 56.6748 120.695 57.7583C119.928 58.6654 119.13 59.5461 118.332 60.4265C117.435 61.4176 116.537 62.4082 115.684 63.4355C115.526 63.6254 115.368 63.8152 115.21 64.0051C112.639 67.0981 110.065 70.194 107.652 73.4096C106.19 75.3584 104.829 77.3831 103.468 79.4075C102.674 80.589 101.88 81.7704 101.066 82.9365C100.141 84.2612 99.1504 85.5416 98.1192 86.7816C97.7987 87.17 97.2763 87.4526 96.7901 87.6307ZM113.018 87.3678C112.352 88.9043 111.661 90.4993 110.929 92.1929C108.296 88.8444 105.028 87.8772 101.221 87.1865C101.562 86.6552 101.887 86.1405 102.205 85.639C102.929 84.4935 103.61 83.4164 104.33 82.3649C104.787 81.6994 105.292 81.0661 105.798 80.4326C106.067 80.0948 106.337 79.7569 106.599 79.4141C107.78 77.8665 108.96 76.318 110.139 74.7695C112.264 71.9805 114.388 69.1914 116.522 66.4078C117.328 65.3586 118.155 64.3281 118.983 63.2974C119.356 62.8322 119.73 62.3669 120.101 61.8999C120.139 61.8514 120.173 61.7946 120.207 61.7378C120.276 61.6218 120.344 61.5063 120.445 61.4642C121.094 61.1896 121.753 60.9373 122.411 60.6852C122.612 60.6085 122.812 60.5319 123.012 60.4547C122.994 60.7263 122.995 61.005 122.996 61.2838C122.998 61.8959 123 62.5085 122.804 63.0475C121.194 67.4629 119.499 71.85 117.798 76.2302C117.348 77.3914 116.848 78.534 116.348 79.6762C116.176 80.0702 116.004 80.464 115.834 80.8586C114.915 82.9868 113.994 85.1144 113.018 87.3678ZM99.9525 112.584C106.176 112.584 111.222 107.539 111.222 101.315C111.222 95.0914 106.176 90.046 99.9525 90.046C93.7288 90.046 88.6834 95.0914 88.6834 101.315C88.6834 107.539 93.7288 112.584 99.9525 112.584Z" fill="#333945"/>
</svg>
