<svg width="270" height="82" viewBox="0 0 270 82" fill="none" xmlns="http://www.w3.org/2000/svg">
<path d="M266.406 -3.56846e-05L256.228 3.95979C256.163 3.98432 256.104 4.0215 256.053 4.06915C256.003 4.1168 255.963 4.17398 255.935 4.23735C255.907 4.30073 255.892 4.36904 255.89 4.43832C255.889 4.50759 255.901 4.57645 255.927 4.64088L258.824 12.0537C258.848 12.1185 258.885 12.1777 258.933 12.228C258.981 12.2783 259.038 12.3187 259.101 12.3467C259.164 12.3747 259.233 12.3898 259.302 12.3912C259.371 12.3925 259.44 12.3801 259.504 12.3546L269.683 8.39479C269.748 8.37025 269.807 8.33307 269.857 8.28542C269.908 8.23777 269.948 8.18059 269.976 8.11722C270.004 8.05384 270.019 7.98553 270.02 7.91626C270.022 7.84698 270.009 7.77813 269.984 7.7137L267.087 0.332589C267.066 0.264965 267.031 0.202385 266.985 0.148656C266.938 0.094928 266.882 0.051175 266.818 0.0200594C266.754 -0.0110561 266.685 -0.0288835 266.614 -0.0323382C266.543 -0.0357928 266.473 -0.0248024 266.406 -3.56846e-05ZM265.457 1.5047L262.86 6.33568L257.898 4.48248L265.457 1.5047ZM268.797 7.54738L259.615 11.1825L257.359 5.417L262.9 7.49987C263.019 7.54553 263.151 7.54575 263.271 7.5005C263.391 7.45526 263.49 7.36768 263.549 7.25436L266.501 1.78188L268.773 7.58698L268.797 7.54738Z" fill="#333945"/>
<path d="M255.555 8.96495L254.708 9.29757C254.578 9.34798 254.473 9.44806 254.416 9.57579C254.36 9.70352 254.357 9.84844 254.407 9.97866C254.457 10.1089 254.557 10.2138 254.685 10.2702C254.813 10.3266 254.958 10.33 255.088 10.2796L255.935 9.94698C256.065 9.89657 256.17 9.7965 256.226 9.66877C256.282 9.54104 256.286 9.39612 256.235 9.26589C256.185 9.13567 256.085 9.0308 255.957 8.97436C255.83 8.91792 255.685 8.91454 255.555 8.96495Z" fill="#333945"/>
<path d="M256.331 10.9607L254.075 11.8794C254.011 11.9044 253.952 11.9418 253.902 11.9895C253.852 12.0372 253.812 12.0944 253.784 12.1576C253.756 12.2209 253.741 12.289 253.739 12.3581C253.737 12.4272 253.749 12.496 253.774 12.5605C253.799 12.625 253.837 12.6839 253.884 12.7339C253.932 12.7839 253.989 12.8241 254.052 12.852C254.116 12.88 254.184 12.8952 254.253 12.8968C254.322 12.8984 254.391 12.8864 254.455 12.8614L256.742 11.9665C256.873 11.9161 256.977 11.816 257.034 11.6883C257.09 11.5606 257.094 11.4157 257.043 11.2854C256.993 11.1552 256.893 11.0503 256.765 10.9939C256.637 10.9375 256.493 10.9341 256.363 10.9845L256.331 10.9607Z" fill="#333945"/>
<path d="M254.772 6.96928L252.492 7.8642C252.362 7.91461 252.257 8.01469 252.201 8.14242C252.144 8.27015 252.141 8.41507 252.191 8.54529C252.242 8.67552 252.342 8.78038 252.469 8.83682C252.597 8.89326 252.742 8.89665 252.872 8.84624L255.159 7.91964C255.224 7.89468 255.283 7.85726 255.333 7.80953C255.383 7.76179 255.423 7.70467 255.451 7.64142C255.479 7.57818 255.494 7.51005 255.496 7.44092C255.497 7.3718 255.485 7.30303 255.46 7.23855C255.435 7.17407 255.398 7.11514 255.35 7.06511C255.302 7.01509 255.245 6.97496 255.182 6.94702C255.119 6.91907 255.051 6.90386 254.982 6.90224C254.913 6.90063 254.844 6.91264 254.779 6.9376L254.772 6.96928Z" fill="#333945"/>
<path d="M13.0441 65.3133C12.031 64.3867 10.6696 63.4047 9.13403 63.4047C7.32147 63.4047 6.88614 64.4818 6.88614 65.25C6.88614 66.5409 8.36626 66.9131 9.44272 67.1586C12.6088 67.8951 16.1468 69.2811 16.1468 74.3576C16.1468 78.6342 13.0995 81.4377 8.05758 81.4377C5.28729 81.4377 3.10272 80.5111 0 77.9927L2.85735 73.4072C4.55118 75.0387 6.42706 76.2662 8.20796 76.2662C9.31608 76.2662 10.3292 75.7435 10.3292 74.4526C10.3292 72.4806 8.48499 72.2351 6.20544 71.5303C4.47995 71.0076 1.06854 69.8038 1.06854 65.1945C1.06854 61.7178 3.59346 58.7004 8.63538 58.7004C10.9884 58.7026 13.2811 59.4451 15.1891 60.8229L13.0441 65.3133Z" fill="#333945"/>
<path d="M24.4577 59.2786H31.7792L39.441 80.8279H32.9823L31.7792 77.1057H24.4577L23.2546 80.8279H16.7959L24.4577 59.2786ZM25.6608 72.3618H30.584L28.1224 64.4422L25.6608 72.3618Z" fill="#333945"/>
<path d="M62.7589 68.3226C63.1863 73.3991 61.7458 81.4375 52.0577 81.4375C45.504 81.4375 40.1851 77.4777 40.1851 70.1996C40.1851 63.1511 44.7046 58.6606 51.5986 58.6606C58.3344 58.6606 60.8276 62.4779 61.5954 63.8955L56.2765 66.3902C55.839 65.5824 55.1832 64.914 54.3839 64.4616C53.5847 64.0092 52.6743 63.7911 51.7569 63.8322C48.9233 63.8322 46.2164 65.8358 46.2164 70.0808C46.2164 74.3257 48.8917 76.7016 51.9706 76.7016C53.0705 76.7602 54.1555 76.4274 55.0335 75.762C55.9115 75.0966 56.5257 74.1417 56.7672 73.0665H51.195V68.3147L62.7589 68.3226Z" fill="#333945"/>
<path d="M65.7427 59.2786H78.668V64.4501H71.774V67.4675H78.019V72.2193H71.774V75.6643H78.668V80.8358H65.7427V59.2786Z" fill="#333945"/>
<path d="M83.528 59.2786H89.5593L93.3427 72.4252L97.1262 59.2786H103.157L106.324 80.8279H100.522L98.9387 68.3307L95.3057 80.8279H91.4273L87.7943 68.3307L86.2112 80.8279H80.4253L83.528 59.2786Z" fill="#333945"/>
<path d="M114.167 59.2786H121.489L129.151 80.8279H122.684L121.481 77.1057H114.159L112.956 80.8279H106.498L114.167 59.2786ZM115.37 72.3618H120.309L117.848 64.4422L115.37 72.3618Z" fill="#333945"/>
<path d="M130.876 59.2786H136.932V80.8279H130.9L130.876 59.2786Z" fill="#333945"/>
<path d="M140.786 59.2786H146.817V75.6485H153.276V80.82H140.786V59.2786Z" fill="#333945"/>
<path d="M155.643 59.2786H168.592V64.4501H161.698V67.4675H167.943V72.2193H161.698V75.6643H168.592V80.8358H155.643V59.2786Z" fill="#333945"/>
<path d="M171.758 59.2786H180.678C187.873 59.2786 188.118 64.759 188.118 65.741C188.208 67.1667 187.813 68.5808 186.999 69.7539C186.184 70.927 184.997 71.7902 183.63 72.2034L189.662 80.82H182.372L177.821 73.6923V80.82H171.758V59.2786ZM179.261 68.9722C181.414 68.9722 182.095 67.7447 182.095 66.4775C182.095 65.2104 181.422 64.0145 179.261 64.0145H177.781V68.9722H179.261Z" fill="#333945"/>
<path d="M253.568 34.3871L252.935 34.2762C252.859 34.2642 252.788 34.2324 252.729 34.1842C252.67 34.136 252.624 34.073 252.597 34.0016C252.57 33.9301 252.562 33.8528 252.574 33.7773C252.586 33.7017 252.618 33.6307 252.666 33.5714L253.244 32.8428C254.71 30.9093 255.482 28.5378 255.436 26.1111C255.325 23.4617 254.504 20.8908 253.062 18.6666C252.745 18.1598 252.428 17.5737 252.088 16.9401C251.748 16.3066 251.431 15.7284 251.106 15.1741C250.843 14.6461 250.763 14.2659 250.869 14.0336C250.975 13.8013 251.291 13.6403 251.819 13.5505L252.033 13.5109C252.132 13.4924 252.223 13.4396 252.288 13.3615C252.353 13.2834 252.389 13.1849 252.389 13.0833V12.8615C252.394 12.2344 252.284 11.6116 252.064 11.0242C251.849 10.453 251.515 9.93458 251.083 9.5036L250.853 9.27393H250.529C249.867 9.32368 249.216 9.45946 248.589 9.67783C247.712 9.96399 246.966 10.5537 246.484 11.341C246.03 12.175 245.853 13.1318 245.977 14.0732C246.077 14.9899 246.295 15.8897 246.627 16.7501V16.8055C247.703 18.825 249.128 21.7236 249.318 24.1074C249.484 26.222 248.526 27.9484 245.162 28.1306H245.107L244.197 28.2494C240.848 28.6691 236.946 29.1681 235.783 30.7678C235.608 31.0029 235.487 31.2731 235.427 31.5598H235.15C233.572 31.7076 232.063 32.2765 230.78 33.2071C230.236 33.6199 229.758 34.1141 229.364 34.6722C228.392 36.1176 228.001 37.8772 228.271 39.5982C228.271 39.8042 228.303 40.0101 228.366 40.216C228.385 40.3094 228.373 40.4065 228.332 40.4923C228.29 40.5781 228.222 40.648 228.137 40.6912C225.15 42.0407 222.058 43.1451 218.892 43.9936C211.246 46.2745 204.051 48.4207 203.394 55.9365C203.389 56.0041 203.367 56.0694 203.331 56.1265C202.409 57.5199 201.787 59.0894 201.503 60.7358C201.193 62.5707 201.193 64.4446 201.503 66.2795C201.512 66.3364 201.533 66.3907 201.564 66.4395C201.594 66.4882 201.634 66.5304 201.681 66.5636C201.729 66.5967 201.782 66.6202 201.838 66.6326C201.894 66.645 201.952 66.6461 202.009 66.6359L202.524 66.5409C202.635 66.5197 202.734 66.4556 202.799 66.3624C202.864 66.2691 202.89 66.1541 202.872 66.0419C202.59 64.3668 202.59 62.6564 202.872 60.9813C202.999 60.2696 203.195 59.5719 203.458 58.8984C203.458 58.9855 203.458 59.0647 203.458 59.1519C203.827 61.19 204.6 63.1339 205.729 64.8698C206.172 65.6247 206.577 66.4018 206.94 67.1982C206.973 67.2605 206.99 67.3298 206.99 67.4002C206.99 67.4705 206.973 67.5398 206.94 67.6021C204.566 71.4115 202.729 75.0624 202.342 76.4246C201.859 77.6284 202.642 78.357 203.988 78.8005C204.895 79.0589 205.826 79.2234 206.766 79.2915C206.843 79.3001 206.916 79.3288 206.979 79.3746C207.041 79.4205 207.091 79.4819 207.122 79.5528C207.322 80.0442 207.635 80.4809 208.037 80.8266C208.439 81.1724 208.918 81.4172 209.433 81.5407L209.71 81.5961C210.569 81.7396 211.437 81.8137 212.307 81.8179C213.267 81.8238 214.227 81.7682 215.18 81.6516C216.905 81.4456 217.467 80.8596 217.404 79.9568C217.2 79.1475 216.769 78.4137 216.161 77.8422C215.524 77.1304 215.147 76.2227 215.093 75.2683C215.091 74.211 215.384 73.1741 215.94 72.2747V72.2351C216.686 71.2015 217.345 70.1074 217.911 68.9643C217.952 68.8779 218.022 68.8082 218.108 68.7663C219.24 68.2271 220.415 67.7873 221.623 67.4516C222.552 67.1899 223.503 67.0097 224.464 66.9131V67.2932C224.153 70.332 224.082 73.3905 224.251 76.4404C224.195 77.6823 224.405 78.9218 224.868 80.0756C225.406 81.1209 226.356 81.7387 228.089 81.81L228.928 81.8733C230.883 82.0317 234.311 82.3168 234.944 80.7646C235.038 80.5374 235.087 80.2938 235.087 80.0478C235.087 79.8018 235.038 79.5583 234.944 79.3311C234.726 78.8312 234.424 78.3729 234.049 77.9768C233.78 77.6625 233.569 77.3033 233.424 76.9156C233.283 76.5218 233.211 76.1065 233.21 75.6881C233.095 72.7971 233.188 69.9016 233.487 67.024L233.582 67.1507C235.363 69.5266 236.788 71.7678 237.081 72.9004C237.169 73.1839 237.227 73.4759 237.255 73.7715C237.286 74.077 237.286 74.3848 237.255 74.6902C237.218 74.9935 237.155 75.293 237.065 75.5851C236.865 76.037 236.811 76.54 236.911 77.024C237.01 77.5081 237.258 77.9491 237.619 78.2857C238.243 79.0162 239.069 79.5453 239.994 79.8063C241.141 80.1511 242.334 80.322 243.532 80.3131C244.28 80.372 245.027 80.1947 245.669 79.8063C245.949 79.6006 246.169 79.3245 246.308 79.006C246.447 78.6875 246.5 78.338 246.46 77.9927V77.8977C246.315 77.1125 246.22 76.319 246.175 75.5218C246.139 74.8375 246.16 74.1513 246.239 73.4706C246.438 72.1814 246.349 70.8641 245.977 69.6137C245.56 68.2518 244.903 66.9753 244.038 65.8439C243.413 64.9569 242.827 64.1967 242.313 63.5156C240.065 60.5615 239.147 59.3419 240.841 55.1762C241.68 53.1399 242.398 51.0561 242.993 48.9355L243.524 48.4999C246.444 46.124 249.064 43.9145 250.204 39.717V39.6537V39.5982C250.257 38.8888 250.519 38.2109 250.956 37.65C251.586 36.8318 252.348 36.125 253.212 35.5592L253.742 35.1949C253.821 35.1484 253.883 35.0782 253.919 34.9945C253.956 34.9107 253.965 34.8176 253.946 34.7282C253.927 34.6389 253.88 34.5579 253.812 34.4967C253.744 34.4354 253.659 34.3971 253.568 34.3871ZM207.486 71.0313C207.412 71.3757 207.306 71.7125 207.17 72.0371V72.0767V72.1401C207.059 72.5836 206.948 73.1142 206.845 73.6765C206.622 74.8958 206.548 76.1377 206.624 77.3749C206.629 77.4387 206.62 77.5028 206.597 77.5626C206.574 77.6224 206.538 77.6763 206.492 77.7204C206.446 77.7644 206.39 77.7976 206.329 77.8173C206.269 77.837 206.204 77.8428 206.141 77.8343C205.562 77.7684 204.99 77.6518 204.431 77.4858C203.917 77.3195 203.584 77.1374 203.64 76.9473V76.8998C204.453 74.7662 205.466 72.7139 206.663 70.77C206.708 70.6739 206.786 70.5973 206.883 70.5547C206.98 70.512 207.089 70.5061 207.19 70.5382C207.291 70.5702 207.376 70.638 207.431 70.7287C207.486 70.8195 207.505 70.9271 207.486 71.0313ZM240.374 52.4281C240.097 53.1725 239.804 53.917 239.503 54.6456C237.492 59.5558 238.561 60.9813 241.157 64.3551C241.664 65.0203 242.234 65.7568 242.851 66.6359C243.623 67.6457 244.207 68.7857 244.577 70.0018C244.893 71.0646 244.969 72.1847 244.798 73.2805C244.71 74.04 244.686 74.8057 244.727 75.5693C244.771 76.4167 244.869 77.2606 245.02 78.0956C245.03 78.2036 245.012 78.3124 244.97 78.412C244.927 78.5116 244.86 78.5989 244.774 78.6659C244.368 78.8788 243.908 78.9669 243.453 78.9193C242.397 78.9275 241.346 78.778 240.334 78.4758C239.678 78.2909 239.09 77.9195 238.64 77.4066C238.449 77.2223 238.319 76.9841 238.266 76.7237C238.214 76.4634 238.242 76.1933 238.347 75.9494C238.457 75.5848 238.534 75.2111 238.577 74.8327C238.616 74.4378 238.616 74.0398 238.577 73.6448C238.54 73.2525 238.463 72.8651 238.347 72.4885C237.991 71.158 236.479 68.798 234.627 66.2874L233.796 65.1787C233.76 65.1318 233.734 65.0783 233.719 65.0212C233.704 64.9641 233.701 64.9045 233.709 64.8461C234.77 58.4153 237.081 54.6772 239.645 51.9608C239.713 51.8779 239.809 51.8227 239.914 51.8058C240.02 51.7889 240.128 51.8115 240.218 51.8693C240.308 51.927 240.374 52.0159 240.402 52.119C240.431 52.222 240.421 52.3321 240.374 52.4281ZM242.02 47.0586C241.941 47.4176 241.854 47.7819 241.759 48.1515C238.244 51.1134 234.453 54.7089 232.704 62.6682C232.648 62.9137 232.205 65.4796 232.189 65.5984C231.758 68.9511 231.612 72.3344 231.754 75.7118C231.758 76.2845 231.86 76.8524 232.055 77.3908C232.256 77.9318 232.551 78.4331 232.925 78.8718C233.192 79.1496 233.409 79.4711 233.567 79.8221C233.63 79.9439 233.647 80.0847 233.614 80.2181C233.369 80.8279 230.575 80.5982 228.992 80.4636C228.651 80.4636 228.366 80.4082 228.097 80.4003C226.957 80.3527 226.356 80.0043 226.055 79.4103C225.696 78.4331 225.537 77.3934 225.588 76.3533C225.422 73.3747 225.491 70.3877 225.794 67.42C225.865 66.7151 225.952 66.0103 226.055 65.2975C225.889 65.345 224.559 65.4876 224.385 65.5034C224.385 65.5034 222.272 65.8281 221.219 66.1132C220.649 66.2716 220.074 66.459 219.494 66.6755C219.42 66.7025 219.341 66.7089 219.265 66.6942C219.188 66.6794 219.117 66.6441 219.06 66.5919C219.002 66.5397 218.959 66.4727 218.937 66.3981C218.914 66.3235 218.912 66.2442 218.932 66.1687C219.107 65.4687 219.205 64.7517 219.224 64.0303C219.238 63.5 219.201 62.9696 219.114 62.4464C218.762 62.8029 218.291 63.0173 217.792 63.0483C217.829 63.3558 217.844 63.6653 217.839 63.9749C217.792 66.166 216.763 68.6633 214.752 71.4669C214.037 72.6295 213.674 73.9747 213.708 75.3396C213.771 76.6041 214.266 77.8086 215.109 78.753C215.495 79.1301 215.805 79.5794 216.019 80.0756C216.019 80.131 215.766 80.1943 215.022 80.2815C214.126 80.3945 213.225 80.45 212.322 80.4478C211.527 80.4455 210.733 80.3793 209.948 80.2498H209.766C208.776 80.0043 208.286 79.1173 208.08 78.0164C207.894 76.665 207.934 75.292 208.199 73.9537C208.286 73.4468 208.381 72.9875 208.476 72.5994V72.544C209.125 71.0196 209.179 69.3068 208.626 67.7447C208.871 68.2436 207.502 65.3054 206.948 64.26C206.077 62.6286 205.088 60.9654 204.851 59.0489C203.711 50.0522 211.23 47.8109 219.288 45.4033C222.419 44.5562 225.48 43.4706 228.446 42.1563C228.498 42.1313 228.556 42.1173 228.614 42.115C228.672 42.1126 228.731 42.1221 228.785 42.1428C228.84 42.1635 228.89 42.195 228.932 42.2354C228.974 42.2758 229.008 42.3243 229.031 42.378C229.345 43.0754 229.738 43.7344 230.203 44.3421C230.768 45.087 231.443 45.7413 232.205 46.2824C233.185 46.9057 234.252 47.3808 235.371 47.6921C236.488 47.9977 237.634 48.1862 238.791 48.2544C238.848 48.2576 238.906 48.2492 238.961 48.2298C239.015 48.2103 239.065 48.1801 239.108 48.1411C239.151 48.102 239.186 48.0547 239.21 48.0021C239.234 47.9495 239.248 47.8926 239.25 47.8347V47.312C239.254 47.1978 239.213 47.0864 239.136 47.0019C239.059 46.9175 238.952 46.8667 238.838 46.8606C237.784 46.797 236.738 46.6245 235.72 46.3458C234.759 46.0765 233.842 45.6711 232.997 45.142C232.349 44.683 231.775 44.1275 231.295 43.4947C230.405 42.3435 229.834 40.9775 229.641 39.5349C229.446 38.1761 229.762 36.7934 230.527 35.6543C230.84 35.2107 231.219 34.8181 231.651 34.4901C232.739 33.7116 234.015 33.2385 235.347 33.12H235.688C236.359 34.235 237.281 35.1785 238.379 35.876C239.281 36.5085 240.082 37.2749 240.754 38.149C241.37 38.9688 241.844 39.8873 242.154 40.8654C242.626 42.9088 242.579 45.0376 242.02 47.0586ZM250.727 33.6744C250.336 34.0954 249.916 34.4871 249.468 34.8465L248.043 35.979C247.97 36.046 247.921 36.1362 247.906 36.2347C247.891 36.3331 247.91 36.4338 247.96 36.52C248.01 36.6061 248.088 36.6725 248.181 36.7081C248.274 36.7437 248.376 36.7463 248.471 36.7155L250.157 36.0344L250.639 35.8602C250.352 36.1535 250.087 36.4686 249.848 36.8026C249.279 37.5494 248.93 38.4412 248.843 39.3765C248.845 39.4028 248.845 39.4294 248.843 39.4557C248.072 42.0206 246.526 44.2837 244.418 45.934C244.352 45.9925 244.269 46.0295 244.182 46.0401C244.094 46.0506 244.005 46.0341 243.927 45.9928C243.849 45.9516 243.785 45.8875 243.744 45.809C243.703 45.7306 243.687 45.6416 243.698 45.5538C244.001 43.8309 243.92 42.0623 243.46 40.3744C243.116 39.2362 242.581 38.165 241.877 37.2065C241.131 36.2223 240.24 35.3571 239.234 34.6406C238.949 34.4346 238.696 34.2446 238.442 34.0545C238.278 33.9548 238.133 33.826 238.015 33.6744C237.728 33.2866 237.587 32.8093 237.619 32.3277C237.651 31.8461 237.853 31.3915 238.189 31.045C238.209 30.985 238.243 30.9306 238.289 30.8865C238.334 30.8424 238.39 30.8099 238.45 30.7916C240.409 30.2552 242.412 29.8921 244.434 29.7066L245.297 29.5957C249.769 29.3502 250.972 26.9823 250.742 24.052C250.537 21.4464 249.064 18.4211 247.933 16.2907V16.2274C247.656 15.5011 247.472 14.7427 247.386 13.9703C247.293 13.3158 247.406 12.6484 247.711 12.0616C248.033 11.5554 248.524 11.1795 249.096 11.0004C249.412 10.8861 249.738 10.8013 250.07 10.747C250.154 10.7339 250.24 10.7456 250.317 10.7808C250.394 10.816 250.46 10.8731 250.505 10.945C250.616 11.1168 250.709 11.3 250.782 11.4914C250.837 11.6332 250.882 11.7788 250.917 11.927C250.939 12.0237 250.927 12.125 250.884 12.2143C250.841 12.3036 250.769 12.3755 250.679 12.418C250.193 12.6111 249.801 12.9861 249.587 13.4634C249.45 13.855 249.405 14.2726 249.455 14.6843C249.504 15.0961 249.647 15.4911 249.872 15.8393C250.26 16.5046 250.56 17.051 250.837 17.5658C251.186 18.2152 251.518 18.8092 251.85 19.3556C253.188 21.3741 253.956 23.7161 254.075 26.1348C254.114 28.2533 253.439 30.3233 252.159 32.0112C251.653 32.6448 251.172 33.1992 250.719 33.6744H250.727Z" fill="#333945"/>
</svg>
