<svg width="659" height="402" viewBox="0 0 659 402" fill="none" xmlns="http://www.w3.org/2000/svg">
<path d="M21.5354 94.1631L24.1011 103.238L32.5294 107.467L24.692 112.711L23.2739 122.034L15.8644 116.201L6.55956 117.733L9.81767 108.884L5.48514 100.508L14.9082 100.872L21.5354 94.1631Z" fill="#95165B"/>
<path d="M183.286 45.9486L185.379 48.2938L188.522 48.3316L186.939 51.0469L187.874 54.0479L184.802 53.3808L182.237 55.1978L181.922 52.0702L179.402 50.1921L182.279 48.9262L183.286 45.9486Z" fill="#95165B"/>
<path d="M633.795 99.9486L635.888 102.294L639.031 102.332L637.448 105.047L638.383 108.048L635.311 107.381L632.746 109.198L632.431 106.07L629.911 104.192L632.788 102.926L633.795 99.9486Z" fill="#95165B"/>
<path d="M509.464 2.87236L513.195 6.55044L518.427 6.27898L516.082 10.9637L517.956 15.8557L512.776 15.0729L508.703 18.3678L507.847 13.1993L503.455 10.3436L508.106 7.93209L509.464 2.87236Z" fill="#95165B"/>
<path d="M650.46 384.271L652.011 389.275L656.751 391.507L652.471 394.529L651.813 399.726L647.617 396.589L642.471 397.569L644.157 392.609L641.635 388.018L646.873 388.089L650.46 384.271Z" fill="#95165B"/>
<path d="M19.435 358.676L23.124 361.323L27.5668 360.386L26.1893 364.713L28.4527 368.649L23.9124 368.676L20.8684 372.045L19.4399 367.735L15.2952 365.881L18.9526 363.19L19.435 358.676Z" fill="#95165B"/>
<path d="M447.106 363.571L449.773 366.336L453.613 366.235L451.807 369.625L453.091 373.246L449.308 372.576L446.26 374.916L445.729 371.111L442.562 368.936L446.016 367.255L447.106 363.571Z" fill="#95165B"/>
<path d="M223.594 388L224.564 389.665L226.447 390.073L225.163 391.51L225.357 393.427L223.594 392.65L221.83 393.427L222.025 391.51L220.741 390.073L222.624 389.665L223.594 388Z" fill="#95165B"/>
</svg>
