<svg width="22" height="31" viewBox="0 0 22 31" fill="none" xmlns="http://www.w3.org/2000/svg">
<path d="M21.2495 6.25327C20.7643 4.5361 19.7917 3.02275 18.4664 1.92286C17.1411 0.822972 15.5288 0.190974 13.8527 0.114409H13.674C13.4597 0.102167 13.245 0.102167 13.0308 0.114409C12.563 0.0259279 12.0882 -0.0124707 11.6133 -0.000217149H11.4823C9.8034 0.114332 8.19615 0.769267 6.87174 1.87854C5.54734 2.98781 4.56774 4.49952 4.06164 6.21507C2.96847 10.0923 3.08132 14.2442 4.38325 18.047C5.2885 20.9636 7.71838 24.9755 9.67182 28.236C10.2078 29.1148 10.6962 29.9299 11.0893 30.6177L11.2322 30.8087C11.2735 30.8644 11.326 30.9093 11.3858 30.9402C11.4456 30.9711 11.5112 30.9871 11.5776 30.987C11.6704 30.9789 11.7582 30.9387 11.8278 30.8724H13.7455C13.8024 30.8732 13.8585 30.8584 13.9085 30.8294C13.9586 30.8004 14.0008 30.7582 14.0313 30.7069C14.4482 29.9936 14.9604 29.1403 15.5202 28.1596C17.5094 24.8864 19.9869 20.8108 20.8684 17.9706C22.1738 14.211 22.3075 10.1008 21.2495 6.25327ZM18.3432 22.1481C17.9029 22.1203 17.4614 22.1203 17.021 22.1481L17.4379 21.333H18.772L18.3432 22.1481ZM17.5451 23.6H16.2706L16.7471 22.734C17.2831 22.734 17.6523 22.6576 18.0811 22.6576L17.5451 23.6ZM14.3887 28.8983H13.6978H13.0903L13.4953 28.236L13.6025 28.0577L14.8651 28.0195L14.3887 28.8983ZM18.093 2.54703H17.0806C16.8799 2.33201 16.6692 2.12797 16.4493 1.93569H16.5565H17.295C17.5735 2.12022 17.8401 2.32446 18.093 2.54703ZM19.177 3.70603H18.5933H18.0216C17.8548 3.44281 17.6762 3.19233 17.4856 2.95459H17.5928H18.5933C18.7964 3.18498 18.9873 3.42735 19.1651 3.68056L19.177 3.70603ZM19.9274 4.86503H19.3556H18.6529C18.5496 4.64426 18.4385 4.43199 18.3194 4.22821H18.641C18.9256 4.19055 19.2118 4.16929 19.4986 4.16453C19.6534 4.38105 19.7963 4.6103 19.9274 4.83955V4.86503ZM21.1185 8.45664H19.7249C19.7249 8.20192 19.6415 7.94719 19.5939 7.70521H20.9875C20.9994 7.92172 21.047 8.17645 21.0828 8.43117L21.1185 8.45664ZM21.3091 12.6341H19.8916C19.8916 12.3285 19.8916 12.0355 19.8916 11.7299H21.3091C21.321 12.0101 21.2972 12.303 21.2733 12.6087L21.3091 12.6341ZM21.3091 11.2331H19.8916C19.8916 10.8765 19.8916 10.5326 19.8916 10.176H21.2972C21.3091 10.5072 21.321 10.8638 21.321 11.2077L21.3091 11.2331ZM19.6415 14.57H21.0589C21.0589 14.863 20.9517 15.1686 20.8922 15.4743H19.4867C19.5462 15.1432 19.6058 14.8502 19.6534 14.5446L19.6415 14.57ZM21.1304 14.0096H19.713C19.713 13.704 19.7963 13.411 19.8202 13.1054H21.2376C21.2138 13.411 21.1661 13.704 21.1304 14.0096ZM21.2495 9.69206H19.844C19.844 9.43733 19.844 9.16987 19.7725 8.91515H21.1661C21.2019 9.18261 21.2257 9.43733 21.2495 9.69206ZM19.439 7.22123C19.3675 6.95377 19.2961 6.68631 19.2246 6.41885H20.6063C20.6778 6.6481 20.7373 6.89009 20.7969 7.11934L19.439 7.22123ZM20.4276 5.94761H20.249C19.8678 5.94761 19.4986 5.94761 19.0579 5.94761C18.9983 5.7693 18.9268 5.59099 18.8554 5.41268H19.3675H20.1656C20.249 5.52731 20.3443 5.71835 20.4276 5.92213V5.94761ZM15.8657 1.48992C15.6318 1.31477 15.3892 1.15321 15.1391 1.00595C15.5983 1.11144 16.0455 1.26943 16.4731 1.47719L15.8657 1.48992ZM15.2105 27.5483H14.8413H13.9003L14.4125 26.7077H15.6989L15.2105 27.5483ZM15.9967 26.2746H14.6984L15.1986 25.434H16.4731L15.9967 26.2746ZM16.7709 25.001H15.4845L15.9729 24.1604H17.2354L16.7709 25.001ZM19.0579 20.8363H17.7238L18.1169 19.9957H19.4628L19.0579 20.8363ZM19.6891 19.499H18.3313C18.4504 19.206 18.5695 18.9258 18.6648 18.6584H19.4747H20.0465C19.9036 18.9004 19.7844 19.1933 19.6534 19.4862L19.6891 19.499ZM20.249 17.8305L20.1418 18.1617H19.3556H18.7482V18.0216C18.8196 17.7923 18.8792 17.5631 18.9387 17.3338H20.3324C20.38 17.4739 20.3443 17.6267 20.249 17.8305ZM20.511 16.8626H19.1174C19.2008 16.5569 19.2603 16.264 19.3318 15.9583H20.7373C20.7254 16.213 20.642 16.5569 20.5706 16.8116L20.511 16.8626ZM10.4103 27.7011C8.4807 24.517 6.08655 20.5561 5.21703 17.7541C3.98017 14.1446 3.86736 10.2044 4.89543 6.52074C5.34322 4.99161 6.21086 3.64189 7.38557 2.64702C8.56027 1.65216 9.98771 1.05817 11.4823 0.942264H11.661C13.1761 1.01924 14.6316 1.59724 15.8264 2.59647C17.0212 3.59571 17.8964 4.96689 18.3313 6.52074C19.3593 10.2044 19.2465 14.1446 18.0097 17.7541C17.1521 20.5306 14.6031 24.7208 12.7449 27.7775L11.5538 29.6752L10.4103 27.7011ZM13.6144 30.1847H12.3399L12.7687 29.4714H13.6978H14.0671L13.6144 30.1847Z" fill="white"/>
<path d="M16.5924 9.9977C16.5995 8.94317 16.3135 7.91014 15.7707 7.02965C15.228 6.14915 14.4529 5.46085 13.5437 5.05204C12.6346 4.64323 11.6324 4.53234 10.6643 4.73342C9.69613 4.93451 8.80564 5.43851 8.10575 6.1815C7.40586 6.9245 6.92811 7.87301 6.73308 8.90675C6.53806 9.94048 6.63455 11.0129 7.01031 11.9879C7.38608 12.9629 8.0242 13.7966 8.84373 14.3833C9.66326 14.97 10.6273 15.2832 11.6135 15.2832C12.9278 15.2833 14.1889 14.7276 15.1216 13.7375C16.0543 12.7473 16.583 11.403 16.5924 9.9977ZM8.25456 12.4685H9.91022C10.0539 12.7528 10.2171 13.0253 10.3986 13.2836H8.9335C8.67228 13.0439 8.44019 12.77 8.24265 12.4685H8.25456ZM7.659 11.093H9.39804C9.47413 11.3927 9.56965 11.6863 9.68391 11.9718H7.96869C7.83606 11.6917 7.73222 11.3971 7.659 11.093ZM10.3867 5.99852H9.98169C10.1708 5.91057 10.3659 5.83818 10.5653 5.78201L10.3867 5.99852ZM9.19555 6.4825H10.0412C9.84358 6.76551 9.67205 7.06835 9.52906 7.38677L8.33794 7.42498C8.58252 7.05128 8.87987 6.72044 9.21937 6.44429L9.19555 6.4825ZM8.00443 7.9599H9.39804C9.30681 8.27126 9.24301 8.59106 9.20746 8.91512H7.64709C7.72766 8.56956 7.84767 8.23592 8.00443 7.92169V7.9599ZM7.51607 9.9977C7.50539 9.81533 7.50539 9.63242 7.51607 9.45004H9.13599C9.11665 9.72135 9.11665 9.99385 9.13599 10.2652C9.13599 10.3798 9.13599 10.4944 9.19555 10.609H7.46842C7.47089 10.4043 7.48681 10.2 7.51607 9.9977ZM10.7202 13.7167C10.9096 13.9428 11.1125 14.1555 11.3277 14.3535C10.6925 14.3074 10.0764 14.1024 9.52906 13.7549L10.7202 13.7167ZM15.6752 9.98496C15.672 11.0052 15.3358 11.9922 14.7248 12.7757C14.1138 13.5593 13.2662 14.0902 12.3282 14.2771C11.6647 13.8089 11.1031 13.1935 10.6818 12.4727C10.2605 11.7519 9.98919 10.9425 9.8864 10.0996C9.78134 9.24899 9.89427 8.38384 10.2131 7.59651C10.532 6.80917 11.0448 6.1292 11.6969 5.62917C12.765 5.65573 13.7811 6.12729 14.5287 6.94333C15.2763 7.75937 15.6962 8.85536 15.6991 9.9977L15.6752 9.98496Z" fill="white"/>
<path d="M5.22921 23.9185L4.99098 23.4473L4.76467 22.9251L4.22866 21.6514C4.02617 21.2311 3.90706 20.7472 3.71648 20.2887C3.5287 19.8061 3.36568 19.3129 3.22812 18.8113L2.78741 17.2574L2.46581 15.6781C2.35887 15.166 2.28327 14.647 2.23949 14.1243L2.15611 13.3856C2.11678 13.1714 2.09289 12.9542 2.08465 12.7361V11.4625V10.8766V10.3417V9.4756C2.08465 8.99162 2.08465 8.71143 2.08465 8.71143C2.08465 8.71143 2.02509 8.97889 1.9298 9.45013L1.76304 10.3035L1.66776 10.8256C1.66776 11.0167 1.66776 11.2205 1.66776 11.4242L1.59629 12.7361C1.58622 13.2421 1.60611 13.7483 1.65584 14.2517C1.67557 14.7908 1.73531 15.3274 1.83451 15.8565L2.1442 17.4994L2.62065 19.1042C2.77347 19.6188 2.96056 20.121 3.18048 20.6071C3.35933 21.073 3.56213 21.5279 3.78795 21.9698L4.43116 23.1288C4.53836 23.3072 4.62173 23.4855 4.71702 23.6383L5.02672 24.0713L5.51508 24.7718L5.95579 25.3704C5.95579 25.3704 5.83668 25.1157 5.62228 24.6954L5.22921 23.9185Z" fill="white"/>
<path d="M1.85829 21.3585L1.57242 20.5306C1.46522 20.2377 1.39375 19.9066 1.28655 19.5882C1.17935 19.2698 1.08406 18.9259 1.01259 18.5693L0.774368 17.5122L0.5957 16.4296C0.524233 16.073 0.50041 15.7291 0.452765 15.3852C0.40512 15.0413 0.357476 14.7229 0.357476 14.4045V13.5257C0.357476 12.9781 0.357476 12.5068 0.357476 12.1884V11.679L0.286008 12.1884L0.0954291 12.7361C0.0531903 12.9841 0.0292939 13.2354 0.0239618 13.4875V14.3918C0.00828877 14.727 0.00828877 15.0628 0.0239618 15.3979C0.0399717 15.7866 0.0797608 16.1738 0.143074 16.5569L0.309831 17.665L0.571877 18.7476C0.655078 19.098 0.758507 19.4425 0.881569 19.7792C0.981696 20.0994 1.09699 20.414 1.22699 20.7217L1.59624 21.5368C1.69492 21.7669 1.81042 21.9884 1.94167 22.1991L2.22754 22.6958L2.48958 23.1288L2.38238 22.5939C2.21562 22.2882 2.01313 21.8807 1.85829 21.3585Z" fill="white"/>
<path d="M17.0214 13.9205C16.4595 15.1292 15.5291 16.0971 14.3836 16.6643C13.2381 17.2316 11.946 17.3644 10.7204 17.0408C10.4345 16.9772 10.232 17.3592 10.5775 17.4357C11.9284 17.793 13.3529 17.6486 14.617 17.026C15.881 16.4034 16.9095 15.3397 17.5336 14.0096C17.6646 13.7676 17.1405 13.6912 17.0214 13.9205Z" fill="white"/>
<path d="M16.5447 16.659C16.2392 17.0912 15.8567 17.4545 15.4191 17.7277C14.9816 18.001 14.4978 18.1788 13.9957 18.251C13.6502 18.251 13.8408 18.6968 14.1386 18.6458C15.2741 18.4777 16.3015 17.8369 16.9973 16.8628C17.1879 16.5571 16.6757 16.4552 16.5447 16.659Z" fill="white"/>
</svg>
