<svg width="300" height="91" viewBox="0 0 300 91" fill="none" xmlns="http://www.w3.org/2000/svg">
<path d="M296.007 -8.42549e-05L284.698 4.39435C284.626 4.42158 284.56 4.46284 284.504 4.51572C284.448 4.5686 284.403 4.63205 284.372 4.70239C284.341 4.77272 284.324 4.84853 284.323 4.92541C284.321 5.00228 284.335 5.07869 284.363 5.1502L287.582 13.3766C287.61 13.4485 287.651 13.5143 287.704 13.5701C287.757 13.6259 287.82 13.6707 287.89 13.7017C287.961 13.7328 288.037 13.7496 288.114 13.7511C288.191 13.7526 288.267 13.7388 288.339 13.7106L299.648 9.31612C299.72 9.28889 299.786 9.24764 299.842 9.19475C299.898 9.14187 299.943 9.07842 299.974 9.00809C300.005 8.93776 300.022 8.86195 300.023 8.78507C300.025 8.70819 300.011 8.63178 299.983 8.56028L296.764 0.369048C296.74 0.294002 296.701 0.224553 296.65 0.164928C296.599 0.105302 296.536 0.0567471 296.465 0.0222164C296.394 -0.0123142 296.317 -0.0320983 296.238 -0.0359322C296.16 -0.039766 296.081 -0.0275693 296.007 -8.42549e-05ZM294.952 1.6698L292.067 7.03101L286.553 4.97442L294.952 1.6698ZM298.663 8.37571L288.462 12.4098L285.955 6.01151L292.111 8.32298C292.244 8.37365 292.391 8.3739 292.524 8.32369C292.657 8.27347 292.767 8.17628 292.833 8.05052L296.113 1.97741L298.637 8.41966L298.663 8.37571Z" fill="white"/>
<path d="M283.95 9.94882L283.009 10.318C282.864 10.3739 282.748 10.485 282.685 10.6267C282.622 10.7685 282.619 10.9293 282.675 11.0738C282.731 11.2183 282.842 11.3347 282.984 11.3973C283.125 11.46 283.286 11.4637 283.431 11.4078L284.372 11.0386C284.517 10.9827 284.633 10.8716 284.696 10.7299C284.758 10.5881 284.762 10.4273 284.706 10.2828C284.65 10.1383 284.539 10.0219 284.397 9.95927C284.255 9.89664 284.094 9.89288 283.95 9.94882Z" fill="white"/>
<path d="M284.812 12.1637L282.305 13.1832C282.234 13.2109 282.168 13.2524 282.113 13.3054C282.057 13.3584 282.013 13.4217 281.982 13.4919C281.951 13.5621 281.934 13.6377 281.932 13.7144C281.93 13.7911 281.943 13.8675 281.971 13.939C281.999 14.0106 282.04 14.076 282.093 14.1315C282.146 14.187 282.21 14.2315 282.28 14.2625C282.35 14.2936 282.426 14.3104 282.503 14.3122C282.579 14.314 282.656 14.3007 282.727 14.273L285.269 13.2799C285.414 13.2239 285.53 13.1129 285.593 12.9711C285.655 12.8294 285.659 12.6685 285.603 12.524C285.547 12.3795 285.436 12.2631 285.294 12.2005C285.152 12.1379 284.992 12.1341 284.847 12.19L284.812 12.1637Z" fill="white"/>
<path d="M283.079 7.73422L280.546 8.72737C280.402 8.78331 280.285 8.89437 280.223 9.03612C280.16 9.17787 280.156 9.33869 280.212 9.48321C280.268 9.62773 280.379 9.74411 280.521 9.80674C280.663 9.86937 280.824 9.87313 280.969 9.81719L283.51 8.78889C283.582 8.76119 283.647 8.71967 283.703 8.66669C283.758 8.61371 283.803 8.55032 283.834 8.48014C283.865 8.40995 283.882 8.33434 283.884 8.25763C283.885 8.18092 283.872 8.10461 283.844 8.03305C283.817 7.96149 283.775 7.89609 283.722 7.84057C283.669 7.78506 283.606 7.74053 283.535 7.70952C283.465 7.6785 283.39 7.66162 283.313 7.65983C283.236 7.65803 283.16 7.67137 283.088 7.69907L283.079 7.73422Z" fill="white"/>
<path d="M14.4934 72.4818C13.3677 71.4535 11.8551 70.3637 10.1489 70.3637C8.13497 70.3637 7.65127 71.5589 7.65127 72.4115C7.65127 73.844 9.29585 74.2571 10.4919 74.5296C14.0097 75.3469 17.9409 76.885 17.9409 82.5187C17.9409 87.2647 14.555 90.3759 8.95286 90.3759C5.87477 90.3759 3.44747 89.3476 0 86.5528L3.17484 81.464C5.05687 83.2745 7.14118 84.6368 9.11996 84.6368C10.3512 84.6368 11.4769 84.0567 11.4769 82.6241C11.4769 80.4357 9.42777 80.1632 6.89493 79.381C4.97772 78.801 1.18727 77.4651 1.18727 72.3499C1.18727 68.4916 3.99273 65.1431 9.59486 65.1431C12.2093 65.1454 14.7568 65.9694 16.8768 67.4985L14.4934 72.4818Z" fill="white"/>
<path d="M27.1752 65.7847H35.3102L43.8233 89.6992H36.647L35.3102 85.5684H27.1752L25.8385 89.6992H18.6621L27.1752 65.7847ZM28.512 80.3039H33.9822L31.2471 71.515L28.512 80.3039Z" fill="white"/>
<path d="M69.732 75.8215C70.2069 81.4552 68.6063 90.3759 57.8417 90.3759C50.5598 90.3759 44.6499 85.9815 44.6499 77.9045C44.6499 70.0824 49.6716 65.0991 57.3317 65.0991C64.8158 65.0991 67.5861 69.3354 68.4392 70.9086L62.5292 73.6771C62.0432 72.7805 61.3145 72.0388 60.4264 71.5368C59.5384 71.0348 58.5268 70.7927 57.5075 70.8383C54.3591 70.8383 51.3514 73.0618 51.3514 77.7727C51.3514 82.4835 54.3239 85.1202 57.745 85.1202C58.967 85.1852 60.1727 84.8158 61.1482 84.0774C62.1237 83.339 62.8061 82.2793 63.0745 81.0861H56.8831V75.8128L69.732 75.8215Z" fill="white"/>
<path d="M73.0474 65.7847H87.4089V71.5238H79.7488V74.8724H86.6877V80.1457H79.7488V83.9689H87.4089V89.708H73.0474V65.7847Z" fill="white"/>
<path d="M92.8088 65.7847H99.5103L103.714 80.3742L107.918 65.7847H114.619L118.137 89.6992H111.691L109.932 75.8304L105.895 89.6992H101.586L97.5491 75.8304L95.7901 89.6992H89.3613L92.8088 65.7847Z" fill="white"/>
<path d="M126.853 65.7847H134.987L143.501 89.6992H136.315L134.979 85.5684H126.844L125.507 89.6992H118.331L126.853 65.7847ZM128.189 80.3039H133.677L130.942 71.515L128.189 80.3039Z" fill="white"/>
<path d="M145.418 65.7847H152.146V89.6992H145.444L145.418 65.7847Z" fill="white"/>
<path d="M156.429 65.7847H163.13V83.9513H170.307V89.6904H156.429V65.7847Z" fill="white"/>
<path d="M172.936 65.7847H187.324V71.5238H179.664V74.8724H186.603V80.1457H179.664V83.9689H187.324V89.708H172.936V65.7847Z" fill="white"/>
<path d="M190.842 65.7847H200.753C208.748 65.7847 209.02 71.8666 209.02 72.9564C209.12 74.5385 208.681 76.1079 207.776 77.4097C206.871 78.7116 205.552 79.6695 204.034 80.1281L210.735 89.6904H202.635L197.578 81.7804V89.6904H190.842V65.7847ZM199.179 76.5423C201.571 76.5423 202.327 75.18 202.327 73.7738C202.327 72.3675 201.58 71.0404 199.179 71.0404H197.534V76.5423H199.179Z" fill="white"/>
<path d="M281.743 38.1613L281.039 38.0382C280.955 38.0248 280.876 37.9896 280.811 37.9361C280.745 37.8826 280.694 37.8127 280.664 37.7334C280.633 37.6541 280.624 37.5683 280.638 37.4845C280.651 37.4007 280.687 37.3219 280.74 37.256L281.382 36.4474C283.012 34.3018 283.87 31.67 283.818 28.9769C283.694 26.0367 282.783 23.1837 281.18 20.7154C280.828 20.1529 280.476 19.5025 280.098 18.7994C279.72 18.0963 279.368 17.4547 279.008 16.8395C278.714 16.2535 278.627 15.8317 278.744 15.5739C278.861 15.3161 279.213 15.1373 279.799 15.0377L280.037 14.9938C280.148 14.9733 280.248 14.9146 280.32 14.8279C280.392 14.7412 280.432 14.632 280.432 14.5192V14.2731C280.438 13.5771 280.316 12.886 280.072 12.2341C279.833 11.6003 279.461 11.0249 278.981 10.5466L278.726 10.2917H278.366C277.631 10.347 276.907 10.4976 276.211 10.74C275.236 11.0575 274.407 11.7119 273.872 12.5856C273.367 13.5113 273.17 14.573 273.309 15.6178C273.419 16.6351 273.662 17.6337 274.03 18.5884V18.65C275.226 20.8911 276.809 24.1079 277.02 26.7533C277.205 29.0999 276.141 31.0159 272.403 31.2181H272.341L271.33 31.3499C267.61 31.8157 263.274 32.3694 261.981 34.1448C261.787 34.4056 261.652 34.7055 261.586 35.0236H261.278C259.525 35.1877 257.848 35.819 256.423 36.8517C255.818 37.3099 255.287 37.8583 254.849 38.4777C253.769 40.0817 253.335 42.0344 253.635 43.9443C253.635 44.1729 253.67 44.4014 253.741 44.6299C253.762 44.7336 253.748 44.8413 253.702 44.9365C253.656 45.0318 253.58 45.1093 253.486 45.1572C250.167 46.6549 246.731 47.8805 243.214 48.8222C234.718 51.3534 226.724 53.7352 225.994 62.0758C225.988 62.1508 225.964 62.2233 225.924 62.2867C224.9 63.833 224.208 65.5747 223.892 67.4019C223.548 69.4381 223.548 71.5178 223.892 73.5541C223.903 73.6171 223.926 73.6775 223.96 73.7316C223.994 73.7857 224.039 73.8325 224.091 73.8693C224.143 73.9061 224.202 73.9321 224.265 73.9459C224.327 73.9597 224.392 73.9609 224.455 73.9496L225.027 73.8441C225.151 73.8205 225.261 73.7494 225.333 73.646C225.405 73.5425 225.434 73.4149 225.414 73.2904C225.1 71.4315 225.1 69.5333 225.414 67.6743C225.555 66.8845 225.773 66.1103 226.064 65.3628C226.064 65.4595 226.064 65.5474 226.064 65.6441C226.475 67.9059 227.333 70.0632 228.588 71.9896C229.081 72.8273 229.53 73.6898 229.934 74.5736C229.97 74.6427 229.989 74.7196 229.989 74.7977C229.989 74.8758 229.97 74.9526 229.934 75.0218C227.296 79.2493 225.255 83.3009 224.824 84.8126C224.288 86.1485 225.159 86.9571 226.654 87.4493C227.661 87.736 228.696 87.9186 229.74 87.9942C229.826 88.0037 229.908 88.0355 229.977 88.0864C230.047 88.1373 230.101 88.2055 230.136 88.2842C230.358 88.8295 230.706 89.3141 231.153 89.6978C231.6 90.0815 232.131 90.3531 232.704 90.4902L233.012 90.5518C233.965 90.711 234.93 90.7933 235.897 90.7978C236.964 90.8044 238.03 90.7428 239.089 90.6133C241.006 90.3848 241.631 89.7344 241.56 88.7325C241.334 87.8344 240.855 87.02 240.18 86.3858C239.471 85.5959 239.052 84.5886 238.992 83.5294C238.99 82.356 239.316 81.2053 239.933 80.2072V80.1633C240.763 79.0162 241.495 77.8021 242.123 76.5335C242.17 76.4377 242.247 76.3603 242.343 76.3138C243.6 75.7154 244.906 75.2273 246.248 74.8548C247.281 74.5643 248.337 74.3643 249.405 74.2572V74.679C249.059 78.0513 248.98 81.4455 249.168 84.8302C249.106 86.2084 249.34 87.5839 249.854 88.8643C250.452 90.0244 251.507 90.71 253.433 90.789L254.365 90.8594C256.538 91.0351 260.346 91.3515 261.049 89.6289C261.154 89.3768 261.208 89.1065 261.208 88.8335C261.208 88.5605 261.154 88.2902 261.049 88.0381C260.808 87.4833 260.471 86.9748 260.055 86.5352C259.757 86.1864 259.521 85.7877 259.361 85.3575C259.204 84.9204 259.123 84.4596 259.123 83.9952C258.995 80.787 259.098 77.5737 259.431 74.3802L259.536 74.5208C261.515 77.1575 263.098 79.6448 263.424 80.9016C263.521 81.2163 263.586 81.5403 263.617 81.8683C263.652 82.2073 263.652 82.5489 263.617 82.8878C263.576 83.2245 263.506 83.5568 263.406 83.881C263.184 84.3825 263.124 84.9407 263.234 85.4779C263.345 86.015 263.62 86.5045 264.022 86.878C264.715 87.6887 265.633 88.2758 266.66 88.5655C267.935 88.9482 269.26 89.1378 270.591 89.128C271.422 89.1933 272.253 88.9966 272.966 88.5655C273.277 88.3372 273.522 88.0308 273.676 87.6774C273.831 87.3239 273.889 86.936 273.845 86.5528V86.4473C273.684 85.576 273.578 84.6954 273.529 83.8107C273.488 83.0513 273.511 82.2898 273.599 81.5344C273.82 80.1037 273.721 78.6419 273.309 77.2542C272.845 75.7428 272.115 74.3262 271.154 73.0707C270.459 72.0863 269.809 71.2426 269.237 70.4867C266.739 67.2085 265.719 65.855 267.601 61.2321C268.533 58.9723 269.332 56.6597 269.993 54.3064L270.582 53.823C273.828 51.1864 276.739 48.7343 278.005 44.0762V44.0059V43.9443C278.064 43.157 278.355 42.4048 278.841 41.7823C279.54 40.8742 280.388 40.0899 281.347 39.462L281.936 39.0577C282.024 39.0061 282.092 38.9283 282.133 38.8353C282.174 38.7424 282.184 38.639 282.163 38.5398C282.141 38.4407 282.089 38.3508 282.014 38.2828C281.938 38.2149 281.844 38.1724 281.743 38.1613ZM230.541 78.8274C230.459 79.2096 230.341 79.5833 230.189 79.9436V79.9875V80.0578C230.066 80.55 229.943 81.1389 229.828 81.7629C229.58 83.116 229.498 84.4942 229.582 85.8673C229.588 85.938 229.578 86.0092 229.553 86.0755C229.527 86.1419 229.488 86.2017 229.436 86.2506C229.385 86.2995 229.323 86.3363 229.255 86.3581C229.188 86.38 229.116 86.3865 229.046 86.377C228.402 86.3039 227.767 86.1745 227.146 85.9903C226.574 85.8058 226.205 85.6036 226.267 85.3927V85.3399C227.171 82.9722 228.295 80.6946 229.626 78.5374C229.676 78.4307 229.762 78.3458 229.87 78.2984C229.978 78.2511 230.099 78.2446 230.211 78.2801C230.323 78.3157 230.419 78.3909 230.479 78.4916C230.54 78.5923 230.562 78.7117 230.541 78.8274ZM267.082 58.1823C266.774 59.0085 266.449 59.8346 266.115 60.6432C263.881 66.0923 265.068 67.6743 267.953 71.4184C268.516 72.1566 269.149 72.974 269.835 73.9496C270.692 75.0702 271.341 76.3353 271.752 77.6848C272.104 78.8643 272.188 80.1074 271.998 81.3234C271.9 82.1663 271.874 83.016 271.919 83.8634C271.968 84.8039 272.077 85.7403 272.245 86.6671C272.256 86.7869 272.236 86.9076 272.189 87.0181C272.141 87.1287 272.067 87.2255 271.972 87.2999C271.521 87.5361 271.01 87.634 270.503 87.5811C269.33 87.5902 268.162 87.4243 267.038 87.0889C266.309 86.8838 265.655 86.4716 265.156 85.9024C264.944 85.6978 264.799 85.4335 264.741 85.1446C264.683 84.8557 264.714 84.5559 264.831 84.2853C264.953 83.8806 265.038 83.4659 265.086 83.046C265.13 82.6077 265.13 82.1661 265.086 81.7277C265.045 81.2924 264.96 80.8624 264.831 80.4445C264.435 78.968 262.755 76.3489 260.697 73.5629L259.774 72.3324C259.734 72.2804 259.705 72.221 259.688 72.1576C259.672 72.0942 259.668 72.0281 259.677 71.9633C260.856 64.8267 263.424 60.6784 266.273 57.6638C266.348 57.5717 266.454 57.5105 266.572 57.4918C266.689 57.473 266.809 57.4981 266.909 57.5622C267.009 57.6263 267.082 57.7249 267.114 57.8393C267.146 57.9537 267.135 58.0758 267.082 58.1823ZM268.911 52.2235C268.823 52.6219 268.727 53.0262 268.621 53.4363C264.716 56.7234 260.504 60.7135 258.56 69.5463C258.499 69.8188 258.006 72.6664 257.989 72.7982C257.509 76.5189 257.347 80.2735 257.505 84.0216C257.509 84.6572 257.622 85.2874 257.839 85.8849C258.062 86.4853 258.39 87.0416 258.806 87.5284C259.102 87.8367 259.343 88.1934 259.519 88.583C259.59 88.7182 259.608 88.8745 259.572 89.0225C259.299 89.6992 256.195 89.4444 254.436 89.2949C254.057 89.2949 253.741 89.2334 253.442 89.2246C252.175 89.1719 251.507 88.7852 251.173 88.126C250.773 87.0415 250.597 85.8877 250.654 84.7335C250.47 81.428 250.546 78.1132 250.883 74.8197C250.962 74.0374 251.059 73.2552 251.173 72.4642C250.988 72.517 249.511 72.6752 249.317 72.6928C249.317 72.6928 246.969 73.0531 245.799 73.3695C245.166 73.5453 244.527 73.7533 243.882 73.9935C243.801 74.0234 243.713 74.0306 243.628 74.0142C243.543 73.9979 243.464 73.9586 243.4 73.9007C243.336 73.8428 243.288 73.7684 243.263 73.6857C243.238 73.6029 243.236 73.5148 243.258 73.431C243.452 72.6542 243.562 71.8585 243.583 71.058C243.599 70.4695 243.557 69.8809 243.46 69.3002C243.069 69.6959 242.546 69.9337 241.991 69.9682C242.032 70.3094 242.05 70.6529 242.044 70.9965C241.991 73.4281 240.848 76.1995 238.614 79.3108C237.819 80.601 237.416 82.0939 237.453 83.6085C237.524 85.0118 238.073 86.3486 239.01 87.3965C239.44 87.815 239.783 88.3137 240.021 88.8643C240.021 88.9258 239.74 88.9961 238.913 89.0928C237.919 89.2182 236.917 89.2799 235.914 89.2774C235.03 89.2749 234.148 89.2014 233.276 89.0576H233.074C231.974 88.7852 231.429 87.8008 231.2 86.5792C230.994 85.0794 231.039 83.5557 231.332 82.0705C231.429 81.508 231.535 80.9982 231.64 80.5676V80.5061C232.362 78.8143 232.421 76.9136 231.807 75.18C232.08 75.7337 230.558 72.473 229.943 71.3129C228.975 69.5024 227.876 67.6567 227.612 65.5298C226.346 55.5457 234.701 53.0584 243.653 50.3866C247.132 49.4464 250.534 48.2418 253.829 46.7832C253.887 46.7555 253.951 46.7399 254.016 46.7373C254.081 46.7347 254.146 46.7452 254.206 46.7682C254.267 46.7911 254.323 46.8261 254.37 46.8709C254.417 46.9158 254.454 46.9696 254.48 47.0292C254.829 47.8032 255.265 48.5345 255.781 49.2089C256.409 50.0355 257.159 50.7616 258.006 51.3622C259.095 52.0539 260.281 52.5811 261.524 52.9266C262.765 53.2657 264.039 53.4749 265.323 53.5506C265.388 53.5541 265.452 53.5448 265.512 53.5232C265.573 53.5016 265.629 53.4682 265.676 53.4248C265.724 53.3814 265.762 53.329 265.789 53.2706C265.816 53.2122 265.831 53.149 265.833 53.0848V52.5047C265.838 52.3779 265.793 52.2544 265.707 52.1606C265.622 52.0669 265.503 52.0106 265.376 52.0037C264.204 51.9333 263.043 51.7418 261.911 51.4325C260.844 51.1336 259.825 50.6838 258.886 50.0966C258.166 49.5872 257.528 48.9707 256.995 48.2685C256.006 46.9909 255.372 45.475 255.157 43.874C254.94 42.3662 255.291 40.8316 256.142 39.5675C256.489 39.0753 256.91 38.6395 257.391 38.2755C258.599 37.4116 260.017 36.8866 261.498 36.755H261.876C262.622 37.9925 263.645 39.0395 264.866 39.8136C265.869 40.5154 266.758 41.366 267.504 42.336C268.19 43.2458 268.716 44.2651 269.061 45.3506C269.585 47.6182 269.533 49.9807 268.911 52.2235ZM278.585 37.3703C278.152 37.8375 277.684 38.2722 277.187 38.671L275.604 39.9278C275.522 40.0022 275.468 40.1024 275.452 40.2116C275.435 40.3209 275.456 40.4326 275.511 40.5282C275.567 40.6238 275.653 40.6975 275.757 40.737C275.86 40.7765 275.974 40.7794 276.079 40.7452L277.952 39.9894L278.489 39.796C278.169 40.1215 277.875 40.4712 277.609 40.8419C276.977 41.6706 276.59 42.6604 276.492 43.6983C276.495 43.7275 276.495 43.7569 276.492 43.7861C275.636 46.6325 273.919 49.144 271.576 50.9754C271.503 51.0404 271.411 51.0815 271.313 51.0932C271.216 51.1049 271.117 51.0866 271.03 51.0408C270.943 50.995 270.872 50.9238 270.827 50.8368C270.782 50.7498 270.764 50.651 270.776 50.5536C271.113 48.6416 271.022 46.6788 270.512 44.8057C270.129 43.5426 269.535 42.3538 268.753 41.2901C267.924 40.1979 266.933 39.2378 265.816 38.4425C265.499 38.214 265.218 38.0031 264.936 37.7921C264.754 37.6815 264.593 37.5385 264.461 37.3703C264.142 36.94 263.986 36.4103 264.022 35.8758C264.057 35.3413 264.282 34.8368 264.655 34.4524C264.677 34.3857 264.715 34.3254 264.766 34.2764C264.816 34.2275 264.878 34.1914 264.945 34.1711C267.122 33.5758 269.347 33.1729 271.594 32.967L272.552 32.844C277.521 32.5715 278.858 29.9437 278.603 26.6918C278.374 23.8002 276.739 20.4429 275.481 18.0787V18.0084C275.174 17.2024 274.97 16.3608 274.874 15.5036C274.77 14.7772 274.896 14.0366 275.235 13.3854C275.593 12.8236 276.138 12.4065 276.774 12.2077C277.125 12.0809 277.487 11.9867 277.856 11.9265C277.949 11.9119 278.044 11.925 278.13 11.964C278.216 12.0031 278.289 12.0664 278.339 12.1462C278.463 12.3369 278.566 12.5402 278.647 12.7526C278.708 12.91 278.758 13.0715 278.797 13.236C278.821 13.3433 278.808 13.4558 278.761 13.5549C278.713 13.6539 278.632 13.7337 278.533 13.7809C277.993 13.9952 277.557 14.4113 277.319 14.9411C277.168 15.3756 277.117 15.8391 277.172 16.296C277.227 16.7529 277.386 17.1913 277.636 17.5777C278.067 18.316 278.401 18.9224 278.709 19.4937C279.096 20.2144 279.465 20.8736 279.834 21.48C281.32 23.72 282.174 26.319 282.306 29.0033C282.349 31.3542 281.599 33.6514 280.177 35.5246C279.614 36.2277 279.081 36.8429 278.577 37.3703H278.585Z" fill="white"/>
</svg>
