<svg width="36" height="26" viewBox="0 0 36 26" fill="none" xmlns="http://www.w3.org/2000/svg">
<path d="M35.2191 0.55264C34.768 0.188907 34.2042 -0.00652638 33.6246 -9.00964e-05C32.866 0.00567452 32.1206 0.199309 31.4553 0.563478C29.5571 1.58224 28.8629 3.69562 28.2013 5.74397C27.9626 6.47011 27.7132 7.21792 27.4095 7.91154L25.9777 5.74397L25.7825 5.46219C25.6415 5.25953 25.4296 5.11705 25.1886 5.06288C24.9477 5.0087 24.6951 5.04677 24.4809 5.16956L8.81833 14.6635C8.60006 14.7961 8.44327 15.0096 8.38228 15.2575C8.32129 15.5053 8.36108 15.7672 8.49293 15.9857L9.17627 17.1346L9.76199 18.0991C9.08949 18.0991 8.2543 18.0991 7.42996 18.0991H6.09582C4.42022 17.9416 2.74774 18.4301 1.42092 19.4647C0.897003 19.8594 0.497076 20.3958 0.268361 21.0103C0.039646 21.6248 -0.00830494 22.2919 0.13017 22.9328C0.304544 23.3659 0.603949 23.7373 0.990265 23.9998C1.37658 24.2622 1.83233 24.4039 2.2995 24.4067C2.57448 24.4099 2.84733 24.3583 3.10215 24.255C3.67224 23.983 4.11521 23.5016 4.33867 22.9111C4.40814 22.7438 4.45906 22.5693 4.49052 22.3909C4.73346 22.5666 5.01022 22.6901 5.30333 22.7535C5.59643 22.8169 5.89952 22.8189 6.19344 22.7594C6.56014 22.6744 6.89486 22.4864 7.15815 22.2175C7.42143 21.9487 7.6023 21.6103 7.67943 21.2421C7.99206 21.3868 8.33279 21.4608 8.67732 21.4589C9.15708 21.4612 9.62486 21.3092 10.0115 21.0253C10.4211 20.7333 10.7163 20.308 10.8467 19.8223C12.0398 21.784 13.2871 23.7456 14.6538 25.5989C14.7448 25.7201 14.8627 25.8184 14.9982 25.8861C15.1338 25.9538 15.2832 25.9891 15.4348 25.9891C15.5777 25.9874 15.7185 25.9541 15.847 25.8915C21.4897 23.1895 26.8429 19.9214 31.8241 16.1375C32.0187 15.9887 32.1493 15.7715 32.1896 15.53C32.2299 15.2885 32.1768 15.0407 32.041 14.8369C30.9563 13.2763 29.7632 11.423 28.4724 9.48303C28.606 9.49424 28.7402 9.49424 28.8738 9.48303C29.3005 9.48827 29.7193 9.36763 30.0777 9.13622C30.4259 8.89999 30.7028 8.57323 30.8787 8.19123C31.0545 7.80923 31.1226 7.38649 31.0756 6.96865C31.4418 7.01015 31.8122 6.94901 32.1456 6.79205C32.4789 6.63509 32.7619 6.38852 32.9629 6.07994C33.1178 5.83409 33.2215 5.55965 33.2681 5.27294C33.3147 4.98622 33.3031 4.69308 33.2341 4.41091C33.382 4.42426 33.5309 4.42426 33.6788 4.41091C34.0124 4.41449 34.3431 4.35001 34.6509 4.22143C34.9586 4.09284 35.2368 3.90286 35.4685 3.6631C35.8182 3.24437 36.0033 2.71268 35.9892 2.16748C35.9785 1.85993 35.9046 1.55786 35.7722 1.28005C35.6397 1.00224 35.4514 0.75464 35.2191 0.55264ZM26.8671 8.39924L27.0298 8.64851L27.1166 8.67019C28.5701 10.8378 30.0018 13.0053 31.1949 14.7719C28.6243 13.5906 25.9777 12.5285 23.3094 11.5856L25.6198 6.50262L26.8671 8.39924ZM24.828 5.79816C24.8741 5.78573 24.9228 5.78573 24.969 5.79816C25.004 5.79948 25.0383 5.80783 25.07 5.82273C25.1017 5.83763 25.13 5.85876 25.1534 5.88486L20.934 15.1187C20.7114 15.5988 20.3404 15.9947 19.8757 16.2484C19.411 16.502 18.8771 16.5999 18.3525 16.5276L9.30643 15.1729L24.828 5.79816ZM9.64267 20.4618C9.34144 20.6809 8.9748 20.7916 8.60252 20.7759C8.23024 20.7602 7.87428 20.6189 7.59266 20.3751L6.96355 19.8007V20.6569C6.99012 20.9677 6.90395 21.2778 6.72076 21.5305C6.53757 21.7831 6.26957 21.9616 5.96566 22.0333C5.6466 22.0942 5.3164 22.0513 5.02356 21.9108C4.73072 21.7703 4.49067 21.5398 4.33867 21.2529V21.1879L3.69871 21.4805C3.83538 21.8289 3.83538 22.216 3.69871 22.5643C3.5351 22.9877 3.21188 23.3301 2.79844 23.518C2.62946 23.5853 2.44883 23.6185 2.26696 23.6156C1.94206 23.6183 1.62378 23.5237 1.35314 23.3441C1.0825 23.1645 0.871885 22.908 0.748429 22.6077C0.653056 22.095 0.704227 21.5658 0.896073 21.0808C1.08792 20.5958 1.41267 20.1747 1.83309 19.8657C3.03441 18.9596 4.53275 18.538 6.03074 18.6844H7.34319C8.18922 18.6844 9.07865 18.6844 9.77283 18.6844C9.64159 18.7293 9.50752 18.7655 9.37151 18.7927C9.19655 18.8389 9.0191 18.8751 8.84002 18.9011C8.03737 19.042 6.92017 19.0637 5.80296 19.1721C5.52095 19.1721 5.24978 19.2371 4.97862 19.313C4.71102 19.3667 4.44667 19.4354 4.18681 19.5189C3.94591 19.6016 3.71044 19.6993 3.48178 19.8115C3.2762 19.9087 3.08011 20.0248 2.89606 20.1583L2.64659 20.3317L2.45135 20.5268C2.34022 20.6222 2.2418 20.7315 2.15849 20.8519L1.94156 21.1662L2.18019 20.8628C2.26811 20.7491 2.37017 20.6472 2.48389 20.5593L2.68998 20.3859L2.93945 20.2233C3.12489 20.1043 3.32097 20.0027 3.52517 19.9199C3.79402 19.8724 4.06583 19.8434 4.33867 19.8332C4.59237 19.7684 4.84947 19.7178 5.10878 19.6814C5.3691 19.6814 5.65111 19.6164 5.92228 19.5947C7.00694 19.5947 8.0916 19.5947 8.99187 19.4972C9.18839 19.483 9.38395 19.4577 9.57759 19.4213C9.72773 19.3982 9.87626 19.3656 10.0223 19.3238H10.185C10.1722 19.5465 10.1125 19.7639 10.0097 19.9619C9.90684 20.1599 9.7633 20.334 9.58844 20.4726L9.64267 20.4618ZM9.76199 16.7769L9.2305 15.8882L14.7514 16.6794C14.4095 19.3547 14.4387 22.0645 14.8382 24.7319C13.016 22.185 11.3673 19.443 9.76199 16.7769ZM15.5975 25.2196C15.1574 22.4295 15.1063 19.5919 15.4456 16.7877L18.2332 17.1887C18.3813 17.1994 18.5299 17.1994 18.6779 17.1887C19.2831 17.1881 19.8755 17.0143 20.3849 16.6878C20.8943 16.3612 21.2994 15.8957 21.5523 15.3463L22.9732 12.2467C25.7825 13.2329 28.5592 14.3601 31.2492 15.6064C26.3743 19.3254 21.138 22.5459 15.6192 25.2196H15.5975ZM34.9262 3.32713C34.7553 3.49598 34.5517 3.62823 34.3279 3.71581C34.1041 3.80339 33.8648 3.84446 33.6246 3.83651C33.2637 3.8484 32.9115 3.72465 32.6376 3.4897L32.1494 3.98824C32.3709 4.22777 32.5086 4.53264 32.5419 4.85706C32.5751 5.18147 32.5021 5.50791 32.3338 5.78732C32.1594 6.0452 31.8995 6.23331 31.5999 6.31856C31.3003 6.40381 30.9802 6.38071 30.696 6.25335L29.9042 5.91738L30.2296 6.70854C30.3537 7.04173 30.3636 7.40669 30.2575 7.74607C30.1515 8.08545 29.9357 8.38002 29.6439 8.58349C29.3971 8.73784 29.1106 8.81694 28.8195 8.81108C28.5342 8.81039 28.2539 8.73571 28.006 8.59432C28.1264 8.5109 28.2358 8.41258 28.3314 8.3017C28.4786 8.15145 28.6163 7.99219 28.7436 7.82484C28.8629 7.64059 29.0148 7.44551 29.1341 7.22876C29.2703 6.99368 29.3934 6.75126 29.5029 6.50262C29.709 6.01492 29.9259 5.4947 30.1645 4.98532C30.2838 4.73605 30.3923 4.4651 30.5116 4.22667L30.9346 3.52221L31.4553 2.96948C31.5974 2.79131 31.7533 2.62462 31.9217 2.47094C32.0551 2.33296 32.1964 2.2027 32.3447 2.08078L32.7026 1.80983L33.0063 1.5714L32.6809 1.78815L32.3122 2.03743C32.157 2.15174 32.0086 2.27477 31.8674 2.40591C31.689 2.55171 31.5222 2.71114 31.3685 2.88278L30.8587 3.46802L30.3706 4.15081C30.2187 4.40008 30.0994 4.64935 29.9693 4.89862C29.6981 5.408 29.4486 5.90654 29.2209 6.3834C29.1097 6.60663 28.9866 6.8237 28.8521 7.03367C28.7328 7.23959 28.5809 7.40216 28.4616 7.56473C28.3959 7.64998 28.3234 7.72973 28.2447 7.80316C28.4833 7.20708 28.6894 6.57848 28.8955 5.97157C29.5571 3.96656 30.1862 2.06994 31.8674 1.19207C32.2941 0.906014 32.792 0.744352 33.3055 0.725209C33.8189 0.706066 34.3275 0.8302 34.7743 1.08369C34.9295 1.22019 35.0555 1.38649 35.145 1.57269C35.2344 1.75889 35.2854 1.96117 35.295 2.16748C35.3156 2.37567 35.2936 2.58588 35.2302 2.78527C35.1668 2.98466 35.0633 3.16903 34.9262 3.32713Z" fill="white"/>
</svg>
