<svg width="36" height="25" viewBox="0 0 36 25" fill="none" xmlns="http://www.w3.org/2000/svg">
<path d="M4.57806 11.0132C3.56966 11.3311 2.56126 11.7105 1.60327 12.1207C1.56572 12.1361 1.53174 12.1593 1.50346 12.1888C1.47519 12.2183 1.45325 12.2534 1.43903 12.292C1.42481 12.3306 1.41862 12.3717 1.42086 12.4128C1.42309 12.4539 1.4337 12.4941 1.45201 12.5309C1.62266 12.9068 1.85069 13.2528 2.12764 13.5563C2.18248 13.612 2.25684 13.6433 2.33436 13.6433C2.41189 13.6433 2.48625 13.612 2.54109 13.5563L4.86041 11.5054C4.91528 11.4617 4.95296 11.3994 4.96664 11.3298C4.98033 11.2603 4.96912 11.1881 4.93504 11.1262C4.90097 11.0643 4.84626 11.0169 4.78081 10.9924C4.71535 10.9679 4.64344 10.968 4.57806 10.9927V11.0132ZM2.36966 12.9103C2.28136 12.7962 2.20051 12.6763 2.12764 12.5514L3.30747 12.0899L2.36966 12.9103Z" fill="white"/>
<path d="M8.4298 13.6178C8.37107 13.5822 8.30221 13.5679 8.23445 13.5772C8.16669 13.5865 8.10404 13.6189 8.05669 13.6691C7.34073 14.4587 6.65501 15.2893 6.03989 16.1301C6.0147 16.1619 5.99621 16.1986 5.98556 16.2379C5.97492 16.2773 5.97236 16.3184 5.97804 16.3588C5.98371 16.3992 5.9975 16.438 6.01855 16.4728C6.0396 16.5075 6.06746 16.5375 6.10039 16.5608C6.42999 16.7981 6.79405 16.9814 7.17938 17.1043H7.26006C7.32248 17.1052 7.38357 17.0858 7.43438 17.0489C7.48518 17.012 7.52304 16.9595 7.54241 16.8992L8.55081 13.9562C8.5698 13.8941 8.56825 13.8274 8.5464 13.7663C8.52454 13.7052 8.48359 13.653 8.4298 13.6178ZM7.05838 16.407C6.92659 16.3506 6.79858 16.2856 6.67518 16.2122C6.93064 15.8772 7.19619 15.5354 7.47182 15.1867L7.05838 16.407Z" fill="white"/>
<path d="M12.1006 15.7608C12.1006 15.6819 12.0698 15.6062 12.015 15.5505C11.9601 15.4947 11.8857 15.4634 11.8082 15.4634C11.7306 15.4634 11.6562 15.4947 11.6014 15.5505C11.5466 15.6062 11.5157 15.6819 11.5157 15.7608C11.3544 16.7862 11.2334 17.8937 11.1628 18.9601C11.16 19.0008 11.1655 19.0417 11.179 19.0802C11.1925 19.1187 11.2136 19.1539 11.241 19.1838C11.2684 19.2136 11.3016 19.2373 11.3385 19.2536C11.3753 19.2698 11.4151 19.2781 11.4552 19.278H11.546C11.9182 19.2774 12.2885 19.2222 12.6452 19.1139C12.718 19.0924 12.7797 19.0429 12.8173 18.9759C12.855 18.909 12.8656 18.8298 12.8468 18.755L12.1006 15.7608ZM11.788 18.6935C11.788 18.2628 11.8586 17.8424 11.909 17.4117L12.2115 18.632L11.788 18.6935Z" fill="white"/>
<path d="M35.4047 23.6872C35.3923 23.8064 35.3495 23.9202 35.2806 24.0173C35.2116 24.1144 35.1188 24.1915 35.0115 24.2409C34.8182 24.3425 34.6038 24.3956 34.3862 24.3956C34.1687 24.3956 33.9543 24.3425 33.761 24.2409C33.1772 23.7848 32.7274 23.1748 32.4602 22.4772L32.2686 22.1798C31.6635 21.0006 30.9778 20.3648 30.161 20.2418C29.4882 20.2116 28.8206 20.3751 28.235 20.7135C27.7099 21.049 27.0807 21.1733 26.4703 21.0621C25.6736 20.775 25.4619 19.6675 25.4619 18.7344C25.4619 18.5601 25.4619 18.3857 25.4619 18.2114C25.6623 17.3115 25.574 16.3699 25.2098 15.5248C24.4837 14.325 22.9913 14.1507 21.6703 14.2122C21.8641 13.6197 21.9695 13.001 21.9829 12.3767C21.9412 10.5748 21.3016 8.8401 20.1678 7.45464C18.9884 6.00392 17.5645 4.77821 15.9627 3.83487C14.151 2.69015 12.2406 1.71539 10.2551 0.922643C8.98868 0.333373 7.61422 0.0223918 6.22153 0.0100098C4.61761 0.125101 3.10597 0.815553 1.95599 1.95833C1.12425 2.832 0.493919 3.88278 0.110609 5.03462C-0.0128182 5.34569 -0.0227159 5.6914 0.0827061 6.00925C0.188128 6.32709 0.401911 6.59609 0.685399 6.7676L2.46019 7.86481L4.30557 8.99278C4.52695 9.13438 4.78048 9.21561 5.0417 9.22863C5.2525 9.22941 5.4611 9.18507 5.65394 9.09851C5.84678 9.01194 6.01956 8.88508 6.16103 8.72617C6.53485 8.31256 6.82443 7.82777 7.01309 7.29978C7.20174 6.77179 7.28572 6.21104 7.26019 5.64988C10.6253 6.38438 13.6774 8.17835 15.9829 10.777C15.2529 11.2105 14.6719 11.8622 14.319 12.6433C14.1412 13.0362 14.1163 13.483 14.2491 13.8938C14.3819 14.3047 14.6626 14.6492 15.035 14.8582L16.6383 15.7811L18.3123 16.745C18.5712 16.8922 18.8627 16.9699 19.1593 16.9706C19.4115 16.9701 19.6606 16.915 19.8901 16.8089C20.1196 16.7028 20.3243 16.5482 20.4904 16.3554C20.865 15.9092 21.171 15.4078 21.398 14.8685C22.6081 14.7762 24.04 14.8685 24.6551 15.8939C24.9798 16.6228 25.0715 17.437 24.9173 18.2217C24.9173 18.396 24.9173 18.5806 24.9173 18.7549C24.8568 19.9034 25.1795 21.2877 26.2888 21.6876C27.0427 21.868 27.8361 21.739 28.4972 21.3287C28.993 21.0377 29.5585 20.8921 30.1308 20.9083C30.7459 21.0006 31.2904 21.5338 31.8047 22.5285L31.9459 22.8053C32.2472 23.6246 32.7763 24.3371 33.4686 24.8562C33.7531 25.0253 34.0769 25.1138 34.4064 25.1126C34.7149 25.1145 35.0194 25.0406 35.2938 24.8972C35.4878 24.8019 35.6546 24.6576 35.7782 24.4781C35.9018 24.2985 35.978 24.0898 35.9997 23.8718L35.4047 23.6872ZM5.0417 8.61337C4.8748 8.6131 4.71107 8.56705 4.56775 8.48007L2.77279 7.35209L1.00809 6.24463C0.838344 6.14521 0.710572 5.98568 0.649185 5.79652C0.587798 5.60735 0.597101 5.40183 0.675315 5.2192L0.876996 4.73725C1.78456 5.26021 2.6417 5.76268 3.46859 6.31641C4.29548 6.87014 5.14254 7.39311 6.0501 7.91608C5.96066 8.052 5.86299 8.18214 5.75767 8.30574C5.66818 8.40774 5.55753 8.48824 5.43371 8.54144C5.30989 8.59464 5.176 8.61921 5.0417 8.61337ZM16.5879 11.1257C16.6305 11.1069 16.668 11.0781 16.6974 11.0416C16.7268 11.0052 16.7473 10.9622 16.7572 10.9161C16.767 10.87 16.766 10.8222 16.7541 10.7766C16.7422 10.7311 16.7198 10.689 16.6888 10.654C14.1812 7.71392 10.7694 5.72267 7.00809 5.00386H6.95767C6.9136 5.00288 6.86988 5.01206 6.82979 5.03068C6.7897 5.04931 6.75427 5.07692 6.72614 5.11143C6.69802 5.14595 6.67793 5.18648 6.66739 5.23C6.65684 5.27352 6.6561 5.31891 6.66523 5.36276C6.77484 6.0628 6.66549 6.78017 6.35263 7.41362C5.45515 6.89065 4.598 6.38819 3.77111 5.83446C2.94422 5.28072 2.01649 4.73725 1.10893 4.20402C1.41153 3.52847 1.83561 2.91638 2.35935 2.39926C3.40366 1.35247 4.77944 0.716554 6.2417 0.60476C7.56828 0.618402 8.87723 0.915357 10.0837 1.47638C12.0448 2.25684 13.9316 3.21791 15.7207 4.34758C17.2564 5.25528 18.622 6.43217 19.7543 7.82379C20.7923 9.1058 21.3749 10.7062 21.4081 12.3664C21.396 13.0111 21.2767 13.6491 21.0551 14.2532H20.8837V14.5711C20.8131 14.7352 20.7325 14.889 20.6518 15.0428C18.8367 14.0174 17.0518 13.2176 15.1762 12.3767C15.5325 11.8309 16.032 11.3975 16.6182 11.1257H16.5879ZM18.6047 16.1913L16.9409 15.2377L15.3577 14.3558C15.1269 14.2253 14.9506 14.0141 14.8616 13.7613C14.7725 13.5085 14.7768 13.2315 14.8736 12.9817H14.9341C16.7896 13.8123 18.5543 14.5916 20.3291 15.6068C20.2484 15.7196 20.1577 15.8427 20.0669 15.9452C19.8878 16.1436 19.6487 16.2755 19.3875 16.3201C19.1263 16.3646 18.8579 16.3193 18.6249 16.1913H18.6047Z" fill="white"/>
</svg>
