<svg width="14" height="24" viewBox="0 0 14 24" fill="none" xmlns="http://www.w3.org/2000/svg">
<path d="M1.75228 10.012L11.4687 0.275344C11.8345 -0.0911713 12.4281 -0.0917338 12.7945 0.273985C13.161 0.639704 13.1617 1.23328 12.7959 1.5998L3.0788 11.3372C2.71327 11.7027 2.71327 12.2975 3.0795 12.6637L12.7959 22.4004C13.1617 22.7669 13.161 23.3605 12.7945 23.7262C12.7076 23.8132 12.6044 23.8822 12.4907 23.9291C12.3771 23.9762 12.2553 24.0003 12.1323 24.0001C11.8921 24.0001 11.6519 23.9083 11.4687 23.7248L1.75299 13.9888C0.656392 12.8922 0.656391 11.1079 1.75228 10.012Z" fill="#F6FCE8"/>
</svg>
