<svg width="14" height="24" viewBox="0 0 14 24" fill="none" xmlns="http://www.w3.org/2000/svg">
<path d="M12.2477 10.012L2.53128 0.275344C2.16547 -0.0911713 1.57189 -0.0917338 1.20547 0.273985C0.838952 0.639704 0.838342 1.23328 1.20406 1.5998L10.9212 11.3372C11.2867 11.7027 11.2867 12.2975 10.9205 12.6637L1.20406 22.4004C0.838342 22.7669 0.838952 23.3605 1.20547 23.7262C1.2924 23.8132 1.39564 23.8822 1.50927 23.9291C1.62291 23.9762 1.7447 24.0003 1.86767 24.0001C2.1079 24.0001 2.34814 23.9083 2.53128 23.7248L12.247 13.9888C13.3436 12.8922 13.3436 11.1079 12.2477 10.012Z" fill="#F6FCE8"/>
</svg>
