<svg width="50" height="72" viewBox="0 0 50 72" fill="none" xmlns="http://www.w3.org/2000/svg">
<path d="M36.9217 51.3234C35.1549 51.3222 33.5525 50.4212 32.6354 48.9133C32.2912 48.3474 31.5534 48.1674 30.987 48.5117C30.421 48.856 30.2411 49.594 30.5854 50.1601C31.2232 51.2088 32.0871 52.0558 33.0929 52.6622L31.8458 58.3039L28.8506 54.8502C29.4074 54.2107 29.2504 53.4816 28.796 53.086C28.2964 52.651 27.5386 52.703 27.1034 53.203L24.9924 55.6273L19.683 49.7197C20.135 48.8533 20.4094 47.9026 20.4892 46.9113C30.7629 49.9217 41.0436 42.2445 41.0704 31.558C41.0704 31.1495 41.0766 22.388 41.077 21.7922C41.0803 17.1509 37.3269 13.3924 32.685 13.3891L17.3887 13.3786C12.7241 13.3786 8.98828 17.1477 8.98513 21.7708L8.97973 29.5505C8.17818 29.135 7.63097 28.3106 7.63157 27.3525L7.64146 12.7372C7.64251 11.1666 8.92034 9.88986 10.4907 9.88986C10.9973 9.88986 11.4294 9.57988 11.6071 9.13645C13.2205 5.11146 17.1278 2.3994 21.5727 2.3994L37.7039 2.41034L36.2163 6.33365C35.9686 6.98764 36.3309 7.71556 37.0032 7.91111L39.0818 8.5153C41.0685 9.09281 42.5743 10.9129 42.5825 13.1419L42.5728 27.3763C42.5723 28.0389 43.109 28.5763 43.7716 28.5769C44.4368 28.5769 44.9717 28.0384 44.9722 27.3781C44.9722 27.2895 44.9821 13.176 44.9818 13.0874C44.9707 9.9308 42.8199 7.10326 39.7517 6.21128L38.9204 5.9697L40.5631 1.63729C40.8602 0.853435 40.2806 0.0128973 39.4421 0.0122975L21.5742 5.63959e-07C16.4258 -0.00149906 11.8173 2.98785 9.6799 7.553C7.17088 7.9438 5.24402 10.1184 5.24222 12.7357L5.23232 27.351C5.23082 29.6816 6.86136 31.588 8.98933 32.097C9.20887 38.2798 12.9144 43.5205 18.1162 46.0047L18.116 46.3104C18.1142 49.0756 15.8726 51.307 13.1035 51.307C6.62592 51.1914 0.713362 56.5864 0.708563 63.6811L0.703614 70.7679C0.703164 71.4304 1.23988 71.9679 1.90256 71.9684C2.56779 71.9684 3.10256 71.4298 3.10301 70.7694L3.10796 63.6826C3.11171 58.1705 7.57263 53.7064 13.0909 53.7064C13.5074 53.7138 14.1023 53.661 14.6657 53.541L16.3345 61.1393C16.5462 62.1028 17.7674 62.4099 18.4116 61.6691L22.7317 56.7013L23.8068 57.8975L23.8018 65.0852C23.8014 65.7478 24.3381 66.2852 25.0008 66.2857C25.666 66.2857 26.2008 65.7472 26.2012 65.0867L26.2062 57.8874L27.2595 56.6776L31.5961 61.6781C32.2417 62.4227 33.4618 62.1112 33.6739 61.151L35.353 53.5548C35.8611 53.6632 36.3852 53.7223 36.9202 53.7226C42.4376 53.7262 46.9008 58.1943 46.8968 63.7126L46.892 70.7994C46.8915 71.4619 47.4282 71.9994 48.0908 71.9998C48.7561 71.9998 49.2909 71.4613 49.2914 70.8009L49.2962 63.7141C49.3011 56.8708 43.7665 51.3277 36.9217 51.3234ZM11.3778 31.4963L11.3844 21.7726C11.3866 18.4662 14.0769 15.7781 17.3829 15.7781C17.3901 15.7781 32.6759 15.7886 32.6831 15.7886C35.9981 15.7909 38.6799 18.4747 38.6775 21.7907L38.6707 31.5721C38.6393 39.0815 32.5574 45.1598 25.0149 45.1598C17.4955 45.1545 11.3778 39.0795 11.3778 31.4963ZM18.1663 58.2947L16.9265 52.6496C17.3841 52.3738 17.8133 52.0451 18.209 51.6693L21.1156 54.9033L18.1663 58.2947Z" fill="black"/>
</svg>
