<svg width="180" height="24" viewBox="0 0 180 24" fill="none" xmlns="http://www.w3.org/2000/svg">
<path d="M27.7837 9.59173C26.9267 9.4321 26.0559 9.34882 25.192 9.24471L24.0585 9.09202C24.0227 9.06976 23.9828 9.05517 23.9412 9.0492C23.8995 9.04323 23.8571 9.04599 23.8166 9.05732C21.9851 8.76582 20.3056 8.24529 19.1168 6.59347C17.6309 4.51134 16.691 2.12383 15.1774 0.0764072C14.8802 -0.326138 12.8413 0.867616 13.0487 1.31874C13.256 1.76987 12.6685 2.50556 12.5096 2.77623C12.24 3.28288 11.9359 3.77566 11.6456 4.27537C11.1744 5.16002 10.6576 6.01948 10.0975 6.85027C9.82795 7.22505 9.53767 7.54431 9.26122 7.91215H8.72213L5.95758 8.07872L1.85913 8.32858C1.54121 8.32858 -0.442357 9.41822 0.0414392 9.71666C1.54121 10.5426 3.02716 11.4032 4.54075 12.2013C5.301 12.6039 6.47593 12.8954 7.17398 13.5894C7.17398 13.6449 7.20854 13.6727 7.27074 13.6866C7.43425 13.854 7.5634 14.0521 7.65087 14.2696C7.94115 15.0122 7.53338 15.7548 7.29839 16.4489C7.0634 17.1429 6.91135 18.0452 6.67636 18.8711L6.01978 21.3627C5.7204 22.1592 5.51624 22.9886 5.41158 23.8335C5.41158 24.3401 6.79386 23.5351 6.92517 23.424L10.367 20.8213C11.1066 20.2661 12.2953 18.7739 13.2698 19.1834C13.8237 19.4818 14.3449 19.8377 14.8249 20.2453L16.6288 21.5154C17.776 22.3205 18.9095 23.1464 20.0844 23.9237C20.5129 24.2152 22.3514 23.2297 22.2131 22.6814L20.9553 17.6149C20.7548 16.8028 20.5406 15.9977 20.354 15.1857C20.2132 14.7657 20.1476 14.3239 20.1605 13.8809C20.1605 13.8809 20.1605 13.7768 20.2158 13.6935C20.8032 13.4923 21.3907 13.2146 21.9505 12.9578C22.6417 12.6247 23.3743 12.2638 24.0792 11.889L24.9846 11.424C25.287 11.2116 25.6204 11.0477 25.9729 10.9382C26.4863 10.8534 26.9654 10.6249 27.3552 10.2788C27.4451 10.2372 28.1293 9.6542 27.7837 9.59173ZM20.4507 12.7913C19.7086 13.071 19.0329 13.5037 18.4672 14.0614C17.776 14.7554 18.0179 15.734 18.2529 16.6154C17.8473 17.4022 17.3853 18.1584 16.8706 18.878C16.4152 18.4863 15.9082 18.1593 15.364 17.9064C15.3759 17.8775 15.3759 17.845 15.364 17.8161C15.1566 17.5316 16.4767 16.1851 16.7462 15.8728L18.3704 13.8393L21.2041 10.2858L21.9505 10.4176C21.4911 11.2339 20.9905 12.0261 20.4507 12.7913ZM9.81413 13.0481C9.72762 12.8375 9.60348 12.6446 9.44783 12.479C11.4061 10.0405 13.3827 7.61834 15.3778 5.21232C15.675 5.75368 15.986 6.29503 16.3108 6.8225C16.2456 6.87937 16.1833 6.9396 16.1242 7.00295C14.5899 8.65478 13.1109 10.3367 11.6871 12.0486C11.1066 12.7427 10.4914 13.4367 9.89016 14.1308C9.97342 13.7704 9.94693 13.3932 9.81413 13.0481ZM8.86727 17.6496L9.0055 17.136C9.23799 17.0024 9.43482 16.8143 9.57914 16.5877C10.5675 14.7485 12.1294 13.1175 13.4633 11.5489C14.5692 10.2303 15.7003 8.93239 16.8568 7.65535L17.1748 8.0926C17.317 8.27657 17.4718 8.45049 17.6378 8.61313L17.4996 8.75194C14.2092 12.2916 11.135 16.0277 8.29363 19.9399L8.86727 17.6496ZM4.09842 9.56397C4.96234 9.52233 5.82626 9.46681 6.68328 9.40434L6.58652 9.49457C6.28702 9.8092 5.99214 10.1285 5.70186 10.4523C5.16277 10.1678 4.6306 9.86935 4.09842 9.56397ZM6.60034 10.9521C6.67326 10.8841 6.74247 10.8123 6.80768 10.7369C7.22236 10.2511 7.65778 9.77219 8.0932 9.30718C9.11036 9.20709 10.0528 8.72645 10.7333 7.96073C11.5382 6.94154 12.2858 5.878 12.9726 4.77508C13.3366 4.15044 13.696 3.52117 14.0508 2.88728C14.3273 3.34535 14.583 3.81036 14.8387 4.27537C14.7503 4.3555 14.6672 4.44127 14.5899 4.53216C12.5718 6.96131 10.5698 9.40666 8.58391 11.8682C7.99644 11.542 7.33294 11.313 6.8215 11.0631L6.60034 10.9521ZM10.4914 19.8427C9.98 20.2661 9.45474 20.6756 8.92256 21.0781C11.8129 16.9449 14.9664 13.0037 18.3635 9.27942C18.9006 9.63399 19.4877 9.90539 20.1052 10.0845C19.8902 10.2323 19.697 10.4099 19.5315 10.612L15.827 15.1996L13.9748 17.5246C13.9057 17.6149 13.7813 17.7398 13.6499 17.8855C12.4823 18.3133 11.4093 18.9664 10.4914 19.808V19.8427ZM17.5687 19.4333C17.8759 19.253 18.1476 19.0177 18.3704 18.7392C18.4879 18.5935 18.5985 18.4477 18.7091 18.302L19.2827 20.627L17.5687 19.4333ZM20.043 13.7629L20.1812 13.7143C20.0015 13.8809 19.5868 13.8809 20.043 13.7629ZM20.2019 13.7005L20.2503 13.5339C20.3056 13.5964 20.271 13.6519 20.2158 13.7005H20.2019ZM22.4896 11.9376C22.7799 11.5027 23.0563 11.0631 23.319 10.6189L24.7496 10.7924C24.0101 11.1742 23.2706 11.5698 22.5034 11.9376H22.4896Z" fill="#95165B"/>
<path d="M65.6983 9.59177C64.8413 9.43214 63.9704 9.34886 63.1065 9.24475L61.973 9.09206C61.9373 9.06979 61.8973 9.05521 61.8557 9.04924C61.8141 9.04327 61.7717 9.04603 61.7311 9.05736C59.8996 8.76586 58.2202 8.24533 57.0314 6.59351C55.5455 4.51138 54.6055 2.12387 53.0919 0.0764453C52.7947 -0.326099 50.7559 0.867654 50.9632 1.31878C51.1705 1.76991 50.5831 2.50559 50.4241 2.77627C50.1546 3.28292 49.8505 3.77569 49.5602 4.2754C49.0889 5.16006 48.5722 6.01952 48.012 6.8503C47.7425 7.22509 47.4522 7.54435 47.1758 7.91219H46.6367L43.8721 8.07876L39.7737 8.32861C39.4558 8.32861 37.4722 9.41826 37.956 9.7167C39.4558 10.5426 40.9417 11.4032 42.4553 12.2014C43.2155 12.6039 44.3905 12.8954 45.0885 13.5895C45.0885 13.645 45.1231 13.6727 45.1853 13.6866C45.3488 13.8541 45.4779 14.0522 45.5654 14.2696C45.8557 15.0122 45.4479 15.7549 45.2129 16.4489C44.9779 17.143 44.8052 18.0452 44.5909 18.8711L43.9343 21.3627C43.635 22.1593 43.4308 22.9887 43.3261 23.8335C43.3261 24.3402 44.7084 23.5351 44.8397 23.424L48.2954 20.8422C49.0349 20.287 50.2237 18.7948 51.1982 19.2043C51.7521 19.5026 52.2733 19.8585 52.7533 20.2662L54.5433 21.5154C55.6906 22.3205 56.8241 23.1464 57.999 23.9238C58.4275 24.2153 60.2659 23.2297 60.1277 22.6814L58.8698 17.6149C58.6694 16.8029 58.4551 15.9978 58.2685 15.1858C58.1254 14.7662 58.0575 14.3244 58.0681 13.881C58.0681 13.881 58.0681 13.7768 58.1234 13.6936C58.7109 13.4923 59.2983 13.2147 59.8581 12.9579C60.5493 12.6247 61.2819 12.2638 61.9869 11.8891L62.8922 11.424C63.1946 11.2116 63.528 11.0477 63.8806 10.9382C64.3939 10.8534 64.873 10.6249 65.2628 10.2789C65.3596 10.2372 66.0438 9.65424 65.6983 9.59177ZM58.3584 12.7913C57.6162 13.0711 56.9405 13.5037 56.3748 14.0614C55.6837 14.7555 55.9256 15.7341 56.1606 16.6155C55.7549 17.4023 55.293 18.1585 54.7783 18.8781C54.3228 18.4863 53.8158 18.1594 53.2716 17.9064C53.2835 17.8775 53.2835 17.8451 53.2716 17.8162C53.0643 17.5316 54.3843 16.1852 54.6539 15.8729L56.2781 13.8393L59.1117 10.2858L59.8581 10.4177C59.3987 11.234 58.8981 12.0262 58.3584 12.7913ZM47.7287 13.0481C47.6407 12.8425 47.5166 12.6544 47.3624 12.4929C49.3206 10.0545 51.2973 7.63226 53.2923 5.22624C53.5895 5.7676 53.9005 6.30895 54.2254 6.83642C54.1601 6.89329 54.0978 6.95352 54.0388 7.01687C52.5275 8.6687 51.0507 10.3483 49.6086 12.0556C49.028 12.7497 48.4129 13.4437 47.8116 14.1378C47.8941 13.7745 47.8652 13.3946 47.7287 13.0481ZM46.7818 17.6496L46.92 17.136C47.1525 17.0024 47.3494 16.8143 47.4937 16.5877C48.482 14.7485 50.044 13.1175 51.3779 11.549C52.4837 10.2303 53.6149 8.93243 54.7714 7.65539L55.0893 8.09264C55.2316 8.27661 55.3863 8.45053 55.5524 8.61317L55.4141 8.75198C52.1167 12.291 49.0355 16.0272 46.1874 19.9399L46.7818 17.6496ZM42.0406 9.56401C42.9045 9.52237 43.7685 9.46684 44.6255 9.40438L44.5287 9.49461C44.2292 9.80924 43.9343 10.1285 43.6441 10.4524C43.0773 10.1678 42.5451 9.86939 42.0406 9.56401ZM44.5425 10.9521C44.6155 10.8842 44.6847 10.8124 44.7499 10.7369C45.1646 10.2511 45.6 9.77222 46.0354 9.30721C47.0526 9.20713 47.995 8.72649 48.6755 7.96077C49.4721 6.92964 50.2104 5.8545 50.8872 4.74041C51.2512 4.11577 51.6106 3.48651 51.9654 2.85262C52.2418 3.31068 52.4975 3.77569 52.7533 4.2407C52.6649 4.32083 52.5818 4.40661 52.5044 4.4975C50.4863 6.92665 48.4843 9.37199 46.4985 11.8335C45.911 11.5073 45.2475 11.2783 44.7361 11.0284L44.5425 10.9521ZM48.4336 19.8428C47.9222 20.2661 47.3969 20.6756 46.8648 21.0782C49.7551 16.9449 52.9086 13.0038 56.3057 9.27945C56.8428 9.63403 57.4299 9.90543 58.0474 10.0845C57.8324 10.2323 57.6392 10.4099 57.4737 10.612L53.7416 15.1996L51.8893 17.5247C51.8202 17.6149 51.6958 17.7398 51.5645 17.8856C50.3968 18.3133 49.3238 18.9664 48.406 19.8081L48.4336 19.8428ZM55.4832 19.4333C55.7904 19.253 56.0621 19.0178 56.285 18.7393C56.4025 18.5935 56.513 18.4478 56.6236 18.302L57.1973 20.6271L55.4832 19.4333ZM57.9368 13.763L58.075 13.7144C57.9368 13.881 57.5014 13.881 57.9368 13.763ZM58.0958 13.7005L58.1441 13.5339C58.2132 13.5964 58.1856 13.6519 58.1234 13.7005H58.0958ZM60.3834 11.9376C60.6737 11.5027 60.9501 11.0631 61.2128 10.619L62.6434 10.7925C61.9247 11.1742 61.1782 11.5698 60.418 11.9376H60.3834Z" fill="#95165B"/>
<path d="M103.613 9.59188C102.756 9.43225 101.885 9.34896 101.021 9.24486L99.8876 9.09217C99.8519 9.0699 99.8119 9.05532 99.7703 9.04935C99.7286 9.04337 99.6862 9.04614 99.6457 9.05747C97.8142 8.76597 96.1347 8.24544 94.946 6.59361C93.46 4.51149 92.5201 2.12398 91.0065 0.0765521C90.7093 -0.325993 88.6704 0.867761 88.8778 1.31889C89.0851 1.77002 88.4976 2.5057 88.3387 2.80414C88.0691 3.31079 87.765 3.80356 87.4748 4.30327C87.0035 5.18793 86.4867 6.04739 85.9266 6.87817C85.6571 7.25295 85.3668 7.57221 85.0903 7.94006H84.5512L81.7867 8.10663L77.6882 8.35648C77.3703 8.35648 75.3867 9.44613 75.8705 9.74457C77.3703 10.5705 78.8563 11.4311 80.3699 12.2292C81.1301 12.6318 82.305 12.9233 83.0031 13.6173C83.0031 13.6728 83.0376 13.7006 83.0998 13.7145C83.2634 13.882 83.3925 14.08 83.48 14.2975C83.7703 15.0401 83.3625 15.7827 83.1275 16.4768C82.8925 17.1708 82.6852 18.08 82.4709 18.8851L81.8143 21.3767C81.5149 22.1733 81.3108 23.0027 81.2061 23.8475C81.2061 24.3542 82.5884 23.5491 82.7197 23.438L86.1754 20.8562C86.9149 20.301 88.1037 18.8088 89.0782 19.2183C89.6321 19.5166 90.1533 19.8725 90.6333 20.2801L92.4579 21.5155C93.6052 22.3206 94.7386 23.1465 95.9136 23.9239C96.3421 24.2154 98.1805 23.2298 98.0423 22.6815L96.7844 17.615C96.584 16.803 96.3697 15.9979 96.1831 15.1859C96.0454 14.7676 95.9823 14.3283 95.9965 13.888C95.9965 13.888 95.9965 13.7839 96.0518 13.7006C96.6392 13.4993 97.2267 13.2217 97.7865 12.9649C98.4777 12.6318 99.2103 12.2709 99.9152 11.8961L100.821 11.4311C101.123 11.2187 101.456 11.0548 101.809 10.9453C102.322 10.8605 102.801 10.6319 103.191 10.2859C103.274 10.2373 103.958 9.65434 103.613 9.59188ZM96.2729 12.7914C95.5308 13.0712 94.8551 13.5038 94.2894 14.0615C93.5982 14.7556 93.8401 15.7342 94.0751 16.6156C93.6695 17.4024 93.2075 18.1586 92.6928 18.8782C92.2374 18.4864 91.7304 18.1595 91.1862 17.9065C91.1981 17.8776 91.1981 17.8452 91.1862 17.8163C90.9788 17.5317 92.2989 16.1853 92.5684 15.873L94.1926 13.8394L97.0263 10.2859L97.7727 10.4178C97.3155 11.2339 96.8172 12.0261 96.2799 12.7914H96.2729ZM85.6432 13.0482C85.5567 12.8377 85.4326 12.6448 85.2769 12.4791C87.249 10.0453 89.2256 7.62311 91.2069 5.21247C91.5041 5.75382 91.8151 6.29518 92.1399 6.82265C92.0747 6.87951 92.0124 6.93974 91.9533 7.0031C90.442 8.65492 88.9653 10.3345 87.5231 12.0418C86.9426 12.7359 86.3275 13.4299 85.7262 14.124C85.8058 13.7651 85.7769 13.3905 85.6432 13.0482ZM84.6964 17.6497L84.8346 17.1361C85.0671 17.0026 85.2639 16.8144 85.4083 16.5878C86.3966 14.7486 87.9585 13.1176 89.2924 11.5491C90.3983 10.2304 91.5294 8.93254 92.6859 7.6555L93.0039 8.09275C93.1461 8.27671 93.3009 8.45063 93.4669 8.61328L93.3287 8.75209C90.0265 12.2907 86.9407 16.0269 84.0882 19.9401L84.6964 17.6497ZM79.9413 9.56412C80.8053 9.52247 81.6692 9.46695 82.5262 9.40449L82.4294 9.49471C82.1299 9.80935 81.8351 10.1286 81.5448 10.4525C80.9919 10.1679 80.4597 9.8695 79.9413 9.56412ZM82.4433 10.9522C82.5162 10.8843 82.5854 10.8125 82.6506 10.737C83.0653 10.2512 83.5007 9.77233 83.9361 9.30732C84.9533 9.20724 85.8957 8.72659 86.5763 7.96088C87.3812 6.94168 88.1288 5.87814 88.8156 4.77522C89.1796 4.15058 89.5389 3.52132 89.8937 2.88742C90.1702 3.34549 90.4259 3.8105 90.6816 4.27551C90.5933 4.35564 90.5102 4.44142 90.4328 4.53231C88.4147 6.96146 86.4127 9.4068 84.4268 11.8683C83.8394 11.5421 83.1759 11.3131 82.6644 11.0632L82.4433 10.9522ZM86.3344 19.8429C85.8229 20.2663 85.2977 20.6757 84.7655 21.0783C87.6558 16.945 90.8094 13.0039 94.2064 9.27956C94.7435 9.63413 95.3306 9.90553 95.9481 10.0846C95.7331 10.2324 95.54 10.41 95.3745 10.6121L91.6907 15.1997L89.8385 17.5248C89.7693 17.615 89.6449 17.7399 89.5136 17.8857C88.3337 18.3093 87.2486 18.9627 86.3206 19.8082L86.3344 19.8429ZM93.3978 19.4334C93.705 19.2531 93.9767 19.0179 94.1995 18.7394C94.317 18.5936 94.4276 18.4479 94.5382 18.3021L95.1118 20.6272L93.3978 19.4334ZM95.879 13.7561L96.0172 13.7076C95.8375 13.8811 95.4159 13.8811 95.879 13.7631V13.7561ZM96.038 13.6937L96.0863 13.5271C96.1347 13.5965 96.1002 13.652 96.0449 13.7006L96.038 13.6937ZM98.3256 11.9308C98.6159 11.4959 98.8924 11.0563 99.155 10.6121L100.586 10.7856C99.8392 11.1743 99.0997 11.5699 98.3325 11.9377L98.3256 11.9308Z" fill="#95165B"/>
<path d="M141.528 9.59204C140.671 9.43241 139.8 9.34912 138.936 9.24502L137.803 9.09233C137.767 9.07006 137.727 9.05548 137.685 9.04951C137.644 9.04353 137.601 9.0463 137.561 9.05763C135.729 8.76613 134.05 8.2456 132.861 6.59377C131.375 4.51165 130.435 2.12414 128.922 0.0767123C128.624 -0.325832 126.585 0.867921 126.793 1.31905C127 1.77018 126.413 2.50586 126.254 2.8043C125.984 3.31095 125.68 3.80372 125.39 4.30343C124.919 5.18809 124.402 6.04755 123.842 6.87833C123.572 7.25311 123.282 7.57237 123.005 7.94022H122.466L119.702 8.10679L115.603 8.35664C115.285 8.35664 113.302 9.44629 113.786 9.74473C115.285 10.5706 116.771 11.4313 118.285 12.2294C119.045 12.6319 120.22 12.9234 120.918 13.6175C120.918 13.673 120.953 13.7008 121.015 13.7147C121.178 13.8821 121.308 14.0802 121.395 14.2976C121.685 15.0403 121.278 15.7829 121.043 16.4769C120.808 17.171 120.6 18.0802 120.386 18.8853L119.729 21.3769C119.43 22.1734 119.226 23.0028 119.121 23.8477C119.121 24.3543 120.503 23.5492 120.635 23.4382L124.09 20.8564C124.83 20.3011 126.019 18.8089 126.993 19.2184C127.547 19.5168 128.068 19.8727 128.548 20.2803L130.373 21.5157C131.52 22.3208 132.654 23.1467 133.829 23.924C134.257 24.2155 136.096 23.23 135.957 22.6817L134.699 17.6152C134.499 16.8031 134.285 15.9981 134.098 15.186C133.96 14.7678 133.897 14.3284 133.912 13.8882C133.912 13.8882 133.912 13.7841 133.967 13.7008C134.554 13.4995 135.142 13.2219 135.702 12.9651C136.393 12.6319 137.125 12.271 137.83 11.8963L138.736 11.4313C139.038 11.2188 139.371 11.0549 139.724 10.9454C140.237 10.8606 140.716 10.6321 141.106 10.2861C141.189 10.2375 141.873 9.6545 141.528 9.59204ZM134.188 12.7916C133.446 13.0713 132.77 13.504 132.204 14.0617C131.513 14.7557 131.755 15.7343 131.99 16.6158C131.585 17.4025 131.123 18.1587 130.608 18.8783C130.152 18.4866 129.645 18.1596 129.101 17.9067C129.113 17.8778 129.113 17.8453 129.101 17.8164C128.894 17.5319 130.214 16.1854 130.483 15.8731L132.108 13.8396L134.941 10.2861L135.688 10.4179C135.228 11.2342 134.728 12.0265 134.188 12.7916ZM123.558 13.0484C123.472 12.8378 123.348 12.6449 123.192 12.4793C125.15 10.0409 127.127 7.61864 129.122 5.21263C129.419 5.75398 129.73 6.29534 130.055 6.82281C129.99 6.87967 129.927 6.9399 129.868 7.00326C128.357 8.65508 126.88 10.3347 125.438 12.042C124.858 12.7361 124.242 13.4301 123.641 14.1241C123.721 13.7653 123.692 13.3907 123.558 13.0484ZM122.611 17.6499L122.75 17.1363C122.982 17.0027 123.179 16.8146 123.323 16.588C124.312 14.7488 125.874 13.1178 127.207 11.5492C128.313 10.2306 129.444 8.9327 130.601 7.65566L130.919 8.09291C131.061 8.27687 131.216 8.45079 131.382 8.61344L131.244 8.75225C127.934 12.2903 124.842 16.0265 121.982 19.9402L122.611 17.6499ZM117.836 9.56428C118.7 9.52263 119.564 9.46711 120.421 9.40465L120.324 9.49487C120.024 9.80951 119.729 10.1288 119.439 10.4527C118.907 10.1681 118.375 9.86966 117.836 9.56428ZM120.338 10.9524C120.41 10.8844 120.48 10.8126 120.545 10.7372C120.96 10.2514 121.395 9.77249 121.83 9.30748C122.848 9.2074 123.79 8.72676 124.471 7.96104C125.275 6.94184 126.023 5.8783 126.71 4.77538C127.074 4.15074 127.433 3.52148 127.788 2.88759C128.064 3.34565 128.32 3.81066 128.576 4.27567C128.488 4.3558 128.404 4.44158 128.327 4.53247C126.309 6.96162 124.307 9.40696 122.321 11.8685C121.734 11.5423 121.07 11.3133 120.559 11.0634L120.338 10.9524ZM124.229 19.8431C123.717 20.2664 123.192 20.6759 122.66 21.0784C125.55 16.9452 128.704 13.004 132.101 9.27972C132.638 9.63429 133.225 9.90569 133.842 10.0848C133.627 10.2326 133.434 10.4102 133.269 10.6123L129.585 15.1999L127.733 17.5249C127.664 17.6152 127.539 17.7401 127.408 17.8858C126.235 18.3119 125.158 18.9651 124.236 19.8083L124.229 19.8431ZM131.313 19.4336C131.62 19.2533 131.892 19.018 132.115 18.7395C132.232 18.5938 132.343 18.448 132.453 18.3023L133.027 20.6273L131.313 19.4336ZM133.794 13.7563L133.932 13.7077C133.732 13.8812 133.331 13.8812 133.794 13.7632V13.7563ZM133.953 13.6938L134.001 13.5273C134.043 13.5967 134.015 13.6522 133.953 13.7008V13.6938ZM136.241 11.931C136.531 11.496 136.807 11.0565 137.07 10.6123L138.501 10.7858C137.754 11.1745 137.008 11.5701 136.248 11.9379L136.241 11.931Z" fill="#95165B"/>
<path d="M179.442 9.59204C178.585 9.43241 177.715 9.34912 176.851 9.24502L175.717 9.09233C175.681 9.07006 175.641 9.05548 175.6 9.04951C175.558 9.04353 175.516 9.0463 175.475 9.05763C173.644 8.76613 171.964 8.2456 170.776 6.59377C169.29 4.51165 168.35 2.12414 166.836 0.0767123C166.539 -0.325832 164.5 0.867921 164.707 1.31905C164.915 1.77018 164.327 2.50586 164.168 2.8043C163.899 3.31095 163.595 3.80372 163.304 4.30343C162.833 5.18809 162.316 6.04755 161.756 6.87833C161.487 7.25311 161.196 7.57237 160.92 7.94022H160.381L157.616 8.10679L153.518 8.35664C153.2 8.35664 151.216 9.44629 151.7 9.74473C153.2 10.5706 154.686 11.4313 156.199 12.2294C156.96 12.6319 158.135 12.9234 158.833 13.6175C158.833 13.673 158.867 13.7008 158.929 13.7147C159.093 13.8821 159.222 14.0802 159.31 14.2976C159.6 15.0403 159.192 15.7829 158.957 16.4769C158.722 17.171 158.515 18.0802 158.301 18.8853L157.644 21.3769C157.345 22.1734 157.14 23.0028 157.036 23.8477C157.036 24.3543 158.418 23.5492 158.549 23.4382L162.005 20.8564C162.745 20.3011 163.933 18.8089 164.908 19.2184C165.462 19.5168 165.983 19.8727 166.463 20.2803L168.287 21.5157C169.435 22.3208 170.568 23.1467 171.743 23.924C172.172 24.2155 174.01 23.23 173.872 22.6817L172.614 17.6152C172.414 16.8031 172.199 15.9981 172.013 15.186C171.875 14.7678 171.812 14.3284 171.826 13.8882C171.826 13.8882 171.826 13.7841 171.881 13.7008C172.469 13.4995 173.056 13.2219 173.616 12.9651C174.307 12.6319 175.04 12.271 175.745 11.8963L176.65 11.4313C176.953 11.2188 177.286 11.0549 177.639 10.9454C178.152 10.8606 178.631 10.6321 179.021 10.2861C179.104 10.2375 179.788 9.6545 179.442 9.59204ZM172.103 12.7916C171.36 13.0713 170.685 13.504 170.119 14.0617C169.428 14.7557 169.67 15.7343 169.905 16.6158C169.499 17.4025 169.037 18.1587 168.522 18.8783C168.067 18.4866 167.56 18.1596 167.016 17.9067C167.028 17.8778 167.028 17.8453 167.016 17.8164C166.808 17.5319 168.128 16.1854 168.398 15.8731L170.022 13.8396L172.856 10.2861L173.602 10.4179C173.145 11.2341 172.647 12.0263 172.109 12.7916H172.103ZM161.473 13.0484C161.386 12.8378 161.262 12.6449 161.107 12.4793C163.065 10.0409 165.041 7.61864 167.036 5.21263C167.334 5.75398 167.645 6.29534 167.97 6.82281C167.904 6.87967 167.842 6.9399 167.783 7.00326C166.272 8.65508 164.795 10.3347 163.353 12.042C162.772 12.7361 162.157 13.4301 161.556 14.1241C161.635 13.7653 161.607 13.3907 161.473 13.0484ZM160.526 17.6499L160.664 17.1363C160.897 17.0027 161.094 16.8146 161.238 16.588C162.226 14.7488 163.788 13.1178 165.122 11.5492C166.228 10.2306 167.359 8.9327 168.516 7.65566L168.833 8.09291C168.976 8.27687 169.13 8.45079 169.296 8.61344L169.158 8.75225C165.86 12.2958 162.779 16.0366 159.932 19.9541L160.526 17.6499ZM155.736 9.56428C156.6 9.52263 157.464 9.46711 158.321 9.40465L158.224 9.49487C157.925 9.80951 157.63 10.1288 157.34 10.4527C156.821 10.1681 156.289 9.86966 155.736 9.56428ZM158.238 10.9524C158.311 10.8844 158.38 10.8126 158.446 10.7372C158.86 10.2514 159.296 9.77249 159.731 9.30748C160.748 9.2074 161.691 8.72676 162.371 7.96104C163.176 6.94184 163.924 5.8783 164.611 4.77538C164.975 4.15074 165.334 3.52148 165.689 2.88759C165.965 3.34565 166.221 3.81066 166.477 4.27567C166.388 4.3558 166.305 4.44158 166.228 4.53247C164.21 6.96162 162.208 9.40696 160.222 11.8685C159.634 11.5423 158.971 11.3133 158.459 11.0634L158.238 10.9524ZM162.129 19.8431C161.618 20.2664 161.093 20.6759 160.561 21.0784C163.451 16.9452 166.604 13.004 170.001 9.27972C170.539 9.63429 171.126 9.90569 171.743 10.0848C171.528 10.2326 171.335 10.4102 171.169 10.6123L167.486 15.1999L165.633 17.5249C165.564 17.6152 165.44 17.7401 165.309 17.8858C164.141 18.3136 163.068 18.9667 162.15 19.8083L162.129 19.8431ZM169.227 19.4336C169.535 19.2533 169.806 19.018 170.029 18.7395C170.147 18.5938 170.257 18.448 170.368 18.3023L170.941 20.6273L169.227 19.4336ZM171.709 13.7563L171.847 13.7077C171.633 13.8812 171.246 13.8812 171.709 13.7632V13.7563ZM171.868 13.6938L171.916 13.5273C171.957 13.5967 171.93 13.6522 171.874 13.7008L171.868 13.6938ZM174.155 11.931C174.445 11.496 174.722 11.0565 174.985 10.6123L176.415 10.7858C175.669 11.1745 174.929 11.5701 174.162 11.9379L174.155 11.931Z" fill="#95165B"/>
</svg>
