<svg width="68" height="96" viewBox="0 0 68 96" fill="none" xmlns="http://www.w3.org/2000/svg">
<path d="M66.4004 84.9486V94.4C66.4004 94.8243 66.2319 95.2313 65.9318 95.5314C65.6318 95.8314 65.2248 96 64.8004 96C64.3761 96 63.9691 95.8314 63.6691 95.5314C63.369 95.2313 63.2004 94.8243 63.2004 94.4V84.9486C63.2004 77.5898 57.2454 71.6342 49.8858 71.6344C46.4036 71.6344 43.2442 69.8604 41.4342 66.8888C41.2135 66.5264 41.1457 66.0912 41.2459 65.6788C41.346 65.2665 41.6058 64.9108 41.9682 64.69C42.3306 64.4692 42.7659 64.4015 43.1782 64.5016C43.5906 64.6018 43.9463 64.8616 44.167 65.224C45.3916 67.2342 47.5294 68.4342 49.8858 68.4342C59.0132 68.4342 66.4004 75.8202 66.4004 84.9486ZM39.7064 72.559L34.0004 76.9764L24.2988 69.4654C26.393 67.7832 27.7472 65.3364 27.9666 62.5574C29.9261 63.1339 31.9581 63.426 34.0006 63.4248C45.8006 63.4248 55.4006 53.8248 55.4006 42.0248C55.4006 41.9004 55.4034 30.8224 55.3954 30.6984C55.341 29.8328 54.6192 29.1998 53.8006 29.1998C53.5266 29.1998 51.5552 29.5898 49.6254 28.4288C46.6158 26.6182 46.6004 22.6494 46.6006 22.6096C46.6084 21.3096 45.1384 20.5424 44.0762 21.2938C37.4858 25.9592 29.769 29.1228 21.3896 30.2958C20.9882 30.3515 20.6229 30.5575 20.3675 30.8721C20.1121 31.1867 19.9855 31.5866 20.0135 31.9909C20.0414 32.3952 20.2217 32.7738 20.518 33.0503C20.8142 33.3268 21.2044 33.4806 21.6096 33.4806C21.8616 33.4806 27.0496 32.8456 32.947 30.7036C36.7518 29.3207 40.3919 27.5209 43.8006 25.337C44.98 29.7622 48.2874 32.224 52.2008 32.4462V42.0248C52.2008 52.0604 44.0364 60.2248 34.0008 60.2248C23.9652 60.2248 15.8008 52.0604 15.8008 42.0248V30.8C15.8008 30.3757 15.6323 29.9687 15.3322 29.6686C15.0321 29.3686 14.6252 29.2 14.2008 29.2C13.7765 29.2 13.3695 29.3686 13.0695 29.6686C12.7694 29.9687 12.6008 30.3757 12.6008 30.8V42.025C12.6008 50.5334 17.5924 57.8974 24.8008 61.344V61.766C24.8008 65.4542 21.812 68.4342 18.1154 68.4342C16.0971 68.4326 14.0956 68.8012 12.2102 69.5216L11.1772 68.6994C3.07103 62.2476 1.55283 50.858 7.08103 42.5598C9.43703 39.0232 10.8008 34.7932 10.8008 30.2674V21.6008C10.8008 11.4546 19.055 3.2 29.2008 3.2H38.8008C48.9466 3.2 57.2008 11.4542 57.2008 21.6V30.2666C57.2008 34.6688 58.481 38.9108 60.903 42.5338C65.3326 49.16 65.3238 57.8566 60.7468 64.4982C60.5126 64.8477 60.4255 65.2754 60.5044 65.6887C60.5832 66.1019 60.8216 66.4675 61.168 66.7063C61.5145 66.945 61.941 67.0377 62.3552 66.9643C62.7695 66.8909 63.1382 66.6573 63.3814 66.314C68.7096 58.583 68.7158 48.4632 63.5632 40.7554C61.4942 37.6604 60.4006 34.0336 60.4006 30.2666V21.6C60.4006 9.6898 50.7108 0 38.8006 0H29.2006C17.2904 0 7.60063 9.6902 7.60063 21.6008V30.2666C7.60423 34.0109 6.49638 37.6719 4.41743 40.786C-2.03357 50.4704 -0.20537 63.6416 9.08283 71.1202C4.52003 74.1134 1.60063 79.1966 1.60063 84.9486V94.4C1.60063 94.8243 1.7692 95.2313 2.06926 95.5314C2.36932 95.8314 2.77628 96 3.20063 96C3.62498 96 4.03194 95.8314 4.332 95.5314C4.63206 95.2313 4.80063 94.8243 4.80063 94.4V84.9486C4.80063 77.5896 10.7556 71.6342 18.1152 71.6344C19.1756 71.6344 20.2232 71.4662 21.2278 71.1348L33.021 80.265C33.3014 80.482 33.646 80.5998 34.0005 80.5998C34.3551 80.5998 34.6996 80.482 34.98 80.265L41.6654 75.0892C41.9979 74.8284 42.2138 74.4466 42.2658 74.0272C42.3178 73.6078 42.2018 73.1849 41.9431 72.8508C41.6844 72.5166 41.304 72.2984 40.8849 72.2437C40.4659 72.189 40.0422 72.3024 39.7064 72.559Z" fill="black"/>
</svg>
