<svg width="229" height="130" viewBox="0 0 229 130" fill="none" xmlns="http://www.w3.org/2000/svg">
<path d="M155.989 49.2272C155.272 49.2272 154.548 49.335 153.84 49.3042C151.875 49.2195 149.911 49.0346 147.946 48.9961C145.982 48.9576 143.886 49.0423 141.852 49.0731C140.626 49.1379 139.397 49.1379 138.17 49.0731C135.281 48.8112 132.4 48.6956 129.503 48.711C128.009 48.711 126.522 48.6032 125.02 48.5955C122.308 48.5955 119.627 48.4414 116.877 48.4029C115.282 48.4029 113.68 48.557 112.101 48.4029C109.482 48.0961 106.848 47.929 104.212 47.9021C103.352 47.8746 102.495 47.7923 101.646 47.6556C102.525 47.1703 103.426 47.463 104.312 47.4553C105.691 47.4553 107.07 47.5786 108.449 47.6633C110.321 47.7789 112.162 48.2103 114.057 48.087C114.925 48.007 115.798 47.9864 116.669 48.0254C117.986 48.1255 119.319 48.2257 120.629 48.2026C123.356 48.1564 126.075 48.3413 128.795 48.3721C129.865 48.3721 130.936 48.3027 132.007 48.3721C134.472 48.4876 136.937 48.765 139.403 48.7419C141.598 48.7419 143.801 48.8266 145.997 48.6186C146.32 48.6024 146.644 48.6024 146.968 48.6186C149.949 48.6186 152.923 49.1116 155.904 48.8035C156.097 48.8035 156.228 48.8035 156.243 49.0346C156.258 49.2657 156.128 49.2195 155.989 49.2272Z" fill="#95165B"/>
<path d="M19.6706 77.8929C19.8549 77.8732 20.0409 77.8732 20.2252 77.8929C21.5546 78.1524 22.9079 78.2686 24.262 78.2395C26.0955 78.2781 27.9059 78.5092 29.7086 78.7249C33.3987 79.164 37.1119 79.1255 40.7943 79.5492C42.1656 79.711 43.5754 79.6493 44.9235 79.9113C46.8633 80.3539 48.8331 80.6526 50.8169 80.8049C54.0371 80.9436 57.2572 80.9282 60.4774 81.0206C61.3897 80.9693 62.3041 81.0735 63.1814 81.3288C63.0526 81.4215 62.9063 81.4871 62.7513 81.5215C62.5964 81.5559 62.4361 81.5585 62.2801 81.5291C60.1659 81.2835 58.0365 81.1934 55.9091 81.2594C54.1603 81.2594 52.4039 81.2594 50.6628 81.1285C47.5043 80.9513 44.4228 80.1501 41.2642 79.9036C38.835 79.7135 36.4057 79.5492 33.9765 79.4105C32.3664 79.3181 30.7563 79.1178 29.1462 79.0484C27.7749 78.9868 26.4268 78.5631 25.0709 78.5939C23.2605 78.6324 21.4732 78.3012 19.6783 78.3474C19.5242 78.3474 19.347 78.4013 19.3239 78.1548C19.3008 77.9083 19.4703 77.8852 19.6706 77.8929Z" fill="#95165B"/>
<path d="M76.2776 77.138C78.0264 77.215 79.7751 77.2766 81.5239 77.3999C83.0646 77.5077 84.6054 77.6849 86.1461 77.8313H86.7932C86.8825 77.8794 86.9786 77.9132 87.0783 77.9315C89.777 78.0657 92.4816 78.0245 95.1749 77.8082C95.1287 78.3552 94.6973 78.2088 94.4046 78.2319C91.714 78.3742 89.0169 78.3381 86.331 78.124H86.1615C85.3218 78.0624 84.4744 78.0316 83.6347 77.9469C82.0554 77.7928 80.4685 77.708 78.8815 77.6618C76.8785 77.6002 74.8755 77.3229 72.8648 77.3537C72.5875 77.3537 72.3102 77.4615 72.0482 77.2997C67.6868 77.052 63.3154 77.0314 58.9518 77.2381C58.6745 77.2381 58.3818 77.3691 58.1198 77.1534C57.3973 77.2131 56.6718 77.2285 55.9474 77.1996C52.7965 76.8914 49.638 77.1996 46.4871 76.9068C44.8154 76.7759 43.136 76.8375 41.4566 76.8221C41.264 76.8221 41.0714 76.8221 41.0868 76.5602C41.1022 76.2982 41.2794 76.3368 41.4335 76.3445C42.1191 76.3445 42.8047 76.4061 43.4981 76.4215C45.7476 76.4677 47.9894 76.6372 50.2389 76.6911C51.5485 76.6911 52.8736 76.6911 54.1755 76.6911C57.0798 76.7836 59.9841 76.8529 62.8885 76.6911C63.0734 76.6911 63.2659 76.6911 63.4508 76.6911L71.1546 76.93C72.8751 77.0019 74.5828 77.0712 76.2776 77.138Z" fill="#95165B"/>
<path d="M43.6909 63.8258C45.6847 64.2004 47.6989 64.4576 49.7229 64.5962C52.8506 64.6501 55.9861 64.5962 59.1138 64.6347C60.1076 64.6347 61.1014 64.6347 62.0875 64.704C64.5064 64.8735 66.9177 65.0892 69.329 65.2818C69.6203 65.2816 69.9111 65.2611 70.1995 65.2202C70.862 65.0815 71.5477 65.5668 72.1871 65.12C72.6339 65.12 73.0884 64.9274 73.5275 65.1662L83.6195 64.7117C83.9739 64.7117 84.3359 64.5576 84.6749 64.7657H85.6456L88.8966 64.9197L92.6252 65.0584C93.3956 65.12 94.1659 65.2202 94.9363 65.2279C96.4308 65.2279 97.9254 65.2279 99.4276 65.2279C99.6279 65.2279 99.8128 65.2279 99.7974 65.4821C99.782 65.7363 99.5971 65.6747 99.4507 65.6978C98.9517 65.7227 98.4515 65.7021 97.9562 65.6362C96.086 65.6602 94.2159 65.5753 92.3556 65.382L88.9428 65.2279L85.0909 65.0892C84.5218 64.9988 83.942 64.9988 83.373 65.0892C79.6906 65.3665 75.9928 65.1817 72.3181 65.5129C72.2071 65.5967 72.0719 65.642 71.9329 65.642C71.7939 65.642 71.6586 65.5967 71.5477 65.5129L68.8745 65.4821C67.4262 65.3511 65.9856 65.1894 64.5373 65.1123C62.3817 64.9417 60.2171 64.9185 58.0584 65.043C56.2249 65.1971 54.3683 65.043 52.5194 64.9736C50.7923 65.0074 49.065 64.9199 47.3502 64.7117C44.5865 64.2482 41.7981 63.9473 38.9993 63.8104C36.6342 63.7179 34.2615 63.8104 31.8887 63.8104C31.6961 63.8104 31.4111 63.9259 31.3879 63.587C31.3648 63.248 31.673 63.3636 31.8502 63.3327C32.0116 63.3185 32.174 63.3185 32.3355 63.3327C34.3231 63.3327 36.3107 63.4329 38.3059 63.4406C40.1075 63.4485 41.9065 63.5772 43.6909 63.8258Z" fill="#95165B"/>
<path d="M48.4518 90.2574C48.4518 90.5502 48.8061 90.4963 49.0449 90.504C51.2174 90.5656 53.3668 90.9431 55.5315 91.1049C56.8797 91.205 58.2432 91.1048 59.5991 91.1742C62.9965 91.3514 66.4015 91.4053 69.8066 91.4284C71.8943 91.4284 73.9743 91.5131 76.062 91.5979C77.4718 91.6518 78.8816 91.8059 80.2914 91.8521C81.1851 91.8521 82.0787 91.7982 82.9723 91.7674C83.242 91.9754 83.5347 91.8367 83.8197 91.8367L85.5454 91.7674C86.1101 91.9813 86.7206 92.045 87.3172 91.9523C89.0198 91.9523 90.7223 92.0216 92.4248 92.0678C94.9209 92.1372 97.4092 92.245 99.9052 92.3143C100.745 92.3143 101.592 92.3143 102.432 92.3143C103.85 92.3683 105.267 92.168 106.692 92.3143C108.117 92.4607 109.358 92.4068 110.683 92.4376H111.33C111.761 92.4376 111.931 92.5455 111.869 93.0616C111.868 93.4837 111.954 93.9015 112.121 94.289C112.289 94.6766 112.534 95.0256 112.841 95.3145C113.149 95.6035 113.513 95.8261 113.91 95.9686C114.307 96.1112 114.73 96.1706 115.151 96.1431C117.196 95.9199 119.191 95.3684 121.06 94.5099C123.217 93.6471 125.328 92.6764 127.454 91.752C127.52 91.71 127.58 91.658 127.631 91.5979L132.369 89.1481C133.449 88.7569 134.499 88.2884 135.512 87.746C138.594 86.4056 141.621 85.1113 144.587 83.6091C145.803 83.1076 146.954 82.461 148.015 81.6831C148.578 81.375 149.155 81.0977 149.702 80.7587C149.786 80.6981 149.885 80.6612 149.988 80.6517C150.091 80.6422 150.194 80.6605 150.288 80.7048C151.917 81.1455 153.6 81.3581 155.288 81.3365C156.366 81.4673 157.452 81.5265 158.539 81.5137C159.106 81.4643 159.652 81.2715 160.125 80.9535C160.598 80.6356 160.983 80.2027 161.243 79.6956C161.389 79.3374 161.437 78.9469 161.383 78.5639C161.329 78.1809 161.174 77.8191 160.934 77.5154C162.337 77.5083 163.739 77.5855 165.133 77.7465C165.988 77.785 166.851 77.6695 167.714 77.6618C169.936 77.5505 172.163 77.5505 174.385 77.6618C177.467 77.9468 180.548 77.6618 183.553 78.0007C185.694 78.2281 187.85 78.2873 190.001 78.1779C191.723 78.1483 193.442 78.0067 195.147 77.7542C196.191 77.6867 197.224 77.5059 198.228 77.215C199.222 76.7913 200.432 76.668 200.956 75.4893C201.818 74.2028 201.633 73.0087 200.809 71.7299C199.388 69.6986 197.767 67.8147 195.971 66.1061C194.855 64.9437 193.553 63.9751 192.119 63.2403C190.828 62.6141 189.439 62.2129 188.013 62.0539C185.486 61.7073 182.936 61.7073 180.394 61.6071C178.237 61.5224 176.095 61.8151 173.954 61.7612C170.379 61.6765 166.828 62.0771 163.261 62.1695C162.406 62.1695 161.582 62.0154 160.742 61.9846C160.349 61.9846 160.441 61.715 160.465 61.5532C160.865 58.9339 160.842 56.2761 161.235 53.6568C161.445 51.9702 161.481 50.2664 161.343 48.5724C161.355 47.8229 161.122 47.0899 160.68 46.4846C160.551 46.3044 160.375 46.1626 160.172 46.0744C159.968 45.9862 159.745 45.9549 159.525 45.9839C159.009 45.9839 158.939 46.4076 158.808 46.8005C158.645 47.2733 158.572 47.7723 158.592 48.2719C158.639 49.6663 157.707 50.583 157.052 51.6693C155.134 54.6891 152.776 57.3778 150.673 60.2667C150.548 60.4386 150.435 60.6188 150.334 60.8059C149.749 61.8999 148.832 61.9923 147.684 61.923C145.721 61.7625 143.752 61.7059 141.783 61.7535C139.472 61.8614 137.107 61.4839 134.765 61.507C133.224 61.507 131.606 61.5994 130.027 61.7689C128.631 61.9309 127.223 61.9696 125.821 61.8845C124.473 61.792 123.147 61.9384 121.815 61.9615C119.58 62.0949 117.339 62.0949 115.105 61.9615C112.995 61.8531 110.949 61.2088 109.157 60.0895C107.763 59.1342 107 57.5935 105.983 56.2915C105.845 56.1066 106.122 56.0758 106.276 56.0527C107.032 56.2332 107.813 56.2878 108.587 56.2145C111.397 56.2564 114.202 56.4415 116.992 56.7692C119.064 57.008 121.16 57.1389 123.263 57.1775C124.642 57.1775 126.044 57.4933 127.4 57.2314C128.742 57.0457 130.1 56.9966 131.452 57.085C134.803 57.085 138.162 56.9618 141.521 57.3161C143.485 57.5241 145.427 58.0865 147.437 57.8939C147.745 57.92 148.051 57.8412 148.308 57.6705C147.606 57.5321 146.888 57.4855 146.174 57.5318C145.026 57.4933 143.917 57.2468 142.777 57.1466C141.282 57.0234 139.795 56.8308 138.301 56.7461C135.412 56.5766 132.515 56.9926 129.626 56.8077C127.962 56.6998 126.352 57.1466 124.681 56.9618C122.138 56.6844 119.565 56.7152 116.977 56.3763C114.727 56.0835 112.439 56.0142 110.174 55.8755C108.926 55.7985 107.678 55.7677 106.423 55.7137C104.967 55.4903 104.45 54.173 103.526 53.3025C102.602 52.4319 102.324 50.9913 101.084 50.2749C102.216 49.8589 103.295 50.2749 104.35 50.1439C104.992 50.3248 105.656 50.4079 106.322 50.3904L112.146 50.4752C112.455 50.6755 112.786 50.5214 113.109 50.5445C114.835 50.2903 116.592 50.922 118.317 50.6062C118.317 50.5214 118.317 50.429 118.317 50.3442C117.3 50.2672 116.283 50.1516 115.236 50.1285C113.264 50.0823 111.291 50.1285 109.319 50.0746C107.701 50.0746 106.091 49.9359 104.474 49.8666C103.856 49.6401 103.192 49.5687 102.54 49.6586C101.248 49.6616 99.9592 49.5482 98.688 49.3196C98.5534 49.3149 98.4187 49.3278 98.2874 49.3581C95.5449 49.4121 92.8331 48.9652 90.0906 48.9575C88.7501 48.9575 87.4097 49.0115 86.0769 48.9575C83.3267 48.8343 80.5996 49.1578 77.8647 49.2118C75.1299 49.2657 72.3951 49.3196 69.6602 49.2888C66.1627 49.2888 62.6652 49.127 59.1677 49.0423C58.7658 49.0296 58.3636 49.0528 57.9659 49.1116C57.9107 49.1168 57.8575 49.1354 57.8112 49.1659C57.7648 49.1964 57.7267 49.2378 57.7 49.2865C57.6734 49.3352 57.6592 49.3896 57.6585 49.4451C57.6578 49.5006 57.6708 49.5554 57.6963 49.6047C57.7964 49.8281 57.9351 49.6047 58.0738 49.6047C58.3255 49.5407 58.5844 49.5096 58.8441 49.5122C62.0181 49.5122 65.1843 49.5661 68.3583 49.6663C71.9543 49.7893 75.5542 49.725 79.1436 49.4737C82.6488 49.2195 86.154 49.3042 89.6669 49.3196C91.978 49.3196 94.3277 49.597 96.6619 49.751C97.5093 49.6971 97.7482 50.1516 97.8406 50.9297C98.0779 52.3764 98.5188 53.7821 99.1502 55.1051L97.1241 55.2053C97.0008 55.1507 96.8654 55.1295 96.7313 55.1437C95.7529 55.0281 94.7668 55.1822 93.7884 55.0974C92.6329 54.9973 91.4773 55.0974 90.2986 55.0974L88.4497 55.136C87.831 55.0206 87.1964 55.0206 86.5777 55.136C83.7735 55.136 80.9616 55.136 78.1575 55.0358C73.8074 54.9023 69.4548 54.8509 65.0996 54.8817C61.941 54.8817 58.7979 54.5736 55.6394 54.72C54.5416 54.5588 53.4267 54.551 52.3267 54.6968C51.1635 54.8894 50.0156 54.5582 48.8446 54.7585C48.6598 54.7585 48.3285 54.6506 48.3131 54.9434C48.2977 55.2361 48.5904 55.2669 48.8446 55.2438C51.1558 55.082 53.4207 55.005 55.7164 55.0281C59.2447 55.1206 62.7653 55.2361 66.2937 55.2053C69.822 55.1745 73.2271 55.2823 76.7477 55.3286C79.1744 55.3286 81.6011 55.421 84.0277 55.4518C84.7981 55.4518 85.5685 55.4518 86.3389 55.4518H87.1093L89.6823 55.3517C90.0521 55.6059 90.4527 55.421 90.8379 55.4287C92.6714 55.4826 94.4972 55.5289 96.3307 55.5751H96.5078C97.4015 55.7292 98.3105 55.4133 99.2119 55.6367C99.3071 55.6504 99.3972 55.688 99.474 55.7459C99.5508 55.8038 99.6117 55.8802 99.651 55.968C100.868 58.0557 101.839 60.2744 103.11 62.3236C103.88 63.5485 103.11 65.7826 101.924 66.5761C100.229 67.6777 98.2412 68.0706 96.4462 68.8872C95.3545 69.394 94.2297 69.8264 93.0797 70.1814C92.4326 70.3817 92.186 70.7438 92.3093 71.337C92.3522 71.6288 92.4959 71.8963 92.7154 72.0933C92.9349 72.2903 93.2164 72.4043 93.5111 72.4155C94.2892 72.4921 95.0747 72.4136 95.8222 72.1844C96.1339 72.0383 96.472 71.9571 96.816 71.9456C98.611 71.9918 100.283 71.3293 102.008 70.9903C103.748 70.6033 105.442 70.0326 107.062 69.2878C108.349 68.7331 109.15 69.5651 110.074 69.9734C111.743 70.6812 113.509 71.1356 115.313 71.3216C116.969 71.5142 118.602 71.7838 120.251 71.9918C122.731 72.3077 125.22 72.6389 127.693 73.001C130.481 73.4093 133.263 73.8715 136.059 74.2952C136.46 74.3569 136.66 74.4493 136.768 74.9038C136.876 75.3584 137.215 75.7204 137.361 76.2212C133.748 75.8668 130.166 76.4138 126.576 76.6295C126.474 76.5893 126.368 76.5634 126.26 76.5524C125.451 76.4138 124.634 76.6526 123.818 76.5524C123.548 76.3675 123.263 76.4908 122.986 76.4908C120.978 76.4828 118.972 76.3697 116.977 76.1518C114.773 75.9747 112.578 75.8052 110.375 75.6665C109.982 75.6665 109.604 75.42 109.204 75.5818C106.353 75.2428 103.48 75.1735 100.614 75.081C98.724 75.0194 96.8365 74.9269 94.9517 74.8037C92.3863 74.6342 89.821 74.4108 87.2479 74.1643C85.6147 74.0025 83.9892 73.7791 82.356 73.6481C80.7228 73.5171 78.8585 73.3323 77.1252 73.0857C75.5228 72.8546 73.905 72.8854 72.3026 72.7083L70.4999 72.5234C69.5727 72.5639 68.6436 72.5123 67.7266 72.3693C67.4801 72.3308 67.3414 72.3693 67.3183 72.5773C67.2952 72.7853 67.5186 72.8007 67.6649 72.7776C68.35 72.7388 69.0368 72.7388 69.7219 72.7776C72.8034 73.0703 75.9465 73.2552 79.0588 73.548C81.7089 73.8253 84.359 74.1643 87.0245 74.38C89.9828 74.6265 92.941 74.8345 95.8992 75.0733C98.6572 75.2967 101.407 75.3892 104.165 75.4354C105.706 75.4354 107.293 75.7281 108.865 75.6819C108.935 75.7219 109.015 75.7407 109.096 75.7358C110.302 75.9521 111.522 76.0834 112.747 76.1287C114.694 76.2982 116.64 76.4523 118.587 76.591C119.958 76.6834 121.329 76.7373 122.701 76.8067C122.955 77.007 123.24 76.8683 123.471 76.8914L126.052 76.7681C127.107 77.0609 128.155 76.7681 129.21 76.7219C131.799 76.6834 134.387 76.3521 137.06 76.5524L134.749 78.9021C133.979 79.5107 133.209 80.0885 132.438 80.7356C132.323 80.8432 132.185 80.9233 132.034 80.97C131.883 81.0167 131.724 81.0287 131.568 81.0052C129.932 80.9196 128.292 80.953 126.66 81.1054C123.825 81.1901 120.99 81.0514 118.186 81.1054C115.005 81.167 111.823 81.452 108.641 81.6908C105.906 81.8988 103.172 81.7525 100.437 81.9297C100.298 81.7217 100.09 81.8218 99.9206 81.8295C98.0024 81.8295 96.0687 81.9374 94.1736 81.9066C91.8625 81.9066 89.4897 81.6831 87.1401 81.6677C85.8073 81.6677 84.4823 81.583 83.1572 81.5445C81.447 81.4905 79.7213 81.6677 78.0111 81.5445C75.569 81.4058 73.1346 81.3904 70.6925 81.3134C69.1518 81.2671 67.611 81.3134 66.0703 81.375C65.8006 81.375 65.608 81.5368 65.4694 81.868C66.571 81.8141 67.6726 81.714 68.7743 81.714C72.0869 81.714 75.3995 81.8449 78.7044 81.8372C82.356 81.8372 85.9999 82.0221 89.6515 81.999C92.1706 81.999 94.6975 82.1377 97.2166 82.1068C98.1796 82.1068 99.1425 82.1685 100.098 82.1068C100.398 82.3765 100.768 82.2224 101.092 82.2147C104.173 82.1146 107.255 82.2609 110.282 81.8911C111.985 81.6831 113.695 81.5984 115.397 81.5445C118.479 81.4443 121.561 81.3673 124.642 81.4212C126.476 81.4212 128.301 81.2286 130.127 81.2671C130.59 81.2336 131.054 81.3184 131.475 81.5137C129.765 82.6461 127.947 83.6245 126.329 84.9033C125.366 85.6737 124.295 86.2823 123.294 86.991C123.047 87.1682 122.785 87.0912 122.523 87.1836C120.983 87.33 119.442 86.7137 117.901 86.6906C116.846 86.6906 115.79 86.4595 114.735 86.4441C112.909 86.4441 111.083 86.2361 109.258 86.2515C107.154 86.2515 105.059 86.421 102.956 86.3516C102.186 86.3516 101.484 86.2361 100.745 86.1898C100.56 86.1458 100.368 86.1458 100.183 86.19C99.9983 86.2342 99.8266 86.3212 99.6818 86.4441C100.452 86.5365 101.223 86.6829 101.993 86.7137C103.141 86.7522 104.304 86.7137 105.437 86.7137C107.84 86.7137 110.244 86.6136 112.647 86.7137C115.456 86.721 118.257 86.997 121.014 87.538C121.46 87.6459 121.992 87.3531 122.377 87.8076C120.998 88.8091 119.65 89.8645 118.217 90.789C117.061 91.5594 115.906 92.3297 114.411 92.3297C113.788 92.3051 113.167 92.2304 112.555 92.1063L111.43 92.1449H110.621C109.781 91.9295 108.907 91.8798 108.048 91.9985C106.315 91.8917 104.577 91.9149 102.848 92.0678L102.078 91.9369H101.192C99.1117 92.0293 97.0394 91.8213 94.9594 91.8059C93.6574 91.8059 92.3555 91.7057 91.0536 91.6672C89.3587 91.6287 87.6716 91.6133 85.9768 91.5825C84.675 91.4391 83.3645 91.3902 82.0556 91.4361C79.8499 91.4784 77.6435 91.4038 75.4458 91.2127C74.508 91.1359 73.5667 91.1102 72.6262 91.1357C70.315 91.1973 68.0039 91.074 65.6928 91.0201C64.8377 91.0201 63.9825 91.0201 63.1274 90.9508C59.7301 90.8198 56.3173 90.8737 52.9276 90.4731C51.618 90.3191 50.3084 90.1573 48.9987 90.034C48.8292 90.0109 48.4363 89.8877 48.4518 90.2574ZM159.817 54.5813C159.987 56.4225 159.563 58.2329 159.525 60.0664C159.525 60.5979 159.525 61.1295 159.478 61.6688C159.48 61.7489 159.453 61.827 159.402 61.889C159.351 61.9511 159.28 61.9932 159.201 62.0077C158.993 62.0077 159.016 61.8768 159.032 61.7458C159.309 59.997 159.032 58.2021 159.448 56.461C159.548 56.0758 159.64 55.6906 159.255 55.3517C159.186 55.4441 159.07 55.5366 159.07 55.6136C159.07 56.5226 158.754 57.3778 158.808 58.3022C158.87 59.4039 158.723 60.5209 158.677 61.6379C158.677 61.9538 158.485 62.0539 158.2 62.0385C157.699 62.0385 157.19 61.9846 156.659 61.9846C154.702 61.9846 152.753 62.3313 150.789 62.1002C150.611 62.1002 150.373 62.2157 150.28 62.0154C150.188 61.8151 150.373 61.6148 150.488 61.453C150.742 61.1064 151.043 60.7982 151.259 60.4439C152.883 58.0603 154.659 55.7831 156.574 53.626C158.152 51.9528 159.132 49.805 159.363 47.5169C159.363 47.1934 159.178 46.7466 159.671 46.6464C160.164 46.5463 160.118 47.124 160.249 47.4168C160.31 47.562 160.352 47.7149 160.372 47.8713C160.75 50.1747 160.156 52.3857 159.817 54.5813ZM198.59 71.2831C197.814 71.7323 196.954 72.018 196.064 72.1228C194.831 72.2075 193.591 72.2383 192.366 72.3847C188.96 72.7799 185.532 72.9497 182.104 72.8931C179.138 72.8931 176.165 72.8238 173.199 72.8392C171.512 72.8392 169.832 73.001 168.153 73.001C166.473 73.001 164.594 72.9163 162.814 72.8469C160.387 72.7545 157.961 72.6851 155.534 72.5234C152.191 72.3 148.87 71.7068 145.519 71.622C142.168 71.5373 139.002 71.0674 135.728 70.9133C132.128 70.6895 128.548 70.2211 125.012 69.5112C122.138 68.9719 119.234 68.7408 116.345 68.3325C114.783 68.2185 113.244 67.8946 111.769 67.3695C111.17 67.0399 110.482 66.9072 109.803 66.9901C109.124 67.0731 108.489 67.3675 107.986 67.8318C106.245 69.3725 103.973 69.9118 101.731 70.3894C100.136 70.7284 98.4646 70.6282 96.9084 71.1598C95.6744 71.6139 94.3323 71.6863 93.0566 71.3678C93.1911 71.1115 93.3805 70.8879 93.6112 70.713C94.1582 70.1891 94.9132 70.166 95.568 69.8964C97.8791 68.9257 100.367 68.2478 102.501 66.8149C102.987 66.5298 103.394 66.127 103.683 65.6437C103.972 65.1605 104.136 64.6121 104.158 64.0492C104.119 62.8996 103.765 61.7828 103.133 60.8213C102.022 59.2153 101.107 57.4826 100.406 55.6598C100.325 55.432 100.199 55.2225 100.036 55.0435C99.0116 53.9265 98.8575 52.4628 98.4338 51.1069C98.3105 50.7217 98.4338 50.5137 98.8883 50.4983C99.8436 50.4983 100.753 50.4983 101.292 51.5075C101.425 51.7046 101.572 51.8925 101.731 52.0699C103.487 54.381 105.583 56.4456 106.985 59.0572C107.717 60.3526 108.907 61.328 110.321 61.792C112.255 62.4223 114.28 62.732 116.314 62.7088C117.955 62.7088 119.588 62.8474 121.222 62.8166C122.762 62.8166 124.241 62.7088 125.751 62.6625C128.455 62.5778 131.144 62.8474 133.879 62.7858C136.614 62.7242 139.194 62.6625 141.845 62.7858C142.892 62.832 143.932 62.7858 144.98 62.7858C146.521 62.7858 148.1 63.1171 149.679 63.1941C151.883 63.2943 154.063 63.0708 156.258 63.0863C160.441 63.0863 164.601 62.5624 168.8 62.6471C170.734 62.6471 172.652 62.5008 174.601 62.3852C177.421 62.1387 180.259 62.1619 183.075 62.4545C184.986 62.7088 186.927 62.6317 188.814 62.8166C190.821 62.992 192.703 63.8674 194.13 65.2895C195.809 66.9535 196.98 69.0567 198.575 70.8054C198.66 70.8748 198.968 71.0828 198.59 71.2754V71.2831ZM197.427 72.5311C195.91 73.1634 194.299 73.5408 192.659 73.6481C190.024 73.7714 187.389 74.0641 184.754 74.1566C182.728 74.2259 180.702 74.1103 178.676 74.0641L173.453 73.9563C170.572 73.8946 167.691 73.7945 164.809 73.8022C163.446 73.8022 162.105 73.4786 160.742 73.5942C160.677 73.5586 160.607 73.5327 160.534 73.5172C158.592 73.4324 156.682 73.3554 154.71 73.2552C152.738 73.1551 150.943 72.9317 149.055 72.9394C146.956 72.8906 144.86 72.7363 142.777 72.4771C141.236 72.3308 139.695 72.0997 138.1 72.0149C136.293 71.8911 134.493 71.6726 132.708 71.3601C133.879 71.1906 135.019 71.6143 136.19 71.4757C136.276 71.4575 136.365 71.457 136.451 71.4742C136.537 71.4915 136.618 71.526 136.691 71.5758C137.622 71.5223 138.556 71.561 139.479 71.6914C141.174 71.8223 142.861 72.0303 144.556 72.1459C146.251 72.2614 148.069 72.1921 149.795 72.4386C151.682 72.7006 153.57 72.8931 155.465 73.0472C157.776 73.2321 160.087 73.3169 162.398 73.3554C165.842 73.417 169.285 73.5326 172.721 73.3554C173.492 73.3091 174.262 73.2629 175.032 73.2706C178.368 73.2706 181.712 73.3939 185.047 73.3708C187.228 73.3855 189.407 73.262 191.572 73.001C193.452 72.7468 195.363 72.924 197.219 72.454L197.427 72.5311ZM152.352 79.996C152.579 79.8844 152.789 79.7418 152.976 79.5723C153.677 79.1101 154.402 78.6864 155.11 78.2319C155.349 78.0778 155.573 77.993 155.642 78.3628C155.835 79.3951 156.682 79.8342 157.429 80.3735C157.674 80.5614 157.971 80.6677 158.28 80.6774C158.588 80.6871 158.891 80.5996 159.147 80.4274C159.291 80.2939 159.461 80.1931 159.648 80.1319C159.834 80.0707 160.031 80.0507 160.226 80.0731C159.255 80.8434 158.392 81.244 157.267 80.8434C156.658 80.6796 156.033 80.5764 155.403 80.5353L152.352 79.996ZM112.578 92.9075C112.682 92.8095 112.82 92.7549 112.963 92.7549C113.106 92.7549 113.244 92.8095 113.348 92.9075C113.556 93.1078 113.795 93.0539 114.034 93.0616C115.713 93.1078 117.038 92.2373 118.317 91.336C121.291 89.2328 124.249 87.1066 127.161 84.9187C128.563 83.8633 130.081 82.9928 131.506 81.9682C132.681 81.2227 133.781 80.3634 134.788 79.4028C135.904 78.6902 136.938 77.8556 137.869 76.9145C138.732 76.2038 139.375 75.2637 139.726 74.2028C139.803 74.0679 139.843 73.9152 139.843 73.7598C139.843 73.6045 139.803 73.4518 139.726 73.3169C139.657 73.2244 139.541 73.2398 139.433 73.3169C138.994 73.4786 139.348 73.8407 139.225 74.0872C139.192 74.138 139.156 74.1869 139.117 74.2336C137.591 73.5161 135.94 73.1002 134.256 73.0087C131.175 72.7699 128.093 72.3231 125.012 71.8685C121.93 71.414 119.018 70.9749 115.991 70.7977C113.359 70.6183 110.813 69.7899 108.58 68.3864C108.617 68.2876 108.677 68.1988 108.755 68.127C108.832 68.0551 108.926 68.0022 109.027 67.9724C109.128 67.9425 109.235 67.9366 109.34 67.955C109.444 67.9733 109.542 68.0155 109.627 68.0783C110.211 68.4257 110.835 68.7024 111.484 68.9026C114.808 69.5788 118.171 70.0522 121.553 70.3201C124.688 70.5974 127.716 71.2599 130.867 71.6451C132.677 71.8685 134.48 72.2306 136.259 72.3539C138.355 72.4925 140.419 72.7853 142.507 72.9856C144.441 73.1705 146.359 73.4016 148.316 73.4016C150.396 73.4016 152.46 73.5711 154.533 73.6866C156.605 73.8022 158.585 73.9794 160.611 73.8946C162.221 74.041 163.823 74.1874 165.441 74.2336C167.852 74.2952 170.264 74.1951 172.683 74.3877C174.092 74.5032 175.541 74.3877 176.966 74.3877C179.346 74.4647 181.735 74.4878 184.115 74.5263C185.232 74.5263 186.334 74.4108 187.443 74.3415C189.446 74.2105 191.449 74.1797 193.444 74.0102C194.898 73.9016 196.317 73.509 197.62 72.8546C198.17 72.6388 198.689 72.3485 199.161 71.9918C199.299 71.9071 199.407 71.6991 199.607 71.9456C200.278 72.7853 201.071 73.5788 200.624 74.8114C199.438 76.2905 197.681 76.537 196.002 76.7913C193.398 77.1758 190.769 77.369 188.136 77.369C185.201 77.369 182.266 77.369 179.331 77.2227C176.858 77.0994 174.378 77.0994 171.897 76.9222C167.903 76.5722 163.891 76.4924 159.887 76.6834C159.471 75.9747 159.116 75.212 158.115 75.1966C157.483 75.2129 156.866 75.3877 156.32 75.705C156.235 75.7512 156.027 76.0132 155.966 75.7589C155.904 75.5047 155.827 75.497 155.827 75.4354H155.773C155.634 75.4354 155.488 75.6511 155.426 75.7435C155.256 75.9682 155.014 76.1284 154.741 76.1981L144.009 81.8064C144.009 81.8064 143.963 81.8988 143.925 81.9759C144.174 82.0242 144.43 82.0224 144.679 81.9709C144.927 81.9193 145.163 81.8189 145.373 81.6754C148.377 80.0885 151.405 78.5477 154.425 76.9916C154.601 76.8883 154.77 76.7751 154.933 76.6526C155.349 76.5987 155.372 76.7681 155.134 77.0301C154.826 77.3182 154.465 77.5433 154.07 77.6926C151.813 78.7634 149.756 80.1886 147.545 81.3519C144.71 82.7 141.868 84.0482 139.002 85.3347C136.598 86.4133 134.272 87.6459 131.907 88.8245C131.433 89.0236 130.979 89.266 130.551 89.5487C129.627 89.8823 128.755 90.3467 127.962 90.9277L125.759 91.8213C122.678 93.0924 119.704 94.6409 116.414 95.3727C115.695 95.5545 114.935 95.4911 114.256 95.1925C113.576 94.8939 113.015 94.3772 112.663 93.7241C112.573 93.6099 112.517 93.4725 112.502 93.3281C112.487 93.1836 112.514 93.0378 112.578 92.9075ZM137.469 74.4647L138.563 74.7652C138.393 75.1195 138.224 75.5895 137.862 75.4739C137.689 75.378 137.555 75.2246 137.483 75.0403C137.411 74.8559 137.406 74.6523 137.469 74.4647Z" fill="#95165B"/>
<path d="M70.631 59.92C68.3892 59.6966 66.1397 59.504 63.8902 59.504C60.6546 59.504 57.4267 59.5965 54.1911 59.6427C53.9138 59.6427 53.621 59.7737 53.3591 59.5657C52.3349 59.6303 51.3071 59.6149 50.2853 59.5195C50.1081 59.5195 49.7769 59.712 49.7769 59.3654C49.7769 59.0187 50.0927 59.1111 50.3392 59.142C52.9816 59.4578 55.6394 59.142 58.2972 59.219C61.2169 59.3269 64.1598 59.1497 67.0872 59.3423C68.96 59.5742 70.8496 59.6413 72.7341 59.5426C73.1116 59.5426 73.5045 59.4116 73.8665 59.5426C77.7184 59.6119 81.5703 59.712 85.4222 59.5426L87.5946 59.4501H87.7641L88.7271 59.4039C92.579 59.1189 96.3846 59.142 100.375 59.0726C100.299 59.2292 100.173 59.3555 100.016 59.431C99.8596 59.5066 99.682 59.5269 99.5124 59.4886C97.2398 59.558 94.9749 59.296 92.6945 59.4886C90.8996 59.6427 89.0969 59.6504 87.3019 59.7275L82.0017 60.0279C81.6704 60.0279 81.3238 60.1743 81.0002 59.9663C78.0343 60.0895 75.076 59.7275 72.1101 59.8815C71.6186 59.9294 71.1243 59.9423 70.631 59.92Z" fill="#95165B"/>
<path d="M44.7384 82.7386C47.1219 83.0552 49.5218 83.2327 51.926 83.2702C53.0353 83.2702 54.137 83.432 55.2463 83.5321C56.8333 83.6708 58.4203 83.8403 60.0072 83.9635C61.7834 84.079 63.5492 84.3184 65.292 84.68C65.6917 84.6426 66.0941 84.6426 66.4938 84.68C68.3416 84.9979 70.2119 85.1679 72.0867 85.1884C72.3641 85.1884 72.6491 85.0729 72.9187 85.2423L73.2577 85.3117C74.2822 85.2065 75.3147 85.2065 76.3392 85.3117C77.3022 85.3117 78.2652 85.512 79.2281 85.6044C79.4207 85.6044 79.675 85.6815 79.6518 85.8586C79.6287 86.0358 79.3745 86.0821 79.1357 86.0744C77.2483 85.9819 75.3608 85.512 73.3964 85.512C71.8094 85.4349 70.2224 85.3887 68.6355 85.2655C67.4876 85.173 66.3243 84.9881 65.215 84.834H65.1071C63.7436 84.6877 62.3723 84.5105 61.0087 84.4026C58.6976 84.2177 56.3865 84.0637 54.1216 83.9019L44.6767 83.2471C44.4764 83.2471 44.1067 83.4088 44.1529 82.9851C44.1991 82.5614 44.3994 82.6847 44.7384 82.7386Z" fill="#95165B"/>
<path d="M130.859 50.7757C132.824 50.5908 134.773 50.9759 136.745 50.922C139.341 50.8527 141.953 51.1839 144.556 51.2379C147.314 51.2995 150.057 51.5922 152.946 51.7155C152.715 52.0468 152.568 52.1392 152.229 52.0853C151.582 51.9774 150.912 51.9851 150.257 51.9389C148.609 51.8157 146.96 51.754 145.319 51.6308C142.715 51.4459 140.111 51.3149 137.515 51.338C135.273 51.338 133.055 51.0453 130.821 51.1146C130.674 51.1146 130.451 51.1685 130.505 50.9066C130.559 50.6447 130.69 50.7911 130.859 50.7757Z" fill="#95165B"/>
<path d="M82.0788 85.7508C83.4192 85.8432 84.7597 85.7508 86.1078 85.7508C89.0122 85.7508 91.9088 85.9126 94.8131 86.005C95.6268 85.8537 96.4602 85.8407 97.2783 85.9665C97.4632 86.005 97.6866 86.005 97.6558 86.2361C97.625 86.4672 97.3862 86.4826 97.2013 86.4518C96.7212 86.3407 96.2303 86.2838 95.7375 86.2823C93.4264 86.498 91.1153 86.136 88.7502 86.2823C88.0043 86.314 87.2569 86.2831 86.5161 86.1899C85.0524 86.0281 83.5887 86.3671 82.125 86.1899C81.9709 86.1899 81.709 86.3286 81.6705 86.1283C81.632 85.928 81.8014 85.7354 82.0788 85.7508Z" fill="#95165B"/>
<path d="M42.5817 70.921L48.7447 70.5589C48.8888 70.472 49.054 70.426 49.2223 70.426C49.3906 70.426 49.5558 70.472 49.6999 70.5589C51.6105 70.5589 53.5518 70.2354 55.5394 70.5127C55.1465 70.9749 54.7228 70.8363 54.3607 70.7978C54.0325 70.7389 53.7003 70.7055 53.3669 70.6976C50.2854 70.8363 47.2039 70.998 44.1224 71.0828C43.614 71.0828 43.0824 71.3447 42.5817 71.0828H41.9345L40.648 71.1444C39.9239 71.1444 39.1997 71.1444 38.4833 71.1444C36.226 70.9672 33.9611 70.9903 31.7039 71.0058C29.8396 71.0058 27.983 71.1752 26.0879 71.2677C26.2034 70.6129 26.6734 70.7207 26.9892 70.7669C28.0294 70.8668 29.0768 70.8668 30.117 70.7669C34.1537 70.5589 38.1828 70.9903 42.2119 70.8286C42.3398 70.836 42.4653 70.8673 42.5817 70.921Z" fill="#95165B"/>
<path d="M92.2552 73.001C93.8499 73.0472 95.4446 73.1628 97.0469 73.209C98.6493 73.2552 100.128 73.4324 101.669 73.5942C103.315 73.8484 104.974 74.0079 106.638 74.0718C108.364 74.1335 110.089 74.3106 111.807 74.2336C115.218 74.0847 118.63 73.9845 122.046 73.9332C122.125 73.927 122.205 73.927 122.284 73.9332C124.703 74.3029 127.161 73.9871 129.572 74.38C130.481 74.5264 131.421 74.3029 132.322 74.6342C132.26 74.7487 132.16 74.8377 132.039 74.8856C131.918 74.9335 131.784 74.9372 131.66 74.8961C130.481 74.7421 129.295 74.6573 128.109 74.5572C124.892 74.3083 121.665 74.2235 118.44 74.3029C114.296 74.3877 110.159 74.7421 106.014 74.3723C104.99 74.2875 103.965 74.2413 102.933 74.1181C100.038 73.713 97.1192 73.5096 94.1966 73.5095C93.873 73.5095 93.5417 73.6327 93.2182 73.5095C92.8946 73.3862 92.5248 73.5095 92.1782 73.5095C91.9702 73.5095 91.5465 73.756 91.585 73.2629C91.6235 72.7699 92.0549 72.9933 92.2552 73.001Z" fill="#95165B"/>
<path d="M56.7639 70.6668C56.7023 70.297 57.0567 70.3894 57.2724 70.3432C57.4881 70.297 57.8425 70.2122 58.0967 70.4279C59.8839 70.7053 61.6943 70.6128 63.4893 70.8054C65.7542 71.0443 68.0191 71.2754 70.284 71.5065C70.3633 71.4954 70.4436 71.4954 70.5228 71.5065C72.834 71.8686 75.1451 71.8377 77.4562 72.1459H77.9416C78.6314 72.332 79.3473 72.4023 80.0601 72.3539C81.8548 72.4043 83.6425 72.5975 85.4065 72.9317C83.6038 73.2629 81.8551 72.5542 80.0678 72.6312C79.2358 72.8238 78.45 72.4155 77.6334 72.4309C77.3561 72.4309 77.0479 72.6081 76.7937 72.3385C75.5303 72.2769 74.2592 72.2614 73.0035 72.1459C71.9874 72.101 70.9758 71.9852 69.9759 71.7992C69.8665 71.7804 69.7584 71.7546 69.6523 71.7222C68.1116 71.6297 66.5708 71.622 65.0301 71.414C62.4621 71.0577 59.8727 70.8775 57.2801 70.8748C57.1106 70.8285 56.8102 70.9364 56.7639 70.6668Z" fill="#95165B"/>
<path d="M47.7664 59.3191C45.5785 59.2498 43.3906 59.2575 41.1951 59.3191C40.1072 59.4133 39.0114 59.3115 37.9595 59.0187C38.0536 58.9318 38.1666 58.8678 38.2895 58.8317C38.4124 58.7956 38.542 58.7884 38.6682 58.8107C40.3939 58.8877 42.1272 58.9416 43.8529 58.88C45.1086 58.8338 46.372 58.9802 47.6277 58.88C47.8665 58.88 48.0899 58.9262 48.1053 59.1804C48.1207 59.4347 47.905 59.3191 47.7664 59.3191Z" fill="#95165B"/>
<path d="M102.163 63.171C102.163 63.3559 101.993 63.379 101.754 63.3559C99.4532 63.0856 97.138 62.9518 94.821 62.9553H94.6515C92.7179 63.0709 90.7996 63.5639 88.8429 63.2481C88.2651 63.4176 87.7027 63.0632 87.1172 63.1864C86.9477 63.1864 86.6011 63.3559 86.6011 63.0401C86.6011 62.7242 86.9709 62.6626 87.2174 62.7319C87.6324 62.8863 88.0692 62.9747 88.5116 62.9938L89.282 62.9322C89.6595 62.9322 90.0524 62.7781 90.4221 62.9938H91.077C91.1844 62.9066 91.3166 62.8553 91.4547 62.847C91.5929 62.8387 91.7302 62.8739 91.8473 62.9476H92.4945C92.8412 62.7712 93.235 62.7092 93.6192 62.7704H94.1122L95.8764 62.7165C96.3695 62.7165 96.8625 62.7165 97.3555 62.7165L101.793 62.963C102.001 62.9399 102.186 63.017 102.163 63.171Z" fill="#95165B"/>
<path d="M124.241 50.4907C124.811 50.5926 125.391 50.6185 125.967 50.5677L127.431 50.4984C127.631 50.4984 127.839 50.56 127.847 50.7757C127.855 50.9914 127.631 50.9529 127.477 50.976C126.39 51.0627 125.298 51.0627 124.211 50.976C124.049 50.976 123.856 50.9144 123.864 50.7295C123.872 50.5446 124.064 50.4675 124.241 50.4907Z" fill="#95165B"/>
<path d="M98.0024 78.2704C99.2736 78.2704 100.545 78.2704 101.854 78.1472C101.238 78.7635 99.0193 78.8636 98.0024 78.2704Z" fill="#95165B"/>
<path d="M87.4329 72.8855C88.1759 72.8133 88.9241 72.8133 89.667 72.8855C89.8827 72.8855 90.0599 72.9548 90.0599 73.1243C90.0599 73.2938 89.8442 73.3785 89.6516 73.3939C89.0969 73.4401 88.5577 73.1628 88.0569 73.3169C87.8785 73.2863 87.6961 73.2863 87.5176 73.3169C87.2634 73.4401 87.0785 73.3785 87.0246 73.1397C86.9707 72.9009 87.2172 72.8932 87.4329 72.8855Z" fill="#95165B"/>
<path d="M121.999 50.4906C121.56 50.9298 120.59 50.9991 119.195 50.6524C120.081 50.0746 121.06 50.6832 121.999 50.4906Z" fill="#95165B"/>
<path d="M85.5377 62.8474C85.4915 62.9399 85.4144 63.0709 85.3374 63.0709C84.5008 63.2406 83.6365 63.2169 82.8105 63.0015C83.7504 62.5393 84.5824 62.755 85.3759 62.6934C85.4298 62.6857 85.5454 62.8243 85.5377 62.8474Z" fill="#95165B"/>
<path d="M81.2777 62.9861C81.0443 63.1175 80.7832 63.1923 80.5156 63.2043C80.248 63.2164 79.9813 63.1654 79.737 63.0554C79.737 63.0554 79.683 62.9938 79.5752 62.8551C80.123 62.6581 80.7223 62.6581 81.27 62.8551C81.3085 62.8551 81.3702 62.9245 81.2777 62.9861Z" fill="#95165B"/>
<path d="M194.746 68.0475C194.9 67.5314 194.423 67.2309 194.115 66.9151C193.629 66.4143 193.075 65.9829 192.574 65.4976C192.393 65.3154 192.153 65.2044 191.897 65.1846C191.641 65.1648 191.386 65.2376 191.18 65.3897C191.086 65.449 191.005 65.5265 190.942 65.6178C190.879 65.709 190.835 65.812 190.813 65.9206C190.79 66.0292 190.79 66.1411 190.812 66.2498C190.834 66.3585 190.878 66.4616 190.941 66.553C190.993 66.7329 191.009 66.9215 190.987 67.1076C191.056 68.8102 191.226 68.7563 193.052 68.8949L193.529 68.8256C194.045 68.7254 194.585 68.5637 194.746 68.0475ZM193.005 68.2478C191.642 68.3557 191.318 68.0321 191.619 66.9151C191.965 67.4466 192.582 67.6777 193.005 68.2478Z" fill="#95165B"/>
<path d="M104.427 61.5301C104.057 61.7535 103.973 61.4222 103.857 61.2065C103.472 60.4901 103.087 59.7659 102.732 59.0495C101.9 57.5087 101.053 55.968 100.205 54.4734C100.09 54.2654 99.9897 54.0574 99.8511 53.7878C99.8511 53.6954 99.9435 53.6106 100.051 53.5259C100.159 53.4411 100.313 53.5259 100.39 53.6183C100.496 53.7696 100.589 53.9293 100.668 54.096C101.893 56.4071 103.125 58.672 104.342 60.9754C104.419 61.1295 104.828 61.2836 104.427 61.5301Z" fill="#95165B"/>
<path d="M188.845 66.2525C188.829 66.1521 188.792 66.0561 188.738 65.9699C188.684 65.8837 188.613 65.8091 188.53 65.7504C188.447 65.6916 188.353 65.6499 188.254 65.6277C188.155 65.6055 188.052 65.6031 187.952 65.6208C187.289 65.6901 187.397 66.3449 187.228 66.7995C187.284 66.9895 187.398 67.1573 187.554 67.28C187.71 67.4028 187.9 67.4744 188.098 67.4851C188.391 67.5775 188.953 66.7224 188.845 66.2525ZM188.144 67.0229C188.083 67.1076 187.952 67.0229 187.875 66.9458C187.582 66.63 187.875 66.4374 188.083 66.1755C188.183 66.4913 188.337 66.7609 188.144 67.0229Z" fill="#95165B"/>
<path d="M125.975 66.5067C125.953 66.2371 125.834 65.9846 125.639 65.7962C125.445 65.6077 125.189 65.4961 124.919 65.4821C124.488 65.4821 124.257 65.7595 124.249 66.2525C124.279 66.4969 124.398 66.7219 124.582 66.8851C124.766 67.0483 125.004 67.1384 125.251 67.1384C125.651 67.2078 126.059 66.8919 125.975 66.5067ZM125.566 66.5606C125.566 66.7301 125.482 66.7841 125.227 66.7686C125.116 66.7417 125.015 66.6852 124.934 66.6052C124.852 66.5252 124.794 66.4246 124.765 66.3141C124.711 66.1446 124.865 66.1138 125.012 66.1138C125.145 66.1029 125.277 66.1442 125.381 66.229C125.484 66.3138 125.551 66.4355 125.566 66.5684V66.5606Z" fill="#95165B"/>
<path d="M139.102 66.6608C139.102 66.2063 138.586 66.0599 138.177 65.9829C138.084 65.9772 137.991 65.9914 137.904 66.0247C137.816 66.058 137.737 66.1096 137.672 66.176C137.606 66.2424 137.555 66.3221 137.523 66.4097C137.491 66.4973 137.477 66.5908 137.484 66.6839C137.484 67.1924 137.9 67.3927 138.332 67.4081C138.432 67.4146 138.534 67.3999 138.628 67.365C138.723 67.33 138.81 67.2756 138.882 67.2052C138.955 67.1348 139.012 67.05 139.05 66.9563C139.088 66.8625 139.105 66.7619 139.102 66.6608ZM138.501 66.8842C138.231 66.9998 138.085 66.8842 137.9 66.6993C137.949 66.6618 138.006 66.6365 138.067 66.6255C138.127 66.6146 138.19 66.6183 138.248 66.6364C138.307 66.6545 138.361 66.6865 138.405 66.7296C138.449 66.7727 138.482 66.8257 138.501 66.8842Z" fill="#95165B"/>
<path d="M181.735 66.4528C181.735 65.8828 181.242 65.8211 180.903 65.8134C180.804 65.819 180.708 65.8448 180.619 65.8891C180.531 65.9335 180.452 65.9955 180.389 66.0713C180.325 66.147 180.278 66.235 180.25 66.3298C180.222 66.4246 180.213 66.5241 180.225 66.6223C180.225 67.0383 180.502 67.5391 180.995 67.4851C181.224 67.4336 181.425 67.3 181.561 67.1097C181.698 66.9194 181.759 66.6856 181.735 66.4528ZM181.057 67.0845C181.016 67.0947 180.974 67.0966 180.933 67.09C180.892 67.0834 180.852 67.0685 180.817 67.0461C180.782 67.0238 180.751 66.9945 180.728 66.9601C180.704 66.9256 180.687 66.8867 180.679 66.8457C180.572 66.5453 180.88 66.5222 181.041 66.4374C181.203 66.3527 181.265 66.5068 181.273 66.6454C181.28 66.7841 181.296 67.0229 181.057 67.0845Z" fill="#95165B"/>
<path d="M122.924 66.1986C122.924 65.7595 122.577 65.5977 122.03 65.6439C121.73 65.7056 121.214 65.7903 121.214 66.2911C121.214 66.7918 121.676 66.9228 122.1 66.9151C122.201 66.9224 122.303 66.9097 122.399 66.8776C122.495 66.8455 122.584 66.7947 122.661 66.7281C122.737 66.6616 122.8 66.5805 122.845 66.4896C122.89 66.3988 122.917 66.2999 122.924 66.1986ZM122.323 66.3142C122.323 66.4913 122.146 66.4451 122.03 66.4528C122.005 66.4561 121.979 66.4539 121.954 66.4466C121.93 66.4392 121.907 66.4268 121.887 66.4101C121.868 66.3935 121.852 66.3729 121.841 66.3497C121.83 66.3266 121.823 66.3013 121.822 66.2756C121.869 66.1139 122.007 66.1447 122.123 66.137C122.149 66.1309 122.176 66.1309 122.202 66.1372C122.227 66.1434 122.252 66.1557 122.272 66.1729C122.292 66.1902 122.308 66.2119 122.318 66.2365C122.328 66.261 122.333 66.2876 122.331 66.3142H122.323Z" fill="#95165B"/>
<path d="M159.417 66.9151C159.417 66.8064 159.395 66.6987 159.351 66.5993C159.307 66.4998 159.243 66.4108 159.162 66.338C159.081 66.2653 158.986 66.2104 158.882 66.1771C158.779 66.1438 158.67 66.1327 158.561 66.1447C158.466 66.1432 158.372 66.1635 158.286 66.2041C158.2 66.2447 158.124 66.3045 158.064 66.3788C158.005 66.4532 157.963 66.5401 157.943 66.6331C157.922 66.7261 157.923 66.8225 157.945 66.9151C157.991 67.5006 158.246 67.7394 158.716 67.724C159.185 67.7086 159.44 67.3696 159.417 66.9151ZM159.085 67.0306C159.085 67.2232 158.908 67.3234 158.777 67.3311C158.646 67.3388 158.431 67.1385 158.307 66.9767C158.369 66.7918 158.523 66.6762 158.669 66.7379C158.816 66.7995 159.07 66.7995 159.085 67.0229V67.0306Z" fill="#95165B"/>
<path d="M178.468 66.6531C178.477 66.5479 178.46 66.4423 178.421 66.3446C178.381 66.2468 178.319 66.1597 178.24 66.0902C178.16 66.0206 178.066 65.9705 177.964 65.9439C177.862 65.9172 177.755 65.9147 177.652 65.9366C177.548 65.9271 177.444 65.9406 177.346 65.9759C177.248 66.0113 177.16 66.0677 177.086 66.1413C177.012 66.2148 176.956 66.3036 176.921 66.4013C176.885 66.4991 176.872 66.6035 176.881 66.707C176.881 67.1769 177.174 67.4234 177.652 67.4003C177.755 67.4066 177.858 67.392 177.955 67.3576C178.053 67.3231 178.142 67.2694 178.218 67.1997C178.295 67.13 178.356 67.0457 178.399 66.9518C178.442 66.8579 178.465 66.7563 178.468 66.6531ZM177.86 67.0151C177.528 67.1692 177.405 66.8765 177.236 66.6531C177.498 66.6531 177.744 66.1985 178.006 66.5991C178.031 66.6345 178.048 66.6752 178.054 66.7181C178.061 66.761 178.057 66.8047 178.044 66.8459C178.03 66.8871 178.007 66.9246 177.977 66.9553C177.946 66.986 177.909 67.0092 177.867 67.0229L177.86 67.0151Z" fill="#95165B"/>
<path d="M120.097 66.1292C120.103 66.028 120.089 65.9266 120.056 65.8307C120.023 65.7349 119.971 65.6465 119.904 65.5706C119.837 65.4947 119.755 65.4329 119.664 65.3886C119.573 65.3444 119.474 65.3185 119.373 65.3127C118.826 65.3127 118.664 65.798 118.602 66.1755C118.541 66.553 119.003 66.7841 119.573 66.8226C119.732 66.796 119.876 66.7093 119.973 66.5803C120.07 66.4513 120.115 66.2899 120.097 66.1292ZM119.688 66.1986C119.688 66.3373 119.55 66.4143 119.388 66.4297C119.309 66.428 119.234 66.397 119.177 66.3429C119.12 66.2888 119.086 66.2153 119.08 66.137C119.08 65.9367 119.226 65.9521 119.349 65.9444C119.473 65.9367 119.681 66.0137 119.688 66.1986Z" fill="#95165B"/>
<path d="M128.779 66.1524C128.74 65.6208 128.317 65.5284 127.924 65.5284C127.531 65.5284 127.338 65.8365 127.331 66.2602C127.454 66.63 127.554 67.0306 128.101 66.969C128.202 66.9697 128.303 66.9479 128.395 66.905C128.487 66.8622 128.569 66.7995 128.633 66.7213C128.698 66.6432 128.745 66.5516 128.77 66.4532C128.795 66.3548 128.798 66.2521 128.779 66.1524ZM128.101 66.5453C127.924 66.5453 127.831 66.4297 127.8 66.214C127.77 65.9983 127.854 65.9675 128.009 66.006C128.13 66.0489 128.229 66.1374 128.286 66.2525C128.3 66.2844 128.306 66.3194 128.303 66.3541C128.3 66.3889 128.289 66.4225 128.27 66.4516C128.25 66.4808 128.224 66.5046 128.193 66.521C128.163 66.5374 128.128 66.5457 128.093 66.5453H128.101Z" fill="#95165B"/>
<path d="M135.605 66.4528C135.535 65.9059 135.135 65.7672 134.688 65.7826C134.599 65.7748 134.51 65.7895 134.428 65.8253C134.346 65.861 134.275 65.9168 134.221 65.9874C134.166 66.058 134.13 66.1411 134.116 66.2292C134.102 66.3173 134.111 66.4074 134.141 66.4914C134.28 66.9382 134.48 67.3388 135.05 67.2617C135.143 67.2528 135.233 67.2236 135.314 67.1761C135.394 67.1286 135.463 67.064 135.516 66.9869C135.569 66.9097 135.605 66.8219 135.62 66.7297C135.635 66.6374 135.63 66.5429 135.605 66.4528ZM134.988 66.9305C134.757 66.9305 134.734 66.6994 134.642 66.5684C134.549 66.4374 134.642 66.3065 134.827 66.2988C135.012 66.2911 135.158 66.3527 135.158 66.5453C135.158 66.7379 135.22 66.9151 134.988 66.9305Z" fill="#95165B"/>
<path d="M146.782 66.8765C146.755 66.6531 146.644 66.4486 146.47 66.3053C146.297 66.1619 146.075 66.0906 145.85 66.1061C145.757 66.0906 145.662 66.0973 145.571 66.1257C145.481 66.154 145.399 66.2032 145.332 66.2692C145.264 66.3353 145.213 66.4163 145.183 66.5057C145.152 66.5952 145.144 66.6905 145.157 66.784C145.157 67.3541 145.588 67.5005 145.981 67.5544C146.374 67.6083 146.829 67.3464 146.782 66.8765ZM146.012 67.1615C145.871 67.1344 145.743 67.0629 145.646 66.9575C145.549 66.8521 145.488 66.7184 145.473 66.576C145.473 66.5298 145.642 66.4913 145.742 66.4759C146.02 66.4297 146.174 66.6454 146.259 66.8611C146.273 66.8946 146.279 66.9313 146.275 66.9676C146.271 67.004 146.258 67.0388 146.238 67.0688C146.217 67.0988 146.189 67.1231 146.156 67.1393C146.123 67.1555 146.087 67.1632 146.051 67.1615H146.012Z" fill="#95165B"/>
<path d="M162.914 67.0229C162.898 66.7941 162.799 66.579 162.636 66.4175C162.473 66.256 162.257 66.1591 162.028 66.1447C161.543 66.1447 161.358 66.5684 161.366 67.0383C161.357 67.1459 161.372 67.2542 161.41 67.355C161.449 67.4559 161.51 67.5467 161.588 67.6208C161.667 67.6949 161.761 67.7503 161.864 67.7828C161.967 67.8154 162.076 67.8242 162.183 67.8087C162.284 67.8127 162.386 67.7946 162.48 67.7557C162.574 67.7169 162.659 67.6581 162.729 67.5836C162.798 67.509 162.851 67.4203 162.883 67.3235C162.915 67.2268 162.926 67.1243 162.914 67.0229ZM162.514 67.1385C162.514 67.4235 162.298 67.4544 162.159 67.4698C162.021 67.4852 161.813 67.2849 161.705 67.0923C161.759 66.9074 161.859 66.6994 162.044 66.7071C162.159 66.7061 162.27 66.7471 162.356 66.8223C162.443 66.8975 162.499 67.0017 162.514 67.1154V67.1385Z" fill="#95165B"/>
<path d="M149.857 66.9767C149.787 66.5761 149.633 66.2063 149.086 66.2063C148.539 66.2063 148.501 66.4913 148.385 66.838C148.616 67.1924 148.693 67.7008 149.256 67.6469C149.342 67.6515 149.428 67.6367 149.508 67.6036C149.588 67.5705 149.659 67.5199 149.717 67.4556C149.774 67.3913 149.817 67.3149 149.841 67.232C149.865 67.1492 149.871 67.0619 149.857 66.9767ZM149.379 66.9767C149.379 67.0999 149.333 67.1924 149.21 67.1616C149.135 67.15 149.066 67.1156 149.013 67.0631C148.959 67.0107 148.923 66.9428 148.909 66.8688C148.909 66.707 149.025 66.6762 149.125 66.707C149.198 66.7215 149.263 66.7611 149.309 66.8188C149.356 66.8765 149.38 66.9488 149.379 67.0229V66.9767Z" fill="#95165B"/>
<path d="M156.197 67.1307C156.186 66.8888 156.087 66.6594 155.918 66.4861C155.749 66.3127 155.522 66.2077 155.28 66.1909C155.165 66.1656 155.044 66.1871 154.944 66.2506C154.845 66.3141 154.774 66.4145 154.749 66.5298C154.749 67.2309 155.311 67.9165 155.704 67.8395C155.783 67.8265 155.859 67.7977 155.928 67.7548C155.996 67.7119 156.054 67.6557 156.1 67.5896C156.146 67.5234 156.179 67.4487 156.195 67.3699C156.212 67.2911 156.212 67.2098 156.197 67.1307ZM155.681 67.385C155.349 67.385 155.342 67.1153 155.226 66.9458C155.111 66.7764 155.288 66.6993 155.403 66.7378C155.502 66.7783 155.592 66.8389 155.666 66.9158C155.74 66.9928 155.798 67.0843 155.835 67.1847C155.896 67.3156 155.827 67.3773 155.681 67.3927V67.385Z" fill="#95165B"/>
<path d="M117.054 65.9983C117.049 65.8898 117.021 65.7837 116.972 65.6867C116.923 65.5898 116.854 65.5044 116.769 65.436C116.685 65.3676 116.587 65.3178 116.482 65.2899C116.377 65.2621 116.267 65.2567 116.16 65.2742C115.79 65.2742 115.513 65.5207 115.536 65.8597C115.542 65.9644 115.569 66.067 115.615 66.1609C115.662 66.2549 115.727 66.3383 115.807 66.4061C115.887 66.474 115.981 66.5247 116.081 66.5552C116.181 66.5858 116.287 66.5955 116.391 66.5838C116.792 66.5915 117.115 66.3912 117.054 65.9983ZM116.491 65.9983C116.491 66.1139 116.445 66.2063 116.314 66.1293C116.183 66.0523 116.014 66.1293 116.006 65.9213C115.998 65.7133 116.168 65.7518 116.291 65.7518C116.414 65.7518 116.537 65.8674 116.484 66.0292L116.491 65.9983Z" fill="#95165B"/>
<path d="M169.563 67.0229C169.562 66.9088 169.538 66.7961 169.491 66.6919C169.444 66.5878 169.376 66.4947 169.291 66.4184C169.206 66.3422 169.106 66.2847 168.998 66.2495C168.889 66.2142 168.775 66.2022 168.661 66.214C168.576 66.2083 168.49 66.221 168.41 66.2511C168.33 66.2812 168.257 66.3281 168.196 66.3887C168.136 66.4492 168.089 66.522 168.059 66.6022C168.029 66.6823 168.016 66.768 168.022 66.8534C168.012 66.9636 168.025 67.0746 168.062 67.179C168.099 67.2834 168.157 67.3787 168.234 67.4583C168.311 67.538 168.404 67.6002 168.507 67.6407C168.61 67.6813 168.72 67.6991 168.831 67.6931C169.2 67.6546 169.57 67.3619 169.563 67.0229ZM169.131 67.0229C169.135 67.0626 169.131 67.1027 169.12 67.1408C169.108 67.179 169.088 67.2143 169.062 67.2446C169.036 67.2749 169.004 67.2995 168.969 67.3171C168.933 67.3346 168.894 67.3446 168.854 67.3465C168.615 67.3465 168.499 67.1616 168.361 66.9536C168.469 66.8457 168.576 66.6531 168.692 66.6531C168.798 66.6501 168.901 66.6862 168.982 66.7544C169.063 66.8226 169.116 66.9181 169.131 67.0229Z" fill="#95165B"/>
<path d="M132.061 66.5144C132.056 66.4067 132.028 66.3013 131.979 66.205C131.931 66.1086 131.863 66.0236 131.779 65.9553C131.696 65.8871 131.599 65.8371 131.495 65.8087C131.391 65.7802 131.282 65.774 131.175 65.7903C131.088 65.7942 131.002 65.8169 130.924 65.8569C130.847 65.8968 130.778 65.9531 130.724 66.0218C130.67 66.0905 130.631 66.1701 130.611 66.2551C130.59 66.3401 130.588 66.4286 130.605 66.5144C130.606 66.616 130.631 66.7159 130.678 66.8061C130.725 66.8962 130.792 66.9741 130.875 67.0333C130.957 67.0926 131.052 67.1316 131.153 67.1472C131.253 67.1628 131.356 67.1545 131.452 67.123C131.884 67.1539 132.115 66.9536 132.061 66.5144ZM131.429 66.7687C131.283 66.7301 131.113 66.6993 131.067 66.4913C131.066 66.4671 131.07 66.4428 131.079 66.4203C131.088 66.3977 131.102 66.3773 131.119 66.3605C131.137 66.3437 131.158 66.3309 131.181 66.3229C131.203 66.3149 131.228 66.3119 131.252 66.3141C131.29 66.3075 131.33 66.3092 131.368 66.3192C131.405 66.3292 131.44 66.3473 131.47 66.3722C131.5 66.3971 131.525 66.4283 131.542 66.4634C131.558 66.4986 131.567 66.5371 131.568 66.5761C131.583 66.6762 131.591 66.8072 131.437 66.7687H131.429Z" fill="#95165B"/>
<path d="M172.521 66.8303C172.51 66.6295 172.425 66.44 172.283 66.2978C172.141 66.1557 171.951 66.0709 171.75 66.0599C171.544 66.1126 171.364 66.2385 171.243 66.4143C171.123 66.59 171.07 66.8036 171.096 67.0151C171.094 67.112 171.114 67.208 171.154 67.2963C171.194 67.3846 171.253 67.4631 171.326 67.5263C171.399 67.5895 171.486 67.6358 171.579 67.6619C171.672 67.6881 171.77 67.6934 171.866 67.6777C172.421 67.6237 172.552 67.2386 172.521 66.8303ZM171.904 67.3541C171.758 67.2077 171.442 67.2463 171.411 66.9227C171.409 66.8427 171.437 66.7648 171.49 66.7047C171.543 66.6446 171.617 66.6069 171.696 66.5991C171.813 66.5982 171.927 66.6376 172.018 66.7105C172.109 66.7835 172.172 66.8856 172.197 66.9997C172.251 67.1769 172.082 67.2694 171.897 67.3541H171.904Z" fill="#95165B"/>
<path d="M153.277 66.9305C153.282 66.8303 153.265 66.7302 153.228 66.6372C153.19 66.5442 153.133 66.4606 153.059 66.3922C152.986 66.3239 152.898 66.2726 152.803 66.2418C152.707 66.211 152.606 66.2015 152.506 66.2141C152.06 66.2141 151.944 66.5222 151.89 66.8843C152.006 67.2387 152.006 67.7086 152.568 67.6547C152.665 67.6647 152.763 67.6527 152.854 67.6197C152.946 67.5866 153.029 67.5332 153.097 67.4636C153.165 67.394 153.217 67.3099 153.248 67.2176C153.279 67.1253 153.289 67.0272 153.277 66.9305ZM152.946 67.023C152.946 67.2155 152.791 67.308 152.645 67.308C152.499 67.308 152.322 67.1693 152.298 66.9613C152.275 66.7533 152.375 66.6455 152.568 66.6763C152.662 66.6809 152.751 66.718 152.819 66.7814C152.888 66.8447 152.933 66.9302 152.946 67.023Z" fill="#95165B"/>
<path d="M166.011 66.8765C166.011 66.4451 165.557 66.2756 165.241 66.2833C165.156 66.288 165.073 66.31 164.997 66.3479C164.921 66.3858 164.853 66.4388 164.799 66.5038C164.744 66.5687 164.703 66.6441 164.678 66.7254C164.654 66.8067 164.646 66.8922 164.655 66.9766C164.702 67.3233 164.856 67.7008 165.349 67.747C165.547 67.7096 165.725 67.5999 165.847 67.4391C165.97 67.2783 166.028 67.0778 166.011 66.8765ZM165.372 67.2771C165.195 67.2771 165.094 67.1692 165.056 66.9998C165.017 66.8303 165.125 66.7224 165.279 66.7532C165.34 66.7723 165.397 66.8033 165.446 66.8443C165.495 66.8852 165.535 66.9355 165.564 66.992C165.579 67.0234 165.585 67.0581 165.583 67.0927C165.58 67.1272 165.568 67.1605 165.549 67.1892C165.53 67.218 165.503 67.2412 165.472 67.2566C165.441 67.272 165.406 67.279 165.372 67.2771Z" fill="#95165B"/>
<path d="M185.224 65.9829C185.224 65.798 184.092 66.1909 183.969 66.4682C183.845 66.7456 183.753 67.1924 184.207 67.4081C184.261 67.4638 184.325 67.5081 184.395 67.5384C184.466 67.5687 184.542 67.5843 184.62 67.5843C184.697 67.5843 184.773 67.5687 184.844 67.5384C184.914 67.5081 184.978 67.4638 185.032 67.4081C185.717 67.0229 185.301 66.4605 185.224 65.9829ZM184.839 67.2001C184.646 67.2617 184.516 67.1385 184.361 67.0614C184.299 66.9772 184.271 66.8724 184.282 66.7682C184.293 66.6639 184.344 66.5678 184.423 66.4991C184.593 66.345 184.7 66.4991 184.824 66.5992C185.101 66.7995 184.962 67.0229 184.839 67.2001Z" fill="#95165B"/>
<path d="M114.335 66.0368C114.265 65.6901 114.134 65.1894 113.564 65.2664C113.156 65.3203 113.033 65.6439 113.04 66.0368C113.048 66.4297 113.264 66.6069 113.811 66.5529C114.011 66.5067 114.412 66.4297 114.335 66.0368ZM113.88 65.9752C113.88 66.0599 113.757 66.1909 113.695 66.1909C113.663 66.1916 113.63 66.185 113.6 66.1714C113.571 66.1578 113.544 66.1376 113.524 66.1124C113.503 66.0871 113.488 66.0575 113.48 66.0257C113.473 65.994 113.472 65.9609 113.479 65.9289C113.482 65.9028 113.49 65.8776 113.503 65.8547C113.516 65.8318 113.534 65.8118 113.555 65.796C113.576 65.7801 113.599 65.7687 113.625 65.7624C113.65 65.7561 113.677 65.7551 113.703 65.7595C113.729 65.7603 113.754 65.7665 113.777 65.7777C113.8 65.7889 113.821 65.8048 113.837 65.8243C113.854 65.8439 113.866 65.8668 113.874 65.8914C113.881 65.916 113.883 65.9419 113.88 65.9675V65.9752Z" fill="#95165B"/>
<path d="M99.7356 52.8018C99.7164 52.82 99.6928 52.833 99.6672 52.8395C99.6415 52.8459 99.6146 52.8457 99.589 52.8387C99.5635 52.8317 99.5401 52.8183 99.5213 52.7997C99.5024 52.7811 99.4887 52.7579 99.4814 52.7324C99.3428 52.3935 99.2118 52.0468 99.0808 51.7078C99.0808 51.5538 99.0269 51.3535 99.2272 51.2841C99.4275 51.2148 99.5276 51.3997 99.5816 51.5923C99.6678 51.8554 99.7707 52.1127 99.8897 52.3627C99.9745 52.6015 99.8512 52.7016 99.7356 52.8018Z" fill="#95165B"/>
<path d="M175.086 66.083C174.794 65.8211 174.486 65.6747 174.131 65.9752C174.014 66.0851 173.94 66.2335 173.923 66.3932C173.906 66.553 173.947 66.7136 174.039 66.8457C174.076 66.9512 174.135 67.048 174.211 67.13C174.287 67.2119 174.379 67.2773 174.482 67.3221C174.585 67.3669 174.695 67.3901 174.807 67.3903C174.919 67.3905 175.03 67.3677 175.133 67.3233C175.695 66.8842 175.572 66.4759 175.086 66.083ZM174.755 66.2679C174.871 66.4759 175.225 66.5529 175.086 66.8919C174.948 67.2309 174.794 66.969 174.64 66.9458C174.409 66.6685 174.054 66.3835 174.747 66.2525L174.755 66.2679Z" fill="#95165B"/>
<path d="M142.785 67.2155C143.239 66.7533 143.046 66.3912 142.607 66.06C142.168 65.7287 141.899 66.06 141.667 66.3065C141.583 66.363 141.516 66.4419 141.474 66.5343C141.432 66.6268 141.416 66.7291 141.429 66.8299C141.442 66.9307 141.483 67.0259 141.546 67.1049C141.61 67.1839 141.695 67.2435 141.791 67.2772C142.153 67.7933 142.469 67.5314 142.785 67.2155ZM142.561 66.8457C142.438 66.9536 142.345 67.1231 142.13 67.0692C142.13 66.9151 141.76 66.7995 141.991 66.63C142.222 66.4606 142.43 66.5915 142.561 66.8457Z" fill="#95165B"/>
<path d="M133.355 86.7831C135.666 85.6969 137.977 84.6106 140.289 83.5475C140.473 83.4628 140.758 83.0853 140.943 83.4936C141.128 83.9019 140.789 83.8942 140.512 84.0097C138.624 84.834 136.76 85.6968 134.88 86.5443C134.11 86.8832 133.394 87.2145 132.654 87.5612C132.454 87.6536 132.3 87.669 132.161 87.4302C132.123 87.3377 132.238 87.3609 132.292 87.33C132.662 87.1375 133.001 86.9449 133.355 86.7831Z" fill="#95165B"/>
<path d="M123.91 91.4592L127.1 90.1187C127.238 90.0186 127.323 90.1187 127.369 90.2497C127.485 90.527 127.285 90.6195 127.069 90.6965C126.088 91.0373 125.139 91.4653 124.234 91.9754C124.057 92.0755 123.91 92.0755 123.818 91.9368C123.725 91.7982 123.679 91.5593 123.91 91.4592Z" fill="#95165B"/>
<path d="M130.905 88.1158C131.082 87.9925 131.329 87.746 131.606 87.9001C131.631 87.9225 131.651 87.9498 131.664 87.9803C131.678 88.0109 131.685 88.0439 131.685 88.0773C131.685 88.1107 131.678 88.1437 131.664 88.1742C131.651 88.2047 131.631 88.2321 131.606 88.2545C131.257 88.4723 130.894 88.6679 130.52 88.8399C130.474 88.8399 130.358 88.7321 130.273 88.6782C130.358 88.3238 130.697 88.2622 130.905 88.1158Z" fill="#95165B"/>
<path d="M143.092 82.4304C143.139 82.5151 143.246 82.623 143.231 82.6846C143.062 83.2239 142.592 83.0159 142.099 83.1314C142.206 82.4304 142.792 82.6538 143.092 82.4304Z" fill="#95165B"/>
<path d="M129.18 89.0865C129.38 88.9941 129.48 89.0865 129.465 89.3022C129.465 89.7028 129.056 89.6258 128.817 89.7413C128.786 89.7585 128.751 89.7674 128.715 89.7671C128.68 89.7667 128.645 89.7572 128.614 89.7394C128.583 89.7216 128.557 89.6961 128.538 89.6654C128.52 89.6347 128.51 89.5998 128.509 89.5641C128.633 89.2945 128.918 89.2021 129.18 89.0865Z" fill="#95165B"/>
<path d="M159.817 54.5813C159.733 54.7585 159.586 54.9434 159.424 54.8201C159.263 54.6969 159.309 54.2886 159.293 54.0498C159.293 53.9419 159.417 53.8957 159.532 53.9111C159.871 53.9111 159.733 54.2115 159.771 54.3964C159.771 54.4658 159.771 54.5274 159.817 54.589V54.5813Z" fill="#95165B"/>
<path d="M159.378 52.7247C159.402 52.6669 159.439 52.6153 159.485 52.5739C159.532 52.5325 159.588 52.5024 159.648 52.4859C159.81 52.4859 159.856 52.6322 159.856 52.7632C159.856 52.8942 159.733 52.9712 159.609 53.0097C159.486 53.0482 159.324 52.8788 159.378 52.7247Z" fill="#95165B"/>
<path d="M0.981186 30.9692C1.29704 32.9414 2.70683 34.0507 4.10892 35.1755C4.56145 35.6152 5.08166 35.9793 5.64967 36.254C6.40832 36.8699 7.2914 37.314 8.23813 37.556C10.0077 38.0032 11.8115 38.3021 13.6308 38.4496C14.4208 38.5109 15.2155 38.4721 15.9958 38.334C17.8234 38.0961 19.6781 38.4757 21.2652 39.4126C22.3822 40.0597 23.376 40.8917 24.5624 41.4387C25.1872 41.7446 25.8668 41.9226 26.5613 41.9623C27.2559 42.002 27.9513 41.9025 28.6069 41.6698C29.6946 41.356 30.76 40.97 31.7963 40.5142C32.2831 40.3195 32.8097 40.2451 33.3314 40.2974C33.8531 40.3498 34.3545 40.5272 34.793 40.8147C35.8715 41.3462 36.8807 42.001 37.9747 42.5095C39.3922 43.1643 40.7634 42.7637 42.1578 42.7175C43.5522 42.6713 44.6461 41.4464 46.0097 40.9995C46.9464 40.627 47.9546 40.4691 48.9602 40.5373C49.8833 40.5671 50.8074 40.5336 51.7259 40.4372C53.6056 40.3832 55.493 40.2446 57.3728 40.3216C59.0137 40.3909 60.6623 40.4988 62.2955 40.6298C64.6211 40.9232 66.9824 40.7291 69.2289 40.0597C70.2878 39.7663 71.2501 39.1974 72.0176 38.4111C72.2872 38.1029 72.2564 37.9951 71.9329 37.7948C71.3166 37.4096 70.5847 37.4019 69.9453 37.0244C68.3964 36.3217 67.1599 35.0742 66.4709 33.5192C66.2152 32.871 65.8247 32.2844 65.3254 31.7984C64.826 31.3123 64.2292 30.9378 63.5743 30.6996C62.686 30.4205 61.7496 30.3287 60.824 30.43H60.1384C59.466 30.4063 58.7984 30.552 58.1971 30.8537C57.7888 31.0694 57.6193 30.8537 57.5114 30.4993C57.3111 29.7906 57.1108 29.0818 56.8797 28.3808C56.6055 27.5946 56.1167 26.9008 55.4687 26.378C54.8206 25.8552 54.0391 25.5242 53.2127 25.4225C51.0834 24.8825 48.8392 25.0144 46.7878 25.8C46.549 25.9002 46.4719 25.8 46.3256 25.6382C45.482 24.4242 44.269 23.5149 42.867 23.0458C41.4651 22.5766 39.9491 22.5726 38.5448 23.0344C37.5149 23.2548 36.5233 23.626 35.6019 24.136C35.4022 24.2623 35.2378 24.4372 35.1243 24.6444C34.716 24.1514 34.6081 23.4581 34.0843 23.0267C32.9749 22.1022 31.7731 22.3333 30.4943 22.6338C29.6074 22.8244 28.7736 23.2084 28.0522 23.7585C27.5962 24.0854 27.0954 24.3449 26.5654 24.5289C26.0415 24.7446 25.795 24.2053 25.4638 23.9742C25.0868 23.6929 24.7454 23.367 24.4469 23.0035C23.9138 22.416 23.2491 21.9631 22.5073 21.6819C21.7655 21.4007 20.9676 21.2992 20.179 21.3858C18.682 21.3756 17.1993 21.6773 15.8252 22.2714C14.4511 22.8656 13.2158 23.7394 12.1979 24.837C11.6514 25.6045 11.194 26.4315 10.8343 27.3022C10.6557 27.6608 10.3843 27.965 10.0483 28.1831C9.7123 28.4013 9.32399 28.5254 8.92377 28.5426C7.08257 28.635 5.24137 28.5426 3.40017 28.6735C2.99081 28.7001 2.5854 28.7698 2.19068 28.8815C1.97229 28.936 1.76708 29.0337 1.58723 29.1691C1.40737 29.3044 1.25656 29.4744 1.14373 29.6692C1.03091 29.8639 0.958379 30.0794 0.930455 30.3027C0.902532 30.526 0.919784 30.7527 0.981186 30.9692ZM2.28312 29.2744C2.80844 29.1092 3.3584 29.0362 3.90862 29.0587C5.27989 29.2205 6.66657 29.0587 8.03013 29.2128C8.70801 29.3256 9.4042 29.2153 10.0141 28.8986C10.6239 28.5819 11.1145 28.0758 11.4121 27.4563C12.0077 26.4134 12.7267 25.446 13.5537 24.5751C14.4582 23.5872 15.584 22.8277 16.8388 22.359C18.0935 21.8903 19.4415 21.7258 20.7722 21.8788C21.3718 21.8835 21.9639 22.0134 22.5104 22.2601C23.057 22.5069 23.546 22.865 23.9461 23.3117C24.512 23.9177 25.1423 24.4602 25.8258 24.9295C25.9261 25.0284 26.0572 25.0901 26.1974 25.1041C26.3376 25.1181 26.4783 25.0837 26.5962 25.0065C27.097 24.7446 27.6054 24.4904 28.0907 24.2361C29.3694 23.3569 30.8839 22.8843 32.4357 22.8803C32.6807 22.8733 32.9238 22.9249 33.1449 23.0307C33.366 23.1366 33.5586 23.2936 33.7068 23.4889C34.3037 24.2007 34.7258 25.0423 34.9394 25.9464C35.001 26.216 35.1089 26.3778 35.3631 26.3008C35.6173 26.2237 35.548 26.0696 35.5018 25.8385C35.4286 25.6696 35.3957 25.4859 35.4058 25.3021C35.4158 25.1183 35.4685 24.9393 35.5597 24.7794C35.6509 24.6194 35.7781 24.4829 35.9311 24.3806C36.0842 24.2783 36.259 24.213 36.4416 24.1899C37.9332 23.6706 39.4879 23.3545 41.0639 23.2501C41.6306 23.2232 42.1968 23.3123 42.7279 23.512C44.256 24.1279 45.5541 25.2051 46.4411 26.5935C47.0189 27.4255 47.5119 28.3114 48.0281 29.182C48.1051 29.3129 48.1668 29.4131 48.3054 29.3746C48.4441 29.336 48.498 29.1434 48.4595 28.9971C48.4081 28.8574 48.3381 28.7253 48.2515 28.6042C47.8509 27.9648 47.4811 27.3177 47.0266 26.6859C46.7724 26.3085 46.8725 26.1621 47.2885 26.0234C49.2768 25.4148 51.4016 25.4148 53.3899 26.0234C54.1037 26.1553 54.7671 26.482 55.3069 26.9673C55.8466 27.4527 56.2416 28.0778 56.4483 28.7737C56.6326 29.3987 56.7489 30.0419 56.795 30.6919C56.8566 31.4623 57.2341 31.6626 57.9043 31.4161C58.706 31.02 59.6036 30.8597 60.4928 30.9538C61.0682 31.0612 61.6496 31.1333 62.2338 31.1695C63.8593 31.2774 65.1459 31.8783 65.7853 33.4807C66.0641 34.2817 66.49 35.0237 67.041 35.6685C67.9501 36.4845 68.9923 37.1385 70.1225 37.6022C70.5616 37.8333 71.0392 37.9951 71.5708 38.2185C70.2666 39.1843 68.7196 39.7684 67.1026 39.9056C64.8359 40.0123 62.565 39.9943 60.3002 39.8517C59.1446 39.7823 57.9891 39.6822 56.8335 39.6745C56.2599 39.5621 55.6769 39.5054 55.0924 39.505C54.1987 39.707 53.2885 39.8282 52.373 39.8671C51.256 39.8671 50.1235 39.7669 49.0219 39.8671C48.2477 39.8541 47.4739 39.9134 46.7107 40.0443C45.2851 40.5296 43.8862 41.0902 42.5199 41.7237C41.0485 42.3708 39.5925 42.7868 38.0209 42.0241C36.9116 41.4849 35.8561 40.8532 34.7699 40.2754C34.3588 39.9944 33.8885 39.812 33.3954 39.7426C32.9024 39.6731 32.3999 39.7183 31.9272 39.8748C30.7562 40.3909 29.5699 40.8301 28.3604 41.2384C27.6293 41.4999 26.8427 41.5664 26.0781 41.4313C25.3135 41.2962 24.5973 40.9642 24 40.468C21.6042 38.6653 19.0157 37.4943 15.9111 37.7948C14.386 37.9455 12.8491 37.93 11.3273 37.7486C10.2873 37.6253 9.27814 37.3711 8.24584 37.2247C7.48695 36.8735 6.75783 36.4613 6.06567 35.9921C5.18469 35.3766 4.35041 34.6968 3.56965 33.9583C2.84192 33.3252 2.19968 32.6001 1.65912 31.8012C1.07363 30.8537 1.14297 29.544 2.28312 29.2744Z" fill="#95165B"/>
<path d="M42.7278 24.5443C43.4794 24.835 44.1579 25.2874 44.7153 25.8693C45.6535 26.7378 46.4079 27.7857 46.934 28.9508C47.0265 29.1511 46.934 29.2128 46.7876 29.2821C46.6413 29.3514 46.5796 29.1049 46.5026 28.9663C45.5859 27.2175 44.4996 25.6305 42.5198 24.9295C42.4817 24.9214 42.4459 24.9048 42.415 24.8811C42.3841 24.8574 42.3589 24.8271 42.3412 24.7924C42.3234 24.7578 42.3137 24.7196 42.3126 24.6806C42.3115 24.6417 42.3191 24.603 42.3349 24.5674C42.4196 24.4056 42.5814 24.4981 42.7278 24.5443Z" fill="#95165B"/>
<path d="M18.5999 22.526C19.0775 22.472 19.5628 22.4489 20.0482 22.4258C20.8074 22.3838 21.5641 22.5442 22.2409 22.8908C22.9177 23.2373 23.4903 23.7574 23.9001 24.398C23.9694 24.4981 24.2467 24.552 24.0695 24.7446C23.8924 24.9372 23.7537 24.6907 23.6612 24.5906C23.2768 24.1211 22.8251 23.7109 22.3208 23.3734C21.0805 22.603 19.7863 22.7031 18.4689 22.9959C18.3534 22.9959 18.1608 23.1808 18.1762 22.8495C18.1916 22.5183 18.4227 22.5414 18.5999 22.526Z" fill="#95165B"/>
<path d="M55.3623 29.5672C55.5703 29.4901 55.5934 29.7443 55.6396 29.8522C55.7295 30.1292 55.799 30.4124 55.8476 30.6996C55.8476 30.846 55.7783 31.0155 55.7321 31.1849C55.7278 31.2179 55.7165 31.2496 55.6988 31.2778C55.6812 31.3061 55.6577 31.3301 55.6299 31.3484C55.6021 31.3667 55.5707 31.3788 55.5378 31.3838C55.5049 31.3888 55.4713 31.3867 55.4393 31.3775C55.3854 31.3775 55.3315 31.1618 55.3623 31.0925C55.4325 30.9209 55.4567 30.734 55.4324 30.5502C55.408 30.3664 55.3361 30.1922 55.2236 30.0448C55.0927 29.8214 55.162 29.6442 55.3623 29.5672Z" fill="#95165B"/>
<path d="M33.2291 23.8818C33.3292 23.8356 33.4756 23.8202 33.5295 23.8818C33.7021 24.2252 33.8564 24.5775 33.9918 24.9372C34.0457 25.0759 33.907 25.176 33.7915 25.2377C33.6759 25.2993 33.6451 25.2377 33.6451 25.1837C33.5746 24.7939 33.4165 24.4251 33.1829 24.1052C33.1443 24.0436 33.1289 23.9434 33.2291 23.8818Z" fill="#95165B"/>
<path d="M17.2128 22.9882C17.2452 22.9684 17.282 22.9572 17.3199 22.9556C17.3577 22.954 17.3954 22.962 17.4293 22.979C17.4632 22.9959 17.4922 23.0212 17.5137 23.0525C17.5351 23.0837 17.5482 23.1199 17.5518 23.1577C17.5133 23.4658 17.1743 23.4042 16.9971 23.5275C16.8276 23.4812 16.5657 23.6507 16.5734 23.3657C16.5811 23.0806 17.0048 23.1115 17.2128 22.9882Z" fill="#95165B"/>
<path d="M54.8612 27.88C55.1463 27.9879 55.1155 28.3577 55.3235 28.5426C55.3256 28.5762 55.3208 28.6099 55.3093 28.6416C55.2979 28.6734 55.2801 28.7024 55.2569 28.7269C55.2338 28.7515 55.2059 28.771 55.175 28.7844C55.144 28.7977 55.1107 28.8046 55.0769 28.8045C54.7688 28.7198 54.8612 28.3577 54.6918 28.1574C54.5223 27.9571 54.7919 27.8569 54.8612 27.88Z" fill="#95165B"/>
<path d="M40.8325 24.0667C40.9481 24.267 41.3333 23.9665 41.3718 24.344C41.3718 24.4981 41.2485 24.5751 41.1099 24.552C40.9712 24.5289 40.6631 24.4673 40.5937 24.2285C40.5552 24.0975 40.6862 24.0436 40.8325 24.0667Z" fill="#95165B"/>
<path d="M15.7801 23.5813C15.8649 23.5813 16.0189 23.6969 16.0112 23.7431C15.9974 23.8161 15.9609 23.8829 15.907 23.9341C15.8531 23.9852 15.7844 24.0181 15.7108 24.0281C15.683 24.0263 15.6559 24.0188 15.6312 24.0059C15.6065 23.993 15.5847 23.9751 15.5673 23.9534C15.5499 23.9316 15.5373 23.9065 15.5301 23.8796C15.523 23.8527 15.5215 23.8245 15.5259 23.797C15.6183 23.6969 15.6183 23.5582 15.7801 23.5813Z" fill="#95165B"/>
<path d="M84.3668 123.723C86.1248 124.898 88.23 125.441 90.3372 125.263C90.6914 125.188 91.0606 125.229 91.3896 125.38C91.7186 125.531 91.9899 125.785 92.163 126.103C92.633 126.81 93.216 127.434 93.8887 127.952C94.9518 128.838 96.1998 128.653 97.4093 128.314C97.9439 128.166 98.4475 127.924 98.8961 127.598C99.8283 126.92 100.283 126.989 101.415 127.89C101.93 128.357 102.545 128.698 103.213 128.888C103.881 129.077 104.584 129.111 105.267 128.984C106.199 128.776 107.085 128.353 108.002 128.06C108.595 127.867 109.15 127.582 109.728 127.359C111.317 126.808 113.045 126.808 114.635 127.359C115.665 127.724 116.785 127.751 117.832 127.436C118.136 127.359 118.412 127.2 118.632 126.977C118.852 126.754 119.007 126.476 119.08 126.171C119.153 125.866 119.142 125.548 119.046 125.249C118.951 124.951 118.776 124.684 118.541 124.478C117.491 123.363 116.068 122.675 114.542 122.544C113.279 122.398 113.002 121.697 112.855 120.672C112.731 120.182 112.506 119.723 112.194 119.325C111.883 118.927 111.491 118.599 111.045 118.361C110.574 118.031 110.034 117.815 109.466 117.728C108.899 117.641 108.318 117.686 107.771 117.86C107.664 117.875 107.555 117.875 107.447 117.86C107.265 117.361 106.935 116.93 106.501 116.623C106.068 116.317 105.552 116.149 105.021 116.142C104.053 115.975 103.059 116.057 102.132 116.381C101.927 116.44 101.711 116.448 101.503 116.403C101.295 116.359 101.1 116.264 100.938 116.127C100.307 115.687 99.5827 115.4 98.822 115.288C98.0614 115.175 97.2851 115.241 96.5542 115.48C95.4861 115.87 94.5066 116.47 93.673 117.244C93.6273 117.271 93.5893 117.309 93.5624 117.355C93.5354 117.401 93.5205 117.453 93.5189 117.506C91.8613 117.041 90.1283 116.907 88.419 117.113C86.6986 117.443 85.1129 118.271 83.8584 119.493C83.7736 119.57 83.7505 119.724 83.6966 119.84C82.6412 121.766 82.7644 122.675 84.3668 123.723ZM83.7582 120.31C84.3502 119.508 85.1024 118.838 85.967 118.342C86.8317 117.846 87.7899 117.535 88.7811 117.429C90.2971 117.282 91.8271 117.429 93.2878 117.86C93.3816 117.94 93.4915 117.999 93.61 118.033C93.7286 118.067 93.853 118.075 93.9749 118.056C94.0968 118.038 94.2133 117.994 94.3167 117.927C94.4201 117.86 94.508 117.771 94.5743 117.667C95.1122 117.042 95.7597 116.52 96.4848 116.127C97.0551 115.903 97.6656 115.799 98.2779 115.822C98.8902 115.846 99.491 115.996 100.042 116.263C100.594 116.53 101.084 116.908 101.482 117.374C101.88 117.84 102.177 118.383 102.355 118.969C102.401 119.17 102.301 119.516 102.602 119.478C102.902 119.439 102.902 119.1 102.833 118.838C102.713 118.33 102.479 117.855 102.147 117.452C101.924 117.198 101.87 116.982 102.347 116.874C103.078 116.729 103.821 116.651 104.566 116.643C104.939 116.626 105.311 116.689 105.657 116.828C106.003 116.966 106.316 117.177 106.574 117.446C106.832 117.715 107.03 118.036 107.154 118.388C107.278 118.74 107.325 119.114 107.293 119.486C107.293 119.74 107.378 119.809 107.547 119.848C107.717 119.886 107.794 119.709 107.786 119.555C107.819 119.139 107.758 118.72 107.609 118.33C108.795 117.691 109.866 118.161 110.929 118.684C111.443 119.057 111.869 119.537 112.177 120.093C112.484 120.648 112.666 121.264 112.709 121.897C112.709 122.667 113.171 122.667 113.695 122.783C115.236 123.076 116.777 123.391 117.955 124.539C118.19 124.71 118.382 124.934 118.516 125.192C118.65 125.45 118.721 125.735 118.726 126.026C118.68 126.273 118.563 126.502 118.389 126.684C118.215 126.866 117.992 126.993 117.747 127.051C116.957 127.314 116.103 127.314 115.313 127.051C114.441 126.742 113.536 126.535 112.617 126.434C111.42 126.385 110.223 126.544 109.081 126.904C108.01 127.236 106.97 127.675 105.93 128.098C105.466 128.349 104.951 128.485 104.424 128.497C103.898 128.509 103.376 128.396 102.902 128.168C102.093 127.713 101.361 127.182 100.529 126.704C100.029 126.404 99.6588 126.288 99.1966 126.704C99.0086 126.855 98.8075 126.989 98.5957 127.105C97.756 127.59 96.9548 128.137 95.8762 127.983C95.0905 127.854 94.348 127.535 93.7131 127.055C93.0781 126.574 92.5699 125.946 92.2324 125.225C92.1211 125.018 91.9404 124.856 91.7221 124.769C91.5038 124.682 91.2617 124.674 91.0383 124.747C90.1324 124.854 89.2171 124.854 88.3111 124.747C87.0246 124.616 86 123.8 84.9138 123.206C83.1573 122.274 83.1342 122.136 83.7582 120.302V120.31Z" fill="#95165B"/>
<path d="M96.5081 116.874C97.0038 116.523 97.5922 116.326 98.1994 116.308C98.8066 116.29 99.4055 116.452 99.9209 116.774C100.377 116.983 100.758 117.327 101.011 117.76C101.265 118.192 101.379 118.693 101.338 119.193C101.169 118.862 101.061 118.684 100.976 118.5C100.81 118.099 100.556 117.74 100.233 117.45C99.9095 117.16 99.5257 116.945 99.1092 116.823C98.6926 116.7 98.2539 116.672 97.8252 116.741C97.3965 116.81 96.9886 116.974 96.6314 117.221C96.5158 117.305 96.3771 117.59 96.2231 117.359C96.069 117.128 96.3078 117.005 96.5081 116.874Z" fill="#95165B"/>
<path d="M90.5449 117.976C91.4275 118.025 92.307 118.12 93.1796 118.261C93.2128 118.262 93.2453 118.271 93.2747 118.286C93.3041 118.302 93.3297 118.323 93.3496 118.35C93.3695 118.376 93.3833 118.407 93.3899 118.44C93.3964 118.472 93.3957 118.506 93.3876 118.538C93.3876 118.669 93.2182 118.638 93.1103 118.623L90.8916 118.33C90.7942 118.339 90.6963 118.339 90.5989 118.33C90.4371 118.33 90.1675 118.499 90.1521 118.161C90.1366 117.822 90.3832 117.983 90.5449 117.976Z" fill="#95165B"/>
<path d="M111.361 119.747C111.86 120.324 112.195 121.024 112.332 121.774C112.255 121.958 112.486 122.282 112.131 122.305C111.777 122.328 111.946 122.02 111.916 121.843C111.826 121.169 111.561 120.532 111.145 119.994C111.053 119.871 110.983 119.763 111.06 119.67C111.138 119.578 111.276 119.663 111.361 119.747Z" fill="#95165B"/>
<path d="M106.192 117.567C106.508 117.567 106.377 117.852 106.477 117.991C106.577 118.13 106.407 118.199 106.284 118.245C106.161 118.292 106.007 117.968 105.953 117.806C105.899 117.644 106.045 117.583 106.192 117.567Z" fill="#95165B"/>
<path d="M106.777 118.638C106.845 118.755 106.88 118.888 106.88 119.023C106.88 119.159 106.845 119.291 106.777 119.409C106.7 119.162 106.346 118.993 106.577 118.692C106.635 118.651 106.706 118.632 106.777 118.638Z" fill="#95165B"/>
<path d="M89.1202 117.714C89.3051 117.621 89.3898 117.775 89.3975 117.883C89.4052 117.991 89.1818 118.168 89.0662 118.153C88.9507 118.137 88.6734 118.153 88.6657 117.96C88.6579 117.768 89.0123 117.868 89.1202 117.714Z" fill="#95165B"/>
<path d="M190.671 104.987C191.249 105.573 192.042 105.503 192.759 105.665C194.361 106.035 196.025 105.904 197.62 106.335C198.99 106.713 200.329 107.195 201.626 107.776C203.252 108.386 204.917 108.888 206.61 109.278C207.408 109.442 208.235 109.378 208.998 109.093C210.993 108.477 212.503 107.129 214.029 105.811C215.487 105.146 217.116 104.952 218.69 105.257C219.203 105.289 219.717 105.289 220.23 105.257C221.676 105.444 223.142 105.384 224.568 105.08C225.55 104.703 226.46 104.158 227.256 103.469C227.426 103.338 227.58 103.184 227.749 103.053C229.174 101.998 229.29 100.919 228.127 99.5944C227.647 98.9729 227.027 98.4742 226.317 98.1393C225.607 97.8045 224.828 97.6431 224.044 97.6685C223.088 97.7301 222.133 97.8226 221.178 97.8765C220.898 97.8944 220.622 97.8033 220.407 97.6223C219.899 97.2441 219.411 96.8405 218.944 96.4128C217.596 95.08 215.901 94.795 214.106 94.6178C212.752 94.5248 211.41 94.9273 210.331 95.7503C209.838 96.1817 209.684 95.5654 209.561 95.3959C208.92 94.5854 208.042 93.9955 207.049 93.7088C206.403 93.5173 205.719 93.4874 205.058 93.6217C204.397 93.7561 203.779 94.0505 203.259 94.4791C203.086 94.6345 202.921 94.7991 202.766 94.9722C202.442 95.5191 202.126 95.7426 201.464 95.3034C201.031 95.0589 200.553 94.903 200.059 94.8447C199.566 94.7864 199.065 94.8269 198.587 94.9638C198.109 95.1007 197.662 95.3313 197.274 95.6422C196.886 95.9532 196.564 96.3382 196.326 96.7749C195.76 97.8157 195.105 98.8055 194.369 99.7331C194.022 100.218 193.46 100.288 192.997 100.55C191.99 101.098 191.098 101.836 190.371 102.722C190.215 102.879 190.097 103.069 190.026 103.278C189.955 103.487 189.934 103.71 189.963 103.929C189.992 104.148 190.071 104.357 190.194 104.54C190.316 104.724 190.48 104.877 190.671 104.987ZM191.264 102.568C191.883 101.896 192.643 101.37 193.491 101.027C194.481 100.584 195.295 99.8223 195.802 98.8626C196.363 97.8767 197.027 96.9523 197.782 96.1046C198.837 94.7488 201.14 95.3343 201.949 96.4436C201.21 96.077 200.407 95.8548 199.584 95.7888C199.13 95.7117 199.207 95.9429 199.137 96.2202C199.772 96.1202 200.422 96.1838 201.025 96.4051C201.449 96.5823 201.795 96.7286 201.472 97.3141C201.362 97.6174 201.234 97.9133 201.086 98.2001C200.932 98.4158 200.955 98.5544 201.194 98.6623C201.433 98.7701 201.464 98.593 201.51 98.4081C201.835 97.3421 202.315 96.3297 202.935 95.4036C203.588 94.6488 204.503 94.1696 205.495 94.0624C206.487 93.9552 207.483 94.228 208.282 94.8258C208.744 95.1956 209.137 95.5962 209.561 95.9968C209.676 96.1509 209.692 96.2356 209.561 96.4205C209.258 96.6752 209.058 97.0311 208.998 97.422C208.998 97.5375 208.998 97.6454 209.083 97.707C209.168 97.7687 209.276 97.6454 209.345 97.5684C209.578 97.2314 209.835 96.9121 210.115 96.6131C211.084 95.8075 212.266 95.3007 213.517 95.1544C214.769 95.008 216.036 95.2284 217.164 95.7888C218.263 96.4357 219.268 97.2287 220.153 98.1461C220.392 98.3823 220.688 98.5527 221.012 98.6404C221.336 98.7282 221.677 98.7304 222.002 98.6469C222.649 98.5187 223.307 98.4542 223.967 98.4543C225.769 98.3927 227.248 98.9627 228.127 100.658C228.304 100.993 228.35 101.383 228.258 101.751C228.166 102.119 227.941 102.44 227.626 102.653C227.141 102.992 226.686 103.362 226.224 103.716C225.504 104.269 224.67 104.654 223.782 104.841C222.745 105.008 221.692 105.047 220.646 104.956C219.576 104.956 218.512 104.771 217.449 104.756C216.25 104.621 215.04 104.892 214.013 105.526C213.05 106.297 212.111 107.067 211.109 107.737C210.093 108.537 208.843 108.981 207.55 109.001C205.502 108.839 203.5 108.318 201.633 107.46C200.05 106.696 198.378 106.13 196.657 105.773C195.155 105.542 193.637 105.465 192.135 105.18C191.6 105.111 191.094 104.898 190.671 104.563C190.602 104.208 190.62 103.84 190.723 103.493C190.826 103.146 191.012 102.828 191.264 102.568Z" fill="#95165B"/>
<path d="M214.429 95.9737C216.134 96.0988 217.753 96.7655 219.052 97.8765C219.144 97.9536 219.213 98.0383 219.167 98.1539C219.121 98.2694 218.951 98.2694 218.836 98.2078C218.719 98.1542 218.61 98.0841 218.512 97.9998C217.803 97.3534 216.95 96.8859 216.024 96.6362C215.338 96.4205 214.607 96.4744 213.921 96.2279C213.956 96.1278 214.029 96.0452 214.124 95.9978C214.219 95.9503 214.328 95.9417 214.429 95.9737Z" fill="#95165B"/>
<path d="M208.69 95.9968C208.775 96.0969 208.898 96.1816 208.775 96.328C208.752 96.3491 208.726 96.3655 208.696 96.376C208.667 96.3866 208.636 96.3913 208.605 96.3896C208.111 96.0148 207.708 95.5328 207.427 94.9799C207.885 95.2703 208.309 95.6114 208.69 95.9968Z" fill="#95165B"/>
<path d="M212.974 96.0353C213.135 96.0892 213.39 95.8889 213.443 96.1354C213.497 96.3819 213.289 96.4436 213.066 96.4359C212.843 96.4282 212.596 96.4359 212.565 96.2125C212.534 95.989 212.773 95.9736 212.974 96.0353Z" fill="#95165B"/>
<path d="M206.88 94.6024C206.918 94.664 206.795 94.7796 206.664 94.795C206.541 94.7936 206.42 94.7627 206.312 94.7051C206.203 94.6475 206.11 94.5647 206.04 94.4637C206.125 94.4021 206.225 94.2634 206.279 94.2865C206.495 94.3559 206.756 94.3944 206.88 94.6024Z" fill="#95165B"/>
<path d="M205.193 94.3096C205.37 94.3096 205.532 94.3867 205.57 94.5716C205.609 94.7564 205.47 94.6871 205.385 94.6948C205.302 94.7131 205.214 94.7006 205.139 94.6595C205.064 94.6185 205.007 94.5517 204.977 94.4714C204.977 94.3173 205.085 94.3019 205.193 94.3096Z" fill="#95165B"/>
<path d="M87.5252 11.4248C88.103 12.0103 88.8965 11.941 89.613 12.1027C91.2154 12.4725 92.8794 12.3416 94.474 12.773C95.8439 13.151 97.1831 13.6326 98.48 14.2136C100.099 14.8227 101.756 15.3245 103.441 15.7158C104.239 15.8796 105.066 15.8155 105.829 15.5309C107.825 14.9146 109.335 13.5665 110.86 12.2491C112.318 11.5839 113.947 11.39 115.521 11.6944C116.034 11.7265 116.548 11.7265 117.061 11.6944C118.507 11.8819 119.973 11.822 121.399 11.5173C122.382 11.1407 123.291 10.5958 124.087 9.90717C124.257 9.77621 124.411 9.62213 124.58 9.49117C126.006 8.43575 126.121 7.35722 124.958 6.03218C124.479 5.41063 123.858 4.91189 123.149 4.57704C122.439 4.24219 121.659 4.08082 120.875 4.10623C119.92 4.16786 118.964 4.26031 118.009 4.31424C117.729 4.33216 117.453 4.24106 117.239 4.06001C116.729 3.68959 116.237 3.29363 115.767 2.87363C114.458 1.54088 112.763 1.24814 110.968 1.07865C109.614 0.985628 108.272 1.38812 107.193 2.21111C106.7 2.64252 106.546 2.02622 106.423 1.85673C105.78 1.04489 104.899 0.454865 103.903 0.16961C103.257 -0.0218489 102.573 -0.0517316 101.912 0.0825829C101.252 0.216897 100.634 0.511306 100.113 0.939987C99.9401 1.09532 99.7755 1.25991 99.6202 1.43303C99.2966 1.98 98.9808 2.2034 98.3182 1.76429C97.8851 1.51979 97.4077 1.36385 96.9138 1.30554C96.4198 1.24722 95.9192 1.28771 95.4411 1.42463C94.9629 1.56155 94.5168 1.79217 94.1286 2.10309C93.7404 2.41401 93.4179 2.79901 93.1798 3.23571C92.6128 4.26589 91.9582 5.24533 91.2231 6.16314C90.8764 6.64848 90.314 6.71781 89.8518 6.97974C88.8577 7.53449 87.979 8.27455 87.2633 9.15991C87.1057 9.31363 86.9854 9.50144 86.9117 9.70891C86.838 9.91637 86.8129 10.138 86.8382 10.3567C86.8634 10.5754 86.9385 10.7854 87.0576 10.9705C87.1768 11.1557 87.3367 11.3111 87.5252 11.4248ZM88.1184 9.00583C88.7372 8.33356 89.4977 7.80728 90.3448 7.46508C91.3356 7.02217 92.1493 6.26 92.656 5.30032C93.2178 4.31438 93.8814 3.39002 94.6358 2.54237C95.6912 1.18651 97.9947 1.77199 98.8036 2.88134C98.064 2.51474 97.2613 2.2925 96.4385 2.22652C95.984 2.14948 96.061 2.38059 95.9917 2.65793C96.6263 2.55794 97.276 2.62158 97.8791 2.84282C98.3028 3.02 98.6495 3.16637 98.3259 3.75186C98.2166 4.05512 98.088 4.35104 97.9407 4.63779C97.7867 4.8535 97.8098 4.99217 98.0486 5.10002C98.2874 5.20787 98.3182 5.03069 98.3645 4.8458C98.6895 3.7798 99.1697 2.76745 99.7896 1.84133C100.442 1.08659 101.357 0.607318 102.349 0.500103C103.341 0.392887 104.337 0.665691 105.136 1.26354C105.598 1.63333 105.991 2.03392 106.415 2.43452C106.53 2.58859 106.546 2.67333 106.415 2.85822C106.112 3.11295 105.913 3.4688 105.853 3.85971C105.853 3.97527 105.853 4.08312 105.937 4.14475C106.022 4.20638 106.13 4.08312 106.199 4.00609C106.432 3.66912 106.69 3.34982 106.97 3.05082C107.938 2.24523 109.12 1.73846 110.372 1.59212C111.623 1.44578 112.89 1.66618 114.018 2.22652C115.117 2.87339 116.122 3.66642 117.008 4.58387C117.246 4.82008 117.542 4.99039 117.866 5.07815C118.19 5.16592 118.531 5.16814 118.856 5.08461C119.503 4.95643 120.161 4.89192 120.821 4.89202C122.624 4.83039 124.103 5.40047 124.981 7.0953C125.158 7.43114 125.205 7.82052 125.112 8.18874C125.02 8.55696 124.795 8.87811 124.48 9.09057C123.995 9.42954 123.54 9.79932 123.078 10.1537C122.359 10.7069 121.524 11.0913 120.636 11.2784C119.6 11.4459 118.547 11.4847 117.501 11.394C116.43 11.394 115.367 11.2091 114.304 11.1937C113.104 11.0588 111.894 11.3301 110.868 11.9641C109.905 12.7345 108.965 13.5048 107.963 14.1751C106.937 14.9685 105.678 15.4017 104.381 15.4077C102.334 15.2461 100.331 14.7245 98.4646 13.8669C96.881 13.1223 95.2123 12.5738 93.4957 12.2337C91.9934 12.0026 90.4758 11.9256 88.9736 11.6405C88.4387 11.572 87.9327 11.3589 87.5098 11.0242C87.4387 10.6637 87.457 10.2912 87.5631 9.93932C87.6692 9.58746 87.8598 9.26695 88.1184 9.00583Z" fill="#95165B"/>
<path d="M111.284 2.41139C112.988 2.5365 114.608 3.20324 115.906 4.31422C115.998 4.39126 116.068 4.476 116.022 4.59155C115.975 4.70711 115.806 4.70711 115.69 4.64548C115.573 4.59187 115.464 4.52184 115.367 4.43748C114.666 3.7981 113.824 3.33351 112.909 3.08161C112.224 2.86591 111.492 2.91984 110.806 2.67332C110.84 2.57852 110.907 2.49938 110.995 2.45106C111.083 2.40273 111.186 2.3886 111.284 2.41139Z" fill="#95165B"/>
<path d="M105.537 2.43456C105.622 2.53471 105.745 2.61945 105.622 2.76582C105.599 2.78693 105.572 2.80326 105.543 2.81385C105.514 2.82444 105.483 2.82906 105.452 2.82745C104.958 2.4526 104.555 1.9706 104.273 1.41766C104.731 1.70809 105.155 2.04921 105.537 2.43456Z" fill="#95165B"/>
<path d="M109.828 2.48071C109.99 2.53463 110.244 2.33434 110.298 2.58086C110.352 2.82738 110.144 2.88901 109.92 2.8813C109.697 2.8736 109.45 2.8813 109.419 2.65789C109.389 2.43448 109.604 2.41137 109.828 2.48071Z" fill="#95165B"/>
<path d="M103.734 1.04007C103.773 1.1017 103.65 1.21726 103.519 1.23267C103.396 1.23123 103.275 1.20041 103.166 1.14279C103.058 1.08516 102.965 1.00239 102.895 0.901407C102.979 0.839777 103.079 0.701109 103.133 0.72422C103.349 0.770443 103.603 0.832073 103.734 1.04007Z" fill="#95165B"/>
<path d="M102.047 0.770477C102.224 0.770477 102.386 0.847515 102.424 1.03241C102.463 1.2173 102.324 1.14796 102.239 1.15567C102.156 1.17398 102.068 1.16145 101.993 1.12039C101.918 1.07932 101.861 1.0125 101.831 0.932256C101.831 0.770477 101.9 0.770477 102.047 0.770477Z" fill="#95165B"/>
</svg>
