<svg width="229" height="215" viewBox="0 0 229 215" fill="none" xmlns="http://www.w3.org/2000/svg">
<path d="M46.5505 128.708C44.5157 127.845 42.6463 127.031 40.7585 126.256C39.6689 125.81 39.0152 125.177 38.9207 123.872C38.8261 122.567 39.3722 121.966 40.4303 121.478C42.4074 120.561 44.3398 119.556 46.3142 118.632C47.2778 118.18 47.3828 117.715 46.863 116.731C45.2588 113.682 43.77 110.574 42.2997 107.457C41.5593 105.882 41.8061 105.393 43.4183 104.703C46.2197 103.5 49.0186 102.29 51.8201 101.106C55.551 99.5309 59.2793 97.9548 63.0417 96.4538C63.7643 96.1897 64.5483 96.1432 65.297 96.3199C68.2561 97.0438 71.1784 97.9216 74.1321 98.6588C74.6523 98.7281 75.1786 98.5894 75.5972 98.2731C78.5824 95.9969 81.4338 93.5335 84.5004 91.3751C89.0296 88.1879 93.6112 85.0529 98.3478 82.1858C101.781 80.1119 105.364 78.2964 109.066 76.7536C115.367 74.1278 121.721 71.6493 128.164 69.4282C132.058 68.0868 136.148 67.3126 140.165 66.3512C143.251 65.6161 146.348 64.9125 149.467 64.3428C150.864 64.0802 152.33 64.1668 153.765 64.1537C159.103 64.1012 164.352 64.7706 169.367 66.6165C176.574 69.2686 182.655 73.5293 187.016 79.9466C190.408 84.9351 191.626 90.5068 190.954 96.4871C190.166 103.469 187.234 109.513 182.605 114.703C179.96 117.67 177.013 120.348 173.578 122.441C170.897 124.077 168.353 125.941 165.617 127.469C164.263 128.228 163.42 128.9 163.231 130.591C162.987 132.796 161.02 133.719 159.245 134.53C154.999 136.45 150.551 137.89 145.986 138.825C143.815 139.271 141.674 139.998 139.485 140.187C137.532 140.358 135.528 139.97 133.549 139.807C133.325 139.796 133.114 139.702 132.955 139.544C131.144 137.239 128.868 138.399 126.743 138.741C121.941 139.515 117.155 140.379 112.357 141.186C109.606 141.647 106.86 142.133 104.095 142.498C100.808 142.921 97.5128 143.272 94.2098 143.548C90.9488 143.829 87.6774 143.987 84.4112 144.197C84.1125 144.258 83.8069 144.279 83.5027 144.257C80.9901 143.719 79.4672 145.032 78.2516 146.985C77.7662 147.808 77.2063 148.585 76.5791 149.306C76.264 149.653 75.676 149.757 75.2034 149.945C74.9644 150.039 74.6992 150.055 74.4525 150.131C69.9959 151.49 65.5448 152.85 61.0988 154.208C58.6964 154.945 56.3098 155.736 53.8916 156.429C53.3665 156.576 52.5421 156.615 52.2533 156.316C51.5391 155.579 50.6359 154.872 50.8355 153.565C51.3605 150.122 51.9094 146.68 52.2533 143.218C52.5474 140.242 52.4186 140.272 49.4832 139.487C47.6454 138.99 45.8075 138.394 44.0064 137.764C42.1684 137.12 41.6434 134.916 42.8642 133.083C43.39 132.331 43.9572 131.609 44.563 130.919C45.1511 130.221 45.7813 129.559 46.5505 128.708ZM75.2453 145.686C75.2821 145.748 75.311 145.854 75.3582 145.864C75.4001 145.872 75.443 145.87 75.4843 145.86C75.5255 145.849 75.564 145.83 75.5972 145.803C77.5086 143.908 79.4147 142.004 81.5178 139.907C80.843 139.799 80.4387 139.667 80.0423 139.684C77.6215 139.791 75.2034 140.027 72.7852 140.038C68.7655 140.059 64.7458 139.931 60.7259 139.888C60.2348 139.92 59.7468 139.989 59.2662 140.096L59.3187 140.269L70.8292 140.864C68.271 141.07 65.7027 141.116 63.1388 141.004C59.127 140.765 56.5356 140.809 55.4932 141.51L65.1632 142.117L65.1212 142.643L53.8759 141.884V141.451L54.6425 140.788C52.9123 140.697 53.1617 141.668 53.2378 142.721L62.3354 143.121C59.3081 144.065 55.9526 142.627 53.1197 144.814H59.4027V145.278C57.5648 145.278 55.7112 145.354 53.8732 145.25C52.8597 145.192 52.7285 145.488 53.033 146.299L54.8447 146.143C53.9388 146.945 52.1036 146.586 52.6366 148.461L57.7696 146.964L57.8694 147.277C56.743 147.621 55.6114 147.941 54.4955 148.313C52.2349 149.065 52.1614 149.19 52.185 151.712L57.612 150.086L57.6987 150.348L51.9487 152.478C52.0012 152.675 52.0563 152.871 52.1115 153.068C52.6695 153.016 53.2238 152.928 53.7709 152.806C58.7095 151.42 63.6351 149.983 68.5817 148.623C70.0809 148.211 71.6326 147.969 73.1659 147.684C74.3264 147.468 74.9697 146.765 75.2401 145.656L75.2453 145.686ZM183.755 110.151L183.852 110.237L182.461 112.585C187.585 108.168 189.751 97.078 186.706 90.5144C185.889 93.6285 185.13 96.4852 184.39 99.3418L184.106 99.2763C184.198 98.7034 184.288 98.1287 184.369 97.5539C184.114 97.7525 183.93 98.0289 183.844 98.3415C182.093 103.787 178.839 108.318 174.793 112.193C171.667 115.194 168.148 117.786 164.816 120.574C164.538 120.805 164.191 121.128 164.157 121.441C164 122.859 163.947 124.29 163.853 125.713C163.79 126.651 164.2 126.837 164.943 126.369C165.79 125.844 166.621 125.286 167.435 124.696C170.813 122.268 174.366 120.037 177.492 117.316C179.859 115.263 181.686 112.569 183.755 110.151ZM108.11 83.7637C108.6 83.4198 109.044 82.9762 109.585 82.7482C113.855 81.0258 118.09 79.2141 122.429 77.6913C129.195 75.3277 136.122 73.5113 143.261 72.6155C147.01 72.1462 150.741 71.3795 154.5 71.219C157.693 71.085 160.918 71.5818 164.126 71.8725C169.671 72.3979 174.431 74.8556 178.808 78.1169C180.36 79.2721 181.696 80.7076 183.445 82.2884C183.195 81.5635 183.104 81.1645 182.92 80.8054C181.444 77.7777 179.226 75.3571 176.782 73.0724C171.677 68.2996 165.473 66.0126 158.725 65.1067C156.006 64.705 153.243 64.705 150.523 65.1067C144.802 66.0467 139.112 67.2651 133.478 68.6483C130.065 69.4919 126.751 70.8333 123.412 71.9989C120.641 72.9651 117.877 73.9549 115.144 75.0265C113.702 75.5937 112.347 76.3832 110.93 77.0216C108.328 78.1948 105.581 79.1087 103.126 80.5318C98.1379 83.4198 93.2147 86.4341 88.4493 89.6746C84.062 92.6538 79.8821 95.9494 75.6839 99.1993C73.4468 100.933 71.3411 102.839 69.217 104.713C67.5157 106.212 65.859 107.767 64.2154 109.332C63.9738 109.563 63.916 109.986 63.7716 110.322L64.1891 110.653L72.0028 103.589L72.2075 103.815L65.5648 110.103L65.8878 110.569C66.3761 110.337 66.9171 110.179 67.3397 109.862C72.1209 106.276 76.923 102.715 81.6412 99.0445C88.5018 93.7074 95.73 88.9858 103.696 85.4518C105.151 84.8087 106.66 84.2862 108.146 83.7086C107.808 83.9585 107.457 84.1903 107.096 84.405C102.37 86.9225 97.4995 89.2177 92.918 91.9974C88.1632 94.8863 83.6288 98.1676 79.1155 101.45C75.7994 103.852 72.6697 106.514 69.4665 109.064C68.902 109.513 68.3768 110.009 67.8334 110.482L68.0959 110.865L76.6947 105.149L76.8338 105.365L69.0805 110.91L70.8029 111.456L70.6559 111.125L78.8267 105.325L79.0498 105.633C76.6631 107.659 73.6175 108.862 71.4356 111.508C72.8509 111.839 74.0848 112.055 75.2663 112.427C76.1275 112.69 76.8417 112.74 77.5138 112.062C77.7114 111.935 77.9315 111.846 78.1623 111.8L78.3856 112.078L77.5637 112.496L78.5956 114.008C81.4417 112.53 84.2668 111.01 87.1339 109.579C93.5061 106.404 99.8441 103.156 106.3 100.166C111.57 97.7211 116.921 95.4107 122.369 93.4024C128.376 91.1889 134.462 89.1094 140.65 87.4925C146.212 86.0409 151.804 84.5408 157.612 84.1893C161.13 83.9765 164.627 83.378 168.146 83.2498C170.74 83.1519 173.358 83.4911 175.959 83.7115C177.684 83.8587 179.402 84.1209 181.116 84.3575C182.087 84.4914 183.049 84.6748 184.005 84.8382L184.267 84.4601C183.552 83.6383 182.805 82.8394 182.129 81.9844C179.782 79.009 176.684 77.032 173.368 75.3363C172.407 74.8451 171.491 74.1858 170.48 73.9151C167.591 73.1484 164.703 72.264 161.742 71.9486C158.536 71.6455 155.309 71.6322 152.101 71.9096C148.297 72.206 144.511 72.7009 140.759 73.3906C137.301 73.9996 133.882 74.8119 130.519 75.8246C125.268 77.4339 120.071 79.2693 114.878 81.0752C112.581 81.8818 110.36 82.866 108.11 83.7637ZM48.3386 133.049L48.3175 133.025L47.1833 134.283L47.3094 134.624L64.6958 130.465C64.7247 130.594 64.7562 130.728 64.7851 130.853L45.1564 135.519C45.2435 135.605 45.3501 135.669 45.467 135.705C45.5841 135.741 45.708 135.749 45.8285 135.727C47.6192 135.377 49.4045 134.999 51.1978 134.658C54.6111 134.009 58.0742 133.521 61.4585 132.712C65.9219 131.647 70.3277 130.331 74.7623 129.131C77.6109 128.36 80.4807 127.661 83.3111 126.823C86.4276 125.899 89.4864 124.768 92.6134 123.875C96.8639 122.661 101.175 121.654 105.426 120.438C110.47 118.994 115.477 117.418 120.5 115.906C120.722 115.855 120.949 115.819 121.177 115.799L121.243 116.087L104.323 121.275L104.447 121.661C119.523 117.5 134.378 112.613 149.064 107.247C140.662 110.794 132.062 113.746 123.414 116.61C132.079 114.434 140.543 111.671 148.916 108.613C148.58 108.875 148.284 109.222 147.908 109.361C145.432 110.277 142.959 111.199 140.451 112.023C136.088 113.455 131.712 114.847 127.324 116.198C122.398 117.721 117.463 119.215 112.518 120.68C105.085 122.893 97.6515 125.109 90.2006 127.275C86.1651 128.449 82.1348 129.677 78.0389 130.604C72.0317 131.959 65.9614 133.059 59.9225 134.28C56.0945 135.052 52.2717 135.842 48.4462 136.627C47.6874 136.782 46.9286 136.948 46.1698 137.108C48.5532 138.361 51.2013 139.028 53.8943 139.053C57.8064 139.119 61.7263 138.917 65.6437 138.89C71.2204 138.853 76.7997 138.975 82.3738 138.835C86.4119 138.733 90.4448 138.35 94.475 138.032C96.5913 137.866 98.7079 137.646 100.8 137.312C103.625 136.861 106.434 136.302 109.243 135.737C114.587 134.687 119.943 133.676 125.259 132.484C126.835 132.132 128.348 131.363 129.747 130.541C133.223 128.501 136.482 126.054 140.076 124.269C143.985 122.326 148.16 120.908 152.248 119.336C153.495 118.855 154.874 118.248 156.123 118.356C158.347 118.545 159.996 117.569 161.668 116.47C163.399 115.334 165.082 114.134 166.796 112.963L166.982 113.238L159.608 118.581C162.577 118.758 164.102 116.08 166.604 115.169L161.577 119.238L161.797 119.548L169.776 114.179L169.945 114.423L162.262 119.921C164.212 120.391 165.181 119.004 166.182 118.285C175.03 111.931 182.528 104.54 184.364 93.0956L182.282 98.6094L181.972 98.4992C183.059 94.8835 184.937 91.4644 184.761 87.4079C184.291 87.6416 184.099 88.0967 183.776 88.4168C182.256 89.9188 180.861 91.6145 179.126 92.8172C175.085 95.6207 170.908 98.236 166.717 100.814C165.068 101.828 163.231 102.542 161.482 103.393C161.619 103.24 161.771 103.102 161.936 102.98C165.943 100.618 169.986 98.3016 173.951 95.8648C177.79 93.5022 181.371 90.8137 184.06 87.101C184.871 85.9829 184.75 85.5516 183.437 85.2628C177.319 83.9081 171.097 83.7039 164.888 83.9509C161.234 84.1171 157.594 84.5037 153.986 85.108C145.548 86.4655 137.332 88.7845 129.216 91.4093C125.299 92.6833 121.395 94.0351 117.617 95.671C110.711 98.654 103.877 101.804 97.072 104.984C94.2833 106.297 91.6604 107.943 88.9325 109.39C85.8263 111.035 82.6783 112.598 79.5854 114.265C79.0393 114.559 78.7583 115.345 78.2122 115.636C75.156 117.266 72.0054 118.724 68.9808 120.409C64.1471 123.103 59.3764 125.907 54.6057 128.703C51.3842 130.594 48.1994 132.541 45.0145 134.479C44.6326 134.77 44.2808 135.098 43.9643 135.459L44.0667 135.543L48.3386 133.049ZM40.9345 124.998C41.4359 125.382 41.6118 125.584 41.835 125.676C44.4002 126.727 46.9523 127.837 49.5542 128.811C51.1532 129.412 52.7207 129.105 54.1883 128.209C57.2366 126.35 60.2717 124.471 63.3621 122.682C66.8304 120.68 70.3618 118.786 73.8407 116.802C74.2608 116.56 74.5286 116.053 74.8672 115.669C74.4656 115.339 74.1111 114.816 73.6543 114.706C71.7218 114.239 69.7553 113.901 67.8045 113.503C66.006 113.136 64.2862 113.125 62.6295 114.148C61.4848 114.853 60.2245 115.373 59.0088 115.959C54.4194 118.161 49.8194 120.338 45.2404 122.572C43.8488 123.252 42.5334 124.093 40.9345 124.998ZM64.5646 106.323L64.7589 106.709C64.6259 106.814 64.4844 106.908 64.3361 106.99C58.9354 109.405 53.5266 111.808 48.139 114.252C47.7137 114.444 47.4274 114.943 47.0757 115.303C47.6007 115.276 48.1994 115.397 48.651 115.2C50.7725 114.292 52.8518 113.268 54.9524 112.33C59.1533 110.461 63.6613 109.14 66.9092 105.585C67.038 105.466 67.1729 105.355 67.3135 105.252L72.9191 100.339C72.6085 100.185 72.2885 100.052 71.9608 99.9403C70.1413 99.4938 68.2036 99.3209 66.5311 98.559C64.7458 97.7449 63.2832 98.0527 61.7132 98.8212C61.1644 99.0844 60.6025 99.3332 60.0433 99.5755C56.0078 101.316 51.9697 103.044 47.9421 104.795C47.094 105.162 46.2827 105.612 45.4557 106.021L45.5686 106.283L47.8633 105.496L47.9263 105.675L43.7675 107.964L43.988 108.347L45.4635 107.67L45.5765 107.89L44.1429 109.001L44.2558 109.188L51.0088 105.923L51.1347 106.187L44.5919 109.718L44.7573 110.046L50.607 107.683C50.3288 108.088 49.9368 108.4 49.4807 108.581C48.1836 109.201 46.8683 109.783 45.5948 110.45C45.3323 110.587 45.2299 111.02 45.0513 111.317L45.3979 111.58L54.9366 107.205L55.06 107.468L45.6079 112.168L45.9125 112.805L57.7932 107.712L57.9192 108.009C57.6567 108.137 57.3941 108.271 57.1316 108.39C53.847 109.889 50.5546 111.372 47.2909 112.911C46.9601 113.066 46.7869 113.551 46.5401 113.882C46.9128 113.882 47.3435 114.014 47.6533 113.882C50.3471 112.656 53.0016 111.34 55.7033 110.133C58.6544 108.793 61.6213 107.58 64.5724 106.323H64.5646ZM162.388 125.805C162.346 125.915 162.304 126.027 162.259 126.138C162.065 126.083 161.868 126.039 161.677 125.972C159.394 125.196 156.921 125.185 154.632 125.941C152.403 126.652 150.137 127.288 147.989 128.202C144.445 129.711 140.995 131.437 137.487 133.015C137.101 133.187 136.327 133.18 136.119 132.933C135.552 132.248 134.349 131.912 134.625 130.709C134.688 130.426 135.04 130.15 135.324 129.982C140.559 126.887 146.111 124.36 151.883 122.444C154.676 121.509 157.381 120.457 160.392 121.092C160.474 121.11 160.587 120.966 160.897 120.748C160.479 120.509 160.196 120.223 159.889 120.193C158.938 120.104 157.906 119.87 157.032 120.128C152.997 121.317 149.003 122.643 145.001 123.946C144.193 124.208 143.426 124.586 142.639 124.909L142.502 124.605L144.975 123.316L144.865 123.079L141.268 124.673C141.701 125.361 141.25 125.723 139.758 126.078C139.724 125.854 139.693 125.65 139.64 125.29L137.539 126.627L138.59 126.477C137.008 127.778 135.351 128.988 133.63 130.097C132.908 130.584 131.863 130.804 132.041 132.04C132.041 132.08 131.808 132.2 131.682 132.203C130.782 132.229 130.894 132.82 131.215 133.253C132.113 134.422 133.086 135.532 134.076 136.625C134.261 136.827 134.657 136.835 134.953 136.931L135.035 136.693C134.366 135.993 133.698 135.288 133.031 134.579L133.386 134.251L134.583 135.638C135.2 136.349 135.851 136.284 136.683 135.937C141.78 133.836 146.852 131.649 152.032 129.767C155.365 128.556 158.793 127.209 162.768 128.58C161.981 127.364 163.603 125.954 162.156 125.167C161.107 124.592 159.767 124.5 158.557 124.203C158.481 124.184 158.355 124.279 158.295 124.245C157.788 123.888 156.982 123.599 156.861 123.132C156.627 122.273 157.311 121.893 158.153 122.027C159.691 122.273 161.227 122.551 162.96 122.864C162.485 122.53 162.12 122.076 161.705 122.021C159.956 121.811 158.058 121.234 156.455 121.685C152.406 122.814 148.446 124.311 144.537 125.886C142.352 126.758 140.336 128.057 138.235 129.16C137.185 129.714 136.135 130.261 134.906 130.893L136.647 132.883C137.395 132.503 138.057 132.182 138.703 131.833C144.699 128.58 150.917 125.902 157.701 124.839C159.332 124.573 160.931 125.106 162.396 125.805H162.388ZM136.696 139.859C137.947 139.712 139.007 139.691 140.013 139.45C144.318 138.42 148.664 137.512 152.878 136.191C155.766 135.288 158.491 133.873 161.178 132.474C161.845 132.127 162.359 130.972 162.43 130.142C162.506 129.229 161.522 128.942 160.657 128.742C158.177 128.171 155.898 128.966 153.668 129.793C148.75 131.641 143.86 133.567 138.999 135.569C137.317 136.257 135.744 137.22 134.15 138.11C134.019 138.206 133.911 138.33 133.832 138.471C133.754 138.614 133.708 138.771 133.695 138.932C133.695 139.087 134.094 139.35 134.352 139.41C135.205 139.612 136.064 139.742 136.705 139.859H136.696ZM127.893 134.886C127.631 133.624 127.025 133.049 125.633 133.497C124.226 133.926 122.796 134.276 121.35 134.548C118.118 135.207 114.891 135.905 111.635 136.425C106.614 137.229 101.579 137.953 96.5305 138.599C93.1675 139.032 89.7831 139.386 86.3962 139.552C84.8208 139.628 83.6471 139.92 83.0407 141.469C89.4995 142.385 121.439 137.696 127.893 134.886ZM129.356 136.614C129.387 136.425 129.421 136.239 129.453 136.05C128.854 135.921 128.214 135.59 127.662 135.7C123.147 136.608 118.675 137.741 114.141 138.526C108.107 139.575 102.048 140.48 95.9633 141.238C92.1304 141.716 88.2524 141.808 84.3955 142.091C83.6708 142.146 82.9514 142.293 82.2267 142.399L82.3002 142.85C98.2405 142.743 113.82 139.875 129.353 136.607L129.356 136.614ZM65.2918 111.409L64.8796 111.054C62.9998 111.8 61.0751 112.457 59.2478 113.31C53.1433 116.161 47.0809 119.086 40.9844 121.974C39.8606 122.499 39.7582 123.166 40.3989 124.124C40.5365 124.111 40.6723 124.083 40.8032 124.038C45.7786 121.533 50.7331 118.981 55.7374 116.531C58.6255 115.118 61.6134 113.905 64.5252 112.53C64.8796 112.354 65.0319 111.781 65.2839 111.406L65.2918 111.409ZM107.094 121.436L72.7563 130.948C75.8571 130.835 104.473 123.252 107.086 121.433L107.094 121.436ZM66.3 111.144C66.0821 112.393 66.5967 112.705 67.4421 112.856C69.6213 113.238 71.7928 113.67 73.9667 114.09C75.1614 114.32 76.3507 114.567 77.5401 114.803C77.6163 114.646 77.6924 114.489 77.7659 114.331C77.4298 114.003 77.141 113.469 76.7498 113.38C73.2998 112.595 69.834 111.889 66.3 111.144ZM61.4244 110.432C61.0541 110.277 61.0043 110.235 60.9754 110.248C56.6931 112.157 52.4055 114.055 48.1442 116.009C47.8948 116.122 47.8344 116.652 47.6874 116.988C48.5223 116.828 49.0212 116.463 49.5673 116.219C52.8177 114.727 56.0893 113.278 59.3318 111.769C60.0145 111.451 60.6157 110.955 61.4244 110.432ZM74.8909 149.241L74.7334 148.715L57.1158 153.851L57.2445 154.278L74.8909 149.241ZM45.713 104.726L46.0123 105.359L61.0647 98.6663L60.8966 98.2778L45.713 104.726ZM190.004 94.19C191.004 91.1576 188.623 89.4143 186.759 87.0744C186.759 87.576 186.708 87.7604 186.759 87.8991C187.693 90.1439 188.113 92.6462 190.004 94.19ZM184.55 81.7896C184.519 78.7411 182.925 75.5614 180.612 74.4376C181.854 76.7698 183.214 79.2978 184.55 81.7868V81.7896ZM186.495 85.9592L189.996 89.2253C189.486 87.7395 189.056 86.4893 188.612 85.1973L186.495 85.9592ZM186.777 81.1645C186.535 82.7396 186.354 83.9528 186.152 85.2714L188.484 84.5674L186.777 81.1645ZM180.507 75.8321C179.063 73.4704 176.965 71.5771 174.468 70.381L180.507 75.8321ZM62.4773 151.238C62.5297 151.414 62.5797 151.593 62.6321 151.764L69.9312 149.524L69.8393 149.214L62.4773 151.238ZM188.751 93.0766C188.88 95.4402 189.014 97.8237 189.142 100.258C190.18 97.7553 189.31 95.424 188.751 93.0766ZM148.507 121.509L148.617 121.871L155.94 119.545L155.806 119.115L148.507 121.509ZM71.181 99.1784L71.2807 98.7956L64.1917 96.9212L64.092 97.3145L71.181 99.1784ZM50.3182 129.862C49.5463 129.862 49.0054 129.691 48.7429 129.89C47.6034 130.825 46.5505 131.864 45.4635 132.864L45.6158 133.043L50.3182 129.862ZM44.6628 132.442L44.9069 132.731L48.3202 129.509L48.0129 129.171C46.4481 129.762 45.8364 131.413 44.6628 132.442ZM129.962 131.641C130.102 131.796 130.24 131.952 130.377 132.108L132.525 130.092L132.199 129.722L129.962 131.641ZM184.673 78.8855L185.461 82.6009C185.824 80.3323 185.635 79.5581 184.673 78.8855Z" fill="#A7705D"/>
<path d="M122.02 94.8094C129.371 91.6592 137.04 89.5853 144.778 87.7205L122.02 94.8094Z" fill="#A7705D"/>
<path d="M48.3384 133.049C51.0847 131.489 53.8521 129.951 56.5721 128.354C57.5199 127.797 58.3522 127.041 59.3 126.487C60.0348 126.066 60.8592 125.826 61.7051 125.786C58.838 127.469 55.9997 129.199 53.0932 130.812C51.5626 131.66 49.9137 132.293 48.3174 133.025L48.3384 133.049Z" fill="#A7705D"/>
<path d="M114.976 98.199L101.283 104.201C102.756 102.424 111.804 99.0473 114.976 98.199Z" fill="#A7705D"/>
<path d="M161.529 103.361C159.975 104.149 158.452 105.021 156.864 105.743C154.857 106.651 152.809 107.473 150.756 108.274C150.168 108.502 149.499 108.536 148.869 108.644L161.529 103.361Z" fill="#A7705D"/>
<path d="M155.696 85.6675L145.918 87.54C145.892 87.4079 145.863 87.2768 145.836 87.1486L155.611 85.2628L155.696 85.6675Z" fill="#A7705D"/>
<path d="M175.991 93.6361C173.297 96.1964 170.114 97.1464 167.132 98.4517L175.991 93.6361Z" fill="#A7705D"/>
<path d="M66.5732 129.635L75.9886 127.072L76.0857 127.443L66.6731 130.021L66.5732 129.635Z" fill="#A7705D"/>
<path d="M70.9841 121.725L65.2079 124.369L65.0503 124.014L70.8817 121.427L70.9841 121.725Z" fill="#A7705D"/>
<path d="M177.453 91.853L181.392 88.8813L181.654 89.2091L177.676 92.1341L177.453 91.853Z" fill="#A7705D"/>
<path d="M116.479 97.1045L120.886 95.3423L121.035 95.7128L116.619 97.4902C116.574 97.362 116.527 97.2328 116.479 97.1045Z" fill="#A7705D"/>
<path d="M125.95 114.434L122.072 115.544L121.959 115.132L125.858 114.108L125.95 114.434Z" fill="#A7705D"/>
<path d="M130.172 129.859C129.603 130.2 129.07 130.709 128.453 130.856C121.55 132.497 114.634 134.08 107.724 135.679L107.65 135.353L130.102 129.759L130.172 129.859Z" fill="#A7705D"/>
<path d="M181.016 92.7754C176.411 97.0181 170.963 99.5669 165.848 102.615L181.016 92.7754Z" fill="#A7705D"/>
<path d="M170.929 111.348L178.018 104.701L177.508 104.175C176.728 106.226 172.039 111.104 170.929 111.348Z" fill="#A7705D"/>
<path d="M176.532 107.843L181.906 99.833C180.773 102.89 178.93 105.635 176.532 107.843Z" fill="#A7705D"/>
<path d="M171.451 109.319L167.996 112.251L167.791 112.023L171.158 108.975L171.451 109.319Z" fill="#A7705D"/>
<path d="M172.746 111.202L175.371 108.896L175.682 109.219L173.053 111.519L172.746 111.202Z" fill="#A7705D"/>
<path d="M102.648 88.0197C93.9838 93.1763 85.2249 98.1837 77.3325 104.519C84.986 97.8161 93.7187 92.7668 102.648 88.0197Z" fill="#A7705D"/>
<path d="M110.565 83.8349L116.811 81.2091L116.942 81.5141L110.756 84.1608L110.565 83.8349Z" fill="#A7705D"/>
<path d="M86.6719 106.793L91.7182 104.122L91.8574 104.385L86.8294 107.132L86.6719 106.793Z" fill="#A7705D"/>
<path d="M80.5884 110.046L84.6396 107.785L84.8103 108.087L80.7801 110.337L80.5884 110.046Z" fill="#A7705D"/>
<path d="M84.5528 102.001L80.877 104.498L80.688 104.235L84.3454 101.773L84.5528 102.001Z" fill="#A7705D"/>
<path d="M179.197 76.7612L172.087 72.4558C174.717 72.9783 177.065 74.6038 179.197 76.7612Z" fill="#A7705D"/>
<path d="M183.755 110.151C184.731 108.03 185.763 105.929 186.664 103.774C187.055 102.833 187.176 101.783 187.488 100.81C187.222 104.24 185.959 107.518 183.852 110.237L183.755 110.151Z" fill="#A7705D"/>
<path d="M180.929 105.588L183.461 100.885L183.755 101.033C182.944 102.608 182.132 104.191 181.318 105.785L180.929 105.588Z" fill="#A7705D"/>
<path d="M182.424 110.821L179.292 114.699L179.003 114.47L182.153 110.59L182.424 110.821Z" fill="#A7705D"/>
<path d="M78.0756 141.797C74.4681 142.29 70.8553 142.726 67.211 142.679L67.1821 142.293L78.0441 141.419L78.0756 141.797Z" fill="#A7705D"/>
<path d="M75.2401 145.675C74.7412 145.9 74.2634 146.216 73.7382 146.334C70.6715 147.03 67.5944 147.678 64.5776 148.329C64.8822 147.804 65.9534 147.439 69.6423 146.731C71.5091 146.373 73.3759 146.037 75.2453 145.68L75.2401 145.675Z" fill="#A7705D"/>
<path d="M77.4824 141.001L72.1945 141.33L72.1631 140.86H77.4824V141.001Z" fill="#A7705D"/>
<path d="M155.333 122.415C155.714 122.825 156.121 123.105 156.266 123.486C156.333 123.672 155.945 124.203 155.664 124.311C153.842 124.996 151.988 125.624 150.151 126.243C149.447 126.477 148.851 126.204 148.808 125.473C148.79 125.128 149.226 124.558 149.597 124.424C151.437 123.706 153.33 123.1 155.333 122.415Z" fill="#A7705D"/>
<path d="M139.206 130.819C138.579 131.19 138.057 131.626 137.455 131.806C137.116 131.909 136.558 131.696 136.282 131.434C136.135 131.295 136.26 130.625 136.476 130.384C137.448 129.372 138.479 129.506 139.206 130.819Z" fill="#A7705D"/>
<path d="M142.67 128.945C141.787 129.47 141.195 129.939 140.522 130.142C140.315 130.205 139.883 129.522 139.559 129.178C140.168 128.761 140.742 128.257 141.412 127.981C141.606 127.9 142.071 128.467 142.67 128.945Z" fill="#A7705D"/>
<path d="M146.164 127.459C146.109 127.01 145.871 126.261 146.03 126.161C146.606 125.835 147.242 125.63 147.9 125.558C148.102 125.531 148.367 125.97 148.604 126.195L146.651 127.674L146.164 127.459Z" fill="#A7705D"/>
<path d="M143.286 128.724C143.286 128.157 143.108 127.196 143.321 127.102C143.928 126.826 145.198 126.652 145.311 126.883C146.098 128.443 144.127 127.958 143.836 128.811L143.286 128.724Z" fill="#A7705D"/>
<path d="M162.356 126.694L161.708 127.797L159.645 127.359V126.125L162.356 126.694Z" fill="#A7705D"/>
<path d="M76.1846 56.6023C77.19 56.8081 78.6293 56.9605 79.4327 56.1855C79.8242 55.8075 79.8814 55.0215 79.5125 54.6118C79.0457 54.0931 78.2793 54.0198 77.6487 53.8184C76.7386 53.5278 76.5981 52.4902 76.3259 51.6884C76.0226 50.7947 75.6665 49.9158 75.0586 49.183C73.9075 47.7947 71.8406 48.1392 70.4749 48.9997C70.5842 49.0838 70.6936 49.1678 70.8029 49.2519C70.9601 48.1295 70.3891 47.0354 69.6462 46.2399C68.8843 45.424 67.4672 44.8112 66.456 45.5762C66.568 45.6405 66.68 45.7047 66.7919 45.769C66.6619 44.3556 66.0735 42.8147 64.9367 41.9184C63.8484 41.0603 62.1027 41.2989 60.9027 41.7829C60.9943 41.8347 61.0859 41.8868 61.1773 41.9388C60.7907 39.367 58.5711 37.6342 56.05 37.5079C53.5191 37.3811 51.564 39.267 51.6093 41.7997C51.7212 41.7355 51.8332 41.6712 51.9452 41.6068C50.8554 40.8685 49.0445 40.0476 47.7582 40.73C46.5141 41.39 46.1006 42.8692 46.358 44.191C46.4823 44.1185 46.6068 44.0461 46.7312 43.9738C45.5782 42.9193 43.8774 42.3206 42.4416 43.145C41.1126 43.9082 41.1188 45.602 41.8654 46.7748C41.9494 46.6655 42.0334 46.5561 42.1176 46.4468C40.4193 45.7876 38.2258 46.0071 36.8071 47.1798C35.2763 48.4448 34.5251 50.6122 35.713 52.3813C35.8299 52.2913 35.9468 52.201 36.0637 52.1109C35.2257 51.3959 33.9406 51.286 33.0686 52.0117C32.5409 52.4509 32.2601 52.9767 32.1888 53.6606C32.1461 54.0695 32.1888 54.5472 31.7282 54.7328C31.2963 54.9068 30.8777 55.0327 30.4927 55.307C29.5343 55.9899 30.8125 56.5286 31.3841 56.7193C32.9385 57.2381 34.5874 57.5153 36.2164 57.6558C38.3266 57.8378 40.3884 57.4577 42.479 57.2311C44.7276 56.9874 46.9893 56.8426 49.2516 56.896C51.5401 56.95 53.8192 57.3097 56.099 57.501C58.2273 57.6796 60.3673 57.8002 62.5035 57.7337C65.0188 57.6555 67.5632 57.6736 70.0399 57.1799C72.0602 56.7771 74.111 56.2664 76.1846 56.6023C76.4662 56.6479 76.587 56.2176 76.3032 56.1717C73.0877 55.6508 69.9639 56.9672 66.7775 57.1384C62.5457 57.3658 58.3651 57.2882 54.1471 56.8767C51.8739 56.655 49.6395 56.402 47.3507 56.4469C45.1154 56.4904 42.8856 56.7205 40.6685 56.9955C38.5376 57.2597 36.5289 57.3308 34.3989 56.9817C33.6161 56.8534 32.841 56.676 32.0769 56.4632C31.895 56.4126 30.2357 56.0363 30.857 55.5936C31.3041 55.275 31.9032 55.2603 32.3081 54.884C32.5819 54.6296 32.5868 54.1609 32.6186 53.8193C32.7628 52.2758 34.4995 51.3616 35.7478 52.4267C35.93 52.5822 36.2483 52.3792 36.0985 52.1561C34.9338 50.4214 35.8555 48.3411 37.4515 47.2647C38.7289 46.4032 40.5768 46.3256 41.9988 46.8774C42.1841 46.9493 42.3503 46.7056 42.251 46.5494C41.5448 45.4401 41.6468 44.1164 42.8563 43.4219C43.9996 42.7655 45.5359 43.485 46.4154 44.2896C46.5862 44.4458 46.8311 44.291 46.7885 44.0724C46.5537 42.8658 46.9875 41.4182 48.2581 41.0188C49.3765 40.6673 50.8074 41.3744 51.7199 41.9927C51.8612 42.0883 52.0588 41.9616 52.0558 41.7998C52.0448 41.1815 52.1996 40.5392 52.4432 39.9753C53.0823 38.4961 54.5119 37.9262 56.05 37.9547C58.3875 37.9975 60.3979 39.7371 60.7468 42.0577C60.7634 42.1688 60.9178 42.2555 61.0214 42.2136C62.1775 41.7474 63.7336 41.5348 64.7735 42.3547C65.7371 43.1146 66.2357 44.5766 66.3454 45.7692C66.3591 45.917 66.5327 46.0747 66.6814 45.9621C68.4356 44.6349 70.5891 47.5849 70.3724 49.1335C70.3475 49.3115 70.5158 49.5019 70.7004 49.3857C72.0575 48.5305 73.8674 48.3222 74.9236 49.727C75.8147 50.9125 75.8094 52.5446 76.6644 53.7148C77.231 54.4902 79.8684 54.3302 79.215 55.7307C78.8136 56.5914 77.0398 56.3227 76.3031 56.1719C76.0221 56.1141 75.9025 56.5445 76.1846 56.6023Z" fill="#A7705D"/>
<path d="M75.468 53.9556C75.0043 53.2211 74.7339 51.0184 73.4971 50.2839L75.468 53.9556Z" fill="white"/>
<path d="M75.6609 53.8429C74.9314 52.5826 74.9402 50.9663 73.6097 50.0912C73.3682 49.9325 73.1449 50.3193 73.3842 50.4769C74.611 51.2836 74.5994 52.9009 75.2753 54.0684C75.4196 54.3173 75.8055 54.0927 75.6609 53.8429Z" fill="#A7705D"/>
<path d="M41.6863 47.6881C40.497 47.2306 38.9536 47.3568 37.9368 48.1492C36.7579 49.0679 36.1497 50.6776 37.0414 52.0193C37.2 52.2578 37.5868 52.0345 37.427 51.7938C36.6116 50.5669 37.2712 49.1326 38.3942 48.3735C39.284 47.7721 40.5806 47.739 41.5678 48.1187C41.8368 48.2223 41.9523 47.7905 41.6863 47.6881Z" fill="#A7705D"/>
<path d="M64.6121 52.4151C64.9333 50.5424 63.5076 49.1922 61.793 48.8155C60.0267 48.4274 58.0937 49.2506 57.5027 51.0391C57.412 51.3134 57.8434 51.43 57.9332 51.1578C58.9769 47.9996 64.7686 48.8734 64.1815 52.2963C64.1333 52.578 64.5636 52.6985 64.6121 52.4151Z" fill="#A7705D"/>
<path d="M63.3517 52.6273C63.8144 49.849 59.3318 49.1394 58.4815 51.6729C58.3896 51.9466 58.821 52.0632 58.9121 51.7916C59.5874 49.7794 63.2825 50.3386 62.921 52.5085C62.8741 52.7901 63.3043 52.9108 63.3517 52.6273Z" fill="#A7705D"/>
<path d="M58.9677 41.5914C59.1584 38.3703 53.8743 38.134 53.229 41.1202C53.1684 41.401 53.5987 41.5204 53.6595 41.2389C54.1999 38.7383 58.6817 38.8803 58.5211 41.5914C58.5041 41.8792 58.9508 41.8776 58.9677 41.5914Z" fill="#A7705D"/>
<path d="M166.211 160.366C164.993 160.289 163.774 160.266 162.555 160.237C161.745 160.217 160.913 160.206 160.125 159.996C158.459 159.551 158.273 157.637 158.144 156.185C157.893 153.379 158.509 150.71 160.563 148.681C162.377 146.888 165.037 146.076 167.538 146.557C170.692 147.164 172.832 150.129 172.932 153.27C172.939 153.482 173.226 153.501 173.289 153.311C173.704 152.054 174.664 150.494 176.122 150.419C177.774 150.333 178.919 152.06 179.025 153.543C179.036 153.69 179.228 153.792 179.337 153.665C180.313 152.525 181.791 151.497 183.338 151.533C184.848 151.568 186.464 152.98 186.623 154.51C186.638 154.645 186.774 154.735 186.9 154.661C187.494 154.309 188.259 154.013 188.954 154.153C190.017 154.367 189.936 155.923 189.66 156.695C189.611 156.831 189.765 156.947 189.888 156.913C190.503 156.742 191.193 156.662 191.822 156.795C193.518 157.15 192.301 159.318 191.485 159.946C190.376 160.797 189.18 160.566 187.909 160.452C186.7 160.343 185.483 160.323 184.272 160.307C178.741 160.234 173.224 160.61 167.691 160.433C167.197 160.417 166.703 160.397 166.211 160.366C165.977 160.351 165.987 160.714 166.218 160.729C171.492 161.062 176.764 160.698 182.039 160.663C184.452 160.648 186.825 160.74 189.223 160.975C190.41 161.091 191.722 160.483 192.422 159.523C192.959 158.789 193.35 157.599 192.663 156.833C192.014 156.111 190.606 156.337 189.783 156.566C189.859 156.638 189.935 156.711 190.011 156.784C190.349 155.84 190.302 154.596 189.43 153.964C188.671 153.413 187.412 153.935 186.71 154.352C186.802 154.402 186.894 154.452 186.986 154.503C186.816 152.874 185.367 151.609 183.849 151.237C182.081 150.804 180.171 152.134 179.076 153.414C179.179 153.455 179.284 153.495 179.387 153.536C179.264 151.812 178.046 150.178 176.24 150.057C174.559 149.945 173.394 151.839 172.938 153.222C173.056 153.236 173.176 153.25 173.295 153.263C173.188 149.921 170.932 146.908 167.626 146.205C165.353 145.723 162.954 146.365 161.109 147.739C159.142 149.202 157.984 151.469 157.741 153.885C157.603 155.268 157.743 156.8 158.082 158.151C158.274 158.92 158.641 159.641 159.337 160.062C160.049 160.492 160.968 160.531 161.774 160.572C163.255 160.647 164.738 160.635 166.218 160.728C166.452 160.743 166.443 160.38 166.211 160.366Z" fill="#A7705D"/>
<path d="M191.444 157.511C191.444 158.936 189.968 159.813 188.661 159.629C188.432 159.596 188.34 159.947 188.571 159.98C190.112 160.198 191.806 159.18 191.807 157.504C191.807 157.27 191.445 157.278 191.444 157.511Z" fill="#A7705D"/>
<path d="M180.282 154.826C181.015 153.973 182.1 153.219 183.255 153.224C184.384 153.229 185.6 154.298 185.723 155.436C185.748 155.667 186.111 155.662 186.086 155.429C185.948 154.15 184.808 153.162 183.605 152.9C182.274 152.611 180.845 153.615 180.02 154.575C179.869 154.751 180.129 155.003 180.282 154.826Z" fill="#A7705D"/>
<path d="M159.77 155.131C159.677 152.972 160.464 150.94 162.106 149.514C163.642 148.178 165.794 147.685 167.757 148.178C167.984 148.235 168.073 147.884 167.846 147.827C165.79 147.31 163.644 147.825 161.993 149.14C160.176 150.586 159.309 152.853 159.407 155.139C159.417 155.372 159.779 155.365 159.77 155.131Z" fill="#A7705D"/>
<path d="M172.37 47.2623C171.352 47.5344 170.267 47.6125 169.221 47.6843C166.868 47.846 164.589 47.5546 162.25 47.3688C161.244 47.2889 160.237 47.281 159.236 47.4229C158.147 47.5772 157.131 47.8134 156.055 47.4405C155.277 47.1709 154.874 46.528 155.341 45.7931C155.662 45.2891 156.327 44.9037 156.938 45.0376C157.064 45.0653 157.173 44.9369 157.106 44.8192C156.816 44.3063 156.607 43.5649 157.05 43.0828C157.465 42.6307 158.295 42.7107 158.822 42.8898C158.966 42.9389 159.068 42.7425 158.966 42.6412C158.279 41.9555 158.051 40.9298 158.523 40.063C158.941 39.295 160.178 38.3213 161.099 38.8764C161.255 38.9701 161.378 38.7677 161.28 38.6428C160.751 37.9728 160.573 36.8431 160.823 35.9434C161.35 34.0438 163.542 32.6893 165.357 32.2738C166.569 31.9964 167.808 32.119 168.826 32.8453C170.139 33.7819 171.117 35.1148 170.906 36.7983C170.89 36.9258 171.081 36.9974 171.16 36.9035C171.838 36.1001 172.923 35.7327 173.926 36.0775C175.019 36.4531 175.792 37.6516 175.09 38.706C175.016 38.8172 175.137 38.9578 175.258 38.9245C176.064 38.7013 176.972 38.8712 177.657 39.3369C178.509 39.917 179.029 41.2398 178.019 41.924C177.92 41.9906 177.919 42.168 178.054 42.1958C178.542 42.2963 178.991 42.5697 179.351 42.9066C179.949 43.4669 179.904 44.2276 179.31 44.7558C179.226 44.8306 179.272 44.9774 179.375 45.0044C180.139 45.2018 180.876 45.7462 180.68 46.6185C180.531 47.2815 179.888 47.5131 179.279 47.4914C178.763 47.473 178.3 47.2054 177.798 47.1084C176.831 46.9209 175.809 46.9634 174.83 47.0114C174.011 47.0516 173.176 47.1074 172.37 47.2623C172.182 47.2984 172.262 47.585 172.449 47.549C173.472 47.3524 174.542 47.3058 175.581 47.2813C176.174 47.2674 176.769 47.2793 177.36 47.3424C177.97 47.4075 178.509 47.6859 179.111 47.7718C180.155 47.9209 181.153 47.2178 181.009 46.0895C180.916 45.3534 180.109 44.8867 179.455 44.7176C179.477 44.8004 179.499 44.8832 179.521 44.9661C180.034 44.5104 180.249 43.8347 179.957 43.2008C179.656 42.5509 178.815 42.0492 178.133 41.909C178.145 41.9995 178.156 42.0902 178.169 42.1808C179.178 41.4971 178.974 40.3089 178.263 39.4845C177.537 38.6428 176.233 38.3458 175.179 38.6377C175.235 38.7104 175.291 38.7833 175.347 38.8561C176.062 37.7812 175.466 36.6191 174.467 36.0091C173.307 35.2999 171.803 35.6824 170.95 36.6933C171.034 36.7283 171.119 36.7633 171.203 36.7985C171.424 35.0343 170.406 33.6504 169.053 32.6448C167.906 31.7914 166.523 31.7023 165.151 32.0162C163.228 32.4563 161.151 33.9334 160.536 35.8644C160.224 36.8396 160.432 38.0444 161.07 38.8532C161.129 38.7754 161.189 38.6976 161.249 38.6197C160.272 38.03 159.022 38.8552 158.453 39.6377C157.713 40.655 157.872 41.9688 158.756 42.8517C158.805 42.7688 158.852 42.6859 158.901 42.6031C158.216 42.3703 157.406 42.3883 156.839 42.8727C156.242 43.384 156.522 44.3899 156.85 44.9694C156.906 44.8965 156.962 44.8238 157.018 44.7509C155.94 44.5148 154.445 45.6672 154.891 46.8246C155.144 47.4822 155.937 47.7622 156.566 47.8832C157.756 48.1121 158.905 47.7137 160.085 47.6293C161.382 47.5364 162.69 47.6975 163.979 47.8321C165.383 47.9789 166.776 48.081 168.189 48.034C169.593 47.9873 171.082 47.9146 172.449 47.549C172.634 47.4995 172.556 47.2126 172.37 47.2623Z" fill="#A7705D"/>
<path d="M175.398 39.6847C175.865 39.5573 176.382 39.6373 176.8 39.8688C177.38 40.1907 177.83 41.0822 177.156 41.5429C176.999 41.6504 177.147 41.9082 177.306 41.7996C177.928 41.3745 177.919 40.5799 177.444 40.0387C176.921 39.4437 176.09 39.1873 175.32 39.398C175.135 39.4486 175.213 39.7354 175.398 39.6847Z" fill="#A7705D"/>
<path d="M172.507 43.7233C172.927 43.246 173.573 43.0204 174.196 43.1322C174.782 43.2375 175.236 43.7292 174.995 44.3228C174.923 44.5005 175.21 44.5771 175.282 44.4019C175.531 43.7895 175.173 43.1489 174.568 42.9361C173.768 42.654 172.865 42.8671 172.297 43.513C172.17 43.6565 172.38 43.8676 172.507 43.7233Z" fill="#A7705D"/>
<path d="M159.607 42.1452C159.164 41.6994 159.024 41.057 159.316 40.4915C159.575 39.9921 160.38 39.3668 160.967 39.7146C161.133 39.8126 161.283 39.5554 161.117 39.4579C160.409 39.0385 159.601 39.6376 159.174 40.172C158.642 40.8367 158.825 41.7801 159.396 42.3554C159.532 42.4918 159.742 42.2814 159.607 42.1452Z" fill="#A7705D"/>
<path d="M162.737 34.8547C163.952 33.7452 166.206 32.6801 167.804 33.6914C167.967 33.7943 168.116 33.5368 167.954 33.4345C166.238 32.3483 163.842 33.4437 162.527 34.6445C162.384 34.7741 162.595 34.9838 162.737 34.8547Z" fill="#A7705D"/>
<path d="M163.845 43.1126C163.72 42.5668 163.892 41.9672 164.353 41.6358C164.843 41.2857 165.956 41.1302 166.292 41.7858C166.381 41.9565 166.637 41.806 166.55 41.6356C166.138 40.8335 164.955 40.9895 164.301 41.3198C163.635 41.6567 163.4 42.5029 163.558 43.1917C163.602 43.3785 163.889 43.2994 163.845 43.1126Z" fill="#A7705D"/>
<path d="M166.611 41.908C166.841 41.3879 167.321 41.0104 167.899 41.008C168.49 41.0057 169.498 41.5708 169.38 42.2672C169.349 42.4547 169.635 42.5351 169.667 42.3462C169.813 41.4876 168.893 40.9187 168.185 40.7459C167.42 40.5593 166.66 41.0686 166.355 41.7579C166.278 41.9315 166.534 42.0831 166.611 41.908Z" fill="#A7705D"/>
<path d="M106.104 180.898C106.104 180.898 118.804 183.08 115.226 176.412C112.337 171.028 106.104 174.617 106.104 174.617C106.104 174.617 104.459 170.28 99.0757 170.879C99.0757 170.879 99.5241 164.299 92.9447 160.111C86.365 155.925 82.0284 160.111 82.0284 160.111C82.0284 160.111 79.3367 147.545 66.3266 148.22C53.3167 148.897 49.2792 158.616 49.2792 161.607C49.2792 161.607 39.4097 159.663 39.5592 168.337C39.5592 168.337 31.7834 167 32.531 173.729C32.531 173.729 23.5586 174.617 26.699 180.299C26.699 180.299 29.3419 181.496 35.8209 181.496C41.9518 181.496 60.7937 180.985 70.0654 181.544C79.3367 182.103 92.9447 180.3 106.104 180.898Z" fill="white"/>
<path d="M106.223 180.465C108.687 180.883 112.824 181.494 114.873 179.727C115.607 179.094 115.445 178.13 115.158 177.319C114.562 175.635 113.187 174.377 111.458 173.986C109.794 173.611 107.791 174.177 106.33 175.004C106.059 175.158 105.777 175.004 105.671 174.737C104.674 172.19 101.721 171.097 99.0752 171.327C98.8415 171.347 98.6126 171.108 98.6268 170.879C98.8349 167.461 96.9349 164.073 94.4975 161.836C91.4299 159.02 85.8074 157.157 82.3453 160.429C82.1121 160.649 81.6701 160.573 81.5956 160.231C80.2186 153.917 74.8094 149.126 68.379 148.673C63.1493 148.305 57.6307 150.071 53.8461 153.734C51.8476 155.669 49.7743 158.701 49.7277 161.607C49.7227 161.915 49.4463 162.095 49.16 162.04C47.7846 161.775 46.2981 161.805 44.9274 162.055C41.655 162.65 40.008 165.088 40.0076 168.336C40.0076 168.651 39.7229 168.816 39.44 168.769C38.4188 168.599 37.3224 168.644 36.3117 168.839C33.7801 169.327 32.76 171.262 32.9795 173.729C33.0028 173.991 32.7564 174.154 32.5309 174.178C31.2085 174.314 29.856 174.691 28.6637 175.27C27.7773 175.702 26.9474 176.346 26.6013 177.298C26.3584 177.965 26.5285 179.767 27.0718 179.965C31.7526 181.678 37.291 181.048 42.193 180.98C48.9149 180.885 55.6383 180.784 62.3612 180.859C65.3451 180.894 68.3184 181.033 71.2988 181.155C75.2539 181.318 79.2243 181.114 83.1749 180.927C90.8145 180.565 98.4549 180.121 106.104 180.449C106.68 180.474 106.683 181.37 106.104 181.346C96.9273 180.953 87.7768 181.696 78.611 182.016C71.9767 182.248 65.3433 181.75 58.7058 181.732C52.2326 181.715 45.7604 181.835 39.2884 181.916C35.1681 181.968 30.3405 182.395 26.4728 180.686C25.571 180.288 25.5241 178.057 25.6774 177.271C25.8845 176.208 26.7507 175.403 27.6126 174.833C29.0245 173.902 30.8622 173.452 32.5314 173.28C32.3816 173.43 32.2322 173.579 32.0828 173.729C31.8584 171.212 32.7836 169.123 35.2211 168.209C36.5928 167.695 38.2429 167.665 39.6786 167.904C39.4893 168.048 39.3 168.192 39.1109 168.336C39.1113 165.056 40.594 162.425 43.7998 161.408C45.5522 160.851 47.5981 160.828 49.3987 161.174C49.2096 161.319 49.0201 161.463 48.831 161.608C48.8809 158.514 50.9478 155.447 53.0049 153.308C56.8395 149.322 62.5613 147.623 67.9835 147.758C74.9503 147.93 80.9836 153.214 82.4614 159.993C82.2113 159.927 81.9616 159.861 81.7116 159.795C85.3189 156.385 90.835 157.904 94.3479 160.553C97.407 162.862 99.764 166.939 99.5246 170.879C99.3755 170.729 99.2263 170.579 99.0762 170.43C102.128 170.164 105.357 171.487 106.537 174.498C106.317 174.409 106.098 174.32 105.878 174.229C107.692 173.202 109.941 172.725 111.986 173.186C114.369 173.724 116.954 176.796 116.176 179.342C115.572 181.318 112.783 181.586 111.087 181.671C109.394 181.755 107.656 181.614 105.986 181.33C105.415 181.234 105.657 180.369 106.223 180.465Z" fill="#A7705D"/>
<path d="M92.2155 164.261C89.8413 162.829 86.4024 162.066 84.14 164.191C83.7191 164.586 83.0831 163.952 83.5059 163.556C86.0733 161.144 89.9266 161.834 92.6683 163.486C93.1626 163.784 92.7123 164.56 92.2155 164.261Z" fill="#A7705D"/>
<path d="M66.1465 152.85C62.5407 153.08 59.1484 154.308 56.6472 156.985C55.3998 158.319 54.1505 160.312 54.109 162.205C54.0962 162.783 53.199 162.785 53.2116 162.205C53.2592 160.033 54.6184 157.915 56.0128 156.35C58.5848 153.463 62.3814 152.194 66.1463 151.952C66.7245 151.915 66.7209 152.812 66.1465 152.85Z" fill="#A7705D"/>
<path d="M84.1788 174.137C82.5922 171.215 79.1395 169.666 75.9628 169.46C72.9084 169.263 69.0736 170.634 68.2114 173.923C68.065 174.481 67.1991 174.244 67.3464 173.683C68.233 170.3 71.8333 168.702 75.0288 168.554C78.7876 168.38 83.0948 170.261 84.9534 173.684C85.2296 174.192 84.4547 174.645 84.1788 174.137Z" fill="#A7705D"/>
</svg>
