<svg width="162" height="157" viewBox="0 0 162 157" fill="none" xmlns="http://www.w3.org/2000/svg">
<path d="M43.6293 23.1568C43.4529 23.056 42.1174 22.0103 42.5584 21.7835C42.9993 21.5567 55.5103 19.0117 68.815 16.4918C79.8645 14.4004 91.5817 12.2711 97.6923 11.3388C110.632 9.37332 156.908 0.692495 159.554 0.201127C160.499 0.0751358 162.175 0.5791 161.872 1.27205C161.52 2.091 155.107 11.112 147.194 22.2497C135.855 38.2506 121.328 58.636 117.271 65.3136C112.673 72.8731 110.14 76.6528 108.969 78.3033L108.313 79.2104L108.137 79.4372C108.024 79.5758 107.507 79.4372 106.99 79.0089C106.819 78.8888 106.659 78.7539 106.512 78.6057C106.096 78.1773 96.3316 68.1862 88.6965 60.1605L74.3082 70.2398C74.1949 70.3154 73.8673 70.2399 73.4641 69.9879C73.0609 69.7359 72.4814 69.2319 72.4436 68.9925C71.7254 65.0742 70.9821 61.1054 70.5663 57.0989C70.1505 53.0924 66.2196 37.4946 65.829 35.9323C65.2746 35.504 65.514 35.7685 62.6414 33.9795C58.7105 31.5352 43.6671 23.1694 43.6167 23.1442L43.6293 23.1568ZM70.4655 17.8903C61.2051 19.6416 52.3983 21.3803 47.787 22.363C53.0031 22.6528 62.3516 22.9678 71.4734 23.2576C82.6363 23.623 93.4464 23.9631 95.9914 24.2907C114.89 17.0966 138.11 8.31499 150.621 3.5903C135.502 6.39992 108.792 11.3136 99.3806 12.7373C93.3582 13.657 81.6284 15.7863 70.5285 17.8903H70.4655ZM97.5159 34.1181L147.32 6.91648C130.727 13.2161 114.033 19.5156 97.5285 25.8152C96.8355 28.0453 97.5285 31.8376 97.6293 34.1433L97.5159 34.1181ZM106.827 77.6481C108.578 72.1927 105.63 40.3924 106.688 31.4596L78.5038 46.8684C78.5401 47.0851 78.5611 47.304 78.5668 47.5236C79.2471 48.3047 80.2676 49.5142 81.8047 51.4041C84.8789 55.1839 102.115 72.6967 106.89 77.5977L106.827 77.6481ZM145.267 20.9519C150.306 13.7704 154.842 7.48345 157.475 3.6911L108.263 30.6281C109.787 31.888 108.654 69.2697 108.83 74.4228C110.266 72.2557 112.383 68.9421 115.394 63.9907C119.438 57.3131 133.94 36.9277 145.317 20.9141L145.267 20.9519ZM74.2453 67.6822L87.235 58.5478C83.9844 55.1209 81.326 52.2482 80.2424 50.9001L78.5542 48.8213C78.385 50.6004 78.1073 52.3676 77.7226 54.1129C76.7147 58.9636 75.0768 64.8222 74.2453 67.6696V67.6822ZM67.6937 36.8899C67.6937 36.8899 72.0152 53.8357 72.4814 58.3084C72.6326 59.7951 72.8971 61.6346 73.1869 63.4237C74.0185 60.3999 75.0642 56.406 75.8075 52.9034C76.0721 51.6435 76.1225 45.9991 76.2107 45.8731L76.5383 45.6967C76.5383 45.6967 76.6013 45.6085 76.6895 45.6085L95.7772 35.1512C95.689 33.9543 95.3488 29.4186 95.3614 26.6594C91.7203 28.0453 67.9457 35.6678 67.6433 36.9655L67.6937 36.8899ZM45.62 23.4844C50.0045 25.9286 59.479 31.2203 62.6414 33.2235C63.9479 33.9914 65.2099 34.8327 66.4212 35.7433C66.4212 35.7433 90.6242 26.3318 93.144 25.4498C88.4319 25.2231 80.8598 24.9711 73.1239 24.7317C61.0035 24.3411 48.4674 23.9379 45.6704 23.5348L45.62 23.4844ZM39.8747 20.1456C39.3558 20.5746 38.9956 21.1652 38.8517 21.8229C38.7079 22.4807 38.7886 23.1677 39.081 23.7741C38.64 23.6482 38.2746 22.5142 38.3628 21.8087C38.451 21.1031 39.0684 20.0826 39.8747 20.1582V20.1456ZM42.8481 19.0117C41.8098 19.7385 41.0463 20.7937 40.6806 22.0073C40.3149 23.2209 40.3683 24.5223 40.8323 25.7018C40.2313 25.2996 39.7742 24.7163 39.5273 24.0366C39.2803 23.3569 39.2564 22.6163 39.459 21.9221C39.9881 19.7676 41.6008 18.7975 42.8481 19.0621V19.0117ZM69.2056 35.6426C69.2056 35.4536 69.3064 35.3528 69.5332 35.4032C69.6425 35.4286 69.7438 35.4811 69.8274 35.556C69.9111 35.6309 69.9746 35.7257 70.0119 35.8316C70.0119 35.8316 74.5476 55.1713 75.0516 61.3448C75.0516 61.5212 74.9004 61.6094 74.6736 61.5338C74.569 61.5019 74.4745 61.4433 74.3993 61.3638C74.3242 61.2843 74.2711 61.1865 74.2453 61.0803C73.7035 54.9697 69.2056 35.6929 69.2056 35.6426ZM71.5868 34.2692C71.5868 34.0803 71.675 33.9669 71.8892 34.0173C71.9991 34.0406 72.1014 34.0908 72.1872 34.1634C72.2729 34.2359 72.3394 34.3286 72.3806 34.433C72.9223 36.3607 74.9004 46.6416 75.9083 52.1727C76.2611 54.0625 76.5131 55.3854 76.5761 55.65C76.6391 55.9146 76.4753 55.9398 76.2485 55.8894C76.1391 55.864 76.0379 55.8114 75.9542 55.7366C75.8705 55.6617 75.8071 55.5669 75.7697 55.461C75.7697 55.2469 75.4674 53.8861 75.102 51.9585C74.0563 46.44 72.116 36.1969 71.5868 34.3196V34.2692ZM73.8043 34.0173C73.7287 33.8283 73.8043 33.6897 74.0563 33.7149C74.1677 33.733 74.273 33.7781 74.363 33.8461C74.453 33.9142 74.525 34.0032 74.5728 34.1055C75.3162 35.9827 77.4832 48.5819 77.4958 48.6197C77.5084 48.6575 77.3698 48.8969 77.1557 48.8339C77.049 48.8046 76.9514 48.7489 76.8721 48.6718C76.7928 48.5947 76.7343 48.4987 76.7021 48.3929C76.7021 48.3929 74.535 35.7937 73.8169 34.0047L73.8043 34.0173ZM75.9083 32.7574C75.9083 32.5936 76.0973 32.5306 76.3241 32.6188C76.4253 32.6539 76.515 32.7158 76.5838 32.7979C76.6526 32.88 76.6978 32.9792 76.7147 33.0849C76.7147 33.7149 78.8817 44.6384 78.8817 44.6636C78.8817 44.6888 78.7557 44.9407 78.5416 44.8777C78.4349 44.8485 78.3373 44.7927 78.258 44.7156C78.1787 44.6385 78.1202 44.5426 78.088 44.4368C78.088 44.4368 75.8705 33.6015 75.9083 32.7448V32.7574ZM78.2518 31.699C78.2518 31.5226 78.403 31.4344 78.6172 31.51C78.7235 31.5412 78.8201 31.5993 78.8973 31.6788C78.9746 31.7583 79.03 31.8564 79.0581 31.9636C79.1337 32.707 81.263 43.8698 81.263 43.895C81.263 43.9202 81.1496 44.1722 80.9228 44.1218C80.8138 44.0944 80.7137 44.0395 80.632 43.9623C80.5504 43.8851 80.49 43.7881 80.4566 43.6808C80.4566 43.6808 78.34 32.644 78.2392 31.699H78.2518ZM80.6204 30.9179C80.6204 30.7415 80.7716 30.6533 80.9984 30.7289C81.1054 30.7589 81.2025 30.8167 81.2799 30.8963C81.3574 30.976 81.4124 31.0747 81.4394 31.1825C81.5528 32.2408 83.3922 42.6855 83.3922 42.7107C83.3922 42.7359 83.2788 43.0005 83.0521 42.9375C82.9445 42.9113 82.8453 42.8582 82.7638 42.7833C82.6823 42.7084 82.6211 42.6141 82.5859 42.5091C82.5859 42.5091 80.7338 31.9888 80.6204 30.9305V30.9179ZM83.0647 30.4895C83.0647 30.3131 83.1781 30.1997 83.4048 30.2627C83.5124 30.2889 83.6116 30.3419 83.6931 30.4169C83.7746 30.4918 83.8358 30.5861 83.871 30.6911C84.0978 31.8376 85.8365 41.2618 85.8365 41.287C85.8365 41.3122 85.7231 41.5642 85.4963 41.5138C85.3873 41.4864 85.2872 41.4315 85.2055 41.3543C85.1239 41.277 85.0635 41.1801 85.0301 41.0728C85.0301 41.0728 83.2537 31.636 83.0647 30.4895ZM85.6979 29.2296C85.6979 29.0532 85.8617 28.9776 86.0885 29.0532C86.1931 29.0851 86.2876 29.1437 86.3627 29.2232C86.4379 29.3028 86.491 29.4005 86.5168 29.5068C86.6428 31.762 88.0413 39.9893 88.0413 40.0145C88.0413 40.0397 87.9027 40.279 87.6886 40.2161C87.5813 40.1879 87.4832 40.1325 87.4037 40.0553C87.3243 39.978 87.2661 39.8815 87.235 39.7751C87.235 39.7751 85.8239 31.4344 85.6979 29.2296ZM88.0539 28.3476C88.0539 28.1713 88.2051 28.0831 88.4319 28.1587C88.5389 28.1887 88.636 28.2464 88.7135 28.3261C88.7909 28.4057 88.8459 28.5045 88.8729 28.6122L89.969 39.0821C89.969 39.2585 89.8178 39.3467 89.591 39.2711C89.4841 39.2411 89.3869 39.1833 89.3095 39.1037C89.232 39.024 89.177 38.9253 89.1501 38.8175L88.0539 28.3476ZM90.4478 27.7051C90.4478 27.5539 90.6998 27.5161 90.9265 27.6295C91.1533 27.7429 91.2919 27.9571 91.2541 28.1209C90.8131 29.8469 91.6321 38.6663 91.6321 38.6915C91.6321 38.7167 91.4809 38.9561 91.2541 38.8805C91.1477 38.8494 91.0512 38.7913 90.9739 38.7118C90.8967 38.6323 90.8413 38.5342 90.8131 38.427C90.8131 38.427 89.9816 29.4942 90.4478 27.6925V27.7051ZM92.4888 26.8735C92.4888 26.7098 92.703 26.6594 92.9298 26.7602C93.0319 26.7956 93.1217 26.8596 93.1887 26.9444C93.2556 27.0292 93.297 27.1314 93.3078 27.2389C93.2762 30.6135 93.5248 33.9848 94.0511 37.3182C94.0511 37.4946 93.9251 37.5954 93.6984 37.5324C93.5911 37.5043 93.493 37.4489 93.4135 37.3716C93.3341 37.2944 93.2759 37.1978 93.2448 37.0915C92.7115 33.7038 92.4629 30.2775 92.5014 26.8483L92.4888 26.8735ZM99.7334 24.1899C99.7334 24.0261 99.9223 23.9631 100.149 24.0513C100.25 24.0865 100.34 24.1484 100.409 24.2304C100.478 24.3125 100.523 24.4117 100.54 24.5175L100.212 33.6393C100.212 33.8031 100.023 33.8661 99.7963 33.7779C99.6952 33.7428 99.6054 33.6809 99.5366 33.5988C99.4679 33.5167 99.4226 33.4175 99.4058 33.3117L99.7334 24.1899ZM102.908 23.0056C102.908 22.8418 103.085 22.7662 103.312 22.8544C103.414 22.8888 103.506 22.9503 103.577 23.0323C103.648 23.1143 103.695 23.2139 103.715 23.3206C103.715 25.0593 103.488 31.3588 103.488 31.3714C103.488 31.384 103.286 31.5982 103.06 31.51C102.958 31.4749 102.869 31.413 102.8 31.3309C102.731 31.2488 102.686 31.1496 102.669 31.0439C102.669 31.0439 102.896 23.4844 102.896 23.0182L102.908 23.0056ZM106.827 21.5441C106.89 21.4055 107.116 21.4055 107.331 21.5441C107.545 21.6827 107.671 21.8969 107.595 22.0355C106.65 24.0135 106.927 30.1367 106.927 30.1493C106.927 30.1619 106.738 30.3887 106.524 30.3005C106.421 30.2661 106.33 30.2047 106.259 30.1226C106.188 30.0406 106.14 29.9411 106.121 29.8344C106.121 29.8344 105.844 23.623 106.827 21.5567V21.5441ZM109.057 20.763C109.057 20.5866 109.233 20.511 109.447 20.5992C109.552 20.6329 109.645 20.6938 109.719 20.7758C109.792 20.8577 109.841 20.9577 109.863 21.0653L110.153 28.4106C110.153 28.587 109.976 28.6626 109.762 28.5744C109.658 28.5407 109.564 28.4797 109.491 28.3978C109.418 28.3159 109.368 28.2159 109.347 28.1083L109.057 20.763ZM112.207 19.2636C112.207 19.0873 112.37 19.0117 112.597 19.0999C112.702 19.1336 112.795 19.1945 112.868 19.2765C112.941 19.3584 112.991 19.4584 113.013 19.566C113.088 21.2417 113.227 26.6972 113.227 26.7098C113.227 26.7224 113.051 26.9491 112.824 26.8735C112.719 26.841 112.624 26.7804 112.551 26.6983C112.478 26.6161 112.428 26.5156 112.408 26.4074C112.408 26.4074 112.27 20.9897 112.194 19.2763L112.207 19.2636ZM114.6 18.6841C114.6 18.5077 114.777 18.4321 115.004 18.5203C115.108 18.554 115.202 18.615 115.275 18.6969C115.348 18.7789 115.398 18.8788 115.419 18.9865C115.419 20.3472 115.419 25.4498 115.419 25.4624C115.419 25.475 115.23 25.7018 115.004 25.6136C114.9 25.5804 114.808 25.5194 114.737 25.4371C114.665 25.3549 114.618 25.2547 114.6 25.1475C114.6 25.1475 114.6 20.1078 114.6 18.6967V18.6841ZM117.788 17.5754C117.788 17.4116 117.99 17.3486 118.216 17.4368C118.317 17.4719 118.407 17.5338 118.476 17.6159C118.545 17.698 118.59 17.7972 118.607 17.9029C118.531 19.1629 117.977 24.0513 117.977 24.0639C117.977 24.0765 117.775 24.2907 117.549 24.2025C117.447 24.1674 117.358 24.1055 117.289 24.0234C117.22 23.9413 117.175 23.8421 117.158 23.7364C117.158 23.7364 117.712 18.8605 117.788 17.5754ZM119.955 16.9202C119.955 16.7564 120.157 16.6934 120.383 16.7942C120.485 16.8281 120.576 16.8896 120.645 16.972C120.714 17.0543 120.758 17.1541 120.774 17.2604L120.446 22.3C120.446 22.4638 120.245 22.5268 120.018 22.426C119.914 22.3912 119.823 22.3278 119.754 22.243C119.684 22.1583 119.641 22.0558 119.627 21.9473L119.955 16.9076V16.9202ZM122.185 15.8745C122.185 15.6981 122.336 15.6099 122.55 15.6855C122.657 15.7155 122.755 15.7733 122.832 15.8529C122.909 15.9326 122.964 16.0313 122.991 16.1391C123.054 16.7816 123.332 21.3551 123.332 21.4055C123.332 21.4559 123.168 21.6575 122.941 21.5819C122.836 21.5511 122.741 21.4929 122.665 21.4132C122.59 21.3335 122.537 21.2352 122.513 21.1283C122.513 21.1283 122.248 16.517 122.172 15.8871L122.185 15.8745ZM124.705 14.8036C124.705 14.6398 124.932 14.602 125.146 14.7028C125.36 14.8036 125.536 15.0177 125.511 15.1815C125.385 16.0383 125.511 19.2763 125.511 19.2889C125.511 19.3015 125.373 19.5534 125.146 19.4904C125.041 19.4604 124.945 19.4042 124.868 19.327C124.791 19.2499 124.735 19.1544 124.705 19.0495C124.705 19.0495 124.566 15.6981 124.705 14.8161V14.8036ZM126.759 14.035C126.759 13.8838 126.998 13.846 127.225 13.9594C127.452 14.0728 127.603 14.287 127.565 14.4508C127.493 15.7811 127.493 17.1144 127.565 18.4447C127.565 18.6211 127.414 18.6967 127.187 18.6211C127.082 18.5892 126.988 18.5306 126.913 18.4511C126.838 18.3715 126.784 18.2738 126.759 18.1675C126.683 16.791 126.683 15.4115 126.759 14.035ZM129.404 12.9515C129.404 12.7751 129.581 12.7121 129.808 12.7877C129.91 12.8221 130.002 12.8835 130.073 12.9656C130.144 13.0476 130.191 13.1471 130.211 13.2539C130.211 14.413 130.488 16.8446 130.488 16.8446C130.488 16.8446 130.337 17.0966 130.11 17.0336C130.011 17.0063 129.92 16.9553 129.846 16.8851C129.771 16.8148 129.715 16.7274 129.682 16.6304C129.682 16.6304 129.43 14.1988 129.404 13.0019V12.9515ZM132.479 11.7924C132.479 11.616 132.642 11.5404 132.857 11.616C132.961 11.6479 133.056 11.7065 133.131 11.786C133.206 11.8655 133.259 11.9632 133.285 12.0695L133.524 15.4083C133.524 15.5847 133.361 15.6603 133.146 15.5847C133.042 15.5528 132.947 15.4942 132.872 15.4147C132.797 15.3351 132.744 15.2374 132.718 15.1311L132.479 11.7924ZM134.998 10.8978C134.998 10.7214 135.15 10.6458 135.376 10.7088C135.481 10.7407 135.576 10.7993 135.651 10.8789C135.726 10.9584 135.779 11.0561 135.805 11.1624L136.082 14.287C136.082 14.4634 135.931 14.5516 135.704 14.476C135.599 14.4441 135.505 14.3855 135.43 14.3059C135.355 14.2264 135.301 14.1287 135.276 14.0224L134.998 10.8978ZM137.128 9.73869C137.128 9.5875 137.392 9.5623 137.606 9.73869C137.821 9.91508 137.959 10.0789 137.921 10.2301C137.695 11.2508 137.695 12.3087 137.921 13.3294C137.921 13.5058 137.795 13.6066 137.581 13.5436C137.475 13.5144 137.377 13.4586 137.298 13.3815C137.218 13.3044 137.16 13.2085 137.128 13.1027C136.883 12.0117 136.883 10.88 137.128 9.78909V9.73869ZM139.118 9.6127C139.118 9.43631 139.27 9.34811 139.496 9.42371C139.603 9.45371 139.7 9.51147 139.778 9.59113C139.855 9.67079 139.91 9.76951 139.937 9.87728L140.189 12.3089C140.189 12.4853 140.038 12.5735 139.811 12.4979C139.704 12.4679 139.607 12.4101 139.53 12.3305C139.452 12.2508 139.397 12.1521 139.37 12.0443L139.118 9.6127ZM141.273 8.74335C141.273 8.56697 141.424 8.47877 141.651 8.55437C141.757 8.58551 141.854 8.64365 141.931 8.72313C142.008 8.80261 142.064 8.90072 142.092 9.00794L142.281 10.3309C142.281 10.5072 142.13 10.5954 141.903 10.5198C141.796 10.4898 141.699 10.4321 141.621 10.3524C141.544 10.2728 141.489 10.174 141.462 10.0663L141.323 8.69296L141.273 8.74335ZM143.515 7.74802C143.515 7.57163 143.679 7.49604 143.906 7.58423C144.011 7.61794 144.104 7.67891 144.177 7.76085C144.25 7.84279 144.3 7.94275 144.322 8.05041L144.397 9.75129C144.397 9.92768 144.234 10.0033 144.007 9.91508C143.902 9.88137 143.809 9.8204 143.736 9.73846C143.663 9.65652 143.613 9.55657 143.591 9.44891L143.515 7.74802ZM127.351 54.6421C125.473 58.4218 120.497 66.3593 119.552 67.8712C118.607 69.3831 113.025 78.6309 111.375 80.0924C112.408 77.6607 118.153 68.5012 119.073 67.0271C119.993 65.553 124.843 57.6533 127.351 54.6421ZM117.637 72.4825C117.7 72.3565 117.927 72.3691 118.116 72.4825C118.305 72.5959 118.418 72.8227 118.342 72.9361V73.0242C118.279 73.1502 118.053 73.1376 117.851 73.0242C117.649 72.9109 117.549 72.6841 117.624 72.5707V72.4825H117.637ZM121.417 67.0396C121.757 67.657 118.897 72.6337 118.229 72.2431C117.561 71.8525 120.963 67.0271 121.479 67.0271L121.417 67.0396ZM78.403 62.6677C78.7683 62.9827 77.5588 64.1922 76.7651 64.0285C75.9713 63.8647 77.7982 62.6929 78.403 62.6677ZM150.218 11.3892C150.508 11.9057 149.903 13.2539 149.311 12.9263C148.719 12.5987 149.777 11.3766 150.218 11.3892ZM67.0637 31.0943C67.4669 31.825 66.396 34.2692 65.5644 33.8157C64.7329 33.3621 66.4464 31.0817 67.0637 31.0943ZM67.9331 32.9463C68.2229 33.4629 67.6181 34.811 67.0259 34.4834C66.4338 34.1559 67.4921 32.9337 67.9331 32.9463ZM82.6489 46.2007C83.0521 46.9314 81.9811 49.3756 81.1496 48.9221C80.3181 48.4685 82.0441 46.1881 82.6489 46.2007ZM114.348 63.9277C114.6 63.4741 113.706 60.7023 113.088 60.6897C112.471 60.6771 113.857 63.6253 114.348 63.9277ZM115.243 63.0709C115.495 62.6174 114.6 59.8455 113.983 59.8329C113.366 59.8203 114.764 62.7685 115.243 63.0709ZM116.137 61.9496C116.389 61.496 115.495 58.7242 114.878 58.7116C114.26 58.699 115.646 61.6472 116.137 61.9496ZM117.082 61.1307C117.334 60.6771 116.44 57.9053 115.822 57.8927C115.205 57.8801 116.604 60.8409 117.082 61.1307ZM117.801 59.7447C117.99 59.4046 117.322 57.3131 116.893 57.3131C116.465 57.3131 117.473 59.5306 117.801 59.7447ZM118.506 58.6108C118.682 58.2958 118.053 56.3556 117.662 56.3556C117.271 56.3556 118.204 58.4092 118.506 58.6108ZM119.186 57.3509C119.3 57.1619 118.922 55.9902 118.67 55.9902C118.418 55.9902 118.997 57.2501 119.186 57.3509ZM119.653 56.4438C119.766 56.2548 119.388 55.0831 119.136 55.0831C118.884 55.0831 119.464 56.343 119.653 56.4438ZM120.32 56.0784C120.434 55.8894 120.056 54.7177 119.804 54.7177C119.552 54.7177 120.131 55.9776 120.32 56.0784ZM77.4832 20.637C77.9494 20.4102 78.7431 17.6132 78.3148 17.2856C77.8864 16.958 77.2816 20.1456 77.4832 20.637ZM78.7431 20.448C79.2093 20.2212 80.0031 17.4242 79.5747 17.0966C79.1463 16.769 78.5416 19.9566 78.7431 20.448ZM80.1165 20.0322C80.5826 19.8054 81.3764 17.0084 80.948 16.6808C80.5196 16.3532 79.9149 19.5408 80.1165 20.0322ZM81.3764 19.8936C81.8425 19.6668 82.6363 16.8698 82.2079 16.5422C81.7795 16.2147 81.1748 19.4022 81.3764 19.8936ZM82.7497 19.1503C83.1025 18.9739 83.7324 16.8698 83.3796 16.6304C83.0269 16.391 82.5985 18.7849 82.7497 19.1503ZM84.0096 18.6211C84.3372 18.4573 84.9167 16.517 84.5892 16.2777C84.2616 16.0383 83.871 18.2683 84.0096 18.6211ZM85.2695 18.0037C85.4711 17.9029 85.8239 16.7438 85.6223 16.5926C85.4207 16.4414 85.1939 17.8525 85.2695 18.0037ZM86.1767 17.525C86.3782 17.4242 86.731 16.265 86.5294 16.1139C86.3278 15.9627 86.1011 17.3738 86.1767 17.525ZM86.9326 17.6006C87.1342 17.4998 87.4744 16.3407 87.2854 16.1895C87.0964 16.0383 86.857 17.4494 86.9326 17.6006Z" fill="#B9C95E"/>
<path d="M82.1449 76.1362C82.2686 76.0911 82.3692 75.9987 82.4247 75.8794C82.4803 75.7601 82.4861 75.6236 82.441 75.5C82.3959 75.3763 82.3035 75.2757 82.1842 75.2202C82.0649 75.1646 81.9284 75.1588 81.8047 75.2039L81.6158 75.2669L81.4268 75.3299L81.2378 75.3929L81.0488 75.4559L80.8598 75.5189L80.6708 75.5818L80.4818 75.6448L80.2928 75.7078L80.1039 75.7708H79.9275C79.8205 75.8259 79.7368 75.9174 79.6914 76.0288C79.646 76.1402 79.642 76.2642 79.68 76.3783C79.7181 76.4924 79.7957 76.5891 79.8988 76.651C80.002 76.7129 80.1238 76.7359 80.2424 76.7158H80.4188L80.6204 76.6528L80.8094 76.5898L80.9984 76.5268L81.1874 76.4638L81.3764 76.4008L81.5654 76.3378L81.7543 76.2748L81.9433 76.2118L82.1323 76.1488L82.1449 76.1362ZM-0.0898078 156.481C-0.153296 156.596 -0.168389 156.732 -0.131766 156.859C-0.0951423 156.985 -0.00980277 157.092 0.105479 157.155C0.220761 157.219 0.356542 157.234 0.482952 157.197C0.609362 157.16 0.716046 157.075 0.779534 156.96L1.17011 156.481C1.2336 156.366 1.24869 156.23 1.21207 156.104C1.17544 155.977 1.0901 155.871 0.974821 155.807C0.859539 155.744 0.723758 155.728 0.597349 155.765C0.470939 155.802 0.364255 155.887 0.300766 156.002L-0.0898078 156.481ZM1.62368 153.369C1.56019 153.484 1.5451 153.62 1.58172 153.747C1.61834 153.873 1.70368 153.98 1.81897 154.043C1.93425 154.107 2.07003 154.122 2.19644 154.085C2.32285 154.048 2.42953 153.963 2.49302 153.848L2.8458 153.205L3.24897 152.475L3.45056 152.109C3.51572 151.994 3.53241 151.857 3.49697 151.73C3.46153 151.602 3.37685 151.494 3.26157 151.429C3.14629 151.364 3.00984 151.347 2.88225 151.382C2.75466 151.418 2.64637 151.503 2.58121 151.618L2.36703 151.983L1.96386 152.714L1.61108 153.356L1.62368 153.369ZM4.14351 149.022C4.07835 149.136 4.06099 149.271 4.09525 149.397C4.12951 149.524 4.21259 149.631 4.3262 149.696C4.43981 149.762 4.57465 149.779 4.70106 149.745C4.82747 149.71 4.93509 149.627 5.00025 149.514L5.32783 148.934L5.73101 148.241L5.99559 147.788C6.03814 147.676 6.03987 147.554 6.00047 147.441C5.96106 147.329 5.88308 147.234 5.78036 147.173C5.67765 147.113 5.55684 147.091 5.43939 147.111C5.32195 147.131 5.21546 147.192 5.13884 147.284L4.87426 147.737L4.47109 148.43L4.14351 149.01V149.022ZM6.66334 144.713C6.59484 144.827 6.57428 144.963 6.60618 145.092C6.63807 145.221 6.71982 145.332 6.83343 145.4C6.94704 145.469 7.08321 145.489 7.21199 145.457C7.34076 145.425 7.45159 145.344 7.52009 145.23L7.70907 144.902L8.09965 144.247L8.49022 143.605V143.517C8.52414 143.461 8.54681 143.4 8.55693 143.335C8.56706 143.271 8.56444 143.206 8.54923 143.142C8.53402 143.079 8.50652 143.02 8.46829 142.967C8.43006 142.915 8.38186 142.87 8.32643 142.836C8.271 142.802 8.20944 142.78 8.14525 142.769C8.08106 142.759 8.01551 142.762 7.95233 142.777C7.88916 142.792 7.82959 142.82 7.77705 142.858C7.7245 142.896 7.68 142.945 7.64608 143V143.088L7.2555 143.731L6.86493 144.386L6.67594 144.713H6.66334ZM9.25877 140.442C9.21101 140.553 9.20442 140.677 9.24018 140.792C9.27594 140.907 9.3517 141.005 9.45374 141.069C9.55577 141.133 9.67733 141.159 9.79642 141.141C9.9155 141.123 10.0242 141.063 10.1029 140.972L10.4053 140.48L10.7833 139.875L11.1486 139.283C11.2188 139.171 11.2416 139.036 11.2121 138.907C11.1826 138.778 11.1031 138.667 10.9912 138.597C10.8792 138.526 10.744 138.504 10.6152 138.533C10.4864 138.563 10.3747 138.642 10.3045 138.754L9.92653 139.346L9.54855 139.951L9.24617 140.442H9.25877ZM11.9298 136.222C11.5896 136.789 12.4338 137.305 12.7613 136.763L13.0259 136.348L13.3913 135.781L13.7567 135.226L13.8449 135.1C13.8989 134.991 13.9112 134.865 13.8795 134.747C13.8477 134.629 13.7741 134.526 13.6723 134.458C13.5706 134.39 13.4476 134.362 13.3263 134.378C13.2051 134.394 13.0938 134.454 13.0133 134.546L12.9251 134.685L12.5598 135.239L12.1944 135.806L11.9298 136.222ZM14.689 132.051C14.6155 132.16 14.5881 132.293 14.6129 132.422C14.6378 132.551 14.7127 132.664 14.8213 132.738C14.9299 132.811 15.0633 132.839 15.192 132.814C15.3208 132.789 15.4344 132.714 15.508 132.606L15.571 132.505L15.9237 131.976L16.2765 131.459L16.6293 130.955C16.7045 130.847 16.7334 130.713 16.7098 130.583C16.6862 130.453 16.6119 130.337 16.5033 130.262C16.3947 130.187 16.2607 130.158 16.1307 130.182C16.0008 130.205 15.8855 130.28 15.8103 130.388L15.4576 130.892L15.0922 131.409L14.7394 131.938L14.6764 132.039L14.689 132.051ZM17.549 127.957C17.1584 128.461 17.9522 129.065 18.3554 128.536L18.6955 128.057L19.0357 127.579L19.3759 127.112L19.4767 126.974C19.5552 126.869 19.5887 126.736 19.5698 126.606C19.5509 126.477 19.4812 126.359 19.3759 126.281C19.2706 126.202 19.1385 126.169 19.0085 126.188C18.8786 126.207 18.7615 126.276 18.6829 126.382L18.5821 126.52L18.242 126.986L17.8892 127.465L17.549 127.944V127.957ZM20.535 123.937C20.4548 124.041 20.4191 124.172 20.4356 124.302C20.4521 124.432 20.5196 124.55 20.6232 124.63C20.7268 124.711 20.858 124.746 20.988 124.73C21.1179 124.713 21.236 124.646 21.3162 124.542L21.4422 124.378L21.7697 123.95L22.0973 123.522L22.4249 123.106L22.5257 122.98C22.5846 122.875 22.6042 122.753 22.5809 122.635C22.5577 122.517 22.4932 122.412 22.399 122.337C22.3048 122.263 22.1871 122.225 22.0671 122.229C21.9471 122.234 21.8327 122.281 21.7445 122.363L21.6437 122.501L21.3162 122.917L20.9886 123.345L20.661 123.774L20.535 123.937ZM23.6596 120.019C23.2564 120.548 24.0376 121.153 24.4282 120.662L24.7053 120.321L25.0203 119.944L25.3353 119.578L25.6503 119.213V119.15C26.0661 118.621 25.2849 118.003 24.8943 118.495V118.57L24.5794 118.936L24.2644 119.314L23.9494 119.692L23.6722 120.032L23.6596 120.019ZM26.948 116.239C26.507 116.68 27.2126 117.386 27.6787 116.907L27.7921 116.781L28.0945 116.454L28.3969 116.126L28.6993 115.811L28.9891 115.496C29.4426 115.042 28.7371 114.337 28.2709 114.803L27.9685 115.118L27.6661 115.433L27.3638 115.761L27.0614 116.088L26.948 116.214V116.239ZM30.438 112.636L30.3624 112.46L30.2994 112.283L30.2364 112.107V111.93V111.754C30.1979 111.629 30.1113 111.524 29.9955 111.462C29.8798 111.401 29.7443 111.388 29.619 111.426C29.4937 111.465 29.3888 111.552 29.3274 111.667C29.2659 111.783 29.253 111.919 29.2914 112.044L29.3544 112.233L29.4174 112.422L29.4804 112.611L29.556 112.8L29.6316 112.989L29.7072 113.178L29.7828 113.354L29.871 113.543L29.9592 113.72L30.0474 113.896C30.1059 114.015 30.2091 114.105 30.3343 114.148C30.4595 114.19 30.5965 114.181 30.7151 114.123C30.8338 114.064 30.9243 113.961 30.9668 113.836C31.0094 113.711 31.0004 113.574 30.9419 113.455C31.0093 113.461 31.0771 113.451 31.1403 113.427C31.2035 113.403 31.2606 113.365 31.3073 113.316L31.4837 113.14L31.7609 112.875L32.0381 112.611L32.3152 112.346L32.5924 112.094L32.7436 111.956C33.2098 111.489 32.5168 110.771 32.0759 111.225L31.9247 111.363L31.6475 111.628L31.3703 111.893L31.0805 112.157L30.7907 112.434L30.6144 112.611L30.438 112.636ZM34.2177 109.285C34.1158 109.368 34.0512 109.489 34.0382 109.62C34.0252 109.751 34.0649 109.882 34.1484 109.984C34.232 110.086 34.3526 110.15 34.4837 110.163C34.6148 110.176 34.7458 110.137 34.8477 110.053L35.1123 109.839L35.3768 109.625L35.6288 109.423L35.8934 109.222L36.1454 109.02L36.3722 108.856C36.4515 108.77 36.4982 108.658 36.5042 108.541C36.5101 108.424 36.475 108.308 36.4048 108.214C36.3346 108.12 36.2338 108.053 36.1197 108.026C36.0057 107.998 35.8855 108.011 35.78 108.063L35.5532 108.239L35.2886 108.44L35.0241 108.642L34.7595 108.856L34.4949 109.07L34.2303 109.285H34.2177ZM38.2998 106.311C38.1879 106.381 38.1084 106.493 38.0789 106.622C38.0493 106.751 38.0722 106.886 38.1423 106.998C38.2125 107.11 38.3243 107.189 38.4531 107.219C38.5818 107.248 38.7171 107.226 38.829 107.155L39.0684 107.004L39.3078 106.866L39.5472 106.727L39.7739 106.588L40.0007 106.45L40.2275 106.324L40.4543 106.198C40.5522 106.126 40.6211 106.022 40.6485 105.904C40.6758 105.786 40.6596 105.662 40.603 105.555C40.5464 105.448 40.4531 105.365 40.3401 105.321C40.2272 105.277 40.1022 105.275 39.9881 105.316L39.7487 105.442L39.5094 105.58L39.27 105.719L39.0306 105.858L38.7912 105.996L38.5518 106.147L38.3124 106.299L38.2998 106.311ZM42.7473 103.993C42.642 104.052 42.5613 104.147 42.5199 104.26C42.4786 104.374 42.4794 104.498 42.5221 104.611C42.5648 104.724 42.6467 104.818 42.7528 104.876C42.8588 104.933 42.9821 104.951 43.1001 104.925H43.2513L43.4529 104.85L43.6545 104.774L43.8561 104.711L44.0577 104.648H44.2592H44.4608H44.6624H44.8514H44.9522C45.066 104.604 45.1597 104.519 45.2159 104.411C45.2721 104.302 45.2869 104.177 45.2576 104.058C45.2284 103.939 45.157 103.836 45.0567 103.766C44.9565 103.696 44.8343 103.665 44.7128 103.678H44.5994H44.3978H44.1962L44.0073 103.565L43.7931 103.628L43.5789 103.703L43.3647 103.779L43.1505 103.854L42.9363 103.93H42.7851L42.7473 103.993ZM47.787 102.909C47.655 102.909 47.5284 102.962 47.4351 103.055C47.3418 103.149 47.2893 103.275 47.2893 103.407C47.2893 103.539 47.3418 103.666 47.4351 103.759C47.5284 103.852 47.655 103.905 47.787 103.905H49.3367H49.4879H49.6391C49.7036 103.916 49.7698 103.915 49.8338 103.901C49.8979 103.887 49.9585 103.861 50.0124 103.823C50.0662 103.786 50.1121 103.738 50.1475 103.683C50.1829 103.628 50.2071 103.566 50.2186 103.502C50.2302 103.437 50.229 103.371 50.215 103.307C50.201 103.243 50.1745 103.182 50.1371 103.128C50.0997 103.075 50.052 103.029 49.9968 102.993C49.9416 102.958 49.88 102.934 49.8155 102.922H49.6517H49.4879H49.3241H47.787V102.909ZM52.8267 104.081C52.7135 104.036 52.5878 104.034 52.4729 104.074C52.3581 104.115 52.2618 104.195 52.2018 104.302C52.1419 104.408 52.1224 104.532 52.1469 104.651C52.1715 104.77 52.2384 104.877 52.3353 104.951H52.4487L52.5621 105.013L52.6755 105.089L52.7889 105.165L52.9023 105.24L53.0157 105.316L53.1291 105.391L53.2424 105.467L53.3558 105.543L53.4692 105.631L53.57 105.719L53.6708 105.807L53.7716 105.895L53.8724 105.984C54.3134 106.425 55.0063 105.719 54.5402 105.24L54.4268 105.139L54.3134 105.039L54.2 104.938L54.0866 104.85L53.9732 104.762L53.8472 104.673L53.7212 104.585L53.5952 104.497L53.4692 104.409L53.3432 104.321L53.2172 104.245L53.0913 104.169L52.9527 104.094H52.8393L52.8267 104.081ZM56.6064 107.71C56.5275 107.623 56.4209 107.567 56.305 107.551C56.1891 107.534 56.071 107.559 55.9712 107.62C55.8713 107.681 55.7958 107.775 55.7577 107.885C55.7196 107.996 55.7212 108.117 55.7623 108.226L55.8379 108.34L55.9135 108.466L55.9765 108.592L56.0395 108.718L56.1025 108.844L56.1655 108.97V109.096V109.222V109.348V109.474V109.6V109.726V109.852C56.2285 109.95 56.324 110.024 56.4354 110.06C56.5468 110.096 56.6673 110.092 56.7761 110.048C56.8849 110.005 56.9753 109.925 57.0317 109.823C57.0881 109.72 57.107 109.601 57.0852 109.486V109.348V109.209V109.07L57.0222 108.932L56.9592 108.793L56.8962 108.655L56.8206 108.516L56.745 108.377L56.6694 108.239L56.5938 108.113L56.5182 107.974L56.4426 107.848L56.367 107.722L56.6064 107.71ZM58.4081 112.523C58.3706 112.405 58.2913 112.306 58.1853 112.243C58.0793 112.18 57.9539 112.158 57.8329 112.181C57.7119 112.204 57.6036 112.271 57.5285 112.369C57.4534 112.467 57.4167 112.589 57.4254 112.712V112.825V113.064V113.304V113.543V113.783V114.009V114.236V114.463V114.639C57.4513 114.758 57.5193 114.863 57.6168 114.936C57.7142 115.009 57.8347 115.044 57.9559 115.034C58.0771 115.025 58.1909 114.972 58.2763 114.886C58.3617 114.799 58.413 114.685 58.4207 114.564V114.375V114.135V113.896V113.657V113.417V113.165V112.913V112.661V112.548L58.4081 112.523ZM58.5971 117.663C58.602 117.541 58.5627 117.422 58.4865 117.327C58.4103 117.232 58.3023 117.168 58.1826 117.147C58.0628 117.125 57.9392 117.148 57.8348 117.21C57.7304 117.273 57.6521 117.371 57.6143 117.487V117.613V117.789V117.965V118.129V118.293V118.457V118.621V118.772V118.923V119.074V119.225V119.301C57.3876 119.931 58.3199 120.271 58.5341 119.679V119.578L58.5971 119.414V119.238V119.062V118.885V118.709V118.532V118.343V118.154V117.965V117.776V117.65V117.663ZM56.2662 122.325C56.7324 121.859 56.0269 121.153 55.5859 121.607H55.5229L55.4221 121.707L55.3087 121.796L55.1953 121.884L55.0819 121.972L54.9685 122.06L54.8551 122.148L54.7417 122.237L54.6283 122.312L54.5024 122.388L54.3764 122.463L54.2504 122.539L54.1244 122.615C54.0265 122.686 53.9575 122.79 53.9302 122.908C53.9029 123.026 53.919 123.15 53.9757 123.257C54.0323 123.364 54.1256 123.448 54.2385 123.492C54.3515 123.535 54.4764 123.537 54.5906 123.496L54.7291 123.421L54.8677 123.333L55.0063 123.244L55.1449 123.156L55.2835 123.068L55.4221 122.967L55.5481 122.867L55.6741 122.766L55.8001 122.665L55.9261 122.564L56.0521 122.451L56.178 122.337L56.241 122.274L56.2662 122.325ZM51.5668 124.643C51.6954 124.618 51.8088 124.543 51.8821 124.434C51.9553 124.325 51.9824 124.192 51.9573 124.063C51.9323 123.935 51.8571 123.821 51.7484 123.748C51.6397 123.675 51.5064 123.648 51.3778 123.673H51.214H51.0502H50.8864H50.7226H50.5588H50.395H50.2312H49.5005C49.3685 123.673 49.2419 123.725 49.1486 123.819C49.0553 123.912 49.0028 124.039 49.0028 124.171C49.0028 124.303 49.0553 124.429 49.1486 124.522C49.2419 124.616 49.3685 124.668 49.5005 124.668H50.3068H50.4832H50.6596H50.836H51.0124H51.1888H51.3652H51.5416L51.5668 124.643ZM46.4389 124.769C46.5692 124.786 46.7008 124.75 46.8048 124.67C46.9088 124.589 46.9766 124.471 46.9933 124.341C47.01 124.21 46.9742 124.079 46.8939 123.975C46.8135 123.871 46.6952 123.803 46.5649 123.786H46.5271H46.3381H46.1491H45.9601H45.7711H45.5822H45.3932H45.2042H45.0152H44.8262H44.6624C44.5987 123.772 44.5329 123.771 44.4686 123.782C44.4044 123.794 44.343 123.818 44.288 123.853C44.2331 123.888 44.1855 123.933 44.1482 123.987C44.1108 124.04 44.0843 124.101 44.0703 124.164C44.0562 124.228 44.0548 124.294 44.0662 124.358C44.0776 124.422 44.1015 124.484 44.1366 124.539C44.1717 124.594 44.2173 124.641 44.2708 124.678C44.3242 124.716 44.3845 124.742 44.4482 124.756H44.612H44.8136H45.0152H45.2168H45.4184H45.6199H45.8089H45.9979H46.1995H46.4011L46.4389 124.769ZM41.5 123.509C41.6166 123.53 41.7368 123.508 41.8393 123.449C41.9419 123.39 42.0203 123.297 42.0609 123.185C42.1015 123.074 42.1016 122.952 42.0613 122.841C42.0209 122.73 41.9426 122.636 41.8402 122.577L41.6512 122.514L41.4622 122.438L41.2732 122.363L41.0843 122.287L40.8953 122.211L40.7063 122.136L40.5173 122.06L40.3283 121.985L40.1393 121.896H40.0511C39.9924 121.869 39.9288 121.854 39.8641 121.851C39.7994 121.848 39.7348 121.858 39.674 121.88C39.6131 121.903 39.5573 121.937 39.5096 121.98C39.4619 122.024 39.4233 122.077 39.396 122.136C39.3687 122.195 39.3532 122.258 39.3505 122.323C39.3477 122.387 39.3577 122.452 39.38 122.513C39.4022 122.574 39.4362 122.63 39.48 122.677C39.5238 122.725 39.5766 122.764 39.6354 122.791H39.7361L39.9251 122.879L40.1141 122.967L40.3031 123.056L40.4921 123.131L40.6811 123.207L40.8701 123.282L41.0591 123.358L41.248 123.433L41.437 123.509H41.5ZM36.9265 121.279C37.0371 121.327 37.1611 121.333 37.2761 121.298C37.3911 121.262 37.4894 121.186 37.5534 121.084C37.6174 120.982 37.6427 120.86 37.6248 120.741C37.6068 120.622 37.5469 120.514 37.4557 120.435L37.2793 120.321L37.1155 120.208L36.9517 120.095L36.7879 119.981L36.6241 119.868L36.4478 119.818L36.284 119.704L36.1202 119.591L35.9564 119.465L35.843 119.377C35.7371 119.317 35.6133 119.298 35.4945 119.323C35.3757 119.348 35.2698 119.414 35.1962 119.511C35.1227 119.608 35.0864 119.727 35.0941 119.848C35.1019 119.97 35.153 120.084 35.2382 120.17L35.3516 120.258L35.5154 120.384L35.6918 120.51L35.8682 120.636L36.0446 120.75L36.221 120.876L36.3974 120.989L36.5738 121.103L36.7501 121.216L36.9265 121.329V121.279ZM32.9326 118.117C33.0283 118.191 33.1478 118.229 33.269 118.223C33.3903 118.216 33.5051 118.166 33.5925 118.082C33.6799 117.998 33.7339 117.885 33.7446 117.764C33.7553 117.643 33.722 117.522 33.6507 117.424L33.5752 117.335L33.4366 117.197L33.298 117.058L33.172 116.92L33.046 116.781L32.92 116.63L32.794 116.479L32.668 116.328L32.542 116.176L32.416 116.025C32.3358 115.922 32.2178 115.854 32.0878 115.838C31.9579 115.821 31.8267 115.857 31.7231 115.937C31.6195 116.017 31.552 116.135 31.5355 116.265C31.5189 116.395 31.5547 116.526 31.6349 116.63V116.706L31.7609 116.869L31.8869 117.02L32.0129 117.172L32.1514 117.323L32.29 117.474L32.4286 117.625L32.5672 117.776L32.7058 117.928L32.8444 118.079L32.92 118.167L32.9326 118.117ZM28.5229 109.007C28.5418 109.126 28.6023 109.234 28.6935 109.311C28.7847 109.389 28.9007 109.432 29.0206 109.432C29.1404 109.432 29.2564 109.389 29.3476 109.311C29.4388 109.234 29.4993 109.126 29.5182 109.007V107.092C29.5186 106.968 29.4732 106.849 29.3907 106.756C29.3083 106.663 29.1945 106.604 29.0713 106.59C28.9481 106.576 28.824 106.608 28.7228 106.68C28.6216 106.752 28.5504 106.858 28.5229 106.979V107.055V107.269V109.058V109.007ZM29.1906 103.968C29.1522 104.093 29.1651 104.229 29.2266 104.344C29.288 104.46 29.3929 104.547 29.5182 104.585C29.6435 104.624 29.779 104.611 29.8947 104.549C30.0105 104.488 30.0972 104.383 30.1356 104.258V104.182L30.2112 103.968L30.2868 103.754L30.3624 103.539L30.438 103.325L30.5136 103.111L30.5892 102.897L30.6647 102.683L30.7529 102.468C30.8047 102.347 30.806 102.209 30.7563 102.086C30.7067 101.963 30.6103 101.865 30.4884 101.813C30.3664 101.762 30.2288 101.76 30.106 101.81C29.9831 101.86 29.885 101.956 29.8332 102.078L29.745 102.305L29.6568 102.531L29.5686 102.758L29.493 102.985L29.4174 103.212L29.3418 103.439L29.2662 103.665L29.1906 103.892V103.968ZM31.2443 99.2935C31.1758 99.4054 31.1546 99.54 31.1853 99.6676C31.216 99.7952 31.2962 99.9053 31.4081 99.9738C31.52 100.042 31.6546 100.064 31.7822 100.033C31.9098 100.002 32.02 99.922 32.0885 99.8101L32.2018 99.6337L32.3152 99.4447L32.4286 99.2557L32.5546 99.0667L32.6806 98.8777L32.8066 98.6887L32.9326 98.4997L33.0586 98.3107L33.1594 98.1722C33.55 97.6682 32.7562 97.0634 32.353 97.5926L32.2522 97.7312L32.1137 97.9202L31.9751 98.1092L31.8491 98.2982L31.7231 98.4997L31.5971 98.7013L31.4711 98.9029L31.3451 99.1045L31.2317 99.2809L31.2443 99.2935ZM34.3059 95.2365C33.8523 95.6901 34.5579 96.3831 35.0367 95.9169V95.8539L35.2004 95.6901L35.3642 95.5263L35.528 95.3626L35.6918 95.1988L35.8556 95.035L36.0194 94.8712L36.1832 94.7074L36.3596 94.5436C36.8257 94.0774 36.1328 93.3719 35.6918 93.8128L35.5154 93.9766L35.339 94.1404L35.1626 94.3042L34.9863 94.4806L34.8225 94.6444L34.6587 94.8208L34.4949 94.9972L34.3311 95.1735V95.2365H34.3059ZM38.0857 91.8474C38.0004 91.9338 37.9493 92.0481 37.9416 92.1692C37.9338 92.2903 37.9701 92.4101 38.0436 92.5066C38.1172 92.6032 38.2231 92.6699 38.3419 92.6946C38.4607 92.7194 38.5845 92.7003 38.6904 92.6411L38.7912 92.5655L38.9802 92.4143L39.1692 92.2757L39.3708 92.1371L39.5724 91.9986L39.7739 91.86L39.9755 91.7214L40.1771 91.5828L40.2905 91.5072C40.3778 91.4244 40.4325 91.3131 40.4449 91.1935C40.4573 91.0738 40.4264 90.9537 40.3579 90.8548C40.2895 90.7559 40.1879 90.6847 40.0715 90.6542C39.9552 90.6236 39.8318 90.6357 39.7235 90.6883L39.6102 90.7638L39.4086 90.9024L39.207 91.0536L39.0054 91.2048L38.8038 91.356L38.6022 91.5072L38.4006 91.6584L38.199 91.8096L38.0983 91.8852L38.0857 91.8474ZM42.2812 89.0378C42.2249 89.0709 42.1757 89.1147 42.1364 89.1668C42.0971 89.2189 42.0685 89.2782 42.0521 89.3414C42.0357 89.4046 42.0319 89.4704 42.041 89.535C42.05 89.5996 42.0717 89.6619 42.1048 89.7181C42.1379 89.7744 42.1817 89.8236 42.2338 89.8629C42.2859 89.9022 42.3453 89.9308 42.4084 89.9472C42.4716 89.9636 42.5374 89.9674 42.602 89.9583C42.6667 89.9493 42.7289 89.9276 42.7851 89.8945L42.8985 89.8189L43.1127 89.6929L43.3269 89.5669L43.5411 89.4409L43.7679 89.3149L43.9947 89.1889L44.2214 89.063L44.4482 88.937C44.5652 88.8752 44.6528 88.7694 44.6918 88.643C44.7308 88.5166 44.7179 88.3799 44.6561 88.2629C44.5943 88.146 44.4886 88.0584 44.3621 88.0194C44.2357 87.9804 44.099 87.9932 43.9821 88.055L43.7553 88.181L43.5285 88.307L43.3017 88.433L43.0749 88.559L42.8481 88.685L42.6214 88.811L42.3946 88.937L42.2812 89.0126V89.0378ZM46.7287 86.6817C46.633 86.7509 46.5646 86.8514 46.5354 86.9659C46.5063 87.0803 46.5183 87.2014 46.5693 87.3079C46.6203 87.4144 46.7071 87.4996 46.8145 87.5487C46.9219 87.5977 47.0432 87.6075 47.157 87.5763H47.2326L47.472 87.4629L47.7114 87.3495L47.9508 87.2361L48.1902 87.1227L48.4296 87.0093L48.6689 86.8959L48.9083 86.7951C49.5131 86.4927 49.0721 85.5982 48.5052 85.888L48.2658 86.0014L48.0264 86.1147L47.787 86.2282L47.5476 86.3415L47.3082 86.4549L47.0689 86.5683L46.8295 86.6817H46.7539H46.7287ZM51.3148 84.6659C51.2055 84.7238 51.1213 84.82 51.0783 84.936C51.0353 85.052 51.0365 85.1798 51.0817 85.295C51.1268 85.4102 51.2128 85.5047 51.3231 85.5606C51.4335 85.6166 51.5606 85.6299 51.6801 85.5982H51.8313L52.0833 85.4974L52.3353 85.3966L52.5873 85.2958L52.8393 85.195L53.0913 85.0942L53.3432 84.9934L53.5322 84.9178C53.5934 84.8947 53.6495 84.8597 53.6972 84.8148C53.7449 84.77 53.7833 84.7162 53.8102 84.6566C53.8371 84.5969 53.852 84.5325 53.854 84.4671C53.856 84.4017 53.8452 84.3365 53.822 84.2753C53.7988 84.2141 53.7638 84.158 53.719 84.1103C53.6742 84.0626 53.6204 84.0242 53.5607 83.9973C53.5011 83.9704 53.4367 83.9555 53.3713 83.9535C53.3058 83.9515 53.2407 83.9623 53.1794 83.9855L52.9779 84.0611L52.7259 84.1619L52.4739 84.2627L52.2219 84.3635L51.9699 84.4643L51.7179 84.5651L51.466 84.6659H51.3148ZM56.0143 82.9272C55.9041 82.9815 55.8176 83.0742 55.771 83.1878C55.7244 83.3014 55.7209 83.4282 55.7611 83.5442C55.8013 83.6602 55.8825 83.7576 55.9895 83.8179C56.0964 83.8783 56.2217 83.8976 56.3418 83.8721L56.5938 83.7839L56.8458 83.6957L57.0978 83.6075L57.3498 83.5193L57.6018 83.4311L57.8537 83.3429L58.1057 83.2548C58.2102 83.1994 58.2919 83.1091 58.3366 82.9996C58.3812 82.8901 58.3859 82.7684 58.3499 82.6558C58.3138 82.5431 58.2393 82.4468 58.1394 82.3835C58.0395 82.3203 57.9206 82.2942 57.8033 82.3098L57.5388 82.398L57.2868 82.4862L57.0222 82.5744L56.7702 82.6626L56.5056 82.7508L56.2536 82.839L55.9891 82.9272H56.0143ZM60.7767 81.3775C60.7147 81.3965 60.657 81.4276 60.607 81.4689C60.5569 81.5102 60.5155 81.561 60.4851 81.6183C60.4547 81.6756 60.4358 81.7384 60.4297 81.803C60.4235 81.8676 60.4301 81.9328 60.4492 81.9948C60.4682 82.0569 60.4993 82.1146 60.5406 82.1646C60.5819 82.2147 60.6327 82.2561 60.69 82.2865C60.7473 82.3169 60.8101 82.3357 60.8747 82.3419C60.9393 82.348 61.0045 82.3414 61.0665 82.3224L61.2807 82.2594L61.5327 82.1838L61.7847 82.1082L62.0367 82.0326L62.2886 81.957L62.5406 81.8814L62.7926 81.8058H62.9438C63.0708 81.7691 63.178 81.6834 63.2417 81.5676C63.3055 81.4518 63.3207 81.3155 63.284 81.1885C63.2472 81.0615 63.1615 80.9543 63.0457 80.8905C62.93 80.8268 62.7936 80.8116 62.6666 80.8483H62.5154L62.2634 80.9239L62.0115 80.9995L61.7595 81.0751L61.4949 81.1507L61.2429 81.2263L60.9783 81.3019L60.7641 81.3649L60.7767 81.3775ZM65.577 79.9538C65.4673 80.0041 65.3793 80.0922 65.329 80.202C65.2787 80.3118 65.2695 80.436 65.3031 80.5519C65.3367 80.6679 65.4108 80.768 65.5119 80.8339C65.6131 80.8999 65.7345 80.9274 65.8542 80.9113L66.1062 80.8357L66.3582 80.7601L66.6102 80.6845L66.8621 80.6089L67.1141 80.5333L67.3661 80.4577L67.6181 80.3821H67.7315C67.8391 80.3316 67.9253 80.2446 67.975 80.1365C68.0246 80.0285 68.0345 79.9064 68.0028 79.7918C67.9711 79.6773 67.9 79.5775 67.8019 79.5103C67.7039 79.4431 67.5852 79.4128 67.4669 79.4246H67.3535L67.1015 79.5002L66.8495 79.5758L66.6857 79.6262L66.4338 79.7018L66.1818 79.7774L65.9298 79.853L65.6778 79.9286L65.577 79.9538ZM70.3899 78.6057C70.2629 78.6407 70.1551 78.7248 70.0901 78.8394C70.0251 78.954 70.0083 79.0897 70.0434 79.2167C70.0785 79.3437 70.1626 79.4515 70.2772 79.5165C70.3918 79.5815 70.5275 79.5983 70.6545 79.5632H70.8687L71.1081 79.5002L71.3474 79.4372L71.5868 79.3742L71.8262 79.3112L72.0656 79.2482L72.305 79.1852L72.5444 79.1222C72.6519 79.0716 72.7382 78.9847 72.7878 78.8766C72.8375 78.7686 72.8474 78.6465 72.8157 78.5319C72.784 78.4173 72.7129 78.3176 72.6148 78.2504C72.5167 78.1832 72.3981 78.1529 72.2798 78.1647L72.0404 78.2277L71.801 78.2907L71.5616 78.3537L71.3222 78.4167L71.0829 78.4797L70.8435 78.5427L70.6041 78.6057H70.3899ZM75.1902 77.2575C75.0632 77.2943 74.956 77.38 74.8922 77.4958C74.8284 77.6116 74.8132 77.7479 74.85 77.8749C74.8868 78.0019 74.9725 78.1091 75.0882 78.1729C75.204 78.2366 75.3404 78.2518 75.4674 78.2151H75.5556L75.7823 78.1521L76.0091 78.0891L76.2359 78.0261L76.4627 77.9631L76.6769 77.9001L76.8911 77.8371L77.1053 77.7741L77.3194 77.7111C77.432 77.6614 77.5224 77.5722 77.5738 77.4604C77.6251 77.3486 77.6338 77.2219 77.5981 77.1042C77.5625 76.9864 77.485 76.8858 77.3803 76.8212C77.2756 76.7566 77.1509 76.7326 77.0297 76.7536L76.8155 76.8166L76.6013 76.8796L76.3871 76.9426L76.1729 77.0056L75.9587 77.0686L75.7319 77.1316L75.5052 77.1946L75.2784 77.2575H75.1902Z" fill="#B9C95E"/>
</svg>
