<svg width="70" height="53" viewBox="0 0 70 53" fill="none" xmlns="http://www.w3.org/2000/svg">
<path d="M7.06476 5.56941H7.14868L8.14814 5.76015L10.2005 5.3863L18.3105 3.90619L34.7748 0.854424L35.3776 0.762871V0.518729C35.3776 0.396658 35.5683 0.327993 35.759 0.305105C35.6612 0.281762 35.5593 0.281762 35.4615 0.305105L6.99609 5.53126H6.93506H6.99609L7.06476 5.56941Z" fill="#333945" stroke="#333945" stroke-width="0.75" stroke-miterlimit="10"/>
<path d="M35.3774 0.518929V10.5898L36.1404 10.4448V0.763071L61.8821 5.7222L62.7289 5.56961H62.8205H62.9731L36.0794 0.335823C35.9741 0.310259 35.8642 0.310259 35.7589 0.335823C35.5605 0.328194 35.3774 0.404488 35.3774 0.518929Z" fill="#333945" stroke="#333945" stroke-width="0.75" stroke-miterlimit="10"/>
<path d="M6.91237 5.58464H7.07258H6.99629H6.93525C6.73689 5.58464 6.53852 5.58464 6.56904 5.69908C6.6657 5.62034 6.7878 5.57964 6.91237 5.58464Z" fill="#333945" stroke="#333945" stroke-width="0.75" stroke-miterlimit="10"/>
<path d="M34.897 52.4446C35.0724 52.4827 35.2861 52.498 35.2861 52.3759V52.3225L35.1869 52.3759C35.0943 52.4133 34.9965 52.4364 34.897 52.4446Z" fill="#333945" stroke="#333945" stroke-width="0.75" stroke-miterlimit="10"/>
<path d="M34.4925 51.8802C30.571 49.721 26.6189 47.6382 22.5982 45.6622C20.4213 44.5941 18.2215 43.5768 15.9988 42.6104C15.0222 42.1832 14.038 41.7788 13.0462 41.3821C12.5045 41.1608 11.9475 40.9548 11.3982 40.7488C10.8489 40.5428 11.1007 38.9407 11.1007 38.5821C11.0365 30.314 10.3196 22.0638 8.95679 13.9085L8.19385 13.7178C9.66337 22.5989 10.3932 31.5867 10.3759 40.5886C10.3759 40.7107 10.5285 40.7717 10.62 40.8022C18.9208 43.854 26.802 48.0502 34.523 52.315C34.5001 52.1396 34.4925 52.0022 34.4925 51.8802Z" fill="#333945" stroke="#333945" stroke-width="0.75" stroke-miterlimit="10"/>
<path d="M62.7292 5.56177L61.8824 5.71436L36.1636 10.4446L35.4006 10.5896L34.3325 10.7803L62.775 5.56177H62.7292Z" fill="#333945" stroke="#333945" stroke-width="0.75" stroke-miterlimit="10"/>
<path d="M60.669 14.8239C59.4325 22.6489 58.767 30.5536 58.6777 38.4752C58.6777 38.9838 58.6777 39.4695 58.6777 39.9324C58.6777 40.8327 57.8538 40.8861 57.2358 41.1226C56.2592 41.4964 55.2903 41.8855 54.3213 42.3128C52.1012 43.2512 49.9115 44.2812 47.7448 45.3645C43.4876 47.3787 39.3829 49.5912 35.2859 51.8267C35.2249 40.2604 34.7671 28.7019 34.6527 17.1356C34.6527 15.4495 34.6145 13.7634 34.6527 12.0773L34.2559 11.5051L33.7982 12.0392C33.6608 13.8397 33.844 15.7547 33.8668 17.5171C33.9126 21.8583 33.9965 26.1994 34.0805 30.5406C34.2178 37.6435 34.4619 44.7542 34.5001 51.8648C34.5001 52.0021 34.5001 52.1471 34.5001 52.2844C34.5001 52.4141 34.7061 52.4294 34.8968 52.4141C34.9964 52.406 35.0941 52.3828 35.1867 52.3455L35.2859 52.292C43.0298 48.0653 50.9415 43.8158 59.2652 40.764C59.3339 40.764 59.4483 40.703 59.4483 40.6114C59.4299 31.9069 60.1059 23.2149 61.4701 14.6179L60.669 14.8239Z" fill="#333945" stroke="#333945" stroke-width="0.75" stroke-miterlimit="10"/>
<path d="M8.9645 13.8702L27.7787 18.4478C27.9465 18.486 28.2364 18.5089 28.3661 18.3639L33.7983 12.0544L34.2561 11.5203L33.9356 11.0626C33.8288 10.9023 34.2026 10.826 34.2866 10.8108H34.3324L8.14815 5.76773L7.1487 5.57699H7.06477H6.90456C6.78469 5.56101 6.66305 5.58805 6.56123 5.65329L0.305101 11.6271C0.213548 11.7187 0.442431 11.8026 0.488208 11.8102L8.17104 13.6718L8.9645 13.8702ZM3.77649 9.15519L7.15633 5.92032L27.1302 9.73503L32.0435 10.6811L33.5694 10.9786L33.8441 11.0244L27.7787 18.0664L8.78903 13.4887L0.953603 11.5585C1.52581 11.6958 3.14325 9.75029 3.77649 9.15519Z" fill="#333945" stroke="#333945" stroke-width="0.75" stroke-miterlimit="10"/>
<path d="M69.6947 12.3826L63.2173 5.61531H63.1716C63.1287 5.60707 63.0847 5.60707 63.0419 5.61531H62.8893H62.8435L34.3323 10.7804H34.2789C34.195 10.7804 33.8135 10.872 33.928 11.0322L34.2484 11.49L34.6451 12.0622L40.0544 19.8366C40.1383 19.9586 40.4359 19.9052 40.5503 19.8823L60.6691 14.8164L61.4778 14.6104L69.4277 12.6191C69.504 12.6039 69.8015 12.4971 69.6947 12.3826ZM40.6419 19.5314C40.6299 19.4476 40.5956 19.3685 40.5427 19.3025L38.5133 16.3804L34.7977 11.0398L62.5612 5.92049L67.0015 10.5668L68.8173 12.436L68.2833 12.5733L53.7874 16.2278L40.6419 19.5314Z" fill="#333945" stroke="#333945" stroke-width="0.75" stroke-miterlimit="10"/>
<path d="M27.9924 32.8066C28.8088 31.4104 29.4573 29.9226 30.2813 28.5264C30.327 28.4502 29.9684 28.3052 29.8998 28.4196C29.0834 29.8158 28.4349 31.3036 27.611 32.6997C27.5652 32.7608 27.9238 32.8981 27.9924 32.8066Z" fill="#333945" stroke="#333945" stroke-width="0.75" stroke-miterlimit="10"/>
<path d="M26.039 38.1472C25.9703 38.2463 26.3518 38.315 26.4128 38.2235C28.244 35.4832 29.8709 32.6119 31.2804 29.6327C31.3338 29.5183 30.9523 29.4573 30.9066 29.5564C29.4964 32.5352 27.8695 35.4065 26.039 38.1472Z" fill="#333945" stroke="#333945" stroke-width="0.75" stroke-miterlimit="10"/>
<path d="M30.8914 33.5694C28.7959 36.2627 26.9327 39.1289 25.3219 42.1373C25.2685 42.2441 25.6576 42.2899 25.7034 42.1907C27.3169 39.1822 29.1826 36.316 31.2805 33.6228C31.3415 33.5694 30.9601 33.4702 30.8914 33.5694Z" fill="#333945" stroke="#333945" stroke-width="0.75" stroke-miterlimit="10"/>
<path d="M31.0367 35.9653C29.6558 39.1086 27.0236 41.4737 25.7571 44.6781C25.719 44.7772 26.0928 44.8917 26.1386 44.7849C27.4051 41.5881 30.0449 39.2154 31.4182 36.0797C31.4563 35.9805 31.0901 35.8584 31.0367 35.9653Z" fill="#333945" stroke="#333945" stroke-width="0.75" stroke-miterlimit="10"/>
<path d="M31.3263 39.3983C30.1589 41.5193 28.6331 43.4114 27.4734 45.5018C27.4124 45.6163 27.7938 45.6926 27.8472 45.601C28.9916 43.4877 30.5175 41.6184 31.7001 39.4975C31.7611 39.383 31.3797 39.3067 31.3263 39.3983Z" fill="#333945" stroke="#333945" stroke-width="0.75" stroke-miterlimit="10"/>
<path d="M31.1738 42.3051C30.8458 43.3504 30.2125 44.2583 29.8921 45.3035C29.8921 45.3874 30.2507 45.4256 30.2888 45.3035C30.6169 44.2583 31.2501 43.3504 31.5706 42.3051C31.5935 42.2212 31.212 42.1754 31.1738 42.3051Z" fill="#333945" stroke="#333945" stroke-width="0.75" stroke-miterlimit="10"/>
<path d="M31.7461 45.7232C31.6348 45.9795 31.4912 46.2205 31.3189 46.4403C31.2655 46.509 31.6241 46.5395 31.7003 46.4403C31.8731 46.2207 32.0167 45.9796 32.1276 45.7232C32.181 45.6316 31.7995 45.6164 31.7461 45.7232Z" fill="#333945" stroke="#333945" stroke-width="0.75" stroke-miterlimit="10"/>
<path d="M32.0435 47.5466V47.9738C32.0435 48.1035 32.4326 48.1493 32.4326 48.0501V47.6229C32.4249 47.5008 32.0435 47.4474 32.0435 47.5466Z" fill="#333945" stroke="#333945" stroke-width="0.75" stroke-miterlimit="10"/>
<path d="M55.9769 30.1895C56.1247 29.8782 56.3175 29.5902 56.5491 29.335C56.6178 29.2664 56.2516 29.1977 56.1676 29.2816C55.9356 29.5366 55.7428 29.8245 55.5954 30.1361C55.542 30.2506 55.9235 30.2887 55.9769 30.1895Z" fill="#333945" stroke="#333945" stroke-width="0.75" stroke-miterlimit="10"/>
<path d="M54.8251 34.3324C55.6985 33.3035 56.4989 32.215 57.2207 31.0746C57.2894 30.9678 56.9079 30.8839 56.8469 30.9754C56.1165 32.1272 55.3058 33.226 54.4207 34.2637C54.3825 34.3324 54.7564 34.4468 54.8251 34.3324Z" fill="#333945" stroke="#333945" stroke-width="0.75" stroke-miterlimit="10"/>
<path d="M55.2448 35.8965C56.1651 35.0372 56.8999 33.9986 57.4039 32.8448C57.4497 32.7379 57.0606 32.7379 57.0224 32.8448C56.5373 33.9807 55.8261 35.0061 54.932 35.8584C54.787 35.9652 55.1685 35.9728 55.2448 35.8965Z" fill="#333945" stroke="#333945" stroke-width="0.75" stroke-miterlimit="10"/>
<path d="M57.4113 35.0115C57.4113 34.9276 57.0527 34.9047 57.0146 35.0115C56.4424 37.1019 54.4282 38.46 53.0244 39.9859C52.9634 40.0469 53.3296 40.1003 53.4059 39.9859C54.8173 38.4981 56.8315 37.1172 57.4113 35.0115Z" fill="#333945" stroke="#333945" stroke-width="0.75" stroke-miterlimit="10"/>
<path d="M57.1675 37.6892C56.4579 38.91 55.1914 39.6729 54.314 40.8249C54.2454 40.9165 54.6192 41.008 54.6879 40.9165C55.5653 39.795 56.8165 39.0168 57.5413 37.7732C57.61 37.674 57.2209 37.5901 57.1675 37.6892Z" fill="#333945" stroke="#333945" stroke-width="0.75" stroke-miterlimit="10"/>
<path d="M57.4419 39.3296C57.445 39.4763 57.3964 39.6194 57.3046 39.7339C57.2512 39.8026 57.6174 39.8255 57.6861 39.7339C57.79 39.6079 57.8419 39.4468 57.8311 39.2838C57.8387 39.177 57.4496 39.2075 57.4419 39.3296Z" fill="#333945" stroke="#333945" stroke-width="0.75" stroke-miterlimit="10"/>
</svg>
