<svg width="70" height="61" viewBox="0 0 70 61" fill="none" xmlns="http://www.w3.org/2000/svg">
<path d="M66.2863 34.2716C69.2316 32.4548 70.2881 28.493 68.6874 25.0034C67.0867 21.3297 65.2298 17.7361 63.3009 14.1985C61.372 10.6608 59.187 7.26729 56.882 4.00179C54.689 0.872364 50.7672 -0.29617 47.6938 1.28055C41.1708 4.62608 9.94854 22.2181 3.67368 26.0919C0.72833 27.9087 -0.328153 31.8705 1.27258 35.3601C2.87331 39.0338 4.73016 42.6275 6.65904 46.1651C8.58792 49.7027 10.8129 53.0882 13.118 56.3697C15.311 59.4992 19.2328 60.6677 22.3062 59.091C28.8132 55.7134 60.0274 38.1214 66.2863 34.2716Z" stroke="#333945" stroke-width="1.41" stroke-miterlimit="10"/>
<path d="M24.6754 52.552C25.0492 52.2924 25.3182 51.908 25.434 51.4679C25.5499 51.0279 25.5051 50.5609 25.3077 50.1509C24.8835 49.1904 24.4033 48.254 23.899 47.3256C23.3948 46.3971 22.8185 45.5167 22.2103 44.6603C21.9625 44.2728 21.5835 43.9874 21.1425 43.8566C20.7015 43.7258 20.2282 43.7582 19.8092 43.948C18.1124 44.8204 15.6633 46.189 14.0385 47.2215C13.6647 47.4811 13.3957 47.8655 13.2799 48.3055C13.164 48.7456 13.2088 49.2126 13.4062 49.6226C13.8304 50.5831 14.3106 51.5195 14.8149 52.4479C15.3191 53.3763 15.8954 54.2567 16.5036 55.1131C16.7514 55.5007 17.1304 55.7861 17.5714 55.9169C18.0124 56.0477 18.4857 56.0152 18.9047 55.8255C20.5935 54.937 23.0426 53.5524 24.6754 52.552Z" stroke="#333945" stroke-width="1.41" stroke-miterlimit="10"/>
<path d="M1.93701 36.8168C12.2057 31.1022 47.5579 11.053 57.7946 5.33838" stroke="#333945" stroke-width="1.41" stroke-miterlimit="10"/>
<path d="M4.31396 41.683C14.5827 35.9684 50.4871 15.5991 60.7558 9.87646" stroke="#333945" stroke-width="1.41" stroke-miterlimit="10"/>
<path d="M28.2127 43.2757C28.0677 43.179 27.9457 43.0518 27.8552 42.9029C27.7647 42.754 27.7079 42.5871 27.6888 42.4139C27.6697 42.2408 27.6888 42.0655 27.7448 41.9005C27.8007 41.7355 27.8922 41.5847 28.0126 41.4588C28.5372 40.9698 29.2108 40.671 29.9255 40.6105C30.6369 40.551 31.3195 40.3023 31.9024 39.8901C32.3676 39.3625 32.7434 38.7623 33.0149 38.1133C33.1554 37.7897 33.392 37.517 33.6927 37.3323C33.9933 37.1477 34.3435 37.0599 34.6957 37.0808C35.2239 37.2009 35.5681 37.6971 36.0563 37.9212C37.1608 38.4335 38.3534 37.385 38.9536 36.3205C39.5539 35.256 40.0501 33.9754 41.1947 33.5512C42.5073 33.063 44.06 33.9994 45.3406 33.4312C46.1409 33.087 46.5571 32.2867 47.0853 31.6304C48.0068 30.6045 49.0879 29.7343 50.2868 29.0532C51.0312 28.5098 51.8737 28.1157 52.7679 27.8926C53.3841 27.8641 53.9932 27.7483 54.5768 27.5485C55.8093 26.9322 55.9934 25.0273 57.274 24.5151C57.905 24.3788 58.5494 24.3144 59.1949 24.323C59.8352 24.227 60.5235 23.6507 60.2994 23.0344" stroke="#333945" stroke-width="1.41" stroke-miterlimit="10"/>
<path d="M30.814 47.8938C30.6673 47.7992 30.5431 47.6734 30.4504 47.5255C30.3576 47.3776 30.2984 47.2111 30.277 47.0378C30.2557 46.8645 30.2726 46.6887 30.3267 46.5226C30.3807 46.3566 30.4706 46.2045 30.5899 46.077C31.1144 45.5879 31.7881 45.2892 32.5027 45.2286C33.2142 45.1691 33.8967 44.9204 34.4796 44.5083C34.9449 43.9806 35.3207 43.3804 35.5921 42.7315C35.7327 42.4078 35.9693 42.1352 36.2699 41.9505C36.5705 41.7658 36.9207 41.678 37.2729 41.699C37.8012 41.8191 38.1453 42.3153 38.6335 42.5394C39.738 43.0516 40.9306 42.0031 41.5309 40.9387C42.1311 39.8742 42.6274 38.5936 43.7719 38.1694C45.0845 37.6812 46.6372 38.6176 47.9178 38.0493C48.7181 37.7052 49.1343 36.9048 49.6626 36.2485C50.584 35.2227 51.6651 34.3524 52.864 33.6713C53.6084 33.128 54.451 32.7339 55.3452 32.5108C55.9614 32.4823 56.5704 32.3664 57.154 32.1667C58.3866 31.5504 58.5706 29.6455 59.8512 29.1333C60.4822 28.997 61.1266 28.9325 61.7721 28.9412C62.4124 28.8451 63.1007 28.2689 62.8766 27.6526" stroke="#333945" stroke-width="1.41" stroke-miterlimit="10"/>
</svg>
