<svg width="70" height="68" viewBox="0 0 70 68" fill="none" xmlns="http://www.w3.org/2000/svg">
<path d="M35.0327 33.7711C35.759 28.6763 36.3406 23.5624 36.7774 18.4294C36.9167 16.7912 34.3938 16.7912 34.2546 18.4294C33.9679 21.9188 33.5829 25.3918 33.1406 28.8565C32.0813 26.3119 31.1038 23.7345 30.2083 21.1243C29.209 18.2083 27.4725 15.5462 26.5878 12.6384C26.1128 11.0903 23.6801 11.7538 24.1306 13.3101C25.1626 16.6929 27.0629 19.7809 28.226 23.1392C29.5366 26.9317 31.1256 30.6094 32.7638 34.2298C32.8322 34.3892 32.9381 34.5296 33.0725 34.639C33.2069 34.7485 33.3659 34.8238 33.5358 34.8584C33.7057 34.893 33.8814 34.886 34.0479 34.8378C34.2145 34.7897 34.3669 34.7019 34.4921 34.582C34.6099 34.5215 34.7137 34.4371 34.7969 34.3341C34.8802 34.2311 34.941 34.1119 34.9754 33.9841C35.0017 33.9152 35.0209 33.8439 35.0327 33.7711Z" fill="#333945"/>
<path d="M10.28 35.0983C10.0997 35.2212 10.1899 35.1721 9.97689 35.213C9.65558 35.303 9.38264 35.5159 9.21709 35.8056C9.05154 36.0953 9.0067 36.4386 9.09226 36.7611C9.17898 37.0879 9.39092 37.3674 9.68219 37.5391C9.97345 37.7108 10.3206 37.7609 10.6485 37.6785C10.9733 37.618 11.2825 37.4926 11.5577 37.3099C12.9011 36.3843 11.6397 34.1973 10.28 35.0983Z" fill="#333945"/>
<path d="M14.7933 16.1278C14.4656 15.9394 14.7114 16.1278 14.6377 15.9886C13.7776 14.6125 11.5906 15.8821 12.4589 17.2582C12.7218 17.6881 13.0878 18.0456 13.5237 18.2984C13.8093 18.4359 14.1362 18.4609 14.4393 18.3683C14.7425 18.2757 14.9997 18.0724 15.1597 17.7987C15.3198 17.5251 15.3709 17.2013 15.303 16.8917C15.2351 16.5821 15.0531 16.3093 14.7933 16.1278Z" fill="#333945"/>
<path d="M30.1918 7.47814C29.9544 8.22262 29.9177 9.01658 30.0854 9.7798C30.1788 10.0981 30.3932 10.3671 30.6825 10.5294C30.9718 10.6917 31.3131 10.7342 31.6335 10.648C31.9524 10.5544 32.2227 10.3408 32.3876 10.0522C32.5525 9.76357 32.5993 9.42229 32.5181 9.09995C32.4663 8.77675 32.5031 8.44555 32.6246 8.1416C33.1406 6.6017 30.7079 5.94643 30.1918 7.47814Z" fill="#333945"/>
<path d="M49.5638 13.638C49.3931 13.3504 49.1159 13.1418 48.7923 13.0574C48.4687 12.9731 48.1249 13.0198 47.8355 13.1875C47.3911 13.4883 46.9745 13.8282 46.5905 14.2031C46.3537 14.4399 46.2207 14.7611 46.2207 15.0959C46.2207 15.4308 46.3537 15.752 46.5905 15.9888C46.8273 16.2256 47.1485 16.3586 47.4833 16.3586C47.8182 16.3586 48.1394 16.2256 48.3761 15.9888C48.6001 15.7599 48.844 15.5515 49.1051 15.3662C49.3909 15.194 49.5984 14.9174 49.684 14.5949C49.7696 14.2724 49.7265 13.9293 49.5638 13.638Z" fill="#333945"/>
<path d="M57.8941 30.8224C57.4362 30.7854 56.9753 30.8157 56.5262 30.9125C56.2049 31.0026 55.9319 31.2155 55.7664 31.5052C55.6009 31.7949 55.556 32.1381 55.6416 32.4606C55.7353 32.7796 55.9488 33.0499 56.2374 33.2148C56.526 33.3797 56.8673 33.4265 57.1897 33.3453C57.4205 33.3115 57.655 33.3115 57.8859 33.3453C58.0516 33.3453 58.2156 33.3126 58.3686 33.2492C58.5217 33.1858 58.6607 33.0929 58.7779 32.9758C58.895 32.8587 58.9879 32.7196 59.0513 32.5666C59.1147 32.4135 59.1473 32.2495 59.1473 32.0838C59.1411 31.7527 59.0073 31.4366 58.7738 31.2016C58.5404 30.9667 58.2252 30.8308 57.8941 30.8224Z" fill="#333945"/>
<path d="M53.2005 50.1041C52.9707 49.9883 52.7715 49.8199 52.6189 49.6127C52.448 49.3256 52.172 49.1163 51.8494 49.0291C51.5268 48.942 51.1829 48.9838 50.8906 49.1458C50.6031 49.3165 50.3944 49.5937 50.3101 49.9173C50.2257 50.2409 50.2725 50.5847 50.4401 50.8741C50.8222 51.4499 51.3324 51.9293 51.9309 52.2747C52.2165 52.4123 52.5434 52.4372 52.8466 52.3446C53.1497 52.252 53.4069 52.0487 53.5669 51.7751C53.727 51.5015 53.7781 51.1776 53.7102 50.868C53.6423 50.5584 53.4603 50.2857 53.2005 50.1041Z" fill="#333945"/>
<path d="M39.8411 55.8951V55.7395C39.4725 54.1586 37.0398 54.8303 37.3838 56.4111L37.564 57.1811C37.6249 57.3917 37.7394 57.583 37.8962 57.7362C38.053 57.8895 38.2469 57.9995 38.4588 58.0556C38.6708 58.1117 38.8937 58.1119 39.1058 58.0563C39.3179 58.0006 39.512 57.891 39.6691 57.738L39.8247 57.566C40.0413 57.3428 40.1638 57.0449 40.1668 56.7338C40.1699 56.4228 40.0532 56.1225 39.8411 55.8951Z" fill="#333945"/>
<path d="M25.3103 54.3716C25.3512 52.9054 23.3281 52.7744 22.853 53.9539C22.6861 54.0202 22.5333 54.1174 22.4025 54.2405C22.22 54.4305 22.0924 54.6664 22.0333 54.9232C21.9742 55.1799 21.9857 55.4478 22.0667 55.6985C22.1211 55.9153 22.2344 56.1128 22.394 56.2692C22.5536 56.4256 22.7534 56.5349 22.9712 56.5849C23.189 56.6349 23.4164 56.6237 23.6283 56.5526C23.8401 56.4814 24.0282 56.3531 24.1717 56.1818C24.3833 56.1115 24.5745 55.9906 24.7287 55.8296C25.1019 55.4358 25.31 54.9141 25.3103 54.3716Z" fill="#333945"/>
<path d="M65.6018 29.7739C63.6055 21.9935 59.2957 15.0017 53.2416 9.72246C46.9346 4.39833 37.7443 5.01265 29.9875 4.69321C28.1621 4.61878 26.3342 4.75622 24.5405 5.10276C23.3798 5.38184 22.2615 5.8143 21.215 6.38874C20.7317 6.62628 20.2321 6.75733 19.757 6.98668C19.159 7.28155 18.5775 7.59281 17.9877 7.89588C15.2698 9.30154 12.8716 11.2536 10.9435 13.6296C9.1206 15.926 7.70743 18.5196 6.7661 21.2963C5.79181 24.1264 5.22102 27.0795 5.07057 30.0688C4.90397 33.0556 5.127 36.0514 5.73404 38.9806C5.95414 40.0421 6.22751 41.0919 6.55314 42.1259C11.1565 56.5175 26.3589 64.5446 40.8897 62.0546C55.4204 59.5645 69.1813 45.0501 65.6018 29.7739ZM63.0708 43.6413C60.0156 50.2923 54.1672 55.469 47.6554 58.5816C33.9274 65.1344 16.9802 59.4007 9.72304 46.205C8.43349 43.8302 7.49541 41.2808 6.93811 38.6366C6.33588 35.9031 6.09355 33.1026 6.21731 30.3064C6.34159 27.5198 6.84873 24.7637 7.72444 22.1154C8.57326 19.5434 9.83777 17.1278 11.4677 14.9647C13.1071 12.7998 15.1622 10.9842 17.5126 9.62417C18.3891 9.12452 19.3147 8.70678 20.2321 8.28085C21.1494 7.85492 21.9849 7.37165 22.8777 7.00306C24.7053 6.2928 26.6507 5.9343 28.6114 5.94643H28.9145C32.7315 5.8809 36.614 6.33959 40.3818 6.59351C44.8951 6.89658 48.7039 7.83854 52.3079 10.6235C55.2894 12.9251 57.5255 16.1114 59.475 19.2813C64.1848 26.8252 66.9206 35.2209 63.0708 43.6413Z" fill="#333945"/>
<path d="M68.0917 22.0582C66.5681 18.4623 64.8972 14.9812 62.2106 12.0406C58.4263 7.89599 53.0612 5.48785 47.9665 3.39096C42.4294 1.10568 37.5148 -0.614422 31.4862 0.212865C26.3005 0.925331 21.2255 2.29039 16.3821 4.27558C16.3046 4.24176 16.2209 4.2243 16.1364 4.2243C16.0518 4.2243 15.9681 4.24176 15.8906 4.27558C15.4483 4.49674 15.0142 4.75066 14.5883 5.00458L14.105 5.20935C14.0396 5.23623 13.9803 5.27627 13.931 5.327C13.8817 5.37773 13.8433 5.43805 13.8183 5.50423C6.99525 10.1567 2.71137 19.1422 1.00765 26.8007C-0.102329 32.0683 -0.30455 37.4867 0.409713 42.8223C0.819261 46.3853 1.63836 50.104 4.25128 52.6514C6.36435 55.3411 8.82069 57.7424 11.5576 59.794C15.1944 62.5789 18.7247 65.4621 23.2625 66.5433C31.8958 68.6074 42.1836 68.1078 50.3418 64.5775C57.7137 61.383 63.3819 54.9695 66.7238 47.7778C68.5491 43.6023 69.6089 39.1327 69.8527 34.5822C70.0821 31.0682 70.3851 25.0397 68.0917 22.0582ZM68.5586 34.6067C68.3034 39.3067 67.1407 43.9129 65.1347 48.171C62.0645 54.6189 56.9347 59.8611 50.5548 63.0703C42.7324 67.0757 33.1654 66.7563 24.6959 65.5276C20.4202 64.8969 17.2176 62.4314 13.8347 59.9496C11.0096 57.9443 8.42832 55.616 6.14339 53.0118C6.16546 52.9172 6.1585 52.8182 6.12344 52.7276C6.08837 52.637 6.02682 52.5591 5.94681 52.504C5.71301 52.3219 5.48882 52.1278 5.27515 51.9224C5.02942 51.6112 4.76731 51.3163 4.53796 50.9887C4.47049 50.8982 4.37997 50.8275 4.27585 50.7839C2.17896 47.9416 1.76122 44.0263 1.42539 40.5698C0.998001 35.6966 1.34635 30.7866 2.45745 26.0226C4.09565 18.8391 8.6744 10.2222 15.1862 6.15951C19.7913 4.10893 24.6299 2.62904 29.5941 1.75277C32.6263 1.12443 35.7452 1.03294 38.809 1.48247C41.471 1.94116 44.043 3.1698 46.5412 4.14453C51.6033 6.14313 56.5178 8.45298 60.5642 12.1717C63.603 14.9566 65.3395 18.6671 66.8958 22.4186C66.9073 22.5203 66.947 22.6167 67.0105 22.6971C67.4036 23.6472 67.7886 24.5974 68.1736 25.5393C68.2043 25.6058 68.2458 25.6667 68.2964 25.7195C68.9517 28.5946 68.6732 32.1167 68.5667 34.6067H68.5586Z" fill="#333945"/>
</svg>
