<svg width="199" height="325" viewBox="0 0 199 325" fill="none" xmlns="http://www.w3.org/2000/svg">
<path d="M94.4903 18.12C96.9803 18.38 99.4903 18.66 101.97 18.75C103.88 18.82 104.29 17.52 104.3 15.88C104.24 14.7847 104.562 13.7024 105.212 12.8184C105.861 11.9345 106.798 11.3038 107.862 11.0344C108.925 10.765 110.049 10.8736 111.041 11.3417C112.033 11.8097 112.832 12.608 113.3 13.6C113.349 13.6834 113.424 13.7484 113.513 13.7851C113.602 13.8218 113.701 13.8282 113.794 13.8032C113.888 13.7782 113.97 13.7232 114.029 13.6467C114.088 13.5702 114.12 13.4765 114.12 13.38C114.167 12.6107 114.48 11.8817 115.005 11.3179C115.531 10.7541 116.236 10.3907 117 10.29C118.8 9.93 120.71 10.69 122.36 11.29C122.429 11.3083 122.502 11.3105 122.572 11.2965C122.642 11.2825 122.708 11.2527 122.765 11.2093C122.822 11.1659 122.868 11.11 122.901 11.046C122.933 10.982 122.95 10.9116 122.95 10.84C122.95 6.99 124.8 2.47 128.76 1.2C132.35 0.0499971 137.36 3.2 136.29 7.31C136.265 7.41482 136.274 7.525 136.317 7.62409C136.359 7.72319 136.433 7.80589 136.526 7.85987C136.619 7.91385 136.728 7.93621 136.835 7.92362C136.942 7.91103 137.042 7.86416 137.12 7.79C139.29 5.79 143.44 8.2 142.82 11.07C142.74 11.44 143.15 11.85 143.51 11.6C144.419 10.9915 145.527 10.7559 146.605 10.942C147.683 11.1282 148.648 11.7218 149.3 12.6C149.362 12.6994 149.46 12.7712 149.574 12.801C149.687 12.8307 149.807 12.8161 149.91 12.76L152.74 11.02L152.1 10.76C153.21 13.69 157.1 11.38 159.05 10.94C159.913 10.7939 160.796 10.8307 161.643 11.048C162.49 11.2653 163.282 11.6583 163.968 12.2014C164.653 12.7445 165.217 13.4256 165.622 14.2006C166.027 14.9756 166.265 15.8272 166.32 16.7C166.322 16.7849 166.345 16.868 166.388 16.9412C166.431 17.0144 166.492 17.0752 166.566 17.1175C166.639 17.1599 166.723 17.1824 166.808 17.1828C166.893 17.1832 166.976 17.1616 167.05 17.12C169.05 15.7 172.21 13.98 174.28 16.21C175.08 17.07 176.86 19.73 178.05 17.86C178.25 17.54 177.81 17.24 177.55 17.47C176.76 18.16 175.32 16.05 174.89 15.6C174.301 14.9555 173.505 14.5379 172.64 14.42C170.56 14.15 168.3 15.26 166.56 16.28L167.29 16.7C167.4 13.59 164.9 10.87 162 10.06C160.557 9.68928 159.031 9.80528 157.66 10.39C156.52 10.82 153.6 12.26 152.95 10.53C152.932 10.4661 152.899 10.4073 152.854 10.3579C152.81 10.3086 152.755 10.2699 152.693 10.2449C152.632 10.2199 152.565 10.2091 152.499 10.2135C152.433 10.2178 152.368 10.2371 152.31 10.27L149.42 12L150.03 12.16C149.26 11.08 148.104 10.3368 146.802 10.0838C145.499 9.83072 144.149 10.0871 143.03 10.8L143.72 11.33C144.57 7.5 139.3 4.46 136.41 7.1L137.24 7.58C138.39 3.12 133.47 -0.680003 129.3 0.0699971C124.44 0.939997 121.98 6.37 122 10.84L122.59 10.39C120.49 9.57 118.1 8.69 115.89 9.62C115.12 9.89833 114.454 10.4062 113.982 11.075C113.51 11.7438 113.255 12.5414 113.25 13.36L114.07 13.14C113.674 12.3058 113.076 11.5835 112.331 11.0382C111.585 10.493 110.716 10.142 109.801 10.0169C108.886 9.8919 107.954 9.99675 107.09 10.322C106.226 10.6473 105.456 11.1827 104.85 11.88C104.27 12.56 103.852 13.3638 103.63 14.23C103.38 15.23 104.09 17.56 102.74 17.94C102.173 17.9975 101.6 17.9705 101.04 17.86L99.0403 17.72C97.5503 17.61 96.0403 17.58 94.5603 17.53C94.1803 17.53 94.2003 18.07 94.5603 18.11L94.4903 18.12Z" fill="#95165B"/>
<path d="M105.18 22.07C110.71 22.27 116.34 22.36 121.87 22.07C121.939 22.07 122.005 22.0426 122.054 21.9939C122.103 21.9451 122.13 21.879 122.13 21.81C122.13 21.7411 122.103 21.6749 122.054 21.6262C122.005 21.5774 121.939 21.55 121.87 21.55C116.34 21.24 110.71 21.33 105.18 21.55C105.116 21.5623 105.058 21.5964 105.017 21.6466C104.975 21.6968 104.953 21.7599 104.953 21.825C104.953 21.8901 104.975 21.9532 105.017 22.0034C105.058 22.0536 105.116 22.0878 105.18 22.1V22.07Z" fill="#95165B"/>
<path d="M124 21.61C126.28 21.7891 128.57 21.7891 130.85 21.61C130.924 21.61 130.996 21.5805 131.048 21.528C131.101 21.4755 131.13 21.4042 131.13 21.33C131.13 21.2557 131.101 21.1845 131.048 21.132C130.996 21.0795 130.924 21.05 130.85 21.05C128.57 20.8709 126.28 20.8709 124 21.05C123.944 21.0615 123.893 21.0921 123.856 21.1368C123.82 21.1814 123.8 21.2373 123.8 21.295C123.8 21.3526 123.82 21.4085 123.856 21.4532C123.893 21.4978 123.944 21.5285 124 21.54V21.61Z" fill="#95165B"/>
<path d="M136 21.6699C138.14 21.7499 140.28 21.6699 142.42 21.6699C144.56 21.6699 146.7 21.7499 148.84 21.7699C153.12 21.7699 157.4 21.7699 161.68 21.6199C161.745 21.6199 161.808 21.5941 161.854 21.5482C161.899 21.5022 161.925 21.4399 161.925 21.3749C161.925 21.31 161.899 21.2476 161.854 21.2017C161.808 21.1558 161.745 21.1299 161.68 21.1299C157.4 20.9699 153.12 20.9399 148.84 20.9799C146.7 20.9799 144.57 21.1199 142.42 21.0799C140.27 21.0399 138.14 20.9899 136 21.0799C135.919 21.0799 135.842 21.1121 135.785 21.1693C135.727 21.2265 135.695 21.3041 135.695 21.3849C135.695 21.4658 135.727 21.5434 135.785 21.6006C135.842 21.6578 135.919 21.6899 136 21.6899V21.6699Z" fill="#95165B"/>
<path d="M165.44 21.6699C166.871 22.1234 168.387 22.2398 169.87 22.0099C170.14 22.0099 170.08 21.5099 169.81 21.5299C168.393 21.6594 166.964 21.5169 165.6 21.1099C165.24 20.9999 165.09 21.5599 165.45 21.6699H165.44Z" fill="#95165B"/>
<path d="M174.08 22.09C174.936 22.137 175.794 22.137 176.65 22.09C176.72 22.09 176.788 22.0621 176.838 22.0124C176.887 21.9627 176.915 21.8953 176.915 21.825C176.915 21.7547 176.887 21.6873 176.838 21.6376C176.788 21.5879 176.72 21.56 176.65 21.56C175.794 21.513 174.936 21.513 174.08 21.56C174.002 21.56 173.927 21.5911 173.872 21.6464C173.816 21.7017 173.785 21.7767 173.785 21.855C173.785 21.9332 173.816 22.0083 173.872 22.0636C173.927 22.1189 174.002 22.15 174.08 22.15V22.09Z" fill="#95165B"/>
<path d="M181.23 21.58C181.377 21.6558 181.538 21.7009 181.703 21.7126C181.868 21.7244 182.033 21.7024 182.19 21.6482C182.346 21.5939 182.489 21.5085 182.611 21.3971C182.734 21.2857 182.832 21.1506 182.9 21C183 20.76 182.63 20.57 182.47 20.75C182.356 20.898 182.197 21.0052 182.017 21.0556C181.836 21.106 181.645 21.0971 181.47 21.03C181.16 20.9 180.94 21.43 181.24 21.57L181.23 21.58Z" fill="#95165B"/>
<path d="M91.4802 21.24C93.3002 21.24 95.3402 21.63 97.1302 21.24C97.1966 21.2227 97.2554 21.1839 97.2973 21.1296C97.3393 21.0753 97.3621 21.0086 97.3621 20.94C97.3621 20.8714 97.3393 20.8047 97.2973 20.7504C97.2554 20.6961 97.1966 20.6573 97.1302 20.64C95.3402 20.25 93.3002 20.64 91.4802 20.64C91.4006 20.64 91.3243 20.6716 91.268 20.7279C91.2118 20.7841 91.1802 20.8604 91.1802 20.94C91.1802 21.0196 91.2118 21.0959 91.268 21.1521C91.3243 21.2084 91.4006 21.24 91.4802 21.24Z" fill="#95165B"/>
<path d="M95.2003 19.0001C97.2547 19.4929 99.3503 19.7942 101.46 19.9001C102.75 19.9601 104.76 20.2701 105.68 19.0801C106.048 18.4739 106.265 17.7877 106.31 17.0801C106.436 16.127 106.859 15.238 107.52 14.5401C109.29 12.7501 111.75 13.1101 113.52 14.6001C113.559 14.6289 113.606 14.643 113.654 14.6395C113.703 14.6361 113.748 14.6155 113.782 14.5815C113.816 14.5474 113.836 14.5023 113.84 14.4542C113.843 14.4062 113.829 14.3586 113.8 14.3201C111.72 11.8801 107.68 12.7301 106.37 15.5101C106.098 16.2355 105.913 16.9908 105.82 17.7601C105.784 18.1505 105.634 18.5216 105.389 18.8274C105.143 19.1332 104.814 19.3602 104.44 19.4801C103.918 19.5873 103.383 19.6243 102.85 19.5901C100.295 19.5795 97.7477 19.3013 95.2503 18.7601C95.0703 18.7601 94.9903 18.9901 95.1703 19.0401L95.2003 19.0001Z" fill="#95165B"/>
<path d="M111.84 14.65C111.937 14.9539 112.146 15.2096 112.424 15.3655C112.703 15.5214 113.03 15.5659 113.34 15.49C114.22 15.32 114.68 14.4 115.01 13.67C115.128 13.2572 115.331 12.8738 115.607 12.5448C115.882 12.2157 116.224 11.9483 116.61 11.76C117.355 11.5209 118.139 11.4225 118.92 11.47C120.672 11.4615 122.422 11.6054 124.15 11.9C124.186 11.9074 124.223 11.9058 124.258 11.8953C124.292 11.8849 124.324 11.8659 124.35 11.8401C124.376 11.8143 124.395 11.7825 124.405 11.7476C124.416 11.7127 124.417 11.6757 124.41 11.64C124.159 10.1334 124.375 8.58611 125.029 7.20601C125.684 5.82592 126.745 4.6792 128.07 3.91997C129.386 3.08337 130.934 2.68758 132.49 2.78997C132.989 2.79876 133.481 2.91251 133.934 3.12384C134.386 3.33517 134.789 3.63934 135.116 4.01659C135.444 4.39384 135.688 4.83573 135.833 5.31354C135.979 5.79135 136.022 6.29439 135.96 6.78997C135.959 6.82346 135.969 6.85639 135.988 6.88349C136.008 6.9106 136.036 6.93033 136.069 6.93953C136.101 6.94874 136.135 6.94689 136.166 6.93428C136.197 6.92168 136.223 6.89904 136.24 6.86997C136.448 6.08742 136.372 5.2566 136.026 4.52454C135.68 3.79248 135.086 3.20639 134.35 2.86997C133.488 2.49636 132.556 2.31363 131.617 2.33435C130.678 2.35506 129.754 2.57872 128.91 2.98997C125.58 4.43997 123.2 8.07997 124 11.74L124.26 11.48C121.938 10.9792 119.549 10.8677 117.19 11.15C116.81 11.1986 116.444 11.3239 116.114 11.5181C115.784 11.7123 115.497 11.9715 115.27 12.28C115.008 12.7012 114.787 13.1466 114.61 13.61C114.3 14.31 112.77 16.4 112.12 14.55C112.06 14.37 111.77 14.45 111.83 14.63L111.84 14.65Z" fill="#95165B"/>
<path d="M107.05 21.8C109.9 22.95 112.35 20.66 114.05 18.63C116.26 15.95 118.59 13.58 122.28 13.46C123.539 13.572 124.805 13.3621 125.96 12.85C127.16 12.13 127.58 10.71 128.17 9.51996C129.02 7.81996 130.17 6.06996 132.04 5.38996C132.472 5.20319 132.939 5.11232 133.409 5.12361C133.879 5.1349 134.341 5.24809 134.763 5.45535C135.185 5.66261 135.557 5.95902 135.854 6.3241C136.15 6.68919 136.364 7.11426 136.48 7.56996C136.53 7.77996 136.88 7.73996 136.86 7.51996C136.64 4.77996 133.3 4.16996 131.26 5.24996C129.909 6.05223 128.824 7.23477 128.14 8.64996C127.24 10.31 126.79 12.45 124.66 12.89C123.1 13.21 121.5 12.89 119.95 13.39C118.525 13.8635 117.223 14.6493 116.14 15.69C113.65 17.99 111.32 23 107.14 21.56C106.98 21.5 106.92 21.75 107.07 21.81L107.05 21.8Z" fill="#95165B"/>
<path d="M129.27 11.89C130.203 10.2246 131.744 8.98472 133.57 8.42999C135.85 7.85999 137.37 9.00999 139.2 10.17C141.91 11.89 145.03 13.33 148.31 12.84C148.56 12.84 148.5 12.36 148.25 12.39C146.066 12.5954 143.868 12.1685 141.92 11.16C140.19 10.33 138.7 9.01999 136.92 8.25999C133.71 6.85999 130.64 9.07999 128.99 11.73C128.89 11.89 129.14 12.04 129.25 11.88L129.27 11.89Z" fill="#95165B"/>
<path d="M134.9 10.6699C136.81 10.1899 138.61 10.9899 140.32 11.7699C141.69 12.4423 143.128 12.9653 144.61 13.3299C147.73 13.9999 150.72 13.4799 153.78 12.7699C156.84 12.0599 159.95 11.4599 162.78 12.9299C163.409 13.2259 163.973 13.6434 164.44 14.1583C164.907 14.6731 165.267 15.2752 165.5 15.9299C166.09 17.7599 165.43 19.6699 164.79 21.3799C164.72 21.5699 165.03 21.7099 165.12 21.5199C166.41 18.8799 166.83 15.6199 164.41 13.5199C162.35 11.7099 159.41 11.3999 156.82 11.7599C152.76 12.3199 149.04 13.8299 144.82 12.9999C141.5 12.3399 138.24 9.50995 134.73 10.4399C134.693 10.4506 134.662 10.4755 134.643 10.5092C134.624 10.543 134.62 10.5828 134.63 10.6199C134.641 10.6571 134.666 10.6885 134.699 10.7072C134.733 10.726 134.773 10.7306 134.81 10.7199L134.9 10.6699Z" fill="#95165B"/>
<path d="M166.59 19.71C167.41 18.94 167.84 17.71 169.06 17.52C170.369 17.3134 171.707 17.3953 172.98 17.76C175.42 18.49 177.2 20.76 179.4 21.98C179.434 21.9963 179.472 22.0006 179.508 21.992C179.544 21.9835 179.576 21.9627 179.598 21.9332C179.621 21.9036 179.632 21.8672 179.631 21.8302C179.629 21.7931 179.615 21.7577 179.59 21.73C178.465 20.6838 177.266 19.7212 176 18.85C174.999 17.9976 173.809 17.3967 172.529 17.0976C171.249 16.7984 169.915 16.8095 168.64 17.13C167.54 17.54 167.19 18.72 166.42 19.51C166.407 19.5231 166.397 19.5387 166.39 19.5559C166.383 19.573 166.379 19.5914 166.379 19.61C166.379 19.6286 166.383 19.647 166.39 19.6641C166.397 19.6813 166.407 19.6969 166.42 19.71C166.433 19.7231 166.449 19.7335 166.466 19.7406C166.483 19.7478 166.502 19.7514 166.52 19.7514C166.539 19.7514 166.557 19.7478 166.574 19.7406C166.592 19.7335 166.607 19.7231 166.62 19.71H166.59Z" fill="#95165B"/>
<path d="M169.67 18.32C171.616 18.5398 173.448 19.3494 174.92 20.64C176 21.64 176.92 22.24 178.4 21.78C178.443 21.78 178.483 21.7632 178.513 21.7331C178.543 21.7031 178.56 21.6624 178.56 21.62C178.56 21.5776 178.543 21.5369 178.513 21.5069C178.483 21.4769 178.443 21.46 178.4 21.46C177.718 21.4906 177.037 21.3782 176.4 21.13C176.039 20.8772 175.704 20.5892 175.4 20.27C174.899 19.8251 174.352 19.433 173.77 19.1C172.541 18.4279 171.171 18.0545 169.77 18.01C169.57 18.01 169.58 18.3 169.77 18.32H169.67Z" fill="#95165B"/>
<path d="M45.4799 199C46.3262 196.074 46.4565 192.987 45.8599 190C45.1999 186.91 43.2799 184.07 43.0299 180.9C42.7399 177.24 46.6499 174.6 49.3899 172.78C52.2999 170.85 55.7299 169.78 59.0599 171.34C64.6399 173.99 67.6099 180.92 68.7199 186.62C69.3768 190.099 69.3768 193.671 68.7199 197.15C68.1499 200.27 67.3399 203.26 68.0699 206.43C68.3399 207.62 70.0699 207.11 69.8899 205.93C69.0699 201.59 70.9599 197.29 71.1399 192.93C71.2814 189.399 70.7938 185.871 69.6999 182.51C67.8999 177 64.1399 170.4 57.9999 168.93C55.1197 168.334 52.1208 168.895 49.6499 170.49C47.1199 171.97 44.0099 174.18 42.3499 176.64C40.4999 179.37 41.4199 182.56 42.5299 185.38C44.2599 189.76 45.3199 193.94 44.4099 198.67C44.2799 199.36 45.2899 199.67 45.4699 198.96L45.4799 199Z" fill="#95165B"/>
<path d="M47.49 202.71C49.2 202.03 50.49 205.12 51.21 206.2C51.9174 207.254 52.7766 208.197 53.76 209C55.6815 210.663 58.1105 211.626 60.65 211.73C60.8738 211.725 61.0885 211.641 61.2554 211.491C61.4224 211.342 61.5307 211.139 61.5609 210.917C61.591 210.695 61.541 210.47 61.4198 210.281C61.2987 210.093 61.1143 209.954 60.9 209.89C56.97 208.89 54.54 207.54 52.25 204.13C51.03 202.31 49.35 200.43 47.04 201.67C46.48 201.97 46.87 202.97 47.48 202.72L47.49 202.71Z" fill="#95165B"/>
<path d="M51.9203 206.83C47.9203 207.57 43.4203 209.64 40.9203 213C40.5803 213.47 41.2403 214.09 41.7103 213.79C45.2003 211.49 48.2003 209.43 52.3103 208.35C53.3103 208.09 52.8703 206.66 51.8903 206.84L51.9203 206.83Z" fill="#95165B"/>
<path d="M42.8602 219.79C41.2102 226.32 45.4602 232.88 47.2002 238.99C48.2255 242.547 48.9349 246.188 49.3202 249.87C49.6702 253.35 49.1502 257.17 49.9802 260.55C50.0179 260.679 50.0962 260.792 50.2035 260.872C50.3108 260.952 50.4412 260.996 50.5752 260.996C50.7093 260.996 50.8397 260.952 50.9469 260.872C51.0542 260.792 51.1326 260.679 51.1702 260.55C52.1702 257.55 51.5602 253.8 51.1702 250.68C50.8149 247.379 50.2436 244.106 49.4602 240.88C48.6025 237.525 47.5405 234.225 46.2802 231C44.9502 227.5 43.7902 224 44.3902 220.25C44.5402 219.25 43.1302 218.83 42.8702 219.83L42.8602 219.79Z" fill="#95165B"/>
<path d="M43.9103 229.32C42.0203 227.57 39.1503 226.76 36.8403 225.68C34.2203 224.45 31.6003 223.2 29.0203 221.88C26.4403 220.56 23.8803 219.19 21.3603 217.77C20.1503 217.09 18.9403 216.44 17.7003 215.82C15.8103 214.88 15.3903 213.75 15.7003 211.6C16.4803 206.36 21.1903 201.6 24.1703 197.44C27.7703 192.44 31.3003 187.44 34.8603 182.44L34.0803 182.89C38.3603 183.04 36.3703 188.68 35.3503 190.79C34.2687 193.013 33.3627 195.316 32.6403 197.68C31.1003 202.68 29.9903 208.06 26.4303 212.15C25.7303 212.95 26.8803 214.15 27.6003 213.32C32.2603 208.17 33.0203 201.2 35.4003 194.94C36.5603 191.94 39.0803 188.7 38.4803 185.26C38.1603 183.44 36.3303 180.59 34.0603 181.09C32.7903 181.37 32.0103 183.35 31.3103 184.34L27.3603 189.94C24.8136 193.56 22.287 197.193 19.7803 200.84C17.6603 203.93 15.2403 207.17 14.5403 210.94C14.2672 212.3 14.2672 213.7 14.5403 215.06C14.8803 216.6 16.5403 217.27 17.8103 218.06C22.0434 220.659 26.4316 222.997 30.9503 225.06C33.0636 226.087 35.197 227.07 37.3503 228.01C39.3503 228.86 41.3503 230.01 43.5503 230.12C43.6462 230.117 43.7391 230.086 43.8181 230.032C43.897 229.977 43.9586 229.901 43.9955 229.813C44.0324 229.724 44.043 229.627 44.0261 229.532C44.0093 229.438 43.9656 229.35 43.9003 229.28L43.9103 229.32Z" fill="#95165B"/>
<path d="M28.7703 209.36C31.6803 209.87 34.6002 210.17 37.5302 210.49C40.4602 210.81 43.5303 211.61 46.3403 211.15C47.1103 211.02 46.9403 209.97 46.3403 209.75C43.8203 208.83 40.6202 209.05 37.9602 208.84C34.9602 208.6 31.9603 208.34 28.9103 208.31C28.3203 208.31 28.1603 209.25 28.7703 209.31V209.36Z" fill="#95165B"/>
<path d="M35.14 181.75C35.65 178.66 35.94 175.56 36.28 172.46C36.43 171.09 36.47 169.85 38.34 170.11C38.9483 170.272 39.5382 170.496 40.1 170.78C41.24 171.21 43.66 171.65 44.31 172.78C45.76 175.32 41.46 175.93 40.16 177.22C38.43 178.94 38.76 182.98 36.04 183.56C35.3 183.72 35.5 184.82 36.21 184.84C36.9403 184.866 37.6606 184.664 38.2714 184.263C38.8822 183.861 39.3534 183.28 39.62 182.6C40.62 180.49 40.62 178.6 42.94 177.47C45.26 176.34 48.01 174.47 45.66 171.8C44.54 170.53 42.77 170.03 41.23 169.47C39.69 168.91 37.43 167.47 35.92 168.57C34.68 169.48 34.8 171.57 34.67 172.9C34.39 175.8 34.09 178.69 33.98 181.6C33.98 182.24 34.98 182.41 35.12 181.75H35.14Z" fill="#95165B"/>
<path d="M92.36 226.95C94.04 230.06 94.7 233.95 95.3 237.41C95.62 239.26 95.91 241.11 96.3 242.95C96.43 243.67 96.71 244.44 96.78 245.17C96.92 246.61 96.18 247.41 95.24 248.34C89.37 254.14 80.51 255.49 74.65 261.34L76.13 261.53C75.5192 260.276 74.6502 259.165 73.58 258.27V259.44C78.6407 253.826 84.2335 248.715 90.28 244.18C91.16 243.52 90.2801 242.02 89.41 242.69C83.2324 247.3 77.5367 252.524 72.41 258.28C72.2579 258.437 72.1729 258.647 72.1729 258.865C72.1729 259.083 72.2579 259.293 72.41 259.45C73.3114 260.291 74.0237 261.313 74.5 262.45C74.5797 262.566 74.683 262.664 74.8032 262.738C74.9234 262.811 75.0578 262.858 75.1975 262.876C75.3372 262.894 75.4792 262.883 75.614 262.842C75.7489 262.801 75.8736 262.732 75.98 262.64C79.4 259.28 83.77 257.31 87.98 255.17C91.59 253.34 95.98 251.08 98.19 247.53C99.07 246.13 98.48 244.88 98.13 243.39C97.67 241.45 97.36 239.48 97.02 237.51C96.37 233.72 96.08 229.33 93.83 226.06C93.7138 225.88 93.5328 225.753 93.3246 225.703C93.1164 225.654 92.8972 225.687 92.7127 225.795C92.5283 225.903 92.3928 226.079 92.3345 226.285C92.2762 226.491 92.2997 226.711 92.4 226.9L92.36 226.95Z" fill="#95165B"/>
<path d="M87.3899 245.5C86.9899 241.96 84.6899 238.41 83.4399 235.09C82.7899 233.35 82.1899 231.59 81.7099 229.8C81.1499 227.8 80.9799 225.63 80.4099 223.61C80.3506 223.424 80.2275 223.265 80.0625 223.161C79.8975 223.057 79.701 223.014 79.5076 223.04C79.3142 223.066 79.1362 223.16 79.005 223.304C78.8737 223.449 78.7976 223.635 78.7899 223.83C78.5599 227.58 80.1899 231.76 81.4999 235.22C82.8099 238.68 84.1499 242.78 86.3299 245.79C86.6199 246.19 87.4599 246.13 87.3899 245.5Z" fill="#95165B"/>
<path d="M72.8399 258.52C71.1881 257.71 69.3816 257.264 67.5425 257.212C65.7034 257.16 63.8747 257.504 62.1799 258.22C60.3199 259.01 58.8999 261.44 61.2999 262.65C62.7299 263.37 64.5999 262.9 66.1199 263.18C67.8799 263.51 69.4799 264.43 71.2699 264.66C73.4499 264.94 76.9399 263.72 76.2699 260.96C76.2295 260.833 76.1535 260.72 76.0509 260.634C75.9483 260.549 75.8234 260.494 75.691 260.478C75.5586 260.461 75.4241 260.482 75.3034 260.539C75.1827 260.596 75.0809 260.687 75.0099 260.8C73.5699 263.02 71.8799 262.96 69.5099 262.17C67.9725 261.58 66.3603 261.206 64.7199 261.06C64.3099 261.06 61.6399 261.44 62.6199 260.2C62.9799 259.74 64.6199 259.55 65.0899 259.45C67.4915 259.136 69.9315 259.299 72.2699 259.93C73.0799 260.09 73.6499 258.93 72.8599 258.54L72.8399 258.52Z" fill="#95165B"/>
<path d="M49.64 260.49C48.32 260.65 46.77 260.73 46.02 262C45.7357 262.425 45.6174 262.94 45.6875 263.447C45.7575 263.954 46.011 264.418 46.4 264.75L47.05 263.17C40.3532 262.789 33.637 262.919 26.96 263.56C21.67 264.07 16.1 264.44 13.27 269.56C12.96 270.12 13.72 270.76 14.18 270.26C18.37 265.77 24.18 265.61 29.95 265.19C35.6245 264.788 41.3179 264.725 47 265C47.1817 264.997 47.3586 264.941 47.5088 264.839C47.659 264.736 47.7759 264.592 47.845 264.424C47.9142 264.256 47.9326 264.071 47.8979 263.893C47.8632 263.714 47.7771 263.55 47.65 263.42C46.94 262.84 49.65 261.64 49.87 261.5C50.29 261.23 50.18 260.39 49.59 260.5L49.64 260.49Z" fill="#95165B"/>
<path d="M12.46 271.7C13.1479 278.933 14.8305 286.037 17.46 292.81C19.94 299.68 22.46 306.58 25.4 313.26C25.94 314.47 27.72 313.42 27.18 312.26C24.25 305.7 20.86 299.37 18.51 292.56C16.1954 285.799 14.5607 278.825 13.63 271.74C13.54 271.03 12.42 270.98 12.48 271.74L12.46 271.7Z" fill="#95165B"/>
<path d="M62.8802 263.28C55.7308 265.777 48.2133 267.058 40.6402 267.07C36.0502 267.07 29.2202 267.5 28.2302 273.26C27.7102 276.26 29.6602 279.8 30.6202 282.57C31.8602 286.17 33.0102 289.81 34.1602 293.44C36.5502 300.97 38.7902 308.59 41.3702 316.07C41.6802 316.98 43.1002 316.6 42.8202 315.67C40.7602 308.95 38.3902 302.3 36.1702 295.67C34.0102 289.17 31.3502 282.57 29.8702 275.88C28.0002 267.39 40.7002 269 45.5002 268.69C51.6434 268.264 57.6677 266.786 63.3102 264.32C63.9002 264.06 63.4802 263.07 62.8702 263.32L62.8802 263.28Z" fill="#95165B"/>
<path d="M45.4001 316.77C46.7701 310.33 47.0401 303.6 47.6701 297.06C48.0282 293.879 48.2218 290.681 48.2501 287.48C48.2501 284.69 48.2501 281.34 47.0301 278.79C46.9104 278.627 46.7444 278.505 46.5538 278.438C46.3632 278.372 46.1569 278.365 45.9621 278.418C45.7674 278.471 45.5932 278.582 45.4626 278.736C45.3319 278.889 45.2509 279.079 45.2301 279.28C45.3101 282.28 46.1501 285.28 46.1501 288.28C46.1501 291.28 45.8801 294.4 45.6201 297.45C45.0701 303.79 44.1201 310.23 44.2801 316.6C44.2801 317.23 45.2801 317.41 45.4101 316.75L45.4001 316.77Z" fill="#95165B"/>
<path d="M46.9999 283.21C55.5799 285.65 64.1699 279.41 72.4999 278.21C74.9599 277.85 77.4399 277.72 79.9099 277.43C81.5999 277.23 83.4899 277.12 84.9099 276.08C87.3099 274.32 87.6199 270.45 86.3799 267.94C86.309 267.827 86.2071 267.736 86.0865 267.679C85.9658 267.622 85.8313 267.601 85.6989 267.618C85.5664 267.634 85.4415 267.689 85.339 267.774C85.2364 267.86 85.1604 267.973 85.1199 268.1C84.8599 269.47 85.1199 270.87 84.8399 272.24C84.3499 274.8 82.0999 275.06 79.9099 275.32C76.0899 275.78 72.2399 275.91 68.4899 276.86C61.2599 278.69 54.8999 282.31 47.2099 281.7C46.3199 281.63 46.2099 282.98 46.9999 283.22V283.21Z" fill="#95165B"/>
<path d="M76.4502 262.14C79.1633 262.698 81.6528 264.04 83.6102 266C84.6902 267.17 85.4602 270.14 87.3802 270C87.5872 269.993 87.7868 269.922 87.9516 269.796C88.1164 269.671 88.2382 269.498 88.3002 269.3C88.7502 266.87 87.8902 264.85 87.4302 262.49C87.1367 261.079 87.1607 259.621 87.5002 258.22C87.8102 257 88.5002 255.92 88.7402 254.69C88.7897 254.5 88.7754 254.298 88.6996 254.117C88.6239 253.936 88.4907 253.784 88.3207 253.685C88.1506 253.587 87.9529 253.546 87.7578 253.571C87.5627 253.595 87.3809 253.683 87.2402 253.82C85.6202 255.28 85.2402 257.89 85.2402 259.98C85.2402 262.98 87.2402 265.89 86.4402 268.8L87.6202 268.13C87.0202 268.03 86.0602 265.88 85.6202 265.36C84.888 264.466 84.0407 263.672 83.1002 263C81.2174 261.626 78.9412 260.896 76.6102 260.92C76.4642 260.931 76.3263 260.992 76.2196 261.092C76.1129 261.192 76.0439 261.326 76.024 261.471C76.0041 261.616 76.0346 261.764 76.1103 261.889C76.1861 262.015 76.3025 262.11 76.4402 262.16L76.4502 262.14Z" fill="#95165B"/>
<path d="M28.6602 277C28.0316 277.238 27.4643 277.614 27.0002 278.1C26.5002 278.6 25.9202 279.25 26.0702 279.99V279.56C26.0084 279.74 26.0072 279.935 26.0668 280.116C26.1264 280.296 26.2435 280.452 26.4002 280.56C26.5675 280.637 26.7548 280.657 26.9348 280.62C27.1148 280.582 27.2779 280.487 27.4002 280.35L27.0502 280.56C27.6102 280.4 27.8903 279.79 28.2703 279.38C28.6475 279.024 29.0448 278.69 29.4602 278.38C29.582 278.254 29.6593 278.092 29.6802 277.919C29.7011 277.745 29.6645 277.569 29.576 277.418C29.4875 277.268 29.352 277.15 29.1902 277.083C29.0284 277.017 28.8493 277.005 28.6803 277.05L28.6602 277Z" fill="#95165B"/>
<path d="M23.8803 277.74C27.6903 282.12 26.7203 289.27 27.1303 294.66C27.3403 297.52 27.6803 300.38 28.1303 303.22C28.5803 306.06 28.7603 309.76 30.1303 312.38C30.201 312.498 30.3083 312.589 30.4358 312.64C30.5633 312.691 30.704 312.699 30.8365 312.663C30.969 312.627 31.086 312.548 31.1698 312.439C31.2535 312.331 31.2993 312.197 31.3003 312.06C31.4203 308.93 30.1603 305.46 29.6803 302.35C29.1103 298.69 28.6803 295 28.4003 291.35C28.0503 286.41 28.4803 280.76 24.7503 276.93C24.2103 276.37 23.4103 277.2 23.9103 277.77L23.8803 277.74Z" fill="#95165B"/>
<path d="M26.0003 314C27.0602 313.969 28.1118 313.805 29.1303 313.51C30.0303 313.3 31.0803 313.24 31.5503 312.36C31.6359 312.205 31.6587 312.023 31.6141 311.852C31.5694 311.681 31.4607 311.533 31.3103 311.44C30.4703 310.9 29.4903 311.36 28.6003 311.61C27.5586 311.837 26.5504 312.196 25.6003 312.68C25.4713 312.766 25.3733 312.891 25.3209 313.036C25.2684 313.182 25.2644 313.341 25.3093 313.489C25.3542 313.637 25.4457 313.767 25.5701 313.859C25.6946 313.951 25.8455 314 26.0003 314Z" fill="#95165B"/>
<path d="M41.0003 315.77C41.1203 315.97 41.1303 316.23 41.2503 316.44C41.3854 316.647 41.5506 316.832 41.7403 316.99C42.1228 317.31 42.5806 317.527 43.0703 317.62C44.0703 317.83 45.3303 317.62 45.6403 316.5C45.6868 316.326 45.6637 316.141 45.5759 315.985C45.4882 315.828 45.3426 315.711 45.1703 315.66C44.5948 315.607 44.0157 315.607 43.4403 315.66C43.2046 315.63 42.9731 315.573 42.7503 315.49C42.4963 315.432 42.2509 315.341 42.0203 315.22C41.6003 314.62 40.6203 315.16 41.0203 315.81L41.0003 315.77Z" fill="#95165B"/>
<path d="M50.9501 261.54C54.6001 261.67 60.6301 266.19 63.8601 262.79C64.2201 262.42 63.9901 261.62 63.4001 261.68C62.5001 261.77 61.6201 262.07 60.7101 262.09C59.4489 262.046 58.2031 261.799 57.0201 261.36C55.0839 260.612 53.014 260.271 50.9401 260.36C50.7981 260.379 50.6677 260.448 50.5733 260.556C50.4788 260.664 50.4268 260.802 50.4268 260.945C50.4268 261.088 50.4788 261.227 50.5733 261.334C50.6677 261.442 50.7981 261.511 50.9401 261.53L50.9501 261.54Z" fill="#95165B"/>
<path d="M78.2299 262.13C77.3999 265.13 79.6199 269.81 83.0999 269.94C83.7699 269.94 83.8499 269.13 83.4099 268.79C82.2741 268.112 81.2876 267.21 80.5099 266.14C79.8689 264.979 79.5969 263.65 79.7299 262.33C79.7202 262.151 79.6482 261.981 79.5264 261.849C79.4046 261.717 79.2406 261.632 79.0628 261.608C78.8849 261.585 78.7043 261.624 78.5523 261.719C78.4002 261.814 78.2862 261.96 78.2299 262.13Z" fill="#95165B"/>
<path d="M26.3999 314.48C26.8871 314.5 27.3633 314.332 27.7299 314.01L26.2099 312.84C26.0099 313.58 26.3499 314.06 26.2699 314.78L26.8599 313.78C24.7491 315.363 22.2065 316.266 19.5699 316.37C16.9599 316.37 14.4199 315.51 11.7899 315.76C10.5499 315.88 9.01993 316.28 9.22993 317.85C9.45993 319.6 11.6299 319.65 12.9899 319.77C15.6346 319.998 18.2958 319.948 20.9299 319.62C23.1999 319.34 25.7999 318.22 28.0799 318.42C29.4799 318.54 30.9799 319.62 31.8499 317.85C32.6299 316.25 31.9099 314.08 31.0999 312.66C30.9811 312.466 30.8144 312.305 30.6156 312.193C30.4169 312.082 30.1928 312.023 29.9649 312.023C29.737 312.023 29.513 312.082 29.3142 312.193C29.1155 312.305 28.9487 312.466 28.8299 312.66C28.3076 313.527 28.0086 314.509 27.9599 315.52H30.5699C30.5869 314.775 30.4543 314.033 30.1799 313.34C29.6999 312.1 27.6499 312.14 27.6999 313.68C27.6927 314.226 27.7362 314.772 27.8299 315.31C27.8299 315.615 27.9511 315.908 28.1668 316.123C28.3824 316.339 28.6749 316.46 28.9799 316.46C29.2849 316.46 29.5774 316.339 29.7931 316.123C30.0088 315.908 30.1299 315.615 30.1299 315.31C30.2138 314.771 30.2473 314.225 30.2299 313.68L27.7499 314.02C27.9774 314.489 28.0509 315.017 27.9599 315.53C27.8799 317.23 30.4399 317.19 30.5699 315.53C30.5735 314.973 30.7597 314.432 31.0999 313.99H28.8199C29.1207 314.433 29.3251 314.933 29.4199 315.46C29.1933 316.407 29.3566 316.637 29.9099 316.15C29.5199 316.26 28.1399 315.74 27.5899 315.75C25.7579 315.978 23.946 316.346 22.1699 316.85C20.1904 317.214 18.1826 317.401 16.1699 317.41C15.1145 317.289 14.0519 317.243 12.9899 317.27C12.1366 316.95 11.5899 317.313 11.3499 318.36C12.0108 318.252 12.6816 318.219 13.3499 318.26C17.2099 318.36 20.3499 319.47 24.1499 318.01C25.4399 317.51 27.4699 316.84 28.3099 315.66C29.0199 314.66 28.3099 314.15 28.2599 313.16C28.2599 312.35 27.0899 311.69 26.4999 312.43C26.1011 312.832 25.8628 313.365 25.8299 313.93C25.8299 314.086 25.8921 314.237 26.0027 314.347C26.1134 314.458 26.2635 314.52 26.4199 314.52L26.3999 314.48Z" fill="#95165B"/>
<path d="M41.9003 316.22C39.3903 316.22 37.2003 317.5 34.7603 317.99C32.0103 318.54 29.2103 318.21 26.4703 318.65C22.6303 319.27 23.2703 323.88 26.7503 324.58C27.7213 324.722 28.7111 324.666 29.6598 324.415C30.6086 324.164 31.4966 323.724 32.2703 323.12C34.3519 321.46 36.8931 320.479 39.5503 320.31C41.3103 320.25 43.9603 321.67 45.5503 320.48C47.1403 319.29 46.6103 317.38 45.6903 316C45.5702 315.806 45.4024 315.645 45.2029 315.534C45.0034 315.423 44.7787 315.364 44.5503 315.364C44.3218 315.364 44.0972 315.423 43.8976 315.534C43.6981 315.645 43.5304 315.806 43.4103 316C43.0178 316.605 42.7657 317.289 42.6722 318.004C42.5788 318.718 42.6465 319.445 42.8703 320.13C42.9515 320.402 43.1185 320.641 43.3464 320.811C43.5743 320.981 43.851 321.073 44.1353 321.073C44.4196 321.073 44.6962 320.981 44.9242 320.811C45.1521 320.641 45.3191 320.402 45.4003 320.13C45.6021 319.619 45.6282 319.056 45.4742 318.529C45.3203 318.002 44.9952 317.542 44.5503 317.22C43.2403 316.22 41.5503 316.74 40.1703 317.15C38.0545 317.77 35.9718 318.497 33.9303 319.33C31.7703 320.2 29.4603 321.64 27.0503 321.22L27.6403 323.47L29.2703 322.83C30.9603 322.67 31.0103 320.03 29.2703 320.15C27.9647 320.2 26.7169 320.702 25.7403 321.57C25.5748 321.737 25.4556 321.944 25.3946 322.171C25.3336 322.397 25.3329 322.636 25.3925 322.864C25.4521 323.091 25.5699 323.299 25.7344 323.466C25.8989 323.634 26.1043 323.756 26.3303 323.82C28.9303 324.26 31.0603 323.42 33.4203 322.4C34.8303 321.79 36.2603 321.22 37.7103 320.7C38.4903 320.42 39.2736 320.157 40.0603 319.91C40.4003 319.8 42.9403 319.2 42.8503 319.42H45.3803C45.2283 319.077 45.1759 318.698 45.2289 318.327C45.282 317.956 45.4384 317.607 45.6803 317.32H43.3903C44.0303 318.32 43.7703 317.96 43.0703 317.99C42.365 317.927 41.6638 317.823 40.9703 317.68C39.6716 317.587 38.3662 317.671 37.0903 317.93C35.6914 318.204 34.3425 318.689 33.0903 319.37C31.9603 319.98 31.0403 320.93 29.9003 321.5C29.6403 321.63 27.2203 322.5 26.9003 321.91C26.3203 320.91 27.9603 321.16 28.2803 321.15C29.8903 321.1 31.5103 321.02 33.1103 320.82C36.3203 320.41 39.0503 318.82 42.1103 318.22C43.2703 318.01 42.9703 316.22 41.8403 316.22H41.9003Z" fill="#95165B"/>
<path d="M50.1799 207.34C50.0399 211.67 51.8799 216.34 53.6499 220.18C54.6183 222.298 55.7553 224.334 57.0499 226.27C57.8199 227.42 58.9499 229.75 60.4699 230.01C61.1799 230.13 62.0599 229.55 61.7599 228.72C61.6547 228.487 61.5013 228.279 61.3099 228.11C60.8699 227.57 60.1999 227.03 59.7399 226.39C58.3872 224.486 57.1836 222.48 56.1399 220.39C53.9699 216.1 53.2099 211.59 51.6599 207.11C51.6093 206.935 51.4976 206.784 51.345 206.685C51.1925 206.585 51.0092 206.544 50.8287 206.568C50.6482 206.592 50.4824 206.68 50.3615 206.817C50.2406 206.953 50.1726 207.128 50.1699 207.31L50.1799 207.34Z" fill="#95165B"/>
<path d="M60.7201 229.7C64.7201 226.95 67.9301 222.16 70.1601 217.91C71.3042 215.755 72.2546 213.503 73.0001 211.18C73.6101 209.24 74.8801 206.34 74.0001 204.4C73.9479 204.31 73.8756 204.233 73.7888 204.175C73.702 204.117 73.6031 204.08 73.4996 204.066C73.3962 204.053 73.291 204.063 73.1923 204.097C73.0935 204.13 73.0038 204.186 72.9301 204.26C71.6401 205.62 71.6601 208.17 71.1401 209.93C70.4377 212.315 69.5207 214.631 68.4001 216.85C67.3942 218.835 66.2339 220.737 64.9301 222.54C63.3801 224.68 61.4701 226.43 59.8101 228.45C59.2801 229.09 59.9701 230.26 60.8101 229.7H60.7201Z" fill="#95165B"/>
<path d="M70.5701 204.39C74.1901 204.59 77.8201 204.56 81.4401 204.79C83.8001 204.94 85.0401 205.45 86.3301 207.52C87.3116 209.079 88.0849 210.76 88.6301 212.52C90.1501 217.45 89.0301 224.67 93.0801 228.52C93.2031 228.633 93.3617 228.698 93.5283 228.706C93.6949 228.713 93.8588 228.661 93.9912 228.56C94.1235 228.459 94.216 228.314 94.2524 228.151C94.2888 227.988 94.2667 227.818 94.1901 227.67C93.2562 225.984 92.5212 224.195 92.0001 222.34C91.6401 220.78 91.4301 219.19 91.1601 217.61C90.6992 214.317 89.7382 211.113 88.3101 208.11C87.1001 205.73 85.6401 203.59 82.8101 203.19C78.7444 202.732 74.6386 202.762 70.5801 203.28C70.4457 203.298 70.3224 203.364 70.2332 203.466C70.1439 203.568 70.0947 203.699 70.0947 203.835C70.0947 203.971 70.1439 204.102 70.2332 204.204C70.3224 204.306 70.4457 204.372 70.5801 204.39H70.5701Z" fill="#95165B"/>
<path d="M66.0001 279.68C84.6601 281.36 103.61 280.95 122.31 280.25L121.57 279.51C121.37 285.7 121.41 291.9 121.41 298.09C121.41 304.28 121.03 310.53 121.41 316.67C121.434 316.899 121.542 317.11 121.712 317.264C121.883 317.418 122.105 317.504 122.335 317.504C122.565 317.504 122.787 317.418 122.958 317.264C123.129 317.11 123.236 316.899 123.26 316.67C123.79 310.56 123.26 304.22 123.15 298.09C123.04 291.96 123 285.7 123 279.5C122.997 279.304 122.919 279.118 122.78 278.98C122.642 278.841 122.456 278.763 122.26 278.76C103.46 279.88 84.7501 279.25 65.9501 278.7C65.3101 278.7 65.3301 279.62 65.9501 279.7L66.0001 279.68Z" fill="#95165B"/>
<path d="M46.6499 318.7C52.9599 319.7 59.5799 319.7 65.9499 320.1C72.3199 320.5 78.9499 320.89 85.5299 320.85C91.7799 320.85 98.0398 320.44 104.28 320.16C110.453 320.013 116.591 319.178 122.58 317.67C122.809 317.567 122.994 317.385 123.101 317.157C123.208 316.93 123.229 316.671 123.161 316.429C123.094 316.186 122.941 315.977 122.732 315.837C122.522 315.698 122.269 315.639 122.02 315.67C115.932 317.097 109.719 317.927 103.47 318.15C97.3499 318.46 91.2198 318.88 85.0898 318.94C78.6998 319 72.3199 318.68 65.9499 318.31C59.5799 317.94 53.0899 317 46.7999 317.56C46.1999 317.62 45.9499 318.56 46.6499 318.7Z" fill="#95165B"/>
<path d="M88.0703 267.51C95.9103 268.3 104.01 267.93 111.89 268.09C119.77 268.25 127.77 268.42 135.71 268.56C135.932 268.56 136.144 268.472 136.301 268.315C136.457 268.159 136.545 267.946 136.545 267.725C136.545 267.503 136.457 267.291 136.301 267.134C136.144 266.978 135.932 266.89 135.71 266.89C127.77 266.75 119.83 266.623 111.89 266.51C104.01 266.4 95.8903 265.74 88.0703 266.25C87.9182 266.269 87.7783 266.343 87.6769 266.458C87.5755 266.573 87.5195 266.722 87.5195 266.875C87.5195 267.028 87.5755 267.176 87.6769 267.291C87.7783 267.407 87.9182 267.481 88.0703 267.5V267.51Z" fill="#95165B"/>
<path d="M123 279.24C125.51 277.851 127.925 276.298 130.23 274.59C132.492 273.165 134.597 271.506 136.51 269.64C136.619 269.518 136.682 269.362 136.688 269.199C136.693 269.036 136.642 268.876 136.542 268.746C136.443 268.617 136.301 268.527 136.142 268.491C135.982 268.455 135.815 268.476 135.67 268.55C133.2 269.92 131.02 271.99 128.76 273.68C126.5 275.37 124.45 276.78 122.39 278.45C121.93 278.82 122.52 279.45 123 279.24Z" fill="#95165B"/>
<path d="M136.29 268.07C135.29 270.65 135.77 274.22 135.71 276.97L135.5 286.16C135.36 292.42 135.06 298.71 135.11 304.97C135.133 305.189 135.237 305.391 135.4 305.538C135.563 305.685 135.775 305.766 135.995 305.766C136.215 305.766 136.427 305.685 136.59 305.538C136.754 305.391 136.857 305.189 136.88 304.97C137.22 298.71 137.22 292.42 137.37 286.16L137.59 276.97C137.65 274.23 138.31 270.68 137.42 268.07C137.381 267.952 137.306 267.85 137.205 267.777C137.105 267.705 136.984 267.666 136.86 267.666C136.736 267.666 136.615 267.705 136.515 267.777C136.414 267.85 136.339 267.952 136.3 268.07H136.29Z" fill="#95165B"/>
<path d="M123.23 318.09C125.385 316.494 127.449 314.778 129.41 312.95C131.632 311.107 133.714 309.101 135.64 306.95C135.778 306.798 135.852 306.598 135.847 306.393C135.842 306.188 135.758 305.992 135.613 305.847C135.468 305.702 135.272 305.618 135.067 305.613C134.862 305.608 134.662 305.682 134.51 305.82C132.39 307.55 130.51 309.58 128.46 311.41C126.41 313.24 124.24 314.93 122.24 316.8C121.57 317.42 122.46 318.63 123.24 318.09H123.23Z" fill="#95165B"/>
<path d="M48.5599 287.32C49.6694 285.941 50.6471 284.461 51.4799 282.9C51.7199 282.4 51.0899 281.81 50.6699 282.27C49.5076 283.667 48.4797 285.17 47.5999 286.76C47.2199 287.39 48.1499 287.89 48.5999 287.33L48.5599 287.32Z" fill="#95165B"/>
<path d="M48.7499 290.06C50.6399 287.68 52.6299 285.35 54.3599 282.85C54.6899 282.37 53.9299 281.78 53.5499 282.22C51.5499 284.5 49.7599 287 47.9099 289.41C47.5399 289.89 48.3799 290.54 48.7599 290.06H48.7499Z" fill="#95165B"/>
<path d="M48.1701 293.44C50.3301 290.11 52.4101 286.61 54.2601 283.1C54.2885 283.031 54.291 282.954 54.2671 282.883C54.2432 282.812 54.1945 282.752 54.1299 282.715C54.0654 282.677 53.9894 282.664 53.9159 282.678C53.8424 282.691 53.7765 282.731 53.7301 282.79C51.5701 286.12 49.5401 289.65 47.7301 293.16C47.6917 293.225 47.6806 293.303 47.6994 293.376C47.7181 293.449 47.7651 293.512 47.8301 293.55C47.8951 293.588 47.9727 293.6 48.0458 293.581C48.119 293.562 48.1817 293.515 48.2201 293.45L48.1701 293.44Z" fill="#95165B"/>
<path d="M47.9402 297.71C51.6102 292 55.7302 286.41 58.9402 280.42C58.9866 280.342 59 280.248 58.9775 280.16C58.955 280.072 58.8984 279.996 58.8202 279.95C58.7419 279.904 58.6485 279.89 58.5603 279.913C58.4722 279.935 58.3966 279.992 58.3502 280.07C54.3502 285.53 51.0402 291.65 47.4702 297.42C47.2702 297.74 47.7702 298.02 47.9702 297.71H47.9402Z" fill="#95165B"/>
<path d="M47.6199 301.63H47.5299C47.4681 301.599 47.3972 301.593 47.3308 301.611C47.2643 301.63 47.2071 301.672 47.1699 301.73C47.1081 301.79 47.0677 301.868 47.055 301.953C47.0424 302.038 47.0581 302.125 47.0999 302.2C47.121 302.275 47.1703 302.338 47.2375 302.378C47.3046 302.417 47.3844 302.428 47.4599 302.41C48.4599 302.16 48.9499 300.31 49.3999 299.48C50.5599 297.367 51.7732 295.287 53.0399 293.24C55.5066 289.24 58.1732 285.39 61.0399 281.69C61.3099 281.33 60.7099 280.98 60.4399 281.34C57.9199 284.64 55.5299 288.03 53.3199 291.54C52.7799 292.41 47.2599 302.1 47.4299 302.16C47.489 302.173 47.5508 302.165 47.6045 302.137C47.6582 302.109 47.7006 302.063 47.7243 302.008C47.748 301.952 47.7515 301.89 47.7343 301.832C47.717 301.774 47.6801 301.724 47.6299 301.69L47.6199 301.63Z" fill="#95165B"/>
<path d="M55.4601 291.95C59.0601 287.26 63.1701 282.89 66.6001 278.1C66.8201 277.8 66.3501 277.46 66.1001 277.71C61.9201 281.82 58.4401 286.94 55.0101 291.71C54.8101 291.99 55.2601 292.24 55.4601 291.97V291.95Z" fill="#95165B"/>
<path d="M60.5702 288.35C63.2402 285.65 66.0902 283.05 68.5702 280.18C68.6101 280.12 68.628 280.049 68.621 279.977C68.614 279.906 68.5824 279.839 68.5317 279.789C68.481 279.738 68.4142 279.706 68.3428 279.699C68.2715 279.692 68.1998 279.71 68.1402 279.75C65.3302 282.3 62.7902 285.21 60.1402 287.94C59.8802 288.21 60.2902 288.62 60.5502 288.35H60.5702Z" fill="#95165B"/>
<path d="M66.8701 284.55C68.0101 283.07 69.3301 281.8 70.5701 280.42C70.6197 280.358 70.6448 280.281 70.6406 280.202C70.6365 280.123 70.6032 280.048 70.5474 279.993C70.4915 279.937 70.417 279.904 70.3381 279.899C70.2592 279.895 70.1815 279.92 70.1201 279.97C68.679 281.223 67.4112 282.662 66.3501 284.25C66.1301 284.56 66.6301 284.84 66.8601 284.55H66.8701Z" fill="#95165B"/>
<path d="M70.56 282C70.7838 281.906 70.9954 281.785 71.19 281.64C71.4 281.46 71.19 281.15 70.93 281.2C70.6957 281.273 70.4709 281.374 70.26 281.5C69.92 281.67 70.26 282.18 70.56 282.01V282Z" fill="#95165B"/>
<path d="M123.39 314.1C124.61 302.25 125.79 290.4 126.67 278.52C126.67 278.22 126.24 278.23 126.2 278.52C124.86 290.36 123.83 302.23 122.83 314.1C122.83 314.46 123.35 314.45 123.38 314.1H123.39Z" fill="#95165B"/>
<path d="M128.11 275.55C125.584 287.452 124.191 299.566 123.95 311.73C123.95 311.796 123.977 311.86 124.023 311.907C124.07 311.954 124.134 311.98 124.2 311.98C124.266 311.98 124.33 311.954 124.377 311.907C124.424 311.86 124.45 311.796 124.45 311.73C125.191 299.661 126.6 287.643 128.67 275.73C128.74 275.37 128.19 275.21 128.12 275.58L128.11 275.55Z" fill="#95165B"/>
<path d="M130.33 275.23C128 288.4 125.77 301.64 124 314.9C124 315.25 124.47 315.41 124.54 315.05C126.98 301.89 129 288.62 130.91 275.38C130.96 275.02 130.42 274.85 130.35 275.23H130.33Z" fill="#95165B"/>
<path d="M133.21 272C132.08 278.62 131.5 285.36 130.56 292C129.62 298.64 128.46 305.31 127.56 312C127.5 312.42 128.13 312.62 128.22 312.18C129.57 305.45 130.49 298.61 131.44 291.82C132.35 285.29 133.44 278.68 133.84 272.1C133.84 271.75 133.27 271.66 133.21 272.02V272Z" fill="#95165B"/>
<path d="M135.46 273C134.86 278.653 134.193 284.3 133.46 289.94C132.72 295.55 131.65 301.16 131.12 306.8C131.12 307.09 131.55 307.14 131.62 306.87C132.8 301.422 133.681 295.914 134.26 290.37C135.01 284.6 135.58 278.81 136.05 273.01C136.05 272.65 135.53 272.66 135.49 273.01L135.46 273Z" fill="#95165B"/>
<path d="M135.15 295C135.128 296.078 134.933 297.145 134.57 298.16C134.46 298.47 134.93 298.58 135.06 298.29C135.498 297.245 135.725 296.123 135.73 294.99C135.73 294.913 135.7 294.839 135.645 294.785C135.591 294.73 135.517 294.7 135.44 294.7C135.363 294.7 135.29 294.73 135.235 294.785C135.181 294.839 135.15 294.913 135.15 294.99V295Z" fill="#95165B"/>
<path d="M84.3302 242.67C84.7342 244.086 84.8831 245.562 84.7702 247.03C84.7698 247.106 84.7969 247.179 84.8466 247.236C84.8962 247.293 84.965 247.329 85.0399 247.339C85.1148 247.349 85.1908 247.331 85.2535 247.289C85.3161 247.247 85.3612 247.183 85.3802 247.11C85.8455 245.549 85.6766 243.867 84.9102 242.43C84.7702 242.11 84.2202 242.34 84.3402 242.67H84.3302Z" fill="#95165B"/>
<path d="M83.9101 240C83.7538 242.448 83.7705 244.904 83.9601 247.35C83.9601 247.426 83.9901 247.498 84.0435 247.552C84.097 247.605 84.1695 247.635 84.2451 247.635C84.3206 247.635 84.3931 247.605 84.4466 247.552C84.5 247.498 84.5301 247.426 84.5301 247.35C84.7195 244.904 84.7362 242.448 84.5801 240C84.5801 239.911 84.5448 239.826 84.4819 239.763C84.4191 239.7 84.3339 239.665 84.2451 239.665C84.1562 239.665 84.071 239.7 84.0082 239.763C83.9453 239.826 83.9101 239.911 83.9101 240Z" fill="#95165B"/>
<path d="M82.1502 239.1C82.3702 241.84 82.5402 244.6 82.8702 247.33C82.8702 247.65 83.4002 247.67 83.3802 247.33C83.2602 244.58 82.9902 241.84 82.7602 239.1C82.7602 238.71 82.1102 238.7 82.1402 239.1H82.1502Z" fill="#95165B"/>
<path d="M80.6399 232.72C81.3159 237.859 81.6499 243.037 81.6399 248.22C81.6399 248.289 81.6673 248.355 81.7161 248.404C81.7648 248.453 81.831 248.48 81.8999 248.48C81.9689 248.48 82.035 248.453 82.0838 248.404C82.1325 248.355 82.1599 248.289 82.1599 248.22C82.3525 242.986 82.0175 237.747 81.1599 232.58C81.1099 232.24 80.5999 232.39 80.6399 232.72Z" fill="#95165B"/>
<path d="M79.8301 229.69C79.6382 235.775 79.8621 241.866 80.5001 247.92C80.5001 248.26 81.0701 248.29 81.0501 247.92C80.8501 241.84 80.4201 235.78 80.4001 229.69C80.4001 229.613 80.3696 229.539 80.3152 229.485C80.2608 229.431 80.187 229.4 80.1101 229.4C80.0332 229.4 79.9594 229.431 79.905 229.485C79.8507 229.539 79.8201 229.613 79.8201 229.69H79.8301Z" fill="#95165B"/>
<path d="M84.8601 255.57C84.4506 258.742 84.6269 261.962 85.3801 265.07C85.4601 265.4 86.0101 265.34 85.9801 264.99C85.6801 261.84 85.4701 258.74 85.4601 255.57C85.4601 255.17 84.9001 255.2 84.8601 255.57Z" fill="#95165B"/>
<path d="M82.7402 255.87C82.9987 258.659 83.3993 261.432 83.9402 264.18C84.0002 264.48 84.5002 264.41 84.4702 264.11C84.2246 261.322 83.8375 258.549 83.3102 255.8C83.2502 255.48 82.7002 255.55 82.7302 255.88L82.7402 255.87Z" fill="#95165B"/>
<path d="M81.2799 257C81.515 259.306 81.9161 261.592 82.4799 263.84C82.5599 264.15 83.0899 264.1 83.0599 263.76C82.8243 261.481 82.4266 259.222 81.8699 257C81.7899 256.68 81.2399 256.74 81.2799 257.08V257Z" fill="#95165B"/>
<path d="M79.1402 258.62C79.3586 259.937 79.7242 261.225 80.2302 262.46C80.2626 262.515 80.3123 262.558 80.3715 262.582C80.4308 262.606 80.4963 262.61 80.5579 262.592C80.6194 262.575 80.6736 262.538 80.712 262.487C80.7504 262.436 80.7709 262.374 80.7702 262.31C80.566 260.988 80.2138 259.693 79.7202 258.45C79.699 258.373 79.6481 258.308 79.5787 258.268C79.5093 258.229 79.4271 258.219 79.3502 258.24C79.2733 258.261 79.208 258.312 79.1686 258.381C79.1292 258.451 79.119 258.533 79.1402 258.61V258.62Z" fill="#95165B"/>
<path d="M78.9399 260.28C78.9132 260.77 78.9132 261.26 78.9399 261.75C78.9521 261.814 78.9863 261.872 79.0365 261.913C79.0867 261.955 79.1497 261.977 79.2149 261.977C79.28 261.977 79.3431 261.955 79.3933 261.913C79.4434 261.872 79.4776 261.814 79.4899 261.75C79.5165 261.26 79.5165 260.77 79.4899 260.28C79.4899 260.196 79.4567 260.116 79.3976 260.057C79.3385 259.998 79.2584 259.965 79.1749 259.965C79.0913 259.965 79.0112 259.998 78.9521 260.057C78.8931 260.116 78.8599 260.196 78.8599 260.28H78.9399Z" fill="#95165B"/>
<path d="M27.3101 212.51C28.1561 213.349 28.8527 214.327 29.3701 215.4C29.5301 215.7 29.9601 215.49 29.9001 215.18C29.5893 213.885 28.8043 212.754 27.7001 212.01C27.4101 211.8 27.0601 212.26 27.3201 212.51H27.3101Z" fill="#95165B"/>
<path d="M28.7102 210.72C29.3902 211.9 30.0302 213.11 30.8102 214.22C30.8538 214.267 30.9121 214.297 30.9753 214.306C31.0386 214.315 31.103 214.302 31.1579 214.269C31.2127 214.236 31.2548 214.186 31.277 214.126C31.2993 214.066 31.3004 214.001 31.2802 213.94C30.6902 212.71 29.9602 211.55 29.2802 210.38C29.2298 210.321 29.1602 210.282 29.0837 210.269C29.0071 210.256 28.9285 210.271 28.8617 210.31C28.7948 210.349 28.744 210.411 28.7181 210.484C28.6922 210.557 28.693 210.637 28.7202 210.71L28.7102 210.72Z" fill="#95165B"/>
<path d="M29.7203 208.34C30.2948 210.736 31.2829 213.014 32.6403 215.07C32.6819 215.13 32.7444 215.172 32.8154 215.187C32.8865 215.203 32.9608 215.192 33.0238 215.155C33.0867 215.119 33.1336 215.06 33.1552 214.99C33.1768 214.921 33.1715 214.846 33.1403 214.78C32.1403 212.58 31.1903 210.42 30.3203 208.18C30.2978 208.1 30.2445 208.033 30.1723 207.993C30.1001 207.952 30.0149 207.942 29.9353 207.965C29.8557 207.987 29.7884 208.041 29.7481 208.113C29.7078 208.185 29.6978 208.27 29.7203 208.35V208.34Z" fill="#95165B"/>
<path d="M31.2801 209.5C31.9175 211.641 32.7406 213.722 33.7401 215.72C33.7795 215.776 33.8372 215.817 33.9033 215.836C33.9694 215.855 34.04 215.851 34.1032 215.824C34.1665 215.797 34.2186 215.749 34.2508 215.688C34.2829 215.627 34.2933 215.557 34.2801 215.49C33.6425 213.349 32.8194 211.268 31.8201 209.27C31.6801 208.96 31.1701 209.18 31.2801 209.5Z" fill="#95165B"/>
<path d="M33.0703 209.78C33.7603 211.47 34.4103 213.18 35.2303 214.78C35.2668 214.826 35.3174 214.859 35.3744 214.874C35.4314 214.889 35.4918 214.885 35.5461 214.862C35.6005 214.839 35.646 214.8 35.6756 214.749C35.7053 214.698 35.7174 214.639 35.7103 214.58C35.1203 212.85 34.3603 211.18 33.6403 209.5C33.5003 209.18 32.9303 209.41 33.0703 209.74V209.78Z" fill="#95165B"/>
<path d="M35.1702 210.06C35.6502 211.37 36.1702 212.67 36.7002 213.94C36.8202 214.2 37.2502 214.02 37.1602 213.74C36.7502 212.44 36.2602 211.17 35.7602 209.9C35.6202 209.54 35.0302 209.69 35.1702 210.06Z" fill="#95165B"/>
<path d="M37.19 211C37.41 211.68 37.62 212.36 37.9 213C37.9214 213.063 37.9661 213.115 38.0249 213.146C38.0837 213.177 38.1522 213.185 38.2163 213.167C38.2803 213.149 38.335 213.107 38.3692 213.05C38.4034 212.993 38.4144 212.925 38.4 212.86C38.23 212.17 38.01 211.49 37.79 210.86C37.67 210.48 37.07 210.65 37.2 211.02L37.19 211Z" fill="#95165B"/>
<path d="M25.6901 279.06C26.845 277.813 27.7452 276.352 28.3401 274.76C28.4501 274.44 27.9801 274.26 27.8001 274.53C26.9301 275.91 26.1101 277.32 25.1401 278.64C24.9101 278.95 25.4201 279.35 25.6801 279.06H25.6901Z" fill="#95165B"/>
<path d="M25.0903 277.77C26.0903 276.41 27.0903 275.06 28.0203 273.64C28.1903 273.38 27.7803 273.04 27.5803 273.3C26.5203 274.64 25.5803 276.07 24.5803 277.47C24.3603 277.79 24.8703 278.08 25.0903 277.77Z" fill="#95165B"/>
<path d="M25.09 283.06C25.49 282.28 25.91 281.51 26.27 280.71C26.4 280.43 26 280.18 25.84 280.46C25.42 281.23 25.05 282.02 24.66 282.81C24.52 283.09 24.94 283.34 25.09 283.06Z" fill="#95165B"/>
<path d="M22.8702 279.79C26.3302 285.6 26.6002 292.36 26.8102 298.93C26.8313 302.134 27.0149 305.335 27.3602 308.52C27.6402 310.62 28.1002 312.76 29.5902 314.35C29.6417 314.372 29.6985 314.38 29.754 314.371C29.8096 314.363 29.8617 314.339 29.9044 314.303C29.9471 314.266 29.9788 314.219 29.9957 314.165C30.0126 314.112 30.0142 314.054 30.0002 314C26.5102 308.58 27.7102 301.27 27.4502 295.12C27.2202 289.63 26.3302 284.21 23.3502 279.49C23.3038 279.431 23.2378 279.391 23.1644 279.377C23.0909 279.364 23.0149 279.377 22.9504 279.414C22.8858 279.452 22.8371 279.512 22.8132 279.583C22.7893 279.654 22.7917 279.731 22.8202 279.8L22.8702 279.79Z" fill="#95165B"/>
<path d="M43.6699 281.24C44.7515 287.183 45.3668 293.201 45.5099 299.24C45.4991 305.018 45.1217 310.79 44.3799 316.52C44.3299 317.03 45.1699 317.14 45.2699 316.64C47.5299 305.1 46.8899 292.52 44.3299 281.09C44.2299 280.66 43.5999 280.85 43.6799 281.27L43.6699 281.24Z" fill="#95165B"/>
<path d="M36.32 184.89C33.6 193.23 32.12 202.23 26.32 209.08C26.11 209.33 26.39 209.79 26.7 209.57C29.7 207.36 31.28 203.42 32.52 200C34.3592 195.139 35.8725 190.162 37.05 185.1C37.0765 185.002 37.0629 184.897 37.0123 184.809C36.9617 184.721 36.8781 184.656 36.78 184.63C36.6818 184.603 36.5772 184.617 36.489 184.668C36.4009 184.718 36.3365 184.802 36.31 184.9L36.32 184.89Z" fill="#95165B"/>
<path d="M35.5401 324.18C42.0901 320.83 49.4201 321.01 56.5401 321.49C63.8701 321.99 71.1701 322.49 78.5401 322.83C93.9701 323.46 109.41 323.24 124.82 322.37C125.14 322.37 125.14 321.85 124.82 321.87C108.83 322.691 92.8075 322.664 76.8201 321.79C69.3101 321.38 61.8201 320.53 54.3201 320.17C47.8101 319.85 41.0701 320.5 35.3201 323.71C35.0101 323.88 35.3201 324.35 35.6001 324.18H35.5401Z" fill="#95165B"/>
<path d="M39.56 323.58C42.83 323.91 46.12 323.99 49.41 324.12C52.6863 324.384 55.9739 324.481 59.26 324.41C59.66 324.41 59.82 323.72 59.36 323.66C56.1962 323.352 53.0188 323.205 49.84 323.22C46.41 323.1 42.99 322.92 39.56 323.01C39.4831 323.01 39.4093 323.041 39.355 323.095C39.3006 323.149 39.27 323.223 39.27 323.3C39.27 323.377 39.3006 323.451 39.355 323.505C39.4093 323.559 39.4831 323.59 39.56 323.59V323.58Z" fill="#95165B"/>
<path d="M61.4103 324.09C61.4103 324.2 61.4103 324.32 61.4103 324.43C61.4315 324.506 61.4722 324.576 61.5282 324.632C61.5843 324.688 61.6539 324.729 61.7303 324.75C61.8114 324.777 61.8992 324.777 61.9803 324.75C62.0567 324.729 62.1263 324.688 62.1824 324.632C62.2384 324.576 62.2791 324.506 62.3003 324.43C62.3003 324.32 62.3003 324.2 62.3003 324.09C62.3003 323.957 62.2476 323.83 62.1538 323.736C62.0601 323.643 61.9329 323.59 61.8003 323.59C61.6677 323.59 61.5405 323.643 61.4467 323.736C61.353 323.83 61.3003 323.957 61.3003 324.09H61.4103Z" fill="#95165B"/>
<path d="M42.2499 182.41C45.2867 183.291 48.5242 183.189 51.4999 182.12C53.7699 181.41 56.2399 180.17 58.2399 182.12C59.4799 183.36 59.8899 186.67 60.0999 188.35C60.2299 189.35 59.8299 193.67 62.1999 192.96C63.0099 192.72 63.1999 191.79 63.5399 191.12C63.8799 190.45 64.4199 189.12 65.1999 188.66C69.5799 186.33 68.9199 193.34 65.9799 192.97C65.8181 192.97 65.663 193.034 65.5486 193.149C65.4342 193.263 65.3699 193.418 65.3699 193.58C65.3699 194.79 66.0499 195.58 66.7299 196.52C67.5499 197.71 68.3399 198.93 69.2599 200.05C69.6599 200.54 70.4299 199.91 70.1199 199.38C69.5599 198.38 68.8999 197.5 68.2699 196.58C67.6399 195.66 66.5799 194.66 66.5799 193.58L65.9699 194.19C68.9699 194.55 70.5299 189.74 68.9699 187.63C68.6051 187.124 68.0635 186.773 67.4524 186.647C66.8413 186.521 66.2051 186.629 65.6699 186.95C64.8698 187.447 64.1874 188.113 63.6699 188.9C63.0999 189.67 62.9499 190.9 61.9599 190.67C60.9699 190.44 61.2699 188.77 61.1299 187.76C60.9491 186.502 60.6511 185.263 60.2399 184.06C59.7399 182.61 59.1699 180.7 57.5699 180.13C55.8099 179.5 53.6599 180.43 52.0099 180.98C48.9473 182.046 45.6615 182.304 42.4699 181.73C42.3877 181.707 42.2999 181.718 42.2258 181.761C42.1517 181.803 42.0975 181.873 42.0749 181.955C42.0524 182.037 42.0634 182.125 42.1056 182.199C42.1478 182.273 42.2177 182.327 42.2999 182.35L42.2499 182.41Z" fill="#95165B"/>
<path d="M89.6201 213.85C107.051 213.232 124.503 213.616 141.89 215C142.136 214.997 142.371 214.899 142.545 214.725C142.719 214.551 142.817 214.316 142.82 214.07C141.59 198.8 140.55 182.35 146.67 167.93C152.14 155 163.32 146.05 172 135.4C181 124.29 185.95 110.81 183.27 96.4C180.92 83.81 172.83 73.12 162.72 65.58C150.95 56.8 136.61 52.66 122.18 51.04C105.799 49.3388 89.2726 49.6242 72.9601 51.89C57.7501 53.89 43.0901 58.65 30.4201 67.47C18.6901 75.63 8.49009 86.76 3.30009 100.18C-1.56991 112.77 -1.62991 129.18 7.04009 140.3C9.12009 143 11.8101 143 15.0001 143.12L28.1201 143.58C36.8668 143.887 45.6134 144.183 54.3601 144.47C58.7301 144.61 63.1101 144.68 67.4801 144.82C67.7082 144.82 67.9269 144.729 68.0882 144.568C68.2495 144.407 68.3401 144.188 68.3401 143.96C66.9301 132.88 65.6201 118.96 74.1301 110.21C81.8301 102.31 95.3601 101.88 104.39 107.67C106.89 109.27 109.27 111.53 110.14 114.45C111.01 117.37 110.06 120.45 108.43 122.99C105.26 127.99 100.35 131.7 96.6501 136.27C89.5467 145.054 84.3314 155.209 81.3301 166.1C77.858 178.547 77.4021 191.642 80.0001 204.3C80.2801 205.64 82.3201 205.07 82.0001 203.74C76.7601 178.54 84.6001 151.1 102.57 132.62C106.45 128.62 111.45 124.36 112.33 118.53C113.16 112.99 109.53 108.48 105.04 105.72C96.0401 100.17 83.3101 100.32 74.8601 106.92C63.6401 115.69 65.0301 131.4 66.5001 143.92L67.3601 143.06C50.7401 142.393 34.1201 141.727 17.5001 141.06C15.6501 140.99 13.7501 141.06 11.9101 140.81C9.55009 140.51 8.44009 138.81 7.29009 136.92C5.494 133.94 4.14622 130.712 3.29009 127.34C1.58069 120.41 1.63914 113.162 3.46009 106.26C7.18009 92.37 16.8001 80.57 28.0001 71.88C39.8001 62.71 53.7001 57.26 68.3601 54.73C83.868 52.2052 99.6153 51.4771 115.29 52.56C129.92 53.47 144.77 56.56 157.29 64.41C167.92 71 176.88 81 180.41 93.15C182.488 100.384 182.591 108.042 180.71 115.33C178.826 122.022 175.543 128.239 171.08 133.57C163.31 143.32 153.4 151.45 147.29 162.46C140.4 174.87 139.69 189.46 140.29 203.31C140.45 206.88 140.71 210.45 140.94 214.02L141.87 213.09C124.501 211.396 107.035 210.929 89.6001 211.69C88.2201 211.75 88.2101 213.89 89.6001 213.84L89.6201 213.85Z" fill="#95165B"/>
<path d="M142.55 215.68C144.21 211.92 147.14 209.15 149.89 206.19C152.387 203.585 154.401 200.558 155.84 197.25C158.91 189.99 159.46 182.03 161.49 174.48C163.773 165.958 167.866 158.028 173.49 151.23C178.49 145.15 184.57 139.97 189.49 133.78C194.034 128.287 197.028 121.679 198.16 114.64C199.045 108.046 198.454 101.338 196.43 94.9999C192.18 81.2499 182.65 69.9999 170.29 62.8399C162.614 58.4814 154.309 55.3375 145.67 53.5199C141.321 52.569 136.925 51.848 132.5 51.3599C127.946 50.6915 123.334 50.5005 118.74 50.7899C118.11 50.8499 117.83 51.8799 118.58 51.9999C126.22 53.2099 133.96 53.2699 141.58 54.7099C149.416 56.1109 157.038 58.5139 164.26 61.8599C177.64 68.2199 188.67 78.7099 193.91 92.7499C196.336 99.0758 197.297 105.869 196.72 112.62C195.915 119.966 192.981 126.918 188.28 132.62C183.52 138.62 177.7 143.68 172.75 149.52C167.754 155.41 163.871 162.16 161.29 169.44C158.4 177.62 158.06 186.44 155.22 194.6C153.697 198.843 151.271 202.705 148.11 205.92C145.43 208.76 142.75 211.52 141.25 215.18C140.95 215.92 142.25 216.46 142.55 215.73V215.68Z" fill="#95165B"/>
<path d="M68.8402 144.13C72.7563 140.385 77.1674 137.196 81.9502 134.65C85.6102 132.72 89.8102 131.34 90.5002 126.71C90.8502 124.37 90.3502 122.04 90.4002 119.71C90.4555 117.309 91.0866 114.956 92.2402 112.85C94.6502 108.47 100.24 104.7 104.84 108.38C104.968 108.507 105.137 108.584 105.317 108.595C105.497 108.606 105.674 108.551 105.817 108.441C105.959 108.331 106.056 108.172 106.09 107.995C106.124 107.818 106.092 107.635 106 107.48C104.13 103.48 97.9102 105.09 95.1302 106.99C93.3331 108.301 91.8338 109.978 90.7307 111.91C89.6277 113.842 88.9459 115.986 88.7302 118.2C88.4102 120.99 89.2202 123.84 88.7302 126.6C88.0802 130.13 84.8602 131.14 82.0302 132.6C76.7192 135.283 71.8524 138.767 67.6002 142.93C66.7802 143.73 68.0302 144.93 68.8502 144.18L68.8402 144.13Z" fill="#95165B"/>
<path d="M142.94 211.54C148.08 203.88 153.2 196.16 157.99 188.28C158.33 187.72 157.49 187.28 157.13 187.78C151.88 195.37 146.92 203.19 142.02 211.01C141.65 211.6 142.56 212.12 142.94 211.55V211.54Z" fill="#95165B"/>
<path d="M144.29 199.64C148.01 194.55 151.78 189.49 155.37 184.31C155.76 183.75 154.87 183.31 154.47 183.79C150.65 188.79 147 193.96 143.31 199.08C142.88 199.67 143.86 200.23 144.31 199.65L144.29 199.64Z" fill="#95165B"/>
<path d="M141.65 197.18C146.804 191.586 151.433 185.531 155.48 179.09C155.83 178.51 154.96 178.03 154.58 178.57C150.344 184.761 145.757 190.704 140.84 196.37C140.35 196.92 141.16 197.74 141.65 197.18Z" fill="#95165B"/>
<path d="M139.2 191.42C143.36 187.22 147.67 183.11 151.62 178.7C151.722 178.598 151.78 178.459 151.78 178.315C151.78 178.171 151.722 178.032 151.62 177.93C151.518 177.828 151.38 177.771 151.235 177.771C151.091 177.771 150.952 177.828 150.85 177.93C146.51 181.93 142.49 186.35 138.37 190.59C137.84 191.14 138.67 191.97 139.21 191.43L139.2 191.42Z" fill="#95165B"/>
<path d="M8.73987 128.07C6.81987 114.62 10.8299 100.86 18.3799 89.73C25.9299 78.6 37.2999 70.26 49.5999 64.89C56.8199 61.74 64.2799 59.89 71.8899 58.03C72.5199 57.87 72.2399 57.03 71.6299 57.03C57.4251 59.112 43.9554 64.6737 32.4199 73.22C21.4699 81.41 12.8899 92.73 8.99987 105.93C6.8247 113.208 6.34579 120.888 7.59987 128.38C7.72987 129.13 8.82987 128.8 8.72987 128.07H8.73987Z" fill="#95165B"/>
<path d="M87.0001 56.48C86.9841 56.7962 87.0317 57.1125 87.1401 57.41C87.1878 57.4909 87.2558 57.5579 87.3374 57.6044C87.4189 57.651 87.5112 57.6755 87.6051 57.6755C87.699 57.6755 87.7912 57.651 87.8728 57.6044C87.9543 57.5579 88.0223 57.4909 88.0701 57.41C88.1784 57.1125 88.226 56.7962 88.2101 56.48C88.2101 56.3209 88.1469 56.1683 88.0343 56.0557C87.9218 55.9432 87.7692 55.88 87.6101 55.88C87.4509 55.88 87.2983 55.9432 87.1858 56.0557C87.0733 56.1683 87.0101 56.3209 87.0101 56.48H87.0001Z" fill="#95165B"/>
<path d="M165.58 77.11C170.977 82.7735 174.352 90.061 175.18 97.84C176.06 105.67 174.18 112.84 170.66 119.84C170.596 119.984 170.587 120.147 170.636 120.297C170.684 120.448 170.786 120.575 170.923 120.654C171.059 120.733 171.22 120.759 171.375 120.727C171.529 120.695 171.667 120.607 171.76 120.48C176.58 114.04 177.88 105.06 176.87 97.24C175.906 89.2632 172.185 81.874 166.35 76.35C166.247 76.2466 166.107 76.1885 165.96 76.1885C165.814 76.1885 165.674 76.2466 165.57 76.35C165.467 76.4535 165.409 76.5937 165.409 76.74C165.409 76.8863 165.467 77.0266 165.57 77.13L165.58 77.11Z" fill="#95165B"/>
<path d="M169.1 104.78C169.112 108.002 167.994 111.127 165.94 113.61C165.84 113.727 165.788 113.877 165.794 114.03C165.8 114.183 165.864 114.329 165.973 114.437C166.081 114.546 166.227 114.61 166.38 114.616C166.533 114.622 166.683 114.57 166.8 114.47C168.145 113.24 169.167 111.698 169.777 109.981C170.387 108.264 170.567 106.423 170.3 104.62C170.2 103.93 169.12 104.12 169.11 104.78H169.1Z" fill="#95165B"/>
<path d="M50.5603 134.27C53.1203 129.61 55.8803 125 58.1703 120.2C58.2459 120.067 58.2657 119.91 58.2253 119.763C58.185 119.616 58.0879 119.491 57.9553 119.415C57.8227 119.339 57.6655 119.32 57.5182 119.36C57.371 119.4 57.2459 119.497 57.1703 119.63C54.3703 124.16 51.9903 128.97 49.4503 133.63C49.0603 134.34 50.1403 134.97 50.5303 134.26L50.5603 134.27Z" fill="#95165B"/>
<path d="M53.7901 135.55C56.1876 132.153 58.404 128.631 60.4301 125C60.478 124.87 60.4788 124.728 60.4325 124.598C60.3861 124.468 60.2955 124.358 60.1765 124.288C60.0574 124.217 59.9175 124.191 59.7811 124.213C59.6447 124.236 59.5205 124.305 59.4301 124.41C57.0199 127.807 54.7902 131.329 52.7501 134.96C52.3401 135.64 53.3801 136.23 53.8101 135.58L53.7901 135.55Z" fill="#95165B"/>
<path d="M57.7999 137.57C58.9569 136.067 60.0254 134.497 60.9999 132.87C61.2799 132.36 60.5799 131.75 60.1599 132.22C58.9272 133.745 57.7853 135.341 56.7399 137C56.2899 137.65 57.3499 138.26 57.7999 137.62V137.57Z" fill="#95165B"/>
</svg>
