<svg width="94" height="112" viewBox="0 0 94 112" fill="none" xmlns="http://www.w3.org/2000/svg">
<path d="M12.2697 109.41L39.3008 74.9968C39.372 74.9954 39.4421 74.9791 39.5065 74.949C39.5709 74.9189 39.6282 74.8756 39.6747 74.822C39.7512 74.7469 39.7947 74.6448 39.7956 74.5379L43.0948 70.3647C43.1606 70.3235 43.217 70.2693 43.2605 70.2053C43.3041 70.1414 43.3338 70.0692 43.3477 69.9932L43.8426 69.3377C47.3804 70.531 51.1055 71.0824 54.8398 70.9655C59.9454 70.7626 64.9503 69.4909 69.527 67.2336C74.1036 64.9763 78.1489 61.7844 81.398 57.8667C83.861 54.7146 85.5755 51.0505 86.4134 47.1479C87.2513 43.2453 87.1909 39.2051 86.2367 35.3289C85.0544 30.0971 82.8091 25.1602 79.6384 20.8209C76.578 16.6499 72.3807 13.4355 67.5415 11.5566C65.3252 10.6773 63.0266 10.0185 60.6793 9.59019C44.9093 6.62958 29.8872 15.0416 25.0154 29.5716C23.2446 35.0123 22.9675 40.824 24.2126 46.4067C25.2305 51.4015 27.4999 56.0608 30.8109 59.9534C31.0749 60.2593 31.3278 60.5324 31.6907 60.9147L31.4268 61.3408C31.3343 61.3461 31.2441 61.3713 31.1625 61.4147C31.0808 61.4581 31.0096 61.5186 30.9539 61.5921C30.88 61.6768 30.8408 61.7859 30.8439 61.898L23.6628 71.479L7.78283 92.4982C7.5079 92.5747 7.32095 92.826 7.35394 92.9899L1.36048 101.02C1.27467 101.023 1.19074 101.046 1.11469 101.085C1.03865 101.125 0.972365 101.181 0.920588 101.249C0.495063 101.837 0.207094 102.512 0.0777151 103.224C-0.0516637 103.937 -0.0191849 104.669 0.172779 105.368C0.690799 107.582 1.98989 109.539 3.83484 110.885C4.53176 111.359 5.31593 111.691 6.14246 111.864C6.96899 112.036 7.82164 112.045 8.65161 111.89C9.39018 111.736 10.0905 111.437 10.7117 111.011C11.3328 110.585 11.8625 110.041 12.2697 109.41ZM4.05479 107.225C4.13782 107.306 4.24533 107.357 4.36064 107.371C4.47596 107.384 4.59265 107.36 4.69262 107.301C4.80895 107.232 4.90092 107.129 4.95602 107.005C5.01113 106.882 5.02667 106.745 5.00054 106.613C4.973 106.485 4.90336 106.37 4.80259 106.285C3.51928 105.153 2.54355 103.718 1.96532 102.112L2.14128 101.883C2.80425 103.179 3.7649 104.301 4.94556 105.16C5.04244 105.232 5.16009 105.271 5.28097 105.271C5.40185 105.271 5.5195 105.232 5.61639 105.16C5.72689 105.094 5.81444 104.995 5.86746 104.878C5.92049 104.761 5.93647 104.631 5.91331 104.505C5.88037 104.368 5.79826 104.247 5.68237 104.166C4.48819 103.282 3.54788 102.103 2.95507 100.746L3.38396 100.178L6.61713 103.663C6.71048 103.763 6.83475 103.829 6.97023 103.851C7.10571 103.873 7.24463 103.849 7.36494 103.784C7.48114 103.73 7.57642 103.64 7.63605 103.528C7.69568 103.415 7.71634 103.286 7.69485 103.161L7.58488 102.931L4.28573 99.4246C4.23636 99.3697 4.17656 99.3252 4.10977 99.2934L4.20875 99.1624L7.09001 102.134C7.18543 102.235 7.3124 102.3 7.45021 102.32C7.58802 102.34 7.72853 102.313 7.84881 102.243C7.95004 102.189 8.03252 102.106 8.08548 102.005C8.13845 101.903 8.15945 101.788 8.14574 101.675C8.12175 101.571 8.06832 101.476 7.99178 101.402L6.44117 99.7632L4.91257 98.2119L5.51741 97.4035C6.21382 98.6861 7.15075 99.8245 8.2777 100.757C8.36505 100.836 8.47573 100.883 8.59288 100.893C8.71002 100.903 8.8272 100.874 8.92654 100.812C9.04085 100.743 9.13149 100.642 9.18647 100.521C9.24145 100.4 9.25818 100.265 9.23446 100.135C9.20547 100.002 9.13179 99.8821 9.02551 99.796C7.91027 98.8753 7.00655 97.728 6.37519 96.4312L6.32021 96.3656L6.7271 95.8303C7.89343 97.1804 9.23166 98.3739 10.7081 99.3809C10.808 99.4504 10.927 99.4877 11.049 99.4877C11.171 99.4877 11.29 99.4504 11.3899 99.3809C11.4945 99.3143 11.5772 99.219 11.628 99.1064C11.6788 98.9939 11.6954 98.869 11.6758 98.7472C11.6437 98.604 11.557 98.4787 11.4339 98.3976C9.95186 97.4018 8.619 96.2027 7.47491 94.8361L7.95879 94.1916C8.93257 95.541 10.1082 96.7346 11.4449 97.7312C11.5425 97.8014 11.6598 97.8392 11.7803 97.8392C11.9008 97.8392 12.0182 97.8014 12.1157 97.7312C12.2242 97.6632 12.3095 97.5643 12.3605 97.4473C12.4115 97.3304 12.4259 97.2009 12.4016 97.0757C12.3697 96.9383 12.2873 96.8175 12.1707 96.7371C10.8316 95.7401 9.66846 94.5292 8.72859 93.1537L9.4764 92.1705C10.5008 94.0057 11.9066 95.6033 13.6003 96.8572C13.6979 96.9274 13.8153 96.9652 13.9358 96.9652C14.0562 96.9652 14.1736 96.9274 14.2712 96.8572C14.3797 96.7892 14.465 96.6903 14.516 96.5733C14.567 96.4564 14.5813 96.3269 14.5571 96.2017C14.5242 96.0647 14.442 95.9443 14.3262 95.8631C12.6295 94.6247 11.235 93.0229 10.2462 91.1764L10.7631 90.4881C11.9519 92.0114 13.3997 93.3165 15.041 94.3445C15.1414 94.4126 15.2603 94.4491 15.3819 94.4491C15.5035 94.4491 15.6223 94.4126 15.7228 94.3445C15.8245 94.2784 15.9046 94.1843 15.9534 94.0737C16.0022 93.9632 16.0176 93.8409 15.9977 93.7218C15.9822 93.6493 15.9517 93.5808 15.9082 93.5207C15.8647 93.4605 15.809 93.4099 15.7448 93.3722C14.1065 92.3562 12.6742 91.0445 11.5219 89.5049L12.2367 88.5544C12.8308 90.0215 13.8682 91.2696 15.2059 92.1268C15.3064 92.1949 15.4252 92.2313 15.5468 92.2313C15.6685 92.2313 15.7873 92.1949 15.8878 92.1268C15.9894 92.0607 16.0695 91.9666 16.1183 91.856C16.1671 91.7455 16.1826 91.6232 16.1627 91.5041C16.1472 91.4316 16.1167 91.3631 16.0732 91.3029C16.0296 91.2427 15.974 91.1922 15.9097 91.1545C14.573 90.2979 13.5928 88.9905 13.1495 87.4729C13.156 87.4331 13.156 87.3925 13.1495 87.3527L13.5344 86.8501C14.4587 88.126 15.5709 89.2566 16.8335 90.204C16.9294 90.2733 17.0449 90.3106 17.1634 90.3106C17.282 90.3106 17.3975 90.2733 17.4933 90.204C17.6038 90.1375 17.6914 90.0392 17.7444 89.9222C17.7974 89.8051 17.8134 89.6748 17.7903 89.5486C17.7592 89.4135 17.6814 89.2936 17.5703 89.2099C16.3019 88.2604 15.189 87.1217 14.2712 85.8341L14.986 84.8837C15.6025 86.213 16.5768 87.3472 17.8013 88.1611C17.9012 88.2307 18.0202 88.268 18.1422 88.268C18.2642 88.268 18.3832 88.2307 18.4831 88.1611C18.5877 88.0946 18.6704 87.9992 18.7212 87.8867C18.772 87.7741 18.7886 87.6493 18.769 87.5275C18.7379 87.3838 18.651 87.2582 18.5271 87.1779C17.3124 86.3606 16.3886 85.1829 15.8878 83.8131V83.7147L16.4046 83.0265L19.3629 86.1182C19.458 86.219 19.5842 86.2856 19.7216 86.3073C19.8589 86.3291 19.9997 86.3048 20.1217 86.2384C20.235 86.1852 20.3275 86.0965 20.3851 85.986C20.4428 85.8754 20.4622 85.7492 20.4406 85.6266C20.4166 85.5228 20.3632 85.428 20.2866 85.3534L17.1304 82.076L17.9662 80.9835C18.5926 82.2561 19.5211 83.3584 20.6715 84.1954C20.7708 84.2665 20.8901 84.3048 21.0124 84.3048C21.1348 84.3048 21.2541 84.2665 21.3534 84.1954C21.46 84.131 21.5445 84.036 21.5956 83.9228C21.6466 83.8096 21.6619 83.6837 21.6393 83.5618C21.6061 83.419 21.5196 83.2941 21.3973 83.2122C20.2331 82.4143 19.3062 81.32 18.714 80.044L19.4069 79.1373C20.4828 80.5776 21.804 81.8199 23.3109 82.808C23.4107 82.8776 23.5298 82.9149 23.6518 82.9149C23.7738 82.9149 23.8928 82.8776 23.9927 82.808C24.0943 82.7418 24.1744 82.6477 24.2233 82.5372C24.2721 82.4266 24.2875 82.3044 24.2676 82.1853C24.2327 82.0403 24.1419 81.9147 24.0147 81.8357C22.509 80.8522 21.2032 79.5958 20.1657 78.1322L21.0564 76.9523C21.89 78.474 23.0918 79.7656 24.5535 80.7104C24.654 80.7785 24.7728 80.815 24.8945 80.815C25.0161 80.815 25.1349 80.7785 25.2354 80.7104C25.3381 80.6453 25.419 80.5514 25.4679 80.4405C25.5169 80.3297 25.5316 80.2069 25.5103 80.0877C25.4948 80.0152 25.4643 79.9467 25.4208 79.8865C25.3772 79.8264 25.3216 79.7758 25.2574 79.7381C23.7852 78.7968 22.608 77.4646 21.8592 75.8926L22.585 74.9312C23.3112 76.3625 24.463 77.5373 25.8842 78.2961C25.9689 78.352 26.0684 78.3818 26.1701 78.3818C26.2718 78.3818 26.3713 78.352 26.4561 78.2961C26.5544 78.218 26.629 78.1144 26.6717 77.9968C26.7144 77.8792 26.7235 77.7521 26.698 77.6296C26.6788 77.5429 26.6415 77.4611 26.5885 77.3895C26.5354 77.318 26.4678 77.2584 26.3901 77.2145C25.065 76.4657 24.0136 75.318 23.3878 73.9371L24.1796 72.8446C25.1176 74.1738 26.3282 75.2907 27.7317 76.122C27.8352 76.1618 27.9473 76.1746 28.0572 76.1591C28.1671 76.1436 28.2712 76.1004 28.3594 76.0335C28.4477 75.9666 28.5172 75.8784 28.5613 75.7772C28.6055 75.676 28.6228 75.5653 28.6115 75.4556C28.5947 75.3822 28.5626 75.3131 28.5171 75.2528C28.4716 75.1926 28.4138 75.1426 28.3476 75.106C26.9521 74.292 25.7633 73.1707 24.8725 71.8286L25.7082 70.7361C26.3268 72.3038 27.4999 73.5935 29.0074 74.3631C29.0921 74.419 29.1916 74.4489 29.2933 74.4489C29.395 74.4489 29.4945 74.419 29.5793 74.3631C29.6747 74.2855 29.7467 74.1833 29.7875 74.0676C29.8282 73.952 29.8361 73.8274 29.8102 73.7076C29.7912 73.6194 29.7527 73.5364 29.6976 73.4646C29.6424 73.3928 29.572 73.334 29.4913 73.2925C28.7966 72.9188 28.187 72.4067 27.7007 71.7883C27.2144 71.1698 26.8618 70.4583 26.665 69.6983V69.6218L27.1049 69.0318C27.9203 70.2996 28.8676 71.4786 29.9312 72.5496C30.0294 72.6496 30.1581 72.7145 30.2974 72.7343C30.4366 72.754 30.5785 72.7275 30.701 72.6589C30.8122 72.6062 30.9033 72.5193 30.9608 72.411C31.0182 72.3027 31.039 72.1789 31.0199 72.058C30.9924 71.9302 30.9179 71.8172 30.8109 71.7412C29.6763 70.6017 28.6764 69.3372 27.8307 67.9721L28.3146 67.3385C30.4799 70.9652 33.9765 73.6164 38.0691 74.7346L11.6978 108.23C11.5854 108.284 11.4931 108.372 11.4339 108.481C11.1274 109.055 10.6959 109.554 10.1708 109.941C9.64579 110.329 9.04037 110.595 8.39867 110.721C7.6417 110.864 6.86236 110.84 6.11561 110.651C5.36886 110.463 4.67289 110.113 4.07678 109.628C2.73264 108.438 1.78838 106.867 1.37147 105.127C1.25359 104.619 1.22016 104.095 1.2725 103.576C1.93269 104.972 2.88056 106.215 4.05479 107.225ZM25.3123 46.1554C24.1233 40.7766 24.4004 35.18 26.1151 29.943C30.8109 16.003 45.2832 7.95147 60.5033 10.7919C62.7604 11.2083 64.9706 11.845 67.1016 12.6928C69.3108 13.572 71.3957 14.7325 73.3041 16.1451C75.336 17.6703 77.1265 19.4894 78.6157 21.5419C81.7008 25.7369 83.8901 30.5141 85.049 35.5802C85.9566 39.2874 86.0097 43.1503 85.2042 46.8807C84.3987 50.6111 82.7555 54.1126 80.3972 57.1239C77.2646 60.907 73.3625 63.9897 68.9466 66.1699C64.5308 68.3501 59.701 69.5786 54.7738 69.7747C47.8126 69.8512 42.292 68.1906 37.4092 64.5308C35.3322 62.947 33.4301 61.149 31.7347 59.1668C28.5246 55.4364 26.3155 50.9608 25.3123 46.1554ZM41.6982 70.1243L38.8939 73.6858C36.8301 73.2074 34.891 72.3025 33.2027 71.0301C31.5145 69.7577 30.115 68.1462 29.0954 66.3007L31.5258 63.0888C34.0807 66.4453 37.6427 68.9089 41.6982 70.1243ZM36.6724 65.4922L36.7934 65.3284L36.6724 65.4922C38.5129 66.882 40.5276 68.0278 42.6659 68.9007L42.5009 69.1083C38.4005 67.9738 34.8026 65.5038 32.2846 62.0946L32.5045 61.7997C33.7942 63.1446 35.1918 64.3832 36.6834 65.5031L36.6724 65.4922Z" fill="#95165B"/>
<path d="M79.3933 36.7849C78.4652 32.6565 76.7018 28.7606 74.2114 25.3361C71.8133 22.0446 68.5231 19.5045 64.7278 18.0146C62.983 17.3214 61.1734 16.8029 59.3258 16.4669C46.8827 14.1288 35.0227 20.7588 31.227 32.1856C29.8309 36.5043 29.6219 41.1177 30.6219 45.5444C31.4319 49.4922 33.2254 53.1728 35.8368 56.2468C37.212 57.8703 38.7574 59.3422 40.4466 60.6375C44.5461 63.6914 49.5841 65.2246 54.694 64.9734C58.7129 64.8163 62.653 63.8128 66.2557 62.0289C69.8583 60.2449 73.042 57.7208 75.5976 54.6222C77.5364 52.1265 78.8848 49.2259 79.5421 46.1371C80.1993 43.0483 80.1485 39.8513 79.3933 36.7849ZM31.7221 45.281C30.7907 41.0757 31.0034 36.6984 32.3382 32.6028C35.9688 21.7138 47.2128 15.4241 59.0618 17.6414C60.8309 17.961 62.5632 18.4575 64.2327 19.1232C65.9781 19.806 67.6245 20.7178 69.1285 21.8345C70.71 23.0263 72.1042 24.447 73.2652 26.0496C75.6544 29.3327 77.3466 33.0679 78.2381 37.0264C78.9474 39.9212 78.9913 42.9386 78.3663 45.8527C77.7414 48.7668 76.4639 51.5021 74.6295 53.8539C72.1885 56.8108 69.1487 59.2196 65.7093 60.9221C62.2699 62.6247 58.5086 63.5826 54.672 63.733C49.8165 63.9776 45.0273 62.5258 41.1287 59.6277C39.5181 58.3882 38.043 56.9827 36.728 55.4345C34.2287 52.5248 32.5068 49.0322 31.7221 45.281Z" fill="#95165B"/>
<path d="M75.977 36.114L75.1336 33.4213C75.1129 33.346 75.0791 33.2759 75.034 33.2153C74.9889 33.1546 74.9335 33.1046 74.8709 33.068C74.8083 33.0314 74.7399 33.0091 74.6696 33.0022C74.5992 32.9954 74.5283 33.0042 74.4611 33.0282C74.3092 33.068 74.1772 33.1725 74.0935 33.3195C74.0097 33.4664 73.9807 33.6441 74.0127 33.8145V33.8979L74.8561 36.5787C74.8767 36.654 74.9106 36.7241 74.9557 36.7847C75.0008 36.8454 75.0562 36.8954 75.1188 36.932C75.1813 36.9686 75.2497 36.9909 75.3201 36.9978C75.3904 37.0046 75.4613 36.9958 75.5286 36.9718C75.6092 36.9497 75.685 36.9098 75.7515 36.8543C75.818 36.7988 75.8738 36.729 75.9157 36.649C75.9575 36.5689 75.9845 36.4803 75.995 36.3884C76.0055 36.2965 75.9994 36.2032 75.977 36.114Z" fill="#95165B"/>
<path d="M52.677 58.5129C52.5866 58.4932 52.4926 58.4968 52.404 58.5234C52.3154 58.5499 52.2353 58.5985 52.1713 58.6644C52.0996 58.7401 52.048 58.8321 52.0211 58.9322C51.9943 59.0323 51.993 59.1374 52.0174 59.2381C52.041 59.3565 52.1012 59.4647 52.1898 59.5481C52.2784 59.6314 52.391 59.6857 52.5121 59.7036C55.4282 60.2089 58.422 60.0668 61.2752 59.2878C64.1284 58.5088 66.7689 57.1124 69.0041 55.2006C71.2965 53.2525 73.1144 50.8214 74.3229 48.0876C75.5315 45.3538 76.0998 42.3874 75.9857 39.408C75.9565 39.2775 75.8774 39.1631 75.7648 39.0885C75.6522 39.0139 75.5147 38.9849 75.381 39.0075C75.2177 39.0213 75.066 39.0964 74.9575 39.2174C74.849 39.3383 74.792 39.4957 74.7982 39.657C74.8769 42.4125 74.3326 45.1509 73.2048 47.674C72.077 50.1972 70.3938 52.4421 68.2769 54.2465C66.1601 56.0509 63.6624 57.3697 60.9645 58.1076C58.2666 58.8454 55.4359 58.9838 52.677 58.5129Z" fill="#95165B"/>
<path d="M57.006 66.9156C64.2968 66.64 71.5658 62.6495 76.4337 56.2118C78.7243 53.3175 80.3678 49.9569 81.2514 46.3607C82.135 42.7644 82.2377 39.0177 81.5525 35.3776L81.3233 34.3854C79.7439 28.5101 76.2484 23.3446 71.4021 19.7243C69.5641 18.3216 67.5627 17.1518 65.4428 16.2409C60.9932 14.3217 56.1225 13.617 51.3183 14.1974C46.5142 14.7778 41.9454 16.6229 38.0695 19.5479C35.3199 21.6574 33.0222 24.3079 31.3151 27.3394C29.608 30.3708 28.527 33.7202 28.1374 37.1854C27.8653 39.7147 27.9979 42.2718 28.5303 44.7585C30.011 51.3515 33.7973 57.1836 39.1937 61.1834C44.2065 65.0881 50.3934 67.1386 56.7222 66.9927L57.006 66.9156ZM57.006 65.703H56.7004C50.6465 65.8372 44.7298 63.8725 39.9359 60.1362C34.7746 56.3099 31.1516 50.733 29.7309 44.4278C29.2273 42.0712 29.102 39.6482 29.3598 37.2515C29.7336 33.9545 30.7648 30.7681 32.3911 27.8846C34.0174 25.001 36.2053 22.4801 38.8226 20.4739C42.5358 17.6819 46.9105 15.925 51.508 15.3793C56.1056 14.8337 60.7644 15.5186 65.0172 17.3653C67.0472 18.2267 68.9644 19.3374 70.7254 20.6723C75.3586 24.1261 78.7008 29.0593 80.21 34.6721L80.4283 35.6201C81.0789 39.0887 80.9777 42.6584 80.1318 46.0837C79.2858 49.5091 77.7151 52.7086 75.5278 55.4622C70.7691 61.6133 63.8493 65.4384 56.9078 65.692L57.006 65.703Z" fill="#95165B"/>
<path d="M24.3718 17.0716C18.0726 23.2387 15.1669 33.2067 18.221 41.7945C18.3165 42.0574 18.7619 42.0793 18.7407 41.7945C18.2741 32.9548 18.7407 24.586 24.8914 17.696C25.2201 17.3236 24.7323 16.754 24.3612 17.1154L24.3718 17.0716Z" fill="#95165B"/>
<path d="M52.1684 75.5289C56.0637 77.553 61.4445 77.7168 64.8996 74.5695C64.9498 74.5208 64.9834 74.4558 64.9953 74.3847C65.0071 74.3136 64.9965 74.2403 64.9652 74.1763C64.9338 74.1122 64.8834 74.061 64.8218 74.0305C64.7602 74.0001 64.6908 73.9921 64.6246 74.0079C62.864 74.4408 61.2024 75.1779 59.4198 75.5406C57.0881 75.9418 54.6983 75.6877 52.4875 74.8035C52.0913 74.6514 51.7942 75.3183 52.1794 75.5172L52.1684 75.5289Z" fill="#95165B"/>
<path d="M75.1949 6.76285C81.6771 10.503 85.584 16.1243 88.6177 22.8677C88.6351 22.9173 88.6713 22.9579 88.7184 22.9806C88.7655 23.0033 88.8195 23.0062 88.8687 22.9887C88.9179 22.9712 88.9582 22.9347 88.9807 22.8872C89.0033 22.8398 89.0061 22.7853 88.9888 22.7357C87.1663 15.6403 82.441 8.76496 75.5222 6.02582C75.0857 5.86081 74.7911 6.53184 75.1839 6.76285H75.1949Z" fill="#95165B"/>
<path d="M92 30.4655C92.3922 34.6151 93.257 38.5692 92.8648 42.784C92.8648 43.0338 93.1866 43.0773 93.257 42.86C94.534 38.7539 94.0212 34.3327 92.8045 30.2808C92.7681 30.1821 92.7003 30.1007 92.6133 30.0512C92.5262 30.0017 92.4257 29.9875 92.3298 30.0111C92.2339 30.0347 92.1489 30.0946 92.0903 30.1799C92.0317 30.2652 92.0032 30.3704 92.0101 30.4764L92 30.4655Z" fill="#95165B"/>
<path d="M49.4177 1.9692C52.1493 0.800635 54.8597 1.3148 57.7296 1.21197C57.7873 1.21287 57.8439 1.19718 57.8906 1.1673C57.9373 1.13741 57.9717 1.09495 57.9885 1.04634C58.0053 0.997734 58.0037 0.945629 57.9838 0.89792C57.9639 0.85021 57.9269 0.809494 57.8784 0.781938C55.3487 -0.704476 51.501 0.146239 49.1519 1.52047C49.0843 1.5527 49.034 1.60725 49.012 1.67212C48.9901 1.73699 48.9984 1.80686 49.035 1.86637C49.0717 1.92587 49.1337 1.97013 49.2074 1.98942C49.2812 2.0087 49.3606 2.00143 49.4283 1.9692H49.4177Z" fill="#95165B"/>
<path d="M80.5915 66.9657C81.84 66.3412 83.9901 65.0089 84 63.3332C84 63.1251 83.7622 62.9065 83.564 63.0418C83.0471 63.5166 82.5789 64.0468 82.1669 64.6238C81.5721 65.2481 80.9065 65.7934 80.1853 66.2475C80.1016 66.3011 80.0404 66.3861 80.0141 66.4854C79.9879 66.5846 79.9985 66.6906 80.0438 66.7818C80.0892 66.8731 80.1659 66.9429 80.2583 66.9771C80.3508 67.0112 80.4522 67.0071 80.542 66.9657H80.5915Z" fill="#95165B"/>
</svg>
