<svg width="94" height="103" viewBox="0 0 94 103" fill="none" xmlns="http://www.w3.org/2000/svg">
<path d="M77.2772 8.09334C77.1399 8.09334 77.1125 8.20028 77.0026 8.22702C76.9019 10.3035 79.7489 10.0539 81.0945 10.6154C83.2275 11.5065 85.4153 13.5562 87.2279 14.7326C89.196 15.9981 91.4663 16.5149 92.1346 18.7072C92.1346 19.9638 92.6563 21.2382 93.7732 20.9619C94.6337 19.0459 92.8577 16.6575 91.5945 15.5257C90.3312 14.3939 88.3081 13.5473 86.7152 12.3353C84.0015 10.4125 80.9574 8.97605 77.7258 8.09334C77.6342 7.87055 77.5152 8.12008 77.2772 8.09334Z" fill="#333945"/>
<path d="M84.1001 9.2905C84.5493 9.74293 85.6032 9.52614 86.4153 9.57327C87.3482 10.6855 88.8686 11.0531 90.1472 12.0993C91.4257 13.1456 92.4018 16.0204 94 14.6254C92.8251 11.6563 89.2055 10.1388 86.804 8.02746C85.5255 8.01803 83.5299 7.72583 84.1001 9.2905Z" fill="#333945"/>
<path d="M24.9518 0.0735651C23.4198 1.17252 21.2607 1.8617 19.4868 3.39838C17.3904 5.18652 15.3298 7.55207 13.6186 9.31227C13.4753 10.8396 11.8268 11.3891 12.0149 12.7768C13.8067 13.7081 13.9322 11.4822 14.5503 10.5602C14.7743 10.2156 15.285 10.0201 15.6165 9.62892C15.948 9.23776 16.0196 8.6976 16.2884 8.38095C16.9424 7.5707 18.1698 6.80702 19.0836 5.88501C19.9289 4.96011 20.8625 4.12696 21.8699 3.39838C23.3123 2.46706 25.122 2.20629 26 0.604418C25.8477 0.269142 25.3012 -0.177892 24.9518 0.0735651Z" fill="#333945"/>
<path d="M26.3982 3.16942C24.6622 3.98981 22.8188 5.66665 20.8055 7.19023C18.0153 9.14296 15.6571 11.657 13.8794 14.5738C13.262 14.7721 12.8056 15.1868 13.083 15.917C15.1769 16.494 15.7675 13.9156 16.8145 12.6986C18.971 10.1833 21.584 8.48843 24.1342 6.38787C24.5369 6.05431 28.0178 4.11602 27.9999 3.68329C27.9552 2.88994 26.9888 2.88994 26.3982 3.16942Z" fill="#333945"/>
<path d="M78.3545 95.9607C77.5636 96.1344 76.8818 96.5065 76.3364 96.6058C75.5636 96.7464 74.2182 96.2998 74 97.4824C74.6182 98.3591 76.0091 97.9125 77.0636 97.6561C79.8818 96.9697 83.5636 96.7381 86 93.6782C85.8664 93.4142 85.6672 93.182 85.4182 93C84.0636 93.2729 83.0727 94.53 82.0455 95.0675C80.8715 95.5325 79.6272 95.8336 78.3545 95.9607Z" fill="#333945"/>
<path d="M75.5269 102.979C78.577 102.924 83.438 102.452 86.1453 100.758C87.0243 100.221 87.9824 99.6567 88 98.5461C88 98.1851 87.789 98.398 87.5957 98C85.074 99.8897 82.0976 100.993 79.0078 101.184C76.9597 101.35 74.6127 101.758 73.0217 101.369C72.3361 101.202 71.668 100.221 71 101.101C71.4747 103.239 73.6986 103.007 75.5269 102.979Z" fill="#333945"/>
<path d="M12.9969 90.2089C12.9969 89.2985 9.56634 88.643 8.38024 88.1787C6.87782 87.5514 5.46385 86.7312 4.17413 85.7388C3.46207 84.4591 2.64417 83.241 1.72894 82.0971C1.46434 81.8422 1.48259 82.1791 1.04465 82.0971C0.716188 83.6175 2.27637 85.8389 3.22525 86.8313C5.05002 88.734 8.17951 89.781 10.9623 90.4729C11.5006 91.1193 13.079 91.3196 12.9969 90.2089Z" fill="#333945"/>
<path d="M2.64034 89.1111C1.82439 88.3463 1.66119 87.4021 0.745508 87.1472C0.745508 87.0622 0.745508 86.9772 0.609515 87.0056C0.473522 87.0339 0.391927 87.1566 0.201537 87.1472C-0.560023 88.0914 1.03563 89.6021 1.68839 90.2347C3.12036 91.4481 4.71078 92.4432 6.41188 93.1901C7.3185 93.5489 10.945 94.6441 10.9994 93.4733C11.0538 92.3025 7.56328 91.8871 6.68386 91.5094C5.22994 90.9218 3.86738 90.1136 2.64034 89.1111Z" fill="#333945"/>
<path d="M75.0091 24.3831C73.6847 27.0842 72.9992 30.0244 73 33C74.2096 32.8328 75.3188 32.2714 76.1346 31.4134C77.6601 29.7654 78.0507 27.4336 77.9949 25.2772C77.9949 24.874 77.9949 24.4708 77.9112 24.0675C76.9316 23.9141 75.9259 24.0234 75.0091 24.3831Z" fill="#333945"/>
<path d="M16.9882 64.4871H16.7364C13.7961 64.9268 12.1146 67.8074 12.0247 70.2931C11.9101 71.3623 12.1969 72.436 12.8298 73.3063C13.4626 74.1766 14.3965 74.7816 15.4506 75.0044C20.405 76.1081 62.4596 82.8385 62.8912 82.9103C63.1328 82.9674 63.3801 82.9975 63.6285 83C67.8007 83 70.768 75.2287 71.784 61.6962C72.0807 57.7298 72.2156 53.3237 72.3505 49.0522C72.4944 44.3589 72.6472 39.6028 73.0069 35.5377L79.1753 36.6235H79.2472C79.3128 36.6237 79.3775 36.6083 79.436 36.5786C82.4932 34.9992 84.3905 31.7597 83.9319 28.8701C83.6891 27.2549 82.4842 24.3832 77.1881 23.4859L34.9268 16.0556C34.0801 15.9276 33.2146 16.0216 32.4153 16.3284C31.616 16.6352 30.9105 17.1442 30.3679 17.8055C27.059 21.2963 25.5933 28.8342 25.872 34.1557C26.2227 40.2668 22.8328 56.0338 19.317 64.7294C18.2021 64.5678 17.3838 64.4871 16.9882 64.4871ZM26.6993 34.0839C26.4026 28.8701 27.9132 21.5206 30.9434 18.3529C31.396 17.7867 31.9898 17.3494 32.6654 17.0848C33.3409 16.8201 34.0743 16.7375 34.7919 16.8453L75.6055 24.0243C72.2426 26.528 71.9189 37.0542 71.5502 49.0163C71.4154 53.2788 71.2805 57.676 70.9838 61.5796C70.0216 74.439 67.2791 82.1206 63.6555 82.1206C63.4769 82.1183 63.2991 82.0972 63.1249 82.0578C62.6484 81.7706 59.4203 79.7335 59.0337 77.5709C58.6111 75.1928 60.4904 71.8276 60.5083 71.8007C60.541 71.7432 60.5594 71.6788 60.5619 71.6127C60.5644 71.5467 60.551 71.481 60.5229 71.4212C60.4947 71.3614 60.4525 71.3093 60.3999 71.2691C60.3473 71.229 60.2858 71.202 60.2206 71.1905C58.7999 70.9841 30.296 66.1293 20.1892 64.8101C23.759 55.9351 27.0679 40.3745 26.6993 34.0839ZM79.1753 35.771L73.0788 34.7031C73.6723 28.7625 74.7783 24.464 77.1161 24.3025C80.6319 24.9306 82.763 26.5998 83.1316 28.9868C83.5003 31.3738 81.8728 34.3352 79.1932 35.771H79.1753ZM58.1705 77.7414C58.4582 79.3746 59.9688 80.8553 61.1917 81.7975C53.0542 80.4873 19.9465 75.1659 15.6034 74.2057C14.7458 74.0198 13.9884 73.5213 13.4796 72.8077C12.9707 72.094 12.7469 71.2166 12.852 70.347C12.9239 68.1933 14.3626 65.6986 16.8623 65.3306H16.9882C20.3331 65.3306 54.6727 71.1367 59.5013 71.9533C58.9528 73.0391 57.8288 75.6415 58.1705 77.7414Z" fill="#333945"/>
<path d="M49.7657 77.0001C49.3993 76.9969 49.0398 77.1395 48.7299 77.4111C48.42 77.6827 48.1725 78.0718 48.0169 78.5325C47.932 78.8154 48.1867 79.1808 48.3564 78.8979C48.7523 78.299 49.2611 77.8662 49.8252 77.6484C49.8804 77.6274 49.9283 77.5794 49.96 77.5132C49.9918 77.4471 50.0053 77.3673 49.9981 77.2884C49.9909 77.2095 49.9634 77.137 49.9207 77.084C49.878 77.031 49.823 77.0012 49.7657 77.0001Z" fill="#333945"/>
<path d="M54.6784 75.0091C52.9336 75.512 51.3706 77.2418 50.0558 78.6197C49.8987 78.7806 50.1054 79.1125 50.2791 78.9616C51.7407 77.6922 53.2775 76.556 54.8769 75.5623C55.1332 75.4014 54.9513 74.9287 54.6784 75.0091Z" fill="#333945"/>
<path d="M55.5938 77.0392C54.7243 77.5233 53.9247 78.1094 53.0952 78.636C52.8653 78.7804 53.0952 79.1032 53.3251 78.9673C54.2842 78.5637 55.164 78.0365 55.9336 77.4044C56.1235 77.2175 55.8736 76.8863 55.5938 77.0392Z" fill="#333945"/>
<path d="M55.7971 79.019C55.5258 79.2054 55.2746 79.4307 55.0493 79.6896C54.9022 79.8573 55.1167 80.1051 55.27 79.9521C55.4232 79.799 55.7358 79.5001 55.9565 79.2231C56.0668 79.1721 55.9503 78.9315 55.7971 79.019Z" fill="#333945"/>
<path d="M76.8897 26.0008C76.5995 26.0289 76.3203 26.1858 76.0839 26.4534C75.9287 26.6514 76.0063 26.9249 76.1735 26.9909C76.191 27.0014 76.2102 27.0028 76.2283 26.9952C76.2464 26.9875 76.2625 26.971 76.2743 26.9481C76.2862 26.9252 76.2932 26.897 76.2944 26.8675C76.2956 26.8379 76.2909 26.8085 76.2809 26.7835L76.5197 26.6609C76.6595 26.5917 76.7938 26.4967 76.9196 26.378C77.0449 26.312 77.0151 25.9819 76.8897 26.0008Z" fill="#333945"/>
<path d="M79.6558 26.0094C77.9098 26.8861 76.3496 28.1001 75.0631 29.5831C74.8651 29.822 75.1763 30.1469 75.4026 29.9271C76.111 29.2284 76.8849 28.6012 77.7131 28.0543C78.5126 27.5979 79.2618 27.0565 79.9482 26.4394C79.9813 26.393 79.9993 26.3374 80 26.2802C80.0006 26.223 79.9838 26.167 79.9517 26.1199C79.9197 26.0728 79.8741 26.0369 79.8211 26.0171C79.7681 25.9973 79.7104 25.9946 79.6558 26.0094Z" fill="#333945"/>
<path d="M79.5508 28.0211C79.0241 28.1998 78.539 28.4182 78.1077 28.6709C77.7883 28.8455 78.2496 29.111 78.5808 28.9503C78.912 28.7896 79.4917 28.5241 79.9057 28.2866C80.1659 28.1539 79.8347 27.9303 79.5508 28.0211Z" fill="#333945"/>
<path d="M64.6242 74.0142C64.1028 74.2037 63.5985 74.4192 63.1148 74.6593C63.0612 74.6845 63.0226 74.7246 63.0073 74.771C62.9919 74.8174 63.0011 74.8665 63.0327 74.9079C63.0643 74.9493 63.116 74.9798 63.1768 74.9929C63.2376 75.006 63.3028 75.0008 63.3586 74.9783C63.9106 74.7864 64.4325 74.5486 64.9148 74.2694C65.1492 74.1559 64.8492 73.9433 64.6242 74.0142Z" fill="#333945"/>
<path d="M65.6379 75.0305C64.096 75.9004 62.5997 76.8364 61.076 77.6968C60.8936 77.8008 61.076 78.075 61.2403 77.9805C62.8187 77.2335 64.6252 76.6095 65.939 75.3992C66.1215 75.1818 65.8569 74.9076 65.6379 75.0305Z" fill="#333945"/>
<path d="M64.6989 78.0466C64.5127 78.2024 64.3173 78.3421 64.1141 78.4646C63.8752 78.6007 64.0482 79.1063 64.2953 78.9799C64.5495 78.8703 64.7741 78.6823 64.9459 78.4355C65.0942 78.2313 64.913 77.8716 64.6989 78.0466Z" fill="#333945"/>
<path d="M64.8469 33.3867C62.5877 32.1345 60.1355 31.211 57.5755 30.6483C55.3076 30.0826 52.9162 30.8779 50.6659 31.1238C48.4157 31.3698 46.5714 29.8776 44.6123 29.2135C42.6533 28.5494 40.606 29.5578 39.0441 30.5499C38.9382 30.6155 39.0441 30.8123 39.1412 30.7631C40.1056 30.3388 41.0956 29.9665 42.1062 29.648C43.624 29.2381 45.0536 29.9432 46.3419 30.5991C47.6341 31.3783 49.1346 31.8071 50.6748 31.8371C52.9691 31.8371 55.0341 31.0172 57.3637 31.378C59.8434 31.8043 62.2525 33.1244 64.5822 33.977C64.9616 34.1164 65.1558 33.5835 64.8469 33.3867Z" fill="#333945"/>
<path d="M62.853 42.3297C57.7689 38.5761 51.3202 42.3297 45.9061 40.9358C41.1877 39.7012 36.5674 35.7285 32.0542 39.7709C31.9204 39.8903 32.0541 40.1492 32.2415 40.0397C37.3791 36.1566 42.1153 41.1548 47.2975 42.031C49.563 42.4293 52.0694 41.7423 54.3439 41.6128C57.1621 41.4423 59.9825 41.9027 62.639 42.9669C62.9601 43.1461 63.1474 42.5488 62.853 42.3297Z" fill="#333945"/>
<path d="M60.8522 49.313C55.7726 45.5658 49.3296 49.313 43.9204 47.9214C39.1705 46.6889 34.5098 42.7231 30.0541 46.7883C29.9204 46.9076 30.0541 47.166 30.2412 47.0567C35.3743 43.1803 40.1063 48.1699 45.2838 49.0446C47.5473 49.4422 50.0515 48.7563 52.3239 48.6271C55.1396 48.4569 57.9575 48.9165 60.6116 49.9789C60.968 50.1181 61.1463 49.5316 60.8522 49.313Z" fill="#333945"/>
<path d="M59.8526 55.4726C54.7745 52.4468 48.3332 55.4726 42.9254 54.3489C38.1769 53.3938 33.5621 50.1834 29.0541 53.3938C28.9205 53.4902 29.0541 53.6988 29.2412 53.6105C34.3728 50.4804 39.1035 54.5095 44.2796 55.2158C46.5425 55.5368 49.0459 54.983 51.3178 54.8787C54.1327 54.7412 56.9498 55.1123 59.6031 55.9702C59.9684 56.1227 60.1466 55.6492 59.8526 55.4726Z" fill="#333945"/>
<path d="M57.8526 64.3328C52.7745 60.5803 46.3332 64.3328 40.9254 62.9393C36.168 61.705 31.5621 57.7236 27.0541 61.7747C26.9205 61.8942 27.0541 62.153 27.2412 62.0435C32.3728 58.1616 37.1035 63.1583 42.2796 64.0342C44.5425 64.4323 47.0459 63.7455 49.3178 63.6161C52.1327 63.4457 54.9498 63.9059 57.6031 64.9698C57.9684 65.139 58.1466 64.5518 57.8526 64.3328Z" fill="#333945"/>
</svg>
