<svg width="94" height="69" viewBox="0 0 94 69" fill="none" xmlns="http://www.w3.org/2000/svg">
<path d="M24.0522 38.5053C25.2745 42.3363 26.6966 46.1033 28.3129 49.7913C29.6569 52.822 31.001 56.2875 33.2254 58.8175C34.4015 60.1352 35.2415 60.234 36.8745 59.6871C39.2261 58.8398 41.528 57.8654 43.7696 56.7685C50.0144 53.9284 56.1024 50.7682 62.0085 47.3009C63.0904 46.642 65.1401 45.7658 65.7517 44.5733C66.5312 43.0711 65.2745 40.5016 64.7369 39.1181C62.6541 33.6961 60.2486 28.3987 57.5327 23.2531C57.237 22.6799 56.3567 23.1806 56.6524 23.7604C58.6685 27.7135 60.5905 31.7324 62.331 35.8107C63.2853 38.0507 64.4547 40.4753 64.8377 42.8998C65.0998 44.5667 63.7423 45.0542 62.4251 45.8778C57.4767 48.8567 52.3711 51.5771 47.1297 54.0277C44.5693 55.2795 41.9887 56.5049 39.3678 57.6184C38.2186 58.1125 36.0076 59.4631 34.7375 58.8899C33.6152 58.376 32.7214 56.4456 32.1838 55.4508C31.2093 53.7444 30.3693 51.9589 29.5696 50.18C27.8264 46.2887 26.3052 42.3053 25.0132 38.2484C24.8183 37.6357 23.8304 37.8992 24.0253 38.5119L24.0522 38.5053Z" fill="#95165B"/>
<path d="M24.1522 39.2317C25.5762 41.0465 30.2126 41.0264 32.1665 41.3356C36.7432 42.0548 41.3862 42.6261 45.8305 43.9838C45.9587 44.0171 46.0946 43.9986 46.2095 43.9321C46.3244 43.8656 46.4094 43.7565 46.4465 43.6276C47.0558 41.6111 48.3209 39.6821 49.3608 37.8605C50.8312 35.2795 52.3612 32.732 53.858 30.1644C54.3945 29.2368 58.3686 23.8461 56.5074 23.0731C55.7855 22.7707 54.3151 23.4899 53.6594 23.7117C51.7783 24.3435 49.937 25.103 48.109 25.8693C43.2518 27.9037 38.4764 30.1151 33.7826 32.5035C31.5174 33.6528 29.2522 34.8358 27.093 36.1869C26.0664 36.859 24.7417 37.5312 24.0793 38.6133C23.7349 39.1712 24.6026 39.6821 24.947 39.1309C26.3114 36.9464 30.2457 35.508 32.3784 34.372C36.571 32.1607 40.8564 30.1375 45.188 28.2286C48.4335 26.7969 51.8114 25.1232 55.2821 24.2696C55.6082 24.1361 55.9571 24.0699 56.3087 24.0747C56.0371 24.0074 56.1961 23.7117 55.9378 24.1688C55.6795 24.6258 55.5801 24.9552 55.3947 25.3249C54.4542 27.2002 53.3613 29.0083 52.3016 30.8164C49.9966 34.7619 46.771 38.9292 45.4464 43.352L46.1087 42.9958C42.0751 41.7657 37.8692 41.1877 33.723 40.5491C31.8684 40.2668 30.0205 39.998 28.2256 39.635C27.3248 39.4535 25.51 39.3191 24.9139 38.5192C24.4701 37.995 23.7614 38.7209 24.1522 39.2317Z" fill="#95165B"/>
<path d="M50.3163 52.6693C49.6632 54.0664 49.2245 55.551 49.0147 57.0745C48.9834 57.2013 49.0025 57.335 49.0683 57.4484C49.1341 57.5617 49.2415 57.6461 49.3685 57.6842C57.2189 59.6426 64.9115 62.1667 72.384 65.2361C74.3865 66.0621 76.3556 66.9274 78.3181 67.8189C79.326 68.2778 80.5075 68.9727 81.6556 68.9989C83.6581 69.0448 84.379 67.6354 85.0532 65.99C87.9902 58.8511 91.1541 51.7908 93.9643 44.5995C94.1979 44.0029 93.2167 43.7407 92.9831 44.3373C90.3732 51.0304 87.4495 57.5859 84.7061 64.1741C84.4925 64.692 84.2855 65.2164 84.0386 65.7277C83.8936 66.2091 83.6849 66.6698 83.4178 67.0978C82.2096 68.2254 80.4607 67.7009 79.2192 67.1568C76.1821 65.8457 73.1716 64.4625 70.0811 63.2235C63.4093 60.6038 56.5707 58.414 49.6088 56.6681L49.9626 57.2777C50.1462 55.8371 50.5489 54.4317 51.1574 53.1085C51.4244 52.5316 50.55 52.0203 50.283 52.6037L50.3163 52.6693Z" fill="#95165B"/>
<path d="M63.4124 46.1554C65.0253 48.6102 66.4763 51.179 67.9003 53.7478C67.9582 53.8444 68.0462 53.9195 68.1509 53.9619C68.2556 54.0043 68.3714 54.0115 68.4807 53.9826C72.7189 52.4712 76.9572 50.9689 81.1954 49.4754C84.2324 48.4068 87.2716 47.3426 90.3131 46.2829C91.0757 46.0213 94.1869 45.6122 93.9912 44.4384C93.8832 43.7677 92.385 43.3653 91.926 43.1641C90.2321 42.4129 88.4976 41.7556 86.77 41.0916C81.7893 39.1868 76.7682 37.3893 71.7471 35.5985C68.3682 34.3957 64.9938 33.2063 61.6239 32.0304C60.9963 31.8157 60.7331 32.8017 61.354 33.0163C69.2298 35.7394 77.0854 38.5161 84.887 41.4471C86.9117 42.205 88.8958 42.9562 90.8665 43.7945C91.3825 44.0858 91.9194 44.3391 92.4727 44.5524C92.6482 44.5927 92.8034 44.7939 92.9788 44.8274C93.1543 44.861 93.0261 44.8677 93.0801 44.9012C93.1971 44.3646 93.1003 44.1813 92.7899 44.3512L92.2162 44.5457C91.0217 44.6799 89.6517 45.4244 88.5179 45.8201L83.7937 47.4633L74.5276 50.7363C72.503 51.4607 70.4109 52.3796 68.312 52.943C68.15 52.9832 68.7979 53.4795 68.5684 52.943C68.2817 52.3463 67.9571 51.7683 67.5966 51.2125C66.5303 49.3346 65.4437 47.47 64.256 45.6658C63.8983 45.1158 63.0074 45.6256 63.3719 46.1823L63.4124 46.1554Z" fill="#95165B"/>
<path d="M26.1036 39.2291L25.0486 41.322C24.7897 41.835 25.6376 42.2897 25.8964 41.7709L26.9514 39.678C27.2103 39.165 26.3624 38.7103 26.1036 39.2291Z" fill="#95165B"/>
<path d="M28.0592 39.1662C26.8559 40.392 26.1355 41.9165 26.0023 43.5192C25.9429 44.1603 27.0716 44.1603 27.131 43.5192C27.2451 42.1699 27.8507 40.8863 28.8613 39.8522C29.3217 39.3713 28.5271 38.679 28.0667 39.1662H28.0592Z" fill="#95165B"/>
<path d="M29.1941 40.3036L27.0418 46.1869C26.8143 46.808 27.5784 47.3454 27.8059 46.7243L29.9582 40.8131C30.1857 40.192 29.4216 39.6546 29.1941 40.2757V40.3036Z" fill="#95165B"/>
<path d="M31.998 40.2551C30.5077 42.8794 29.1858 45.5912 28.0399 48.3748C27.786 48.9999 28.816 49.2678 29.0771 48.6496C30.1932 45.9528 31.4797 43.3259 32.9293 40.784C33.2609 40.1933 32.3367 39.6712 32.0051 40.2551H31.998Z" fill="#95165B"/>
<path d="M81.7556 64.8914C83.2059 63.3966 84.3063 61.5785 84.9727 59.5761C85.1655 58.9966 84.2799 58.7535 84.0871 59.3268C83.4677 61.1736 82.4476 62.849 81.105 64.2247C81.0324 64.3155 80.9951 64.4311 81.0005 64.5488C81.0059 64.6665 81.0535 64.7779 81.1341 64.8613C81.2147 64.9446 81.3224 64.9939 81.4362 64.9995C81.55 65.005 81.6618 64.9665 81.7496 64.8914H81.7556Z" fill="#95165B"/>
<path d="M85.3586 55.2673L85.044 56.185C84.8342 56.7967 85.4316 57.3445 85.6414 56.7327L85.956 55.815C86.1658 55.2033 85.5684 54.6555 85.3586 55.2673Z" fill="#95165B"/>
<path d="M60.0194 37.6448C60.3638 39.1576 60.3987 40.793 60.1195 42.3365C60.0954 42.4709 60.1075 42.6145 60.1531 42.7355C60.1988 42.8564 60.2743 42.945 60.363 42.9816C60.4517 43.0182 60.5463 42.9998 60.6261 42.9306C60.7059 42.8614 60.7643 42.7469 60.7884 42.6124C61.1014 40.8863 61.0665 39.0577 60.6883 37.3619C60.5473 36.7271 59.8784 36.9962 60.0194 37.6379V37.6448Z" fill="#95165B"/>
<path d="M59.0002 34.4423C58.9956 34.7239 59.0801 35.0025 59.2467 35.2552C59.4133 35.508 59.6574 35.7279 59.9593 35.8971C60.5519 36.2462 61.394 35.6236 60.7936 35.2744C60.6132 35.1813 60.4658 35.0569 60.364 34.912C60.2621 34.7671 60.2089 34.6059 60.2088 34.4423C60.2088 34.325 60.1463 34.2125 60.0352 34.1295C59.9241 34.0466 59.7733 34 59.6162 34C59.459 34 59.3083 34.0466 59.1971 34.1295C59.086 34.2125 59.0236 34.325 59.0236 34.4423H59.0002Z" fill="#95165B"/>
<path d="M4.82785 18.65C8.8405 13.5646 13.8536 9.37949 19.5489 6.36031C25.2442 3.34114 31.4972 1.55385 37.9111 1.11191C44.2687 0.604481 50.658 1.53914 56.6138 3.84782C60.3583 5.35358 64.0564 7.59205 65.8423 11.4035C66.8316 13.5008 67.21 16.109 66.2407 18.2601C65.6365 19.6179 64.5809 20.8145 63.0007 20.8145C62.4032 20.8145 60.8164 20.391 60.604 19.665C60.2587 18.4819 61.2347 16.761 62.2505 16.23C65.7029 14.4083 70.4831 15.5174 73.7031 17.319C75.4769 18.2913 77.0382 19.6167 78.2932 21.2155C79.5482 22.8142 80.4711 24.6534 81.0063 26.6224C81.0415 26.7534 81.1267 26.8649 81.2431 26.9324C81.3595 26.9998 81.4976 27.0177 81.6271 26.982C81.7565 26.9464 81.8666 26.8601 81.9332 26.7423C81.9998 26.6244 82.0175 26.4846 81.9823 26.3535C79.9905 18.8449 72.2624 13.326 64.5277 14.5091C62.0779 14.8856 57.8885 17.0098 59.7608 20.1893C61.3409 22.8782 64.9327 22.1253 66.5195 19.9339C68.9229 16.6266 67.7743 11.9211 65.5435 8.86925C62.8547 5.2393 58.5192 3.28316 54.3631 1.99251C45.9619 -0.571869 37.0134 -0.662798 28.5631 1.73035C18.9107 4.33546 10.3408 10.0125 4.11745 17.924C3.7191 18.4348 4.4295 19.1608 4.82785 18.6432V18.65Z" fill="#95165B"/>
<path d="M7.3919 2.03987C6.51776 2.65961 5.28255 2.99427 4.26906 3.82472C3.0972 4.79151 1.9 6.05578 0.918173 7.02877C0.835827 7.84682 -0.0826572 8.1443 0.00602395 8.88798C1.04486 9.36518 1.10187 8.19387 1.45026 7.69808C1.57695 7.51216 1.86833 7.40681 2.0837 7.1775C2.29907 6.9482 2.31174 6.68791 2.46376 6.50819C2.83749 6.07437 3.5406 5.65915 4.06002 5.16955C4.53794 4.67024 5.0664 4.21966 5.63728 3.82472C6.46075 3.34752 7.49325 3.20498 8 2.33735C7.89865 2.14523 7.60093 1.90353 7.3919 2.03987Z" fill="#95165B"/>
<path d="M10.0041 5.1042C8.83197 5.83067 7.72144 6.65878 6.68445 7.57964C5.01304 8.78165 3.60017 10.3292 2.5349 12.1248C2.16974 12.2417 1.87097 12.503 2.05687 12.95C3.31169 13.3007 3.66358 11.7191 4.29431 10.9627C5.58897 9.41559 7.15584 8.3704 8.68287 7.07767C8.92189 6.87139 11.0066 5.70243 11 5.4205C10.9402 4.93229 10.356 4.93229 10.0041 5.1042Z" fill="#95165B"/>
</svg>
