<svg width="94" height="84" viewBox="0 0 94 84" fill="none" xmlns="http://www.w3.org/2000/svg">
<path d="M13.828 39.8623C17.6154 38.1896 21.5246 36.8209 24.9464 34.7325C29.3756 32.0491 33.61 29.0578 37.6184 25.7807C41.68 22.4352 46.0563 19.7994 49.7015 16.2308C51.5562 14.4988 53.3122 12.6644 54.9612 10.7361C55.743 9.72227 56.4944 8.70848 57.3473 7.75551C58.2003 6.80255 59.3781 6.08276 60.1904 5.12979C60.6981 4.51138 61.0332 3.42662 61.7439 3.21372C61.9673 4.58234 60.5356 8.44489 61.6323 8.58682C62.5359 8.70848 62.6476 5.95096 62.6984 5.25145C62.8609 3.37593 63.3483 0.942827 62.5766 0C61.023 0.0506896 59.8452 1.81469 58.3932 2.62572C57.5098 3.11234 55.7836 3.33538 56.007 4.65331C57.5707 4.87634 59.4086 3.38607 60.6676 2.50407C60.6676 2.62572 60.5661 2.646 60.5458 2.73724C59.6015 4.43027 58.048 5.3731 56.8396 6.68089C55.215 8.47531 53.9661 10.5029 52.3212 12.1655C48.9977 15.6389 45.357 18.7954 41.4464 21.5938C35.5267 25.7503 29.9726 30.576 23.6264 34.2459C20.3265 36.1518 16.5898 37.2873 13.1071 38.8992C12.0917 39.3757 10.4975 39.619 10 40.9268C11.3403 41.2614 12.7009 40.3692 13.828 39.8623Z" fill="#333945"/>
<path d="M88.1254 11.6648C87.109 10.985 86.5907 9.55552 85.371 10.1353C83.9176 10.8351 83.1858 11.7448 81.0616 12.7244C79.5879 13.4042 76.803 14.4538 76.4981 15.5434C75.9798 17.4128 76.0001 20.7416 76.0001 23.3107V78.0617C78.1198 78.8075 80.1619 79.7515 82.0983 80.8807C82.8708 81.3906 84.1311 82.97 85.1474 83C85.9161 82.8044 86.6473 82.487 87.3123 82.0603C89.3184 80.8077 91.5241 79.8953 93.8374 79.3613C93.502 59.5182 94.4167 38.3755 93.6239 19.2122C93.5729 17.9053 93.6994 16.5975 94 15.3235C92.5466 14.1039 90.0158 12.8944 88.1254 11.6648ZM84.0599 38.7354V81.2206C83.1678 80.8295 82.3109 80.3646 81.4987 79.8311C80.1062 78.9414 80.0656 78.1617 76.0204 77.4719V16.4931C80.0859 18.0126 81.3665 19.712 83.633 21.2015C83.8261 22.0612 83.8566 22.2011 83.633 22.7309C84.192 23.0508 84.0904 23.7306 84.1514 24.3804C84.5478 29.0287 84.0904 33.957 84.0904 38.7354H84.0599ZM84.9848 20.3718C82.8708 18.6624 80.4315 17.2728 78.4496 15.4335C80.5636 13.5941 83.7347 12.7844 85.7471 10.8451C87.5054 12.7244 90.3716 13.5141 92.2112 15.3135C90.3512 17.5527 87.2513 18.5424 85.0153 20.3818L84.9848 20.3718ZM91.205 17.9026C89.1723 18.7823 87.8205 20.3818 85.6963 21.1915C87.729 19.1922 90.5545 18.1225 92.7499 16.3632C92.8007 17.3628 92.4145 17.9126 92.5161 18.9523C92.375 18.8525 92.2005 18.8096 92.0282 18.8323C89.8735 20.1618 87.6172 21.3914 85.5743 22.8309C85.7979 21.7513 87.0379 21.2415 87.8408 20.7116C88.7871 20.2316 89.671 19.6409 90.4732 18.9523C90.8289 18.8123 91.2761 19.1122 91.4286 18.5924C91.581 18.0726 91.3371 18.1225 91.2355 17.9126L91.205 17.9026ZM85.8182 81.5805C86.1231 80.9307 87.1802 81.0307 87.6172 80.5209C87.6579 80.9407 86.2553 81.5905 85.8487 81.5905L85.8182 81.5805ZM92.882 35.0866C92.882 35.4665 92.262 35.0866 92.0384 35.4365C90.9611 36.1263 89.9345 36.956 88.8064 37.6757C87.6782 38.3955 86.2959 38.8953 85.93 40.2648C86.7025 40.4448 86.733 39.5851 87.231 39.2052C88.786 38.0056 92.1299 36.956 92.1299 35.7864V38.3755C92.1299 38.7254 90.4834 39.3752 89.6296 40.0249C88.7691 40.5895 87.9867 41.2615 87.3021 42.0242C88.3185 42.3041 88.9791 41.4244 89.7719 40.8446C90.5647 40.2648 92.1299 39.4151 92.1299 39.0753V56.969C92.1299 57.5488 89.904 58.5785 88.5523 59.4382C87.5348 59.9058 86.6947 60.6795 86.1536 61.6474C86.8448 61.9273 87.0684 61.1476 87.5461 60.8277C89.0909 59.828 92.1807 58.7484 92.1807 57.6488V61.5375C92.1807 62.0173 92.0181 61.3975 91.825 61.7774C90.8086 62.3572 89.7922 62.907 88.7759 63.5368C87.7595 64.1665 86.5602 64.6864 86.2349 65.8959C87.2668 65.4126 88.2416 64.8192 89.1418 64.1266C90.2496 63.4468 92.1909 62.6671 92.1909 62.2472V69.4247C92.1909 70.6443 87.9526 71.554 86.4585 73.3034C87.6172 73.3833 88.3896 72.4037 89.3857 71.8939C90.3817 71.384 92.1909 70.7742 92.1909 70.1245V78.3616C92.1909 78.6815 90.5952 79.3613 89.4467 79.6612C89.7821 78.8914 91.9571 78.7415 92.262 77.5419C90.087 77.9817 87.9628 80.041 85.7674 80.4909C87.292 78.3016 91.1643 78.3816 92.2722 75.7825C91.5404 75.5426 90.3817 76.3723 89.8634 76.7222C88.3896 77.7218 88.1457 78.2816 84.1006 79.3113V63.4568C84.1006 63.6367 85.432 63.8467 85.5845 64.3965C87.0582 63.3968 89.3349 62.797 90.5748 61.5774C89.1316 61.1976 88.0237 62.917 86.611 63.3368C88.5726 61.8174 91.4184 61.0576 92.5771 58.7484C91.2863 58.8784 89.6093 60.2279 88.3998 60.9876C87.1903 61.7474 84.1006 62.3172 84.1006 62.9869V55.5695C88.166 54.3499 89.6398 53.0104 91.083 50.9811C89.8939 50.9811 88.5421 52.1907 87.5257 52.8605C86.5094 53.5302 84.0904 54.31 84.0904 54.8598V52.7505C88.1559 51.5109 89.345 49.8315 91.3168 48.1621C90.1378 47.8922 89.4772 49.1118 88.5319 49.8015C87.5867 50.4913 86.672 51.451 85.7573 52.1607C85.4727 50.9011 85.8284 49.1618 85.7573 47.6823C87.0684 47.3824 88.0339 46.3827 89.0503 45.683C90.0667 44.9832 91.4083 44.6533 91.9266 43.4537C89.6398 43.8336 87.7697 46.2528 85.8284 46.9825C85.6455 46.1828 86.55 45.7829 87.0379 45.453C88.4913 44.4534 90.4325 43.5637 91.5912 42.1642C89.3958 42.4041 87.6477 44.7133 85.8487 45.3431C85.9605 44.5733 86.8651 44.2735 87.4139 43.9336C89.1621 42.8539 91.4794 41.9343 92.6787 40.2848C91.1308 40.6078 89.6564 41.2076 88.3287 42.0542C87.2208 42.724 84.0904 43.4737 84.0904 44.0535V35.3266C84.0904 34.6368 87.5562 34.027 88.6844 33.2073C89.8126 32.3876 91.4184 31.5779 91.9978 30.3783C90.7476 30.5382 90.148 31.7378 89.1113 32.4975C88.0746 33.2573 86.8753 33.8171 85.8589 34.6568C85.5845 34.4969 85.8589 33.8371 85.7979 33.4772C85.7979 32.9174 86.0317 33.6771 86.4281 33.4772C87.3733 32.6875 88.2982 31.8978 89.3145 31.128C90.3309 30.3583 91.6522 29.9784 92.3128 28.8888C90.9306 28.8888 89.9548 29.8885 88.969 30.6582C87.9025 31.3504 86.9023 32.1367 85.9809 33.0074C85.8388 31.9941 85.798 30.9695 85.8589 29.9484C87.2226 29.6023 88.4902 28.9601 89.5686 28.0691C90.585 27.3493 91.8758 26.6596 92.445 25.48C91.2471 25.8799 90.1465 26.5198 89.2129 27.3593C88.2169 28.2062 87.0831 28.8821 85.8589 29.3586C85.8589 27.4993 85.93 25.52 85.7471 23.8206C87.6579 22.0112 90.3512 20.9815 92.445 19.3421C93.4512 23.7306 92.6787 29.9284 92.9125 35.0966L92.882 35.0866Z" fill="#333945"/>
<path d="M92 21.153C91.9116 21.0866 91.8116 21.0403 91.7061 21.0171C91.6006 20.9939 91.4918 20.9943 91.3865 21.0182C89.8371 22.6137 87.279 23.1081 86 24.9958C87.1646 25.0744 88.1733 24.0407 89.182 23.4115C90.1906 22.7822 91.5841 22.2878 92 21.153Z" fill="#333945"/>
<path d="M60.724 81.8708C61.47 82.2745 64.1615 84 64.9679 84C65.7744 84 66.1473 82.9102 66.984 82.5772C68.8388 81.8406 72.0242 81.2452 72.0242 80.2059V46.3411C72.0242 42.5268 73.5464 38.5309 73.1532 35.0495C73.0928 34.5046 73.4053 34.0405 73.3649 33.3846C73.254 31.5178 73.9395 29.4794 74 28.1575C72.9214 26.7852 71.0263 25.8669 69.5142 24.9487C68.869 24.5652 68.2541 24.4542 67.6896 24.1212C66.9336 23.6772 66.6816 22.5773 65.8248 23.1727C65.0305 23.5782 64.2125 23.9354 63.3752 24.2423C62.6057 24.6343 61.8586 25.0689 61.1373 25.544C60.1293 26.1898 57.1052 27.5622 56.6717 28.874C56.182 30.8536 55.9583 32.8897 56.0064 34.9285V79.8426C56.0165 80.448 59.2624 81.0939 60.724 81.8708ZM73.254 64.7165C71.5605 65.8971 69.0908 66.5126 67.3167 67.5621C66.8933 67.8144 66.3086 68.0767 66.3691 68.7528C66.9941 68.9849 66.7118 68.3088 67.1856 68.0364C68.8287 67.1282 72.0545 66.5732 72.0545 65.5439V79.6105C72.0545 80.0545 70.4718 80.7508 69.0908 81.0434C70.0283 80.0343 72.115 79.8729 72.5988 78.4299C70.865 78.7932 69.6452 80.3169 67.8812 81.1645C67.5248 81.3204 67.1532 81.4388 66.7723 81.5177C66.2885 81.9011 66.6917 82.3956 66.0969 82.5873C65.603 82.2947 65.9961 81.1241 65.8752 80.4581C66.1877 80.4581 66.5606 80.4581 66.7219 80.337C67.7181 79.7156 68.7517 79.1562 69.8166 78.662C70.9198 78.2567 71.9614 77.6997 72.9113 77.0071C71.6412 76.5631 70.4315 77.6327 69.3428 78.1978C68.1852 78.6893 67.0722 79.2801 66.0163 79.9637C65.7441 77.108 66.0163 73.7478 65.8953 70.7003C67.0756 70.2664 68.2242 69.7505 69.3328 69.1564C70.4784 68.7158 71.534 68.0695 72.4476 67.2493C71.3388 66.9566 69.2622 67.9153 68.1937 68.44C67.1251 68.9647 64.0607 69.55 64.0607 70.105V67.4915C68.0929 66.1393 69.9577 65.4733 71.6412 63.6872C70.6331 63.4955 69.8872 64.4138 68.7783 64.9889C67.8078 65.6181 66.7697 66.1359 65.6836 66.5328C65.6836 65.7861 66.9538 66.0989 66.8731 65.2311C67.8812 64.8376 68.8892 64.3734 69.8973 63.9294C70.9076 63.6497 71.8485 63.1616 72.6593 62.4965C71.5202 62.1433 70.3005 62.9809 69.2319 63.445C68.1634 63.9092 66.9739 64.555 65.9155 64.9889C65.6433 64.0505 66.7622 63.8386 67.3469 63.5661C69.3389 62.6854 71.2807 61.695 73.1633 60.5994C73.2948 61.9812 73.3251 63.3707 73.254 64.7569V64.7165ZM73.254 60.1958C70.7037 60.5793 68.2743 62.7387 65.8953 63.2937C65.8953 62.6075 66.7824 62.4259 67.2058 62.2241C68.8017 61.5528 70.2816 60.6333 71.5908 59.4995C69.6755 59.2876 68.0425 61.6489 65.8953 61.992C65.986 60.3674 67.9114 60.2059 68.9799 59.6105C70.2015 59.0964 71.3239 58.3724 72.2964 57.4713C71.2884 57.2594 70.1089 58.1171 69.0908 58.6519C68.0824 59.2833 67.0074 59.8011 65.8852 60.1958C65.9961 58.7932 67.6796 58.6116 68.617 58.0667C69.6426 57.5114 70.5971 56.8337 71.4597 56.0485C70.4517 55.6247 69.5646 56.6136 68.7279 57.1181C67.8912 57.6227 66.853 58.1272 65.9961 58.662C65.5123 57.8043 66.6816 57.2897 67.1856 57.0071C68.9295 55.998 71.2178 54.989 72.6391 53.5561C71.4396 53.2735 69.4235 54.4945 68.4154 55.1403C67.4074 55.7861 64.0405 56.4118 64.0405 57.0374V56.442C64.0405 55.8669 65.0486 56.6136 65.3308 56.5631C67.3469 54.7871 70.6735 53.8487 72.5585 51.9314C71.9839 51.4774 71.4093 52.214 70.8952 52.5268C69.0951 53.5093 67.4198 54.7053 65.9054 56.0889C65.6332 55.211 65.9054 53.8285 65.8449 52.7589C67.861 50.8316 70.7541 49.7317 73.1129 48.1272C73.3851 51.9214 73.1734 56.2402 73.254 60.2362V60.1958ZM72.3266 47.2493C69.7187 49.0125 66.9391 50.5068 64.0304 51.7094V50.993C68.0626 48.9748 70.3408 48.2988 72.0948 45.9981C70.7541 46.0889 70.1593 47.2291 69.0001 47.8951C67.8408 48.5611 66.7824 49.1666 65.6735 49.9133C65.6796 49.4301 65.7578 48.9506 65.9054 48.4905C68.0021 47.2695 70.4214 46.3008 72.0142 44.5652C70.9154 44.212 69.1009 45.4027 68.1433 45.988C67.1856 46.5732 64.0405 47.1989 64.0405 47.6529V45.988C68.0727 44.1716 70.2803 43.1424 72.1049 40.882C71.369 40.5995 71.3085 41.3563 70.7843 41.7095C69.1739 42.9159 67.4681 43.9891 65.6836 44.9183C65.8256 44.0541 65.9031 43.1805 65.9155 42.3048C67.0071 41.3067 68.1806 40.4021 69.4235 39.6005C70.6331 38.8235 72.2762 38.4098 73.0121 37.1081C71.367 37.4252 69.7906 38.0298 68.3549 38.8941C67.236 39.6106 68.0626 40.6197 64.0607 41.1444V42.4965H66.7522C68.6271 38.4602 71.0968 38.4602 73.0424 36.7145C71.7047 36.6193 70.3832 37.0542 69.363 37.9254C68.3323 38.7194 67.2166 39.3963 66.0364 39.9436C66.0364 38.1171 65.8348 36.3613 65.9155 34.4542C67.7904 33.5662 68.9396 31.9214 71.1371 31.2958C69.9678 32.7892 68.0122 33.4451 66.984 35.0596C67.488 35.4229 68.1332 34.7367 68.5263 34.4441C69.8872 33.435 71.369 31.9618 72.6795 30.872C72.5686 30.4179 71.6714 30.66 71.6109 30.993C71.638 30.6734 71.7506 30.367 71.9369 30.106C72.1231 29.845 72.3762 29.639 72.6694 29.5097C72.6089 35.1908 72.4476 41.1545 72.3266 47.2897V47.2493ZM66.1372 24.0405C68.3953 25.4229 70.9154 26.5531 73.0222 28.0768C71.8529 29.0859 70.5525 29.8023 69.1009 30.8114C68.0324 31.548 66.3086 33.3038 65.0687 33.3038C64.0607 33.3038 63.0526 31.9718 61.9841 31.4068C60.7289 30.7254 59.5379 29.9317 58.4257 29.0354C60.3511 26.8659 63.2442 25.4734 66.1372 24.1212V24.0405ZM64.9478 34.5551C65.0385 50.2059 64.8873 66.3411 64.9478 82.557C62.6494 81.5479 60.6938 80.0949 58.3047 79.1161C58.2342 62.8699 58.4559 46.3311 58.1838 30.2867C60.3614 31.8283 62.6192 33.2531 64.9478 34.5551Z" fill="#333945"/>
<path d="M89.0671 24.8252C87.9612 25.3586 86.4173 25.7587 86 27C87.1893 26.8256 88.3159 25.9741 89.5678 25.3073C90.8197 24.6405 92.4158 24.343 93 23.1325C92.8435 23.1325 92.7705 22.9581 92.5097 23.0094C91.3978 23.678 90.2485 24.2842 89.0671 24.8252Z" fill="#333945"/>
<path d="M91.6569 24C90.049 25.8335 88.7157 26.1728 87.1569 27.062C86.7451 27.3004 86.0294 27.3004 86 27.9788C87.2941 28.1713 88.3726 27.007 89.3431 26.3286C90.3137 25.6502 91.9412 25.8611 92 24.0367L91.6569 24Z" fill="#333945"/>
<path d="M89.7055 28.9544C88.787 29.5719 87.4892 29.9193 87 31C88.1581 31 89.2263 30.0351 90.1747 29.4079C91.2577 28.8293 92.2166 28.0565 93 27.1307C92.9149 27.0742 92.8189 27.0348 92.7177 27.0149C92.6165 26.995 92.5122 26.995 92.411 27.015C91.4825 27.5939 90.6339 28.3369 89.7055 28.9544Z" fill="#333945"/>
<path d="M68.931 33.3474C67.8517 34.0246 65.8766 34.7019 66.0061 36C68.2726 34.3257 71.0464 33.084 73 31.1275C72.908 31.0723 72.8042 31.0339 72.6948 31.0145C72.5854 30.9951 72.4726 30.9952 72.3632 31.0146C71.2731 31.7201 70.129 32.6043 68.931 33.3474Z" fill="#333945"/>
<path d="M92 33.1216C91.8367 33.1216 91.7653 32.9616 91.5204 33.0087C89.7041 34.3171 87.3878 35.2585 86 37C87.2245 37 88.1735 36.0022 89.1224 35.3432C90.0714 34.6843 91.4694 34.1665 92 33.1216Z" fill="#333945"/>
<path d="M72.2006 34.0075C70.9832 34.6415 69.8326 35.3922 68.7654 36.2488C67.804 36.9818 66 37.7891 66 39C67.2438 38.3546 68.3983 37.5549 69.4352 36.6206C70.6018 35.7496 71.8873 35.176 73 34.2518C72.9568 33.9332 72.4815 34.0075 72.2006 34.0075Z" fill="#333945"/>
<path d="M87 38C88.2 38 89.19 37.0313 90.18 36.4016C91.17 35.772 92.47 35.1617 93 34.1252C92.84 34.1252 92.77 33.9605 92.53 34.0089C90.8 35.4523 88.43 36.266 87 38Z" fill="#333945"/>
<path d="M93 38.1218C92.8263 38.0172 92.6154 37.9779 92.411 38.012C91.5624 38.6523 90.584 39.3017 89.5857 39.9511C88.5874 40.6005 87.2097 41.1128 87 42C88.1583 41.6763 89.225 41.1236 90.1248 40.381C91.2264 39.796 92.2011 39.0301 93 38.1218Z" fill="#333945"/>
<path d="M69.6604 41.3239C68.7925 42.1609 67.5377 42.7601 67 44C68.6698 43.7004 69.717 41.9335 71.1132 40.8383C71.783 40.301 72.717 40.0841 73 39.1335C72.8491 39.1335 72.7925 38.9578 72.5566 39.0095C71.5046 39.6419 70.5312 40.4197 69.6604 41.3239Z" fill="#333945"/>
<path d="M66 46.8696C66.0853 46.9258 66.1814 46.965 66.2825 46.9849C66.3836 47.0048 66.4878 47.005 66.589 46.9856C68.1664 45.4387 70.5824 44.7136 72 43.0024C70.782 42.9444 69.7837 43.9692 68.8253 44.5976C67.8669 45.226 66.5291 45.8061 66 46.8696Z" fill="#333945"/>
<path d="M22.3877 81.7703C23.3276 82.5187 24.7839 84.0953 26.044 83.9955C26.9632 83.9256 28.1716 82.5386 29.0908 81.8801C30.764 80.7026 32.2513 79.7946 33.8315 79.7746C33.9555 70.0158 34.193 59.1394 33.7076 49.5801C32.4269 48.682 30.9603 48.1432 29.5763 47.3449C28.1923 46.5467 26.643 45.6586 25.4449 45C23.8027 46.8959 21.3859 48.0634 19.3615 49.5801C18.7315 58.5606 19.4338 69.906 19 79.3056C19.9709 80.2237 21.1483 80.7725 22.3877 81.7703ZM31.8795 78.9564C31.6316 78.7967 32.0447 78.1881 31.456 78.3677C31.7659 77.9586 32.5818 77.9586 32.6438 77.31C31.7865 77.0106 30.8053 77.9785 29.8964 78.4774C28.9875 78.9764 27.5209 79.3456 27.4899 80.4731C28.7973 79.8951 30.0605 79.2282 31.2701 78.4774C30.2609 79.6017 28.9648 80.4514 27.5106 80.9421C27.5106 81.2514 27.397 81.6805 27.8824 81.5308C27.7378 81.9 27.2524 81.9399 27.0251 82.2393C26.736 79.2458 27.0251 75.7035 26.9012 72.4804C28.6157 71.4826 30.795 70.9937 31.6419 69.1876C30.764 69.1876 30.1237 70.0158 29.3387 70.4748C28.5537 70.9338 27.6862 71.3629 26.9012 71.762C27.0561 70.5147 28.3575 70.1355 29.3387 69.6466C30.3199 69.1576 32.1377 68.4991 32.1377 68.0001V76.6913C32.1274 77.4896 32.8194 78.7069 31.8795 78.9564ZM32.8503 65.6752C31.3734 66.9923 28.9669 67.4014 27.8617 69.0878C29.6692 68.998 31.2288 67.0223 32.8503 66.7429C32.4269 67.9203 30.9912 68.1099 29.9377 68.6188C28.9125 69.125 27.9346 69.7159 27.0148 70.385C26.8677 68.6626 26.8263 66.9333 26.8909 65.2062C28.5228 64.3381 30.857 63.2105 32.6025 62.0331C33.1705 62.7815 32.6954 64.5277 32.8503 65.6652V65.6752ZM32.8503 61.3346C30.8236 62.2457 28.8726 63.3066 27.0148 64.5077C26.6533 63.2205 28.3782 62.9711 29.2044 62.512C30.178 62.0608 31.046 61.4225 31.7555 60.6361C30.2063 60.4066 28.5951 62.4023 26.8909 62.8713C27.0974 61.604 28.4814 61.2149 29.442 60.6361C30.5186 60.183 31.4754 59.5008 32.241 58.6404C31.394 58.371 30.3922 59.2092 29.5659 59.6981C28.7397 60.1871 27.7791 60.8357 27.0148 61.3446C26.7463 61.3446 27.0148 60.8357 26.8909 60.6361C28.4711 59.1793 31.0842 58.7302 32.4889 57.1137C31.6109 56.8643 30.5368 57.6725 29.5763 58.1715C28.746 58.7448 27.848 59.2205 26.9012 59.5884C28.1716 57.463 31.1049 57.0439 32.7264 55.3376C30.7537 55.0482 28.7293 57.7224 26.8909 58.0417C28.1096 56.3155 30.4025 55.6469 31.7555 54.0504C30.9706 53.6413 30.103 54.5293 29.442 54.9884C28.781 55.4474 27.9857 56.076 27.3763 56.515C28.288 55.1664 29.3822 53.9415 30.6297 52.8729C28.5641 52.4938 28.0167 55.138 23.906 55.6868V54.8686C26.5644 54.138 29.0607 52.9406 31.2701 51.3363C31.518 54.4695 32.7677 58.0318 32.8503 61.3246V61.3346ZM25.4346 46.2872C27.9754 47.285 29.9068 48.9315 32.4785 49.9293C30.9499 51.5857 28.5847 52.4339 26.7669 53.8109C24.0299 53.1723 22.8731 50.997 20.5699 49.9293C22.1605 48.692 24.2365 47.9137 25.4346 46.2872ZM19.7953 50.987C21.861 51.6656 23.9266 53.8009 23.9266 54.7389V82.9378C23.9266 81.7703 21.861 80.1339 19.7953 78.8367V50.987Z" fill="#333945"/>
<path d="M87 49C88.1511 49 89.1698 48.006 90.1171 47.36C91.2026 46.7857 92.178 46.0324 93 45.1335C92.8237 45.0178 92.6076 44.975 92.399 45.0142C90.5959 46.3461 88.3345 47.2208 87 49Z" fill="#333945"/>
<path d="M88.6569 48.8953C87.7255 49.5061 86.3824 49.8349 86 51C87.1354 50.6368 88.1895 50.0727 89.1078 49.3369C90.2068 48.7757 91.1875 48.0239 92 47.1195C91.9155 47.0666 91.8209 47.0302 91.7216 47.0124C91.6223 46.9947 91.5203 46.996 91.4216 47.0162C90.4804 47.5705 89.598 48.2846 88.6569 48.8953Z" fill="#333945"/>
<path d="M70.1867 51.3611C69.1065 52.163 67.659 52.5862 67 53.8557C67.5833 54.3235 68.3071 53.5328 68.7824 53.1987C69.2577 52.8646 70.0031 52.3077 70.5648 51.8846C71.8294 51.1384 72.9858 50.2124 74 49.1338C73.8306 49.0209 73.6265 48.9772 73.4275 49.0113C72.2728 49.6794 71.187 50.4667 70.1867 51.3611Z" fill="#333945"/>
<path d="M91.3865 50.024C90.5234 50.635 89.5355 51.3281 88.5685 51.9573C87.6014 52.5865 86.2808 53.0698 86 54C87.1826 53.6772 88.2692 53.1291 89.182 52.395C90.2713 51.7838 91.2259 51.0054 92 50.097C91.9084 50.0497 91.8069 50.0189 91.7016 50.0064C91.5963 49.9938 91.4891 49.9998 91.3865 50.024Z" fill="#333945"/>
<path d="M86 57.9487C86.6509 58.1943 87.1887 57.4985 87.6698 57.1097C89.2633 55.9918 90.7185 54.6575 92 53.1393C91.9198 53.0788 91.8291 53.0367 91.7334 53.0156C91.6377 52.9945 91.539 52.9948 91.4434 53.0165C89.7453 54.797 87.4434 55.9124 86 57.9487Z" fill="#333945"/>
<path d="M92 54H91.6354C90.6875 55.9763 89.6771 55.67 88.6875 56.4012C87.6979 57.1324 86.375 57.7747 86 59C87.2812 58.6937 88.2812 57.4289 89.3125 56.6779C90.3437 55.9269 91.8646 55.9664 92 54Z" fill="#333945"/>
<path d="M87 59.9957C88.2101 60.0778 89.3667 58.9557 90.3519 58.3719C91.3371 57.788 93.0826 57.8154 92.997 56H92.6222C91.1765 57.8154 88.4778 58.381 87 59.9957Z" fill="#333945"/>
<path d="M0.514459 80.0969C3.26833 81.465 5.55817 83.3059 8.94755 84C11.0356 82.8431 12.811 81.3744 14.889 80.2176C14.9597 73.6587 14.7276 66.7981 15 60.4404C12.6194 59.4344 10.0572 57.0201 7.28312 57C7.01076 57 6.95024 57.1408 6.80901 57.2414C4.95293 58.6095 3.10693 60.712 0.635508 61.6274C0.554808 67.7437 0.776732 74.1617 0.514459 80.0969ZM13.8097 79.7347C12.0093 80.5065 10.3599 81.5895 8.93746 82.9337C8.67519 82.9337 8.88702 82.5112 8.8265 82.3301C10.4506 81.0022 12.1856 80.1673 13.2952 78.3063C11.4391 78.6282 10.037 80.6703 8.02959 81.3845V79.272C8.02959 78.7791 8.59449 79.272 8.9072 79.1513C9.55279 78.608 10.4607 77.9341 11.2475 77.3707C12.0343 76.8074 13.3759 76.5961 13.0128 75.4795C11.5059 76.3563 10.1248 77.4324 8.9072 78.6785C8.63484 78.3163 8.9072 77.4512 8.81641 76.8979C9.63349 76.234 10.3497 75.4594 11.197 74.7653C12.0444 74.0712 13.1439 73.6285 13.4566 72.5119C11.7014 72.8338 10.4304 74.9262 8.8265 75.8316C8.8265 73.4776 12.7303 73.0753 13.3356 71.0935C11.6913 71.3148 10.2488 73.3871 8.8265 73.8197C9.01816 72.7634 10.1782 72.4415 10.965 71.9285C11.8176 71.5208 12.5557 70.9091 13.1137 70.1479C11.651 69.9266 10.3699 71.8983 8.84667 72.4013C10.1883 70.8521 12.1755 69.9568 13.9509 68.8402C13.85 72.4314 14.1224 76.3446 13.8097 79.7347ZM12.0444 62.3618V68.0153C12.0444 69.0212 10.0269 70.158 8.00941 71.2042V68.9609C10.0269 67.804 11.9032 67.2306 13.154 65.8826C11.5299 65.5406 9.99664 67.7336 8.61466 68.0253C8.92737 67.0999 10.0975 66.6371 10.844 66.1241C11.5905 65.611 12.69 65.3193 13.265 64.5849C11.5804 64.1423 10.2387 66.0738 8.89711 66.7276C9.5427 65.2791 12.0847 64.7157 13.1843 63.2873C11.5804 62.8547 10.158 65.1986 8.79623 65.4199C8.63484 64.7358 9.462 64.766 9.8655 64.5447C11.1163 63.8808 12.458 62.3718 13.5474 62.3718L12.0444 62.3618ZM7.51513 57.9456C9.88568 58.4586 11.4795 59.7563 13.4566 60.6617C12.0339 62.0056 10.3845 63.0885 8.5844 63.8607C6.68806 63.0361 4.74452 62.324 2.76395 61.728C4.54943 60.6215 5.77001 59.0522 7.51513 57.9456ZM0 63.0358C0 62.8346 0.877606 62.734 1.00874 62.6837C3.27216 63.0002 5.45942 63.7227 7.46469 64.8163C7.46469 71.3048 6.82919 76.3949 6.86954 82.7023C4.52925 81.9277 4.03497 80.5697 0 79.614V63.0358Z" fill="#333945"/>
<path d="M48.8057 58.887C48.0624 59.4452 46.7967 59.9834 47.0278 61C48.7053 59.7242 50.6439 58.7275 52 57.1229C51.9101 57.0657 51.8094 57.0274 51.704 57.0102C51.5986 56.9931 51.4908 56.9975 51.3873 57.0232C50.6038 57.6312 49.6796 58.2292 48.8057 58.887Z" fill="#333945"/>
<path d="M48.5566 60.8901C47.9623 61.5072 47.0566 62.164 47 63C47.8679 62.9502 48.4906 62.0048 49.1132 61.3579C49.7358 60.711 50.6792 60.0442 51 59.1286C50.8491 59.1286 50.783 58.9594 50.5472 59.0092C49.934 59.5764 49.1981 60.2134 48.5566 60.8901Z" fill="#333945"/>
<path d="M28.9763 64.7456C28.2055 65.3489 27 65.804 27 67C27.9211 66.5411 28.7817 65.9538 29.5593 65.2536C30.5029 64.7398 31.3346 64.0185 32 63.1368C31.8419 63.1368 31.7727 62.9568 31.5257 63.0097C30.6344 63.5152 29.7819 64.0956 28.9763 64.7456Z" fill="#333945"/>
<path d="M89.6944 66.8259C90.8719 66.1085 92.4167 65.478 93 64.1301C92.8272 64.1301 92.7515 63.9562 92.4923 64.0105C91.3506 64.9471 90.1162 65.763 88.8086 66.4455C87.7284 67.0977 86.1404 67.7717 86 69C87.2878 68.3769 88.5233 67.6498 89.6944 66.8259Z" fill="#333945"/>
<path d="M27 68C27.9973 67.8728 28.9514 67.5319 29.7909 67.0029C30.6193 66.5702 31.7633 65.987 32 65.1215C31.8422 65.1215 31.7732 64.9616 31.5365 65.0087C30.3925 66.3444 27.9862 66.5043 27 68Z" fill="#333945"/>
<path d="M92.398 66.0336C91.4399 66.7377 90.4379 67.3796 89.398 67.9554C88.5102 68.4768 87.2347 68.8755 87 70C88.127 69.599 89.179 69.0115 90.1122 68.2621C91.1327 67.6692 92.5102 67.1683 93 66.1051C92.9103 66.0516 92.8103 66.0175 92.7066 66.0052C92.6029 65.9929 92.4977 66.0025 92.398 66.0336Z" fill="#333945"/>
<path d="M9 69.8602C9.51802 70.3164 10.0643 69.5355 10.5541 69.2372C11.0438 68.9389 12.0799 68.7283 11.9951 68C10.7842 68.2538 9.71721 68.9165 9 69.8602Z" fill="#333945"/>
<path d="M87 71.9853C88.0474 72.1375 88.8874 71.0722 89.668 70.4526C90.4486 69.8329 91.6443 69.2242 92 68.148C91.916 68.0837 91.821 68.039 91.7207 68.0166C91.6205 67.9941 91.5171 67.9945 91.417 68.0176C90.1818 69.5938 88.1067 70.2678 87 71.9853Z" fill="#333945"/>
<path d="M66 71.9978C67.1068 72.0541 68.1359 71.0282 69.0874 70.3969C70.0388 69.7655 71.3883 69.2694 72 68.142C71.8302 68.0159 71.6247 67.9715 71.4272 68.018C69.6893 69.4949 67.2816 70.1037 66 71.9978Z" fill="#333945"/>
<path d="M89.6534 71.3059C88.6259 71.7735 86.9428 71.8265 87.0015 73C88.0388 72.5588 89.2228 72.2412 90.3481 71.7118C91.2635 71.1818 92.1486 70.6105 93 70H92.6477C91.8257 70 90.7591 70.8029 89.6534 71.3059Z" fill="#333945"/>
<path d="M72.3545 70.0188C70.8307 71.5128 68.1217 71.8483 67 73.7212C67.1376 73.7212 67.1905 73.8619 67.2434 73.981C68.0159 74.1326 67.8571 73.3315 68.3651 73.2124C69.9841 72.2705 71.9418 71.6751 73 70.1487C72.9066 70.0835 72.8012 70.0384 72.6903 70.0161C72.5793 69.9938 72.4651 69.9947 72.3545 70.0188Z" fill="#333945"/>
<path d="M31.9762 70H31.6318C30.7997 70 29.3555 71.4866 28.1408 72.0848C27.7486 72.2843 26.8878 72.3205 27.0122 72.9913C27.9686 73.091 28.9251 72.3114 29.8241 71.8582C30.7232 71.405 32.2057 71.8038 31.9762 70Z" fill="#333945"/>
<path d="M47 73C48.5251 71.9138 50.7934 71.5155 52 70.1215C51.8329 70.0162 51.6282 69.9772 51.4305 70.0129C50.1178 71.1082 47.222 71.2621 47 73Z" fill="#333945"/>
<path d="M32.2375 72.0069C30.9303 73.025 28.1198 73.2693 28 75C28.8768 74.6034 29.7312 74.1651 30.5599 73.6867C31.4597 73.3506 32.2866 72.8641 33 72.2512C32.9891 71.9356 32.5752 72.0069 32.2375 72.0069Z" fill="#333945"/>
<path d="M47 75C47.9073 75 48.8146 74.2643 49.6726 73.8192C50.5306 73.3741 51.645 73.0108 52 72.1116C51.8422 72.1116 51.783 71.9572 51.5365 72.0116C50.3333 73.2651 47.789 73.3923 47 75Z" fill="#333945"/>
<path d="M67 75C68.3466 74.3454 69.6528 73.6081 70.9114 72.792C71.2897 72.5946 71.8339 72.6886 72 72.1249C70.9852 71.6457 69.8967 72.6604 68.9649 73.2336C68.0332 73.8067 67.0185 74.1732 67 75Z" fill="#333945"/>
<path d="M86.0123 76C87.0196 75.3649 88.0458 74.7596 89.1097 74.1245C90.1853 73.6121 91.1644 72.8994 92 72.0208C90.7384 71.8223 89.6087 73.0925 88.4507 73.7772C87.2927 74.4619 85.8522 74.8092 86.0123 76Z" fill="#333945"/>
<path d="M69.4434 74.7536C68.5 75.347 67.2075 75.8132 67 77C68.0755 77 68.8396 75.7602 69.8868 75.135C70.934 74.5098 72.4151 74.3403 73 73.1429C72.9194 73.0814 72.8286 73.0384 72.7331 73.0166C72.6375 72.9948 72.539 72.9945 72.4434 73.0158C71.5094 73.5032 70.4434 74.1284 69.4434 74.7536Z" fill="#333945"/>
<path d="M32 73.1263C31.8344 73.1263 31.7723 72.9601 31.5135 73.009C30.2402 74.2308 27.9938 74.5143 27 76C28.9699 75.6203 30.738 74.6041 32 73.1263Z" fill="#333945"/>
<path d="M88.5526 76.0725C87.6954 76.6458 86.5086 77.0144 86 77.9973C87.1868 78.0587 88.2512 77.0758 89.2214 76.4308C90.1915 75.7858 91.4914 75.2534 92 74.1375C91.8369 74.0184 91.6372 73.9742 91.4443 74.0146C90.5273 74.7754 89.5609 75.4632 88.5526 76.0725Z" fill="#333945"/>
<path d="M10.8349 75.148C10.156 75.6501 9.25688 76.1259 9 76.9099C9.20183 77.1126 9.3945 76.9099 9.65138 76.9099C10.5688 75.7735 12.2936 75.3682 13 74.0027C12.1835 73.9498 11.4404 74.6899 10.8349 75.148Z" fill="#333945"/>
<path d="M27.3613 77.6857C27.3613 77.9976 27.6885 77.8305 27.6981 78.0756C27.4094 78.3095 26.8801 78.2649 27.0245 79C27.9575 78.8426 28.8466 78.4386 29.6229 77.8194C30.4409 77.3293 31.5477 76.9284 31.8941 75.9816C30.4987 75.8703 29.4882 77.2959 28.1505 77.6857C29.1995 76.2378 31.3648 76.0707 32 74.1439C31.846 74.1439 31.7787 73.9546 31.5477 74.0103C30.3832 75.4916 28.2948 75.9148 27.3613 77.6857Z" fill="#333945"/>
<path d="M66 77.8609C66.6425 78.3255 66.8787 77.4952 67.2189 77.2778C68.8157 76.2894 70.9984 75.7556 72 74.1346C71.9197 74.0761 71.8288 74.0355 71.733 74.0151C71.6371 73.9947 71.5383 73.995 71.4425 74.016C69.9024 75.6172 67.0299 75.7951 66 77.8609Z" fill="#333945"/>
<path d="M88.6384 76.8252C87.7012 77.3792 86.4686 77.9741 86 79C87.1721 78.6972 88.273 78.1638 89.2394 77.4305C90.3424 76.9194 91.294 76.1273 92 75.1325C91.837 75.1325 91.7657 74.9582 91.5212 75.0094C90.6141 75.6973 89.6495 76.3048 88.6384 76.8252Z" fill="#333945"/>
<path d="M9 81C10.087 80.8044 10.75 79.8261 11.5652 79.1957C12.3804 78.5653 13.5 78.1088 14 77.1523C13.7679 77.0145 13.4928 76.968 13.2283 77.0219C11.9022 78.4566 9.59783 78.8805 9 81Z" fill="#333945"/>
<path d="M38.2783 79.485C39.8512 80.1705 41.3371 81.0467 42.7037 82.0945C43.2878 82.5076 45.2679 84.0492 45.852 83.9988C46.4361 83.9484 47.1588 83.0819 47.7133 82.82C49.5267 82.044 51.2806 81.1313 52.9604 80.0895C53.0495 66.5077 52.9604 53.1576 52.9604 39.3944C52.1684 38.3869 50.911 38.5179 49.8121 37.8529C49.327 37.5607 49.0993 36.9965 48.6439 36.664C47.7826 36.0393 45.5847 34.5683 44.9115 35.1224C43.8027 35.8903 42.6338 36.5643 41.4167 37.1375C40.4267 37.6715 38.4466 38.4776 38.1496 39.3844C37.813 40.5431 38.1496 42.6388 38.1496 44.3718C38.1595 55.6765 38.0605 69.5303 38.2783 79.485ZM52.0694 73.3288C51.0748 73.7125 50.1357 74.231 49.2775 74.8704C48.436 75.3842 47.2083 75.757 46.9509 76.8855C48.7264 76.096 50.4072 75.1021 51.9605 73.9233C52.0981 75.6996 52.1345 77.4826 52.0694 79.2633C50.7776 80.393 49.2712 81.2401 47.644 81.7519C48.931 80.6134 50.9308 80.1902 51.7229 78.5479C49.921 78.8905 48.238 81.0064 46.4757 81.3892C46.4757 80.6638 47.0994 80.0593 47.5252 79.7268C48.7726 78.7192 50.6338 78.3565 51.6041 77.1172C49.8616 76.8955 47.8717 79.1323 46.4757 79.6059C47.3667 77.3086 50.4358 77.2583 51.8417 75.4547C50.9308 75.1021 48.7429 76.0391 47.8816 76.5228C47.0202 77.0064 47.8816 77.5303 43.9215 78.0643V72.6134C47.8816 71.354 49.0498 70.4573 50.5447 68.9359C49.6141 68.5933 49.2379 69.5706 48.3766 70.1248C47.5153 70.6789 46.9311 71.4648 46.1292 71.6563C46.2579 70.3968 47.7826 70.0341 48.6241 69.5102C49.5717 68.9187 50.565 68.4065 51.5942 67.9787C51.7328 67.9787 51.8417 67.9787 51.8615 67.8578C52.0341 69.6759 52.1035 71.5026 52.0694 73.3288ZM52.0694 67.2835C49.8121 67.757 47.9311 69.2381 46.4757 70.1349C46.6935 67.9787 49.5646 68.1198 50.7823 66.8099C51.1486 66.6588 51.6734 66.679 51.8318 66.3364C51.0199 65.48 49.8517 66.6286 49.03 67.0417C48.2083 67.4548 47.1291 68.0492 46.4658 68.3414C46.4658 67.1122 47.8717 66.8704 48.6736 66.4472C49.4755 66.0241 50.4457 65.3792 51.2476 64.9057C51.2476 64.2105 51.8813 64.2105 51.8318 63.485C50.5447 63.485 49.7725 65.0266 48.4459 65.3792C48.1885 65.3792 48.1984 65.6815 48.2182 65.9737C47.6378 66.173 47.0879 66.4545 46.5846 66.8099C46.3272 66.7193 46.5846 66.1349 46.4757 65.8628C47.2784 65.0545 48.1352 64.3038 49.0399 63.616C49.9309 63.0014 51.3071 62.7092 51.6041 61.48C50.6219 61.7574 49.7079 62.2413 48.9211 62.9006C48.091 63.4594 47.3123 64.0933 46.5945 64.7948C46.4586 63.1766 46.4223 61.5512 46.4856 59.9284C48.4657 58.81 50.119 57.3793 51.9605 56.14C52.1882 59.5959 51.9506 63.5959 52.0694 67.2734V67.2835ZM52.0694 53.7621C50.8417 54.0443 50.0893 55.0417 49.1587 55.7772C48.2281 56.5128 47.0004 56.9964 46.7133 58.2659C47.3469 58.5682 47.4855 57.7621 47.8717 57.4296C49.0123 56.2153 50.3524 55.2128 51.8318 54.4674V55.5254C49.8517 56.3919 47.8717 58.1853 45.8916 59.2029V56.5934C47.7029 55.6592 49.3705 54.461 50.8417 53.0367C49.9903 52.6236 49.3171 53.611 48.6538 54.1047C47.9497 54.6931 47.1903 55.2095 46.3866 55.6463C46.5153 54.3364 47.9311 53.8125 48.8617 53.2785C49.8881 52.7493 50.8802 52.1536 51.8318 51.4951C52.2971 51.7873 51.8912 53.0669 52.0694 53.742V53.7621ZM52.0694 50.7999C49.9903 51.6463 48.4261 53.0166 46.4757 54.004C46.6737 52.7143 48.0598 52.2307 48.9211 51.6362C49.9157 51.0653 50.8202 50.3452 51.6041 49.5002C50.614 49.0166 49.822 50.2458 49.0399 50.7999C48.2223 51.3752 47.3654 51.8904 46.4757 52.3415C47.0262 51.4542 47.7849 50.7202 48.6835 50.2055C49.5796 49.7405 50.3743 49.0962 51.0199 48.3113C49.4953 47.9586 47.8915 50.6287 46.4757 50.9208C46.6935 49.5506 48.2083 49.1879 49.1587 48.543C50.1984 47.9418 51.143 47.1844 51.9605 46.2962C51.0397 46.0241 50.0398 46.9914 49.1587 47.5959C48.3697 48.3095 47.4609 48.8726 46.4757 49.2584C46.5945 48.6236 47.3271 48.402 47.7529 48.0695L51.8318 44.8655C50.8417 44.4423 49.7428 45.5405 48.9112 46.1652C48.1459 46.9133 47.2831 47.5507 46.347 48.0594C46.347 46.8705 47.7034 46.3566 48.5647 45.6916C49.426 45.0267 50.5447 44.4423 51.01 43.4347C49.1191 43.5254 47.9608 46.0342 46.2282 46.2861C46.1787 45.6916 46.2282 45.8932 46.7034 45.9234C47.4064 45.3189 48.1885 44.674 49.03 44.0292C49.8715 43.3843 51.1684 43.0216 50.9011 41.8932C49.265 42.9087 47.7414 44.1012 46.3569 45.4498C47.1291 43.1526 50.119 42.0745 51.9506 40.4725C52.1882 43.6665 51.9506 47.3642 52.0694 50.7798V50.7999ZM45.4362 35.9688C47.6539 36.9763 48.9409 38.8806 51.4952 39.5254C49.7626 41.0771 47.4261 42.0342 46.0203 43.9184C44.0565 42.2275 41.9494 40.717 39.7237 39.4045C41.2781 37.9436 43.6839 37.2887 45.3867 35.9486L45.4362 35.9688ZM39.9713 40.3113C39.9713 40.3113 41.5652 41.5103 42.9413 42.4473C43.9314 43.1526 45.2778 44.0695 45.5253 44.936C45.8322 46.0544 45.5253 48.1501 45.5253 49.5707C45.7728 60.1198 45.2778 72.1802 45.4758 82.4371C45.0402 82.4875 44.961 81.9232 44.4858 81.6008C43.0007 80.5933 40.001 79.5857 40.001 78.5177L39.9713 40.3113Z" fill="#333945"/>
</svg>
