<svg width="94" height="90" viewBox="0 0 94 90" fill="none" xmlns="http://www.w3.org/2000/svg">
<path d="M87.9934 62.5139C87.9934 61.7887 87.9934 61.0699 87.9934 60.3447C87.9934 59.9474 87.9934 59.5502 87.9934 59.1592C87.9934 58.9953 87.9934 58.8376 87.9934 58.6737C88.0022 58.5372 88.0022 58.4003 87.9934 58.2638C87.9713 58.1822 87.9255 58.1092 87.8617 58.0541C87.7979 57.9991 87.7192 57.9645 87.6356 57.9548C87.6063 57.7698 87.5749 57.5849 87.5415 57.3999C87.4746 57.0148 87.3866 56.6338 87.2779 56.2585C87.2037 56.0314 87.1178 55.8083 87.0205 55.5901C86.9452 55.4135 86.8699 55.237 86.782 55.0667C86.6 54.701 86.3929 54.3479 86.1544 54.001C85.9159 53.6542 85.7276 53.3705 85.5268 53.011L84.8615 52.0084C84.6481 51.6868 84.4598 51.3778 84.2652 51.0184C84.2203 50.9415 84.1561 50.8777 84.079 50.8335C84.0019 50.7892 83.9147 50.766 83.8259 50.7661C83.7267 50.7659 83.6298 50.7959 83.548 50.8522C83.4662 50.9085 83.4033 50.9884 83.3677 51.0814H83.2171C83.142 51.0725 83.0662 51.0725 82.9911 51.0814H79.6145H78.5099H77.2546H76.2818H69.5536H64.1057H53.1347H47.6241H42.1888H35.5108L35.9565 50.886C36.3009 50.7487 36.6555 50.6391 37.0171 50.5581C37.4126 50.4698 37.8142 50.4067 38.2097 50.3437L38.7871 50.2428C38.9754 50.2112 39.1636 50.1608 39.3519 50.1167C39.5402 50.0725 39.6783 50.0347 39.8352 49.9842L40.6511 49.732C40.7497 49.706 40.8389 49.6522 40.908 49.577C40.9771 49.5017 41.0234 49.4081 41.0412 49.3072C41.059 49.2064 41.0477 49.1025 41.0086 49.0079C40.9695 48.9134 40.9043 48.832 40.8206 48.7735L40.9336 48.3889C41.0152 48.124 41.0968 47.8592 41.2034 47.6006C41.2407 47.5143 41.2826 47.4301 41.329 47.3484C41.377 47.2658 41.4294 47.1858 41.4859 47.1088C41.5016 47.0719 41.5097 47.0322 41.5097 46.9921C41.5097 46.952 41.5016 46.9123 41.4859 46.8755C41.4682 46.8122 41.4304 46.7564 41.3783 46.7165C41.3262 46.6767 41.2626 46.655 41.1972 46.6548H41.1156C41.04 46.6769 40.9752 46.7263 40.9336 46.7935V46.825C40.9294 46.7741 40.9144 46.7246 40.8896 46.68C40.8401 46.6016 40.7645 46.5435 40.6762 46.516L40.331 46.3899L40.0298 46.3016C39.8415 46.2512 39.6532 46.1944 39.4649 46.1503C39.0632 46.0557 38.6553 45.98 38.2473 45.8981C37.8425 45.8218 37.4423 45.7229 37.0485 45.6017C36.6468 45.4756 36.2389 45.3494 35.8498 45.1855H35.7995C35.78 45.1419 35.7482 45.1049 35.7081 45.0791C35.668 45.0534 35.6212 45.0399 35.5736 45.0405H35.492L34.4878 44.5801L33.3392 44.0504C33.281 44.0197 33.2167 44.0024 33.1509 44H33.0631L32.9752 44.0378H32.8685C32.7783 44.0392 32.6908 44.0692 32.6187 44.1235C32.5465 44.1779 32.4933 44.2539 32.4668 44.3405C32.4041 44.536 32.3727 44.7378 32.3287 44.9333C32.2848 45.1287 32.2409 45.3242 32.2032 45.526C32.1279 45.9107 32.0589 46.3016 32.0024 46.6926C31.9459 47.0835 31.8831 47.5565 31.8329 47.9853C31.7827 48.4141 31.7388 48.7735 31.6948 49.1708C31.6509 49.568 31.5944 50.0725 31.5379 50.5265C31.5379 50.722 31.4814 50.9112 31.4501 51.1067C29.4228 51.1067 27.3956 51.1067 25.3683 51.1067C25.3005 51.1071 25.2346 51.1292 25.18 51.1697L24.9478 51.1193C24.9187 51.0738 24.8801 51.0351 24.8348 51.0058C24.7812 50.9756 24.7205 50.9604 24.6591 50.9616H24.5712C24.4844 50.9851 24.4101 51.0416 24.3641 51.1193V51.176L24.1319 51.1382H24.044C24.007 51.128 23.968 51.128 23.931 51.1382C23.8792 51.1697 23.8416 51.2203 23.8264 51.2792C23.8112 51.3381 23.8194 51.4006 23.8494 51.4535C23.864 51.4799 23.8837 51.503 23.9074 51.5215C23.9312 51.5399 23.9584 51.5532 23.9875 51.5607H24.0566C24.0001 51.7246 23.9499 51.8823 23.8997 52.0462C23.8494 52.2102 23.7804 52.4309 23.7365 52.6264C23.636 53.0173 23.5482 53.4083 23.4666 53.7993C23.385 54.1902 23.316 54.5938 23.2595 54.9911C23.203 55.3883 23.1653 55.7225 23.1214 56.0946C23.1139 56.1363 23.1139 56.179 23.1214 56.2207C23.1202 56.2375 23.1202 56.2543 23.1214 56.2711C23.0837 56.6306 23.0524 56.99 23.0272 57.3557C23.0272 57.5008 23.0272 57.6458 23.0272 57.7908H22.4749H21.9352H21.885C21.8835 57.7127 21.852 57.6381 21.7971 57.5828C21.7384 57.525 21.6596 57.4926 21.5774 57.4926C21.4953 57.4926 21.4164 57.525 21.3577 57.5828C21.3025 57.643 21.2713 57.7216 21.2699 57.8035C21.2259 58.1818 21.1883 58.5665 21.1569 58.9448C21.1569 59.1151 21.1569 59.2916 21.113 59.4619C21.069 59.6321 21.113 59.6763 21.113 59.7835C21.113 59.8907 21.113 59.9411 21.113 60.0168C21.079 60.0457 21.0515 60.0813 21.032 60.1215C21.0126 60.1617 21.0017 60.2055 21 60.2501C21.0005 60.3303 21.032 60.4072 21.0879 60.4645C21.1115 60.4881 21.1391 60.5073 21.1695 60.5213C21.1872 60.5757 21.2199 60.6239 21.2638 60.6603C21.3077 60.6968 21.361 60.72 21.4175 60.7273C21.474 60.7345 21.5314 60.7255 21.5831 60.7014C21.6347 60.6772 21.6784 60.6388 21.7092 60.5906L22.2678 60.6348L22.9959 60.7167L23.3787 60.7735C23.3787 61.0068 23.3787 61.2401 23.3787 61.4798C23.3787 61.9968 23.3787 62.5076 23.3473 63.0247C23.316 63.5418 23.3473 64.1408 23.3473 64.702C23.3473 65.2633 23.3473 65.8056 23.3473 66.3605C23.3473 68.5297 23.385 70.6989 23.3913 72.8618C23.3913 74.4256 23.3913 76.0147 23.3913 77.5596C23.3029 77.5351 23.2126 77.5182 23.1214 77.5092H23.0649C22.9852 77.5067 22.9062 77.5251 22.8357 77.5627C22.7653 77.6003 22.7058 77.6558 22.6632 77.7236C22.6071 77.823 22.5892 77.9397 22.613 78.0515C22.6368 78.1411 22.675 78.2263 22.726 78.3037C22.7717 78.3798 22.8452 78.4349 22.9308 78.4573C23.0164 78.4797 23.1073 78.4676 23.1842 78.4235C23.2469 78.3856 23.2954 78.328 23.3222 78.2596H23.3599C23.7965 78.468 24.2162 78.7105 24.6152 78.9847L25.2428 79.3946L25.5064 79.5649L25.6759 79.6658C25.7943 79.7347 25.9181 79.7937 26.0462 79.8423C26.0856 79.8497 26.126 79.8497 26.1654 79.8423C26.1284 79.9054 26.1043 79.9753 26.0946 80.0478C26.0849 80.1204 26.0898 80.1942 26.1089 80.2648C26.1267 80.3336 26.1581 80.3981 26.2013 80.4544C26.2444 80.5107 26.2984 80.5578 26.36 80.5927C26.4476 80.6446 26.547 80.6728 26.6487 80.6747H27.0566H27.9604L30.3643 80.6369C31.9961 80.6369 33.6217 80.5486 35.2535 80.517L40.8143 80.3972L46.5823 80.2711L51.9548 80.1639C51.9548 81.0383 51.9548 81.9148 51.9548 82.7934C51.9548 83.8276 51.9548 84.8555 51.9548 85.8896C51.9548 86.4067 51.9548 86.9238 51.9548 87.4408C51.9548 87.9453 51.9548 88.4498 51.9548 88.9542V89.3515C51.9548 89.4209 51.9548 89.4902 51.9548 89.5596C51.9548 89.629 51.9548 89.6542 51.9548 89.7046C51.9605 89.7962 51.9885 89.885 52.0364 89.9632C52.0739 89.9909 52.1203 90.0037 52.1667 89.9991C52.2131 89.9944 52.2561 89.9726 52.2874 89.938V89.8686C52.2874 89.7803 52.2874 89.692 52.2874 89.6037C52.2874 89.5155 52.2874 89.4776 52.2874 89.4146C52.2874 89.3515 52.2874 89.1623 52.2874 89.0362C52.2874 88.9101 52.2874 88.7272 52.2874 88.5696C52.291 88.6099 52.3039 88.6487 52.3251 88.6831C52.3538 88.7334 52.3984 88.7726 52.4519 88.7943C52.5054 88.816 52.5646 88.8191 52.6201 88.8029H52.664C52.664 88.8849 52.664 88.9669 52.664 89.0425C52.6657 89.1157 52.6948 89.1855 52.7456 89.238C52.7798 89.2715 52.8221 89.2955 52.8683 89.3076C52.9145 89.3198 52.963 89.3197 53.0092 89.3074L53.1222 89.2632C53.1689 89.233 53.2076 89.1919 53.2351 89.1434C53.2776 89.0682 53.3012 88.9839 53.3042 88.8975C53.3042 88.8281 53.3042 88.7651 53.3042 88.6957C53.3042 88.6263 53.3042 88.5002 53.3042 88.3993C53.3042 88.1534 53.3418 87.9075 53.3544 87.6679C53.4096 87.6849 53.4686 87.6849 53.5239 87.6679C53.5754 87.72 53.6453 87.7495 53.7184 87.7498H53.7686C53.7686 87.9075 53.7686 88.0714 53.7686 88.2291C53.7686 88.3867 53.7686 88.5381 53.7686 88.6894C53.7586 88.8624 53.7691 89.036 53.8 89.2065C53.8123 89.2486 53.838 89.2856 53.8731 89.3118C53.9082 89.338 53.9509 89.3519 53.9946 89.3515C54.0383 89.3519 54.081 89.338 54.1161 89.3118C54.1512 89.2856 54.1768 89.2486 54.1891 89.2065C54.2116 89.0602 54.2262 88.9129 54.2331 88.7651C54.2331 88.6326 54.2331 88.5002 54.2331 88.3678C54.2331 88.1156 54.2331 87.8696 54.2331 87.6174C54.2331 87.0877 54.2331 86.5643 54.1829 86.0346C54.1327 85.505 54.1201 84.9627 54.0824 84.433C54.0824 84.1618 54.0385 83.897 54.0134 83.6258L53.9444 82.8376C53.8942 82.2764 53.8188 81.7215 53.7372 81.1665C53.7038 80.9353 53.6661 80.7041 53.6243 80.4729L53.731 80.5423C53.7794 80.5701 53.8367 80.5777 53.8907 80.5636C53.9446 80.5494 53.9909 80.5146 54.0197 80.4666C54.034 80.4383 54.0415 80.4069 54.0415 80.3752C54.0415 80.3434 54.034 80.3121 54.0197 80.2837L57.0135 80.227C57.0135 81.5323 57.0135 82.8439 56.9758 84.1492C56.9758 84.7798 56.9758 85.4104 56.9758 85.9968C56.9758 86.5833 56.9758 87.258 56.9758 87.8886C56.9758 88.166 56.9758 88.4435 56.9319 88.7209C56.9319 88.8555 56.9214 88.9921 56.9005 89.1308V89.3137C56.8984 89.3452 56.8984 89.3768 56.9005 89.4083C56.897 89.4481 56.897 89.4882 56.9005 89.5281C56.9155 89.5805 56.9436 89.6283 56.9821 89.6668C57.0081 89.6937 57.0394 89.7148 57.074 89.7289C57.1085 89.7431 57.1456 89.7498 57.1829 89.7488C57.2323 89.7491 57.2808 89.7365 57.3237 89.7122C57.3667 89.6878 57.4025 89.6526 57.4277 89.61C57.4572 89.5643 57.4764 89.5127 57.4842 89.4587C57.4874 89.4083 57.4874 89.3578 57.4842 89.3074C57.4842 89.2317 57.4842 89.1539 57.4842 89.0741C57.4842 88.9227 57.4842 88.7777 57.4842 88.6263C57.4842 88.3174 57.4842 87.9958 57.4842 87.7057C57.4842 87.0751 57.4842 86.4445 57.5281 85.8139C57.5595 84.5149 57.5658 83.2222 57.5784 81.9232C57.5784 81.3431 57.5784 80.763 57.5784 80.1828H57.842L64.1183 80.0693L71.3862 79.981L78.6354 79.8802L82.4012 79.8234H84.2338H84.9682C85.1816 79.8234 85.395 79.8234 85.5958 79.8234H85.6648C85.872 79.8234 86.0854 79.8234 86.2925 79.7856H86.4243C86.5071 79.7633 86.5828 79.7199 86.644 79.6595H86.6942L87.0645 79.609C87.1215 79.5933 87.1734 79.5629 87.2151 79.5207V79.4829C87.2694 79.4727 87.3185 79.4438 87.354 79.4013C87.3895 79.3587 87.4092 79.3051 87.4097 79.2496C87.4695 79.2405 87.5241 79.2099 87.5633 79.1636C87.6025 79.1172 87.6237 79.0582 87.6231 78.9973V78.8271C87.6651 78.7862 87.6984 78.7372 87.7211 78.683C87.7437 78.6288 87.7552 78.5706 87.7549 78.5118C87.7549 75.857 87.7549 73.2086 87.7549 70.5538C87.7549 67.8991 87.9871 65.1497 87.9934 62.5139ZM21.6276 60.1114C21.6276 59.9222 21.6276 59.7267 21.6653 59.5376V59.4241L22.1674 59.4871C22.1674 59.5313 22.1674 59.5754 22.1674 59.6195C22.1674 59.6637 22.1674 59.8024 22.1674 59.897C22.1674 59.9916 22.1674 60.0736 22.1674 60.1555L21.6276 60.1114ZM22.1988 58.9953C22.1988 59.0268 22.1988 59.0583 22.1988 59.0898L21.7155 59.0268C21.7155 58.7998 21.7594 58.5791 21.7845 58.3521H22.2615C22.2302 58.5539 22.2113 58.7746 22.1988 58.9953ZM31.6132 54.8208C31.7639 54.0137 31.9208 53.2065 32.0777 52.4057L32.1656 51.9643C32.1169 51.8776 32.091 51.78 32.0902 51.6805C32.0959 51.5955 32.1085 51.5112 32.1279 51.4283C32.1279 51.3652 32.1279 51.3021 32.1656 51.2391L32.2283 50.9995C32.2283 50.9301 32.2723 50.8544 32.2911 50.7851C32.3109 50.725 32.3339 50.6661 32.3601 50.6085L32.4041 50.5518C32.4375 50.3374 32.4689 50.1272 32.4982 49.9212C32.6112 49.1203 32.7053 48.3132 32.7995 47.506C32.8413 47.1445 32.8852 46.7809 32.9313 46.4151C32.9752 46.1251 33.0254 45.8287 33.0882 45.5449C33.1509 45.2612 33.1949 45.0657 33.2388 44.8261L34.0861 45.1666C34.0709 45.2025 34.0631 45.2411 34.0631 45.2801C34.0631 45.3191 34.0709 45.3577 34.0861 45.3936C34.2116 45.7909 34.3372 46.1944 34.4752 46.5917C34.5989 46.9562 34.7414 47.314 34.902 47.6637C34.9279 47.6964 34.9603 47.7232 34.9972 47.7424C35.0341 47.7616 35.0746 47.7727 35.1161 47.7751C35.1576 47.7775 35.1991 47.771 35.2379 47.7562C35.2767 47.7413 35.312 47.7184 35.3414 47.6889C35.3569 47.6531 35.365 47.6145 35.365 47.5754C35.365 47.5363 35.3569 47.4977 35.3414 47.4619C35.0778 46.8313 34.8769 46.2007 34.6761 45.5197L35.3414 45.7972V45.9107C35.3414 46.0431 35.3414 46.1755 35.379 46.3079C35.4167 46.4404 35.4292 46.7304 35.4606 46.9385C35.4861 47.1098 35.526 47.2785 35.5799 47.443L35.6301 47.5817C35.6301 47.6574 35.6928 47.7267 35.7242 47.8024C35.7442 47.8364 35.7727 47.8646 35.8068 47.8841C35.8409 47.9037 35.8795 47.914 35.9188 47.914C35.9581 47.914 35.9967 47.9037 36.0308 47.8841C36.0649 47.8646 36.0934 47.8364 36.1134 47.8024C36.1255 47.7746 36.1317 47.7445 36.1317 47.7141C36.1317 47.6838 36.1255 47.6537 36.1134 47.6259C36.0383 47.371 35.9899 47.1089 35.969 46.8439C35.9313 46.5728 35.9062 46.3016 35.8874 46.0305L36.1259 46.1314C36.216 46.6137 36.3441 47.0881 36.5088 47.5502C36.5209 47.6054 36.552 47.6545 36.5966 47.6889C36.651 47.711 36.7118 47.711 36.7661 47.6889C36.7949 47.6816 36.8219 47.6686 36.8455 47.6505C36.8692 47.6325 36.8889 47.6098 36.9036 47.5839C36.9183 47.5579 36.9275 47.5293 36.9309 47.4997C36.9342 47.47 36.9315 47.44 36.923 47.4115C36.8354 47.1572 36.7621 46.8983 36.7033 46.6358C36.7033 46.5286 36.6531 46.4214 36.6343 46.3142L36.9795 46.4404C37.0297 46.6548 37.0799 46.8628 37.1301 47.0709C37.1441 47.1073 37.171 47.1372 37.2056 47.1548C37.2402 47.1724 37.2801 47.1765 37.3175 47.1663C37.355 47.1561 37.3873 47.1323 37.4083 47.0996C37.4294 47.0668 37.4376 47.0274 37.4314 46.989L37.3372 46.5539L37.7201 46.6674L37.8707 47.1025C37.8809 47.1374 37.9044 47.167 37.9362 47.1847C37.9679 47.2024 38.0052 47.2068 38.0402 47.1971C38.075 47.1868 38.1044 47.1632 38.122 47.1313C38.1396 47.0995 38.144 47.0619 38.1343 47.0268L38.0465 46.743L38.285 46.7935V46.907C38.3115 47.0775 38.3492 47.246 38.3979 47.4115C38.4133 47.471 38.4459 47.5245 38.4917 47.5653C38.5375 47.6061 38.5944 47.6322 38.655 47.6403C38.7157 47.6484 38.7774 47.6382 38.8322 47.6109C38.887 47.5836 38.9325 47.5405 38.9628 47.4871C38.9929 47.4101 38.9929 47.3245 38.9628 47.2475C38.9628 47.1655 38.9628 47.0899 38.9251 47.0079V46.9322L39.0883 46.9637H39.1574C39.1574 47.0962 39.2201 47.2286 39.2515 47.361C39.2629 47.3827 39.2814 47.3998 39.3038 47.4095C39.3262 47.4191 39.3513 47.4208 39.3748 47.4141C39.3983 47.4075 39.4188 47.393 39.4329 47.373C39.447 47.353 39.4539 47.3287 39.4524 47.3043C39.4524 47.2097 39.4084 47.1088 39.3833 47.0142H39.4398C39.4719 47.0675 39.5169 47.1117 39.5708 47.1426C39.6246 47.1735 39.6854 47.1901 39.7473 47.1907C39.8191 47.1904 39.889 47.1685 39.9482 47.1277H40.0674C40.2249 47.1552 40.3846 47.1679 40.5444 47.1655C40.588 47.1739 40.6327 47.1739 40.6762 47.1655C40.608 47.3115 40.5472 47.461 40.4942 47.6132C40.4377 47.7709 40.3875 47.9348 40.3373 48.0988C40.2805 48.2907 40.2386 48.4868 40.2118 48.6852L39.4335 48.9248C39.2327 48.9879 39.0256 49.0384 38.8059 49.0825C38.3666 49.1897 37.9272 49.2654 37.4816 49.3536C37.036 49.4419 36.6343 49.5365 36.2263 49.6563C36.0255 49.7131 35.8247 49.7888 35.5987 49.8581C35.3416 49.9468 35.0986 50.0721 34.8769 50.2302L34.8016 50.2869C34.7613 50.3096 34.726 50.3403 34.698 50.3772C34.6699 50.414 34.6496 50.4563 34.6384 50.5013L34.5631 51.0436H34.5255C34.5541 51.235 34.5434 51.4303 34.4941 51.6174V51.7625H34.5317C34.4815 52.0904 34.4313 52.3931 34.3748 52.7462C34.2577 53.423 34.1321 54.0977 33.9982 54.7704L33.6091 56.7693C33.5463 57.1098 33.471 57.444 33.4271 57.7908C33.3832 58.1377 33.333 58.5097 33.2827 58.8628L33.2263 59.3105V59.2286C33.1635 59.67 33.0882 60.1114 33.0066 60.5465C32.9815 60.6726 32.9564 60.7966 32.9313 60.9185L32.2032 61.0951C31.8078 61.1504 31.4097 61.1841 31.0107 61.196H30.4898C30.5651 60.6789 30.6404 60.1555 30.7346 59.6384C30.8789 58.7935 31.0358 57.9485 31.1865 57.1161C31.3371 56.2837 31.4626 55.5838 31.5756 54.8208H31.6132ZM24.1193 57.5954C24.1193 57.2485 24.1758 56.9017 24.2072 56.5486C24.2386 56.1955 24.2574 55.8234 24.2888 55.464C24.3202 55.1046 24.3578 54.7388 24.4018 54.3731L24.4331 54.1145C24.4834 53.7551 24.5461 53.3957 24.6089 53.0299V53.1876C24.6528 53.4587 24.703 53.7362 24.7532 54.0073C24.8034 54.2785 24.8662 54.556 24.929 54.8334C24.9917 55.1109 25.0482 55.3505 25.1047 55.609C25.1612 55.8676 25.2177 56.1513 25.2742 56.4225C25.3934 56.9711 25.5064 57.526 25.5943 58.0809V58.2386C25.5943 58.3395 25.5943 58.4403 25.6256 58.5412C25.5857 58.5466 25.5485 58.5642 25.5189 58.5917C25.4771 58.3773 25.4332 58.1671 25.3871 57.9611C25.3689 57.8917 25.3282 57.8304 25.2713 57.787C25.2144 57.7436 25.1447 57.7205 25.0733 57.7215H24.9917C24.9097 57.7445 24.8399 57.7988 24.7972 57.8728V57.7782C24.7972 57.7063 24.7687 57.6374 24.7181 57.5865C24.6675 57.5357 24.5989 57.5071 24.5273 57.5071C24.4557 57.5071 24.3871 57.5357 24.3365 57.5865C24.2858 57.6374 24.2574 57.7063 24.2574 57.7782V57.8476H24.0942C24.1005 57.7782 24.1068 57.6836 24.1131 57.5954H24.1193ZM23.5294 55.7541C23.5294 55.8234 23.5294 55.8865 23.5294 55.9558V55.7541ZM23.3411 57.3936C23.3411 57.154 23.385 56.9143 23.4164 56.6747H23.4603C23.4603 56.8891 23.4227 57.1035 23.4101 57.3053C23.3976 57.5071 23.4101 57.671 23.3787 57.8602H23.316C23.3097 57.7152 23.3222 57.5512 23.3348 57.3936H23.3411ZM23.931 60.1492C23.931 60.0656 23.898 59.9854 23.8391 59.9263C23.7803 59.8672 23.7005 59.8339 23.6172 59.8339C23.534 59.8339 23.4542 59.8672 23.3953 59.9263C23.3365 59.9854 23.3034 60.0656 23.3034 60.1492C23.3006 60.1975 23.3006 60.246 23.3034 60.2943H23.2155L22.4436 60.206C22.4436 60.0231 22.4436 59.8339 22.4436 59.6511C22.4436 59.6132 22.4436 59.5754 22.4436 59.5376L22.9708 59.6006C22.9964 59.6011 23.0219 59.5963 23.0456 59.5866C23.0694 59.5768 23.0909 59.5623 23.1088 59.5439C23.1271 59.5257 23.1415 59.5041 23.1514 59.4803C23.1612 59.4565 23.1663 59.4309 23.1663 59.4051C23.1663 59.3793 23.1612 59.3538 23.1514 59.33C23.1415 59.3062 23.1271 59.2846 23.1088 59.2664H23.0712C23.0382 59.2579 23.0037 59.2579 22.9708 59.2664L22.4624 59.2034C22.4624 59.0962 22.4624 58.989 22.4624 58.8818C22.4624 58.7746 22.4624 58.5665 22.5 58.4088H22.9331C22.9331 58.5034 22.9331 58.6043 22.9331 58.6989C22.9405 58.7361 22.9604 58.7696 22.9896 58.7936C23.0188 58.8177 23.0554 58.8308 23.0931 58.8308C23.1309 58.8308 23.1675 58.8177 23.1967 58.7936C23.2258 58.7696 23.2458 58.7361 23.2532 58.6989C23.2532 58.598 23.2532 58.4971 23.2532 58.3962H23.3285C23.3285 58.3962 23.3285 58.3962 23.3285 58.4403C23.333 58.5911 23.3519 58.741 23.385 58.8881C23.4028 58.953 23.4413 59.0104 23.4945 59.0514C23.5478 59.0924 23.6129 59.1147 23.68 59.1151C23.7353 59.1148 23.7895 59.0995 23.8369 59.0709C23.872 59.0519 23.9029 59.0258 23.9277 58.9944C23.9526 58.9629 23.9708 58.9268 23.9812 58.8881C23.9812 58.7619 24.0189 58.6295 24.0315 58.5034C24.044 58.3773 24.0315 58.4151 24.0315 58.371H24.2386C24.2386 58.7157 24.2511 59.0604 24.2762 59.4051C24.2762 59.6006 24.2762 59.8024 24.2762 59.9979C24.2762 60.1934 24.2762 60.3573 24.3202 60.5339L23.8934 60.4708C23.9181 60.3634 23.9286 60.2531 23.9248 60.1429L23.931 60.1492ZM26.0775 70.5286C26.0775 70.8376 26.0775 71.1592 26.0462 71.4493C26.0148 71.7393 26.0148 72.0105 26.0022 72.2942C26.0022 72.9248 25.9457 73.4924 25.9206 74.0914C25.9206 74.186 25.9206 74.2806 25.9206 74.3752H25.839H25.77C25.7018 74.3957 25.6441 74.442 25.609 74.5043C25.5739 74.5665 25.5641 74.64 25.5817 74.7094C25.6507 74.9931 25.6947 75.2832 25.7386 75.5733C25.8453 76.784 25.8704 78.001 25.9206 79.218L25.7072 79.0667L25.3181 78.8082L24.5963 78.3478L24.2323 78.1334L23.9938 78.0073C23.9986 77.9739 23.9986 77.9399 23.9938 77.9064C23.9938 76.7209 23.9938 75.5354 23.9938 74.3563C23.9938 73.1771 23.9938 72.1051 23.9938 70.9763C23.9938 69.8476 23.9938 68.8197 23.9938 67.7414C23.9938 66.6631 23.9938 65.5975 23.9938 64.5192C23.9938 63.7499 23.9938 62.9805 23.9561 62.2049C23.9561 61.8707 23.9561 61.5365 23.9561 61.2086C23.9561 61.1455 23.9561 61.0825 23.9561 61.0257L24.3704 61.0888L24.6842 61.1203H25.0231C25.0733 61.1194 25.1225 61.1053 25.1656 61.0795C25.2088 61.0537 25.2445 61.017 25.2692 60.973C25.2939 60.9291 25.3068 60.8794 25.3066 60.8289C25.3064 60.7785 25.293 60.7289 25.2679 60.6852C25.2499 60.6529 25.2256 60.6245 25.1965 60.6018C25.1674 60.579 25.134 60.5624 25.0984 60.5528L24.8788 60.5213C24.8788 60.3384 24.8788 60.1618 24.8788 59.979V59.3484C24.8788 58.9868 24.8662 58.6232 24.8411 58.2575C24.9248 58.6484 25.0043 59.0415 25.0796 59.4367C25.1486 59.8024 25.2302 60.1681 25.3369 60.5213C25.3575 60.5945 25.4058 60.6567 25.4716 60.6944C25.5373 60.7322 25.6152 60.7424 25.6884 60.7231H25.7198C25.7198 61.0699 25.77 61.423 25.7825 61.7698C25.7825 62.2617 25.7825 62.7514 25.7825 63.2391C25.7825 63.7246 25.7825 64.2165 25.7825 64.702C25.7825 64.9417 25.7825 65.1876 25.7825 65.4272C25.7825 65.6668 25.7825 65.8812 25.7825 66.1082C25.7825 66.6043 25.8056 67.0982 25.8516 67.5901C25.8516 67.8255 25.8683 68.0609 25.9018 68.2964C25.9018 68.5234 25.9457 68.7441 25.9646 68.9711C26.0085 69.4314 26.0462 69.8854 26.0775 70.3457V70.5286ZM29.0651 79.7162H27.4018H26.7177V79.1613C26.7177 78.6884 26.7554 78.2154 26.7491 77.7488C26.7491 76.8029 26.7177 75.857 26.6926 74.9238C26.6926 74.4382 26.6926 73.9527 26.6612 73.4671C26.6299 72.9816 26.6612 72.5023 26.611 72.0231C26.5608 71.5439 26.5545 71.1214 26.5294 70.6736C26.5294 70.4887 26.519 70.3037 26.498 70.1187C26.498 69.8602 26.5294 69.608 26.5483 69.3494C26.5671 69.0909 26.5483 68.7188 26.5859 68.4477C26.5859 67.8486 26.5859 67.2559 26.5859 66.6568C26.5859 66.0578 26.5859 65.4776 26.5545 64.8912C26.5545 64.4813 26.5545 64.0714 26.5232 63.63C26.5232 63.3526 26.5232 63.0751 26.5232 62.7977C26.5232 62.0473 26.5232 61.2969 26.5232 60.5465C26.5232 60.0988 26.5232 59.6448 26.5232 59.197C26.5232 58.9826 26.5232 58.7725 26.5232 58.5665C26.5232 58.4572 26.5232 58.3479 26.5232 58.2386C26.5339 58.1261 26.5144 58.0129 26.4667 57.9107C26.4359 57.8595 26.3926 57.8171 26.341 57.7873C26.2894 57.7575 26.2312 57.7414 26.1717 57.7404C26.1717 57.69 26.1717 57.6395 26.1717 57.5828C26.088 56.969 25.998 56.3573 25.9018 55.7478C25.8516 55.4388 25.7951 55.1172 25.7323 54.8334C25.6696 54.5496 25.6194 54.2659 25.5503 53.9884C25.4499 53.5533 25.3495 53.1182 25.2491 52.6831L25.2114 52.4498L25.0984 51.7877L25.7888 51.8886C25.78 51.9216 25.78 51.9564 25.7888 51.9895C25.7888 52.1913 25.8328 52.3931 25.8704 52.6201C25.9081 52.8471 25.9395 52.9732 25.9708 53.1498C26.0336 53.4777 26.0901 53.7803 26.1529 54.1272C26.1842 54.2974 26.2219 54.4677 26.2533 54.6379C26.2847 54.8082 26.3035 54.9532 26.3286 55.1109C26.3788 55.4514 26.4353 55.7856 26.4918 56.1198C26.5483 56.454 26.5859 56.681 26.6361 56.9585C26.6863 57.2359 26.7491 57.5891 26.8056 57.8665C26.9123 58.4277 27.019 58.9889 27.0943 59.5502C27.1382 59.8781 27.1822 60.1808 27.2198 60.5276C27.2575 60.8744 27.3014 61.2401 27.3516 61.5996C27.4018 61.959 27.4646 62.3121 27.5211 62.6716C27.5776 63.031 27.6215 63.34 27.6717 63.6742V63.8697C27.7157 64.1976 27.7596 64.5002 27.7721 64.8597C27.7721 64.9543 27.7721 65.0489 27.7721 65.1434C27.7721 65.238 27.7721 65.2506 27.7721 65.3074C27.7721 65.938 27.7721 66.5686 27.7345 67.1613C27.6968 67.754 27.7345 68.3531 27.7345 68.9522C27.7345 69.5512 27.7031 70.125 27.678 70.7115C27.6403 71.1781 27.6027 71.6511 27.565 72.1177L27.3893 74.2491C27.3328 74.9175 27.2449 75.5859 27.2387 76.2543C27.2387 76.3741 27.2387 76.4876 27.2387 76.6074C27.2475 76.744 27.2706 76.8793 27.3077 77.011C27.3077 77.011 27.3077 77.011 27.3077 77.0425C27.3004 77.137 27.3004 77.2318 27.3077 77.3263C27.3385 77.453 27.4037 77.5687 27.496 77.6605C27.5732 77.7402 27.6648 77.8044 27.7659 77.8497C27.8491 77.8877 27.9352 77.9193 28.0232 77.9443L28.2805 78.0136C28.4069 78.0689 28.5286 78.1343 28.6445 78.2091L28.7512 78.3163C28.8162 78.4144 28.8729 78.5177 28.9207 78.6253C29.0066 78.8688 29.0779 79.1173 29.1341 79.3694C29.1341 79.4766 29.178 79.5838 29.2031 79.691L29.0651 79.7162ZM26.7679 54.3605C26.8684 54.7577 26.9625 55.155 27.0566 55.5586C27.1508 55.9622 27.2324 56.4036 27.3014 56.8197C27.3705 57.2359 27.4332 57.6773 27.496 58.0809C27.496 58.1881 27.496 58.2953 27.5336 58.4025C27.4583 58.0431 27.383 57.6836 27.3077 57.3242C27.1654 56.6474 27.0399 55.9664 26.9311 55.2811C26.8746 54.9911 26.8244 54.6758 26.7679 54.3605ZM52.6075 83.1592L52.5322 83.1907V83.0646H52.6138L52.6075 83.1592ZM53.2038 80.5675C53.1741 80.5131 53.1246 80.4725 53.0657 80.454C53.1111 80.4425 53.1524 80.4185 53.1849 80.3846L53.2163 80.5801L53.2038 80.5675ZM86.7444 78.7892C86.6726 78.7454 86.5898 78.7235 86.5059 78.7262H85.6335C85.4939 78.7443 85.3526 78.7443 85.213 78.7262H85.0184C84.9144 78.7073 84.8117 78.682 84.7109 78.6505H84.6544V78.7892H83.4807L80.6815 78.8523L75.0893 78.9721L64.3191 79.2307H63.6915C59.8922 79.2979 56.0909 79.3652 52.2874 79.4324C52.261 79.4038 52.2289 79.3809 52.1933 79.3653C52.1577 79.3497 52.1192 79.3416 52.0803 79.3416C52.0414 79.3416 52.0029 79.3497 51.9673 79.3653C51.9317 79.3809 51.8996 79.4038 51.8732 79.4324C48.1074 79.4913 44.3291 79.5459 40.5382 79.5964L36.4146 79.6531L32.4229 79.7036L29.9751 79.7351V79.6595C29.9751 79.5964 29.9751 79.5396 29.9751 79.4766C29.9751 79.4135 29.9751 79.2622 29.9751 79.1613C29.9751 79.0604 29.9751 78.9091 29.9375 78.7892L29.9061 78.6127C29.8798 78.5018 29.842 78.394 29.7931 78.2911C29.7342 78.1646 29.6511 78.051 29.5483 77.9569C29.4187 77.8394 29.2642 77.7531 29.0964 77.7046L28.8956 77.6542L28.6445 77.5281L28.3119 77.3894L28.1738 77.3074L28.0985 77.2317C28.0685 77.1872 28.0412 77.1409 28.0169 77.093C27.978 76.9908 27.9486 76.8853 27.929 76.7777C27.9139 76.5825 27.9139 76.3864 27.929 76.1912C27.929 76.0147 27.929 75.8381 27.9667 75.6553C27.9981 75.3084 28.042 74.9679 28.086 74.6211C28.1299 74.2743 28.1487 73.9905 28.1801 73.65C28.2115 73.3095 28.2491 72.9185 28.2868 72.5465C28.3558 71.8528 28.4374 71.1592 28.4939 70.4656C28.5504 69.7719 28.5692 69.0909 28.5692 68.4036C28.5692 67.7162 28.5692 67.0352 28.5692 66.3542C28.5692 66.0136 28.5692 65.6668 28.5692 65.3263C28.5692 65.1434 28.5692 64.9606 28.5692 64.784C28.5692 64.6074 28.5316 64.4057 28.5065 64.2165C28.4563 63.8507 28.3998 63.4787 28.3433 63.113V62.804C28.3433 62.2175 28.3433 61.6374 28.3056 61.051C28.268 60.4645 28.2366 59.7898 28.1864 59.1592C28.1613 58.8733 28.132 58.5854 28.0985 58.2953C28.0609 57.98 28.0106 57.6647 27.9604 57.3557C27.9102 57.0468 27.8663 56.763 27.8161 56.4666C27.7659 56.1702 27.7031 55.8676 27.6403 55.5712C27.5776 55.2748 27.5148 54.9974 27.4458 54.7136C27.3767 54.4298 27.314 54.1335 27.2324 53.8497C27.1508 53.5659 27.0566 53.2696 26.9625 52.9858C26.8684 52.702 26.7679 52.3552 26.6612 52.0652V52.0021C26.6912 51.9842 26.7153 51.958 26.7309 51.9267C26.7465 51.8955 26.7528 51.8603 26.7491 51.8255H31.0358H31.4438L31.268 52.8912C31.13 53.732 30.9961 54.5728 30.8664 55.4135C30.7367 56.2543 30.5839 57.0426 30.4082 57.7782C30.2827 58.598 30.1446 59.4177 30.0253 60.2375L29.8873 61.2086H29.3977C29.3178 61.2086 29.2412 61.2405 29.1847 61.2973C29.1282 61.354 29.0964 61.431 29.0964 61.5113C29.0964 61.5687 29.113 61.6249 29.1442 61.6731C29.1754 61.7212 29.2199 61.7592 29.2722 61.7824C29.2722 61.7824 29.2722 61.8203 29.2722 61.8392C29.2722 61.8581 29.2722 61.9149 29.2722 61.9527C29.2722 61.9905 29.2722 62.104 29.2722 62.1797C29.2722 62.2554 29.2722 62.4004 29.2722 62.5076C29.2722 62.7535 29.2722 62.9995 29.3098 63.2454C29.3098 63.6994 29.3538 64.1534 29.3726 64.6074C29.3914 65.0615 29.4103 65.5218 29.4479 65.9821C29.4856 66.4424 29.5044 66.9217 29.5232 67.3946C29.5232 67.4955 29.5232 67.5964 29.5232 67.6973V67.7793C29.4637 67.7934 29.4094 67.8239 29.3663 67.8676C29.3341 67.8998 29.3085 67.9381 29.291 67.9803C29.2735 68.0225 29.2645 68.0678 29.2645 68.1135C29.2645 68.1592 29.2735 68.2045 29.291 68.2467C29.3085 68.2889 29.3341 68.3272 29.3663 68.3594C29.3981 68.3922 29.4362 68.418 29.4783 68.4354C29.5204 68.4527 29.5656 68.4612 29.6111 68.4603C30.335 68.3972 31.0567 68.3426 31.7764 68.2964L32.7869 68.2396C33.1007 68.2396 33.4145 68.2396 33.7346 68.1955C33.8853 68.1955 34.0296 68.1576 34.1803 68.1387C34.2254 68.1266 34.2666 68.1027 34.2995 68.0693C34.3486 68.0187 34.376 67.9508 34.376 67.8802C34.376 67.8095 34.3486 67.7416 34.2995 67.691C34.2482 67.6432 34.1811 67.6163 34.1112 67.6153C33.9355 67.6153 33.7597 67.5775 33.584 67.5712H33.1133C32.7953 67.5712 32.4752 67.5712 32.153 67.5712C31.4689 67.6027 30.7785 67.6595 30.0944 67.7162H29.9563C29.9563 67.5775 29.9563 67.4388 29.9563 67.3C29.9563 67.1613 29.9563 66.8523 29.9563 66.6316C29.9563 66.1587 29.9563 65.6857 29.8935 65.2128C29.8308 64.7399 29.8245 64.3048 29.7868 63.8507C29.7868 63.4913 29.7241 63.1382 29.6927 62.7788C29.7083 62.7642 29.7208 62.7467 29.7294 62.7272C29.738 62.7077 29.7426 62.6866 29.7429 62.6652L29.6801 62.2112V61.9905V61.8077H29.7931L29.7555 62.0599C29.7276 62.1351 29.7276 62.218 29.7555 62.2932C29.7755 62.3277 29.8022 62.3578 29.8339 62.3819C29.8657 62.406 29.9018 62.4235 29.9404 62.4335C29.9789 62.4435 30.019 62.4457 30.0583 62.44C30.0977 62.4343 30.1355 62.4209 30.1697 62.4004C30.209 62.3797 30.2431 62.3501 30.2692 62.3141C30.2954 62.278 30.3128 62.2363 30.3203 62.1923L30.3768 61.7887C30.7973 61.7887 31.2116 61.7887 31.6321 61.7446C32.0526 61.7005 32.3601 61.6689 32.7179 61.6185C32.6961 61.7157 32.6856 61.8152 32.6865 61.9149C32.6888 61.9756 32.7123 62.0336 32.7529 62.0786C32.7935 62.1237 32.8487 62.1529 32.9086 62.1612C32.9685 62.1694 33.0294 62.1562 33.0806 62.1239C33.1318 62.0915 33.1701 62.0421 33.1886 61.9842C33.2388 61.8392 33.2702 61.6878 33.3078 61.5428L33.5903 61.505L34.2681 61.4041C34.3128 61.3907 34.3536 61.367 34.3874 61.3347C34.3815 61.3702 34.3815 61.4064 34.3874 61.4419C34.3874 62.1314 34.3874 62.8229 34.3874 63.5165C34.3874 64.1976 34.425 64.8849 34.4439 65.5659C34.4648 66.4067 34.4857 67.2475 34.5066 68.0883C34.5066 68.1719 34.5397 68.2521 34.5985 68.3112C34.6574 68.3703 34.7372 68.4036 34.8204 68.4036C34.9037 68.4036 34.9835 68.3703 35.0423 68.3112C35.1012 68.2521 35.1343 68.1719 35.1343 68.0883C35.0966 66.6064 35.0652 65.1308 35.0527 63.6742C35.0527 63.3147 35.0527 62.9553 35.0527 62.5959C35.0527 62.2365 35.0527 61.8581 35.0527 61.4861C35.0518 61.401 35.018 61.3196 34.9585 61.259C34.9291 61.2289 34.8939 61.205 34.8551 61.1887C34.8163 61.1725 34.7746 61.1642 34.7326 61.1645C34.6527 61.1649 34.5762 61.1966 34.5192 61.2527C34.5351 61.2086 34.5404 61.1612 34.5345 61.1146C34.5286 61.068 34.5118 61.0235 34.4855 60.9847C34.4591 60.9459 34.424 60.9139 34.3829 60.8915C34.3418 60.869 34.296 60.8567 34.2493 60.8555C34.061 60.8555 33.8664 60.8555 33.6782 60.8555H33.5463C33.6091 60.5969 33.6656 60.3384 33.7221 60.0736C33.7786 59.8087 33.8413 59.443 33.8978 59.0898L34.0673 58.0809C34.1803 57.4503 34.3372 56.8197 34.469 56.145C34.6008 55.4703 34.7326 54.8271 34.8518 54.165C34.9899 53.3768 35.1154 52.5885 35.2347 51.8003H36.4899H42.0068H47.4547C51.1263 51.8003 54.7917 51.8003 58.4633 51.8003H69.3653H76.3947H77.1793H78.9555H80.625H82.0497C82.2945 51.8003 82.533 51.8003 82.7777 51.8003H83.0163C83.0893 51.8078 83.1629 51.8078 83.2359 51.8003H83.2673C83.2673 51.9895 83.2673 52.1808 83.2673 52.3741H83.4054C83.5066 52.3729 83.6063 52.399 83.6941 52.4498C83.8573 52.5255 83.9389 52.7147 84.0267 52.866L84.2087 53.1813L84.3594 53.4524C84.3594 53.3599 84.3594 53.2696 84.3594 53.1813C84.3594 53.0993 84.3594 53.0236 84.3594 52.9417L84.7862 53.5722C85.2423 54.2182 85.6615 54.8898 86.0414 55.5838C86.1732 55.836 86.2988 56.0946 86.418 56.3594C86.5537 56.7054 86.669 57.0592 86.7632 57.4188C86.8071 57.608 86.8511 57.7972 86.8825 57.9863C86.9138 58.1755 86.9703 58.4845 87.008 58.7367C87.008 58.8818 87.0519 59.0331 87.077 59.1781C87.1021 59.3232 87.1272 59.5817 87.1461 59.8087V59.9853C87.1461 60.6159 87.1461 61.2023 87.1461 61.814C87.1461 63.1172 87.1461 64.4204 87.1461 65.7236C87.1461 68.3531 87.1461 70.9889 87.1461 73.6248C87.1461 75.2054 87.1461 76.7882 87.1461 78.3731C87.1461 78.4387 87.1611 78.5034 87.19 78.5622C87.19 78.6505 87.19 78.7388 87.19 78.8208C87.0403 78.7998 86.8893 78.7892 86.7381 78.7892H86.7444Z" fill="#95165B"/>
<path d="M33.5 63.8666C33.4162 63.7925 33.3242 63.7255 33.2254 63.6666C33.2334 63.6123 33.2231 63.557 33.1956 63.5076C33.1682 63.4582 33.1247 63.4166 33.0704 63.3879C33.0358 63.3916 33.0006 63.3867 32.9691 63.3738C32.9376 63.3609 32.911 63.3405 32.8925 63.315C32.874 63.2896 32.8643 63.2601 32.8647 63.23C32.865 63.2 32.8753 63.1706 32.8944 63.1455C32.8639 63.1013 32.8207 63.0647 32.7688 63.0392C32.717 63.0137 32.6583 63.0002 32.5986 63C32.5418 62.9991 32.4857 63.0117 32.4366 63.0364C32.2536 63.1334 32.0775 63.2303 31.9014 63.3333L31.8099 63.3636C31.7602 63.3837 31.713 63.4081 31.6691 63.4364C31.5935 63.4781 31.5326 63.5367 31.493 63.606C31.4077 63.6767 31.33 63.7537 31.2606 63.8363C31.1838 63.9296 31.1222 64.0316 31.0775 64.1393C30.9992 64.3339 30.9798 64.5424 31.0212 64.7453C31.0389 64.8534 31.072 64.9592 31.1198 65.0604C31.1771 65.1797 31.2529 65.2918 31.3451 65.3937C31.5057 65.5668 31.7043 65.7109 31.9296 65.8179C32.1771 65.9423 32.4599 66.0053 32.7465 65.9997C32.8718 65.9939 32.9954 65.9714 33.1127 65.933C33.2574 65.8824 33.3908 65.8107 33.507 65.7209C33.6109 65.6391 33.7009 65.5453 33.7746 65.4422C33.8514 65.341 33.9107 65.2308 33.9507 65.1149C33.9838 65.0102 34.0003 64.9022 34 64.7938C34.0005 64.6705 33.9791 64.5479 33.9366 64.4302C33.8439 64.2157 33.6945 64.0227 33.5 63.8666ZM33.1972 64.9331C33.1878 64.972 33.176 65.0104 33.162 65.0483C33.1335 65.1008 33.1006 65.1514 33.0634 65.1998L32.9437 65.3028L32.8521 65.3513H32.7395H32.6057L32.3874 65.2967C32.2787 65.2525 32.175 65.1997 32.0775 65.1392C31.946 65.0554 31.8437 64.9422 31.7817 64.8119C31.751 64.737 31.7274 64.6599 31.7113 64.5817C31.707 64.5272 31.707 64.4725 31.7113 64.418C31.7231 64.3625 31.7396 64.3079 31.7606 64.2544C31.7876 64.2083 31.8182 64.1637 31.8522 64.1211C31.9473 64.1289 32.0429 64.112 32.1268 64.0726H32.2254H32.3169C32.2043 64.309 32.0986 64.5453 31.993 64.7877C31.9744 64.824 31.9647 64.8632 31.9647 64.9028C31.9647 64.9425 31.9744 64.9817 31.993 65.018C32.0398 65.0853 32.1158 65.134 32.2042 65.1533C32.2926 65.1726 32.3863 65.161 32.4648 65.121C32.5394 65.0804 32.5944 65.018 32.6197 64.9452L32.8733 64.3393C32.9252 64.3772 32.9746 64.4176 33.0211 64.4605C33.0552 64.503 33.0858 64.5475 33.1127 64.5938C33.1332 64.6432 33.1497 64.6938 33.162 64.7453C33.1798 64.8069 33.1916 64.8698 33.1972 64.9331Z" fill="#95165B"/>
<path d="M82.8871 60H82.178H81.2871L79.4048 60.0608L75.3201 60.2053L71.2794 60.3422L67.0128 60.4867L62.8341 60.6312L58.6302 60.7757L54.3574 60.9354L50.028 61.1559L38.1631 61.6046C38.1199 61.6046 38.0784 61.6254 38.0478 61.6625C38.0172 61.6996 38 61.7498 38 61.8023C38 61.8547 38.0172 61.905 38.0478 61.9421C38.0784 61.9792 38.1199 62 38.1631 62L46.7528 61.6806L55.3487 61.3764L59.6153 61.2243L63.8003 61.0646L65.9336 60.981L67.9854 60.8973L72.2645 60.73L77.855 60.5171L80.5216 60.4182L81.7388 60.365H82.4102H82.8682C82.9032 60.365 82.9367 60.3482 82.9614 60.3182C82.9861 60.2883 83 60.2477 83 60.2053C83 60.163 82.9861 60.1223 82.9614 60.0924C82.9367 60.0625 82.9032 60.0456 82.8682 60.0456L82.8871 60Z" fill="#95165B"/>
<path d="M72.5491 41.3768C73.3776 40.1858 74.2252 39.0075 75.0473 37.8102C75.3978 37.2998 75.7546 36.7957 76.0924 36.279C76.4302 35.7623 76.7297 35.2708 77.0228 34.7604C77.0738 34.6722 77.1312 34.5966 77.1822 34.5083L77.6984 33.7144C77.9023 33.3993 78.0935 33.0843 78.3356 32.7629L78.8709 32.0004C78.9729 31.8555 79.0621 31.7043 79.1705 31.5656C79.4466 31.2044 79.7228 30.8389 79.9989 30.4692L80.6362 29.6689C80.9124 29.3287 81.1843 28.9863 81.4519 28.6418L81.675 28.352L81.8279 28.1566C81.869 28.1033 81.9137 28.0527 81.9618 28.0054H82C81.9794 27.9982 81.9569 27.9982 81.9363 28.0054C81.8545 28.0234 81.7781 28.0601 81.7132 28.1125L81.3882 28.3079L80.7892 28.7048C80.3643 28.9947 79.9395 29.293 79.5146 29.5996C79.0685 29.9273 78.6288 30.2802 78.1954 30.6267C77.7621 30.9733 77.4243 31.2569 77.0483 31.6224C76.6723 31.9878 76.411 32.2525 76.0924 32.5549C75.7738 32.8574 75.4551 33.1851 75.2002 33.5001C74.735 34.0673 74.2762 34.647 73.8428 35.2393C73.6814 35.4619 73.5242 35.6846 73.3712 35.9072C73.1354 36.2475 72.9379 36.6193 72.7339 36.9785C72.0289 38.2353 71.4422 39.5536 70.9814 40.9168C70.5485 42.2509 70.2204 43.616 70 45C70.8731 43.8091 71.7079 42.5866 72.5491 41.3768Z" fill="#95165B"/>
<path d="M54.2822 34.8538C54.1817 34.5355 54.0695 34.2416 53.9513 33.8988C53.8331 33.556 53.7208 33.2866 53.5848 32.9744C53.2125 32.1419 52.8225 31.3032 52.4029 30.5257C51.9833 29.7483 51.4336 28.7688 50.9195 27.9057C50.6831 27.5016 50.4467 27.0915 50.1867 26.6813L49.637 25.8794C49.5129 25.7018 49.377 25.5365 49.247 25.3713C49.117 25.206 48.8628 24.9121 48.656 24.6856C48.4492 24.4591 48.2187 24.251 48 24.0306V24C48.007 24.0668 48.0315 24.1303 48.0709 24.1837L48.1832 24.3673L48.3664 24.6734L48.7446 25.2856C48.8747 25.4937 48.987 25.7141 49.1052 25.9283C49.2233 26.1426 49.2824 26.2712 49.3652 26.4487L49.6902 27.1894C49.773 27.3547 49.8321 27.5261 49.903 27.6975C50.0862 28.126 50.2753 28.5546 50.4644 28.9892C50.8308 29.834 51.215 30.6604 51.5932 31.4991C51.8532 32.0745 52.1231 32.6459 52.4029 33.2132C52.7811 33.9723 53.1357 34.7497 53.4607 35.5333C53.8101 36.4082 54.1158 37.3011 54.3768 38.2085C54.6301 39.1252 54.8275 40.0576 54.9678 41C55.0107 40.3192 55.0107 39.6362 54.9678 38.9553C54.925 38.2547 54.8401 37.5575 54.7136 36.8678C54.6126 36.1874 54.4685 35.5146 54.2822 34.8538Z" fill="#95165B"/>
<path d="M22.6327 30.6764L23.4827 31.0143C23.6905 31.0923 23.8982 31.1702 24.1123 31.2547C25.4073 31.8276 26.6687 32.4785 27.8898 33.204C28.5152 33.5766 29.1448 33.9578 29.7786 34.3476C30.4082 34.7375 30.9811 35.1468 31.5792 35.5432C32.4732 36.1475 33.3673 36.7518 34.2802 37.3171L35.426 38.0448C35.9486 38.3697 36.4711 38.6946 37 39C36.5908 38.5062 36.1689 38.0253 35.7408 37.5445C35.4386 37.2066 35.1112 36.8947 34.8216 36.5374C34.0157 35.7057 33.191 34.8739 32.3033 34.1137C31.1833 33.1089 29.9485 32.2492 28.6264 31.5536C27.2764 30.8738 25.8575 30.3507 24.3956 29.9942C23.4512 29.7602 22.5068 29.6238 21.5373 29.4483L20.1899 29.2144L19 29C19.1824 29.1338 19.3715 29.2574 19.5666 29.3704C19.7744 29.4873 19.9885 29.5913 20.1962 29.6953C20.5992 29.8902 21.0084 30.0591 21.4176 30.2216C21.8269 30.384 22.2109 30.5205 22.6327 30.6764Z" fill="#95165B"/>
<path d="M93.9753 11.0068C93.9409 10.9977 93.9048 10.9977 93.8704 11.0068C93.8323 11.0063 93.7946 11.0159 93.7611 11.0346C93.7276 11.0533 93.6994 11.0804 93.6793 11.1134C93.5867 11.2646 93.5083 11.4242 93.445 11.5902C93.4094 11.5568 93.3674 11.5311 93.3217 11.515L92.9887 11.3895H92.8654H92.7421L92.1933 11.3142L91.6876 11.264L91.2005 11.2264C90.8676 11.2264 90.5408 11.195 90.2078 11.1887H89.178L86.8719 11.2264C86.1813 11.2264 85.4846 11.2703 84.794 11.2954C84.498 11.2954 84.1773 11.333 83.8999 11.3518C83.6224 11.3707 83.2833 11.3832 82.9811 11.4146L80.9895 11.5902L79.8734 11.6906L79.2568 11.7471C78.6094 11.791 77.9557 11.8412 77.3083 11.8726C77.2265 11.8726 77.1481 11.9056 77.0903 11.9644C77.0325 12.0233 77 12.1031 77 12.1863C77 12.2695 77.0325 12.3492 77.0903 12.4081C77.1481 12.4669 77.2265 12.5 77.3083 12.5H77.7276C77.7276 12.5501 77.7276 12.6066 77.7276 12.6568C77.6694 12.6569 77.6121 12.672 77.5611 12.7007C77.5239 12.7222 77.4912 12.751 77.4651 12.7854C77.4389 12.8199 77.4199 12.8594 77.4089 12.9014C77.398 12.9435 77.3955 12.9874 77.4015 13.0305C77.4075 13.0737 77.422 13.1151 77.444 13.1524C77.4873 13.2248 77.5554 13.2784 77.6351 13.303L77.7461 13.3469C77.7461 13.5184 77.7461 13.6899 77.7461 13.8614C77.7461 14.3424 77.7461 14.8255 77.7461 15.3107C77.7461 15.5051 77.7461 15.6996 77.7461 15.9004V16.7097C77.7461 17.174 77.7461 17.6383 77.7954 18.1025C77.8448 18.5668 77.8324 19.0373 77.8509 19.5016C77.8509 19.6835 77.8509 19.8592 77.8509 20.0412C77.8509 20.2231 77.8509 20.4741 77.8879 20.6685C77.9249 21.1454 77.966 21.6222 78.0112 22.099C78.0441 22.4671 78.077 22.8372 78.1099 23.2095H77.8386H77.7461C77.6872 23.2253 77.6335 23.2567 77.5904 23.3005C77.5473 23.3443 77.5164 23.3989 77.5008 23.4588C77.4851 23.5187 77.4853 23.5817 77.5013 23.6415C77.5173 23.7013 77.5486 23.7557 77.5919 23.7992C77.6236 23.8334 77.6618 23.8605 77.7043 23.8789C77.7467 23.8973 77.7925 23.9064 77.8386 23.9059L78.1901 23.8682C78.2016 23.8891 78.2162 23.9081 78.2332 23.9247C78.2576 23.949 78.2866 23.9682 78.3183 23.9812C78.3501 23.9941 78.384 24.0005 78.4182 24C78.4727 23.9991 78.5256 23.9812 78.5698 23.9486C78.6139 23.9161 78.6471 23.8705 78.6648 23.818L80.971 23.5608L81.8959 23.4792L82.8455 23.404C83.2524 23.404 83.6532 23.3475 84.0787 23.3287L85.3427 23.2722C86.1231 23.2244 86.9055 23.2244 87.6858 23.2722C87.988 23.2722 88.3025 23.3287 88.5923 23.3663L89.3384 23.4667H89.4432L90.2263 23.5733C90.4853 23.611 90.7504 23.6298 91.0094 23.6612H91.367H91.7C91.9775 23.6612 92.2488 23.6612 92.5262 23.6612C92.6093 23.6597 92.6887 23.626 92.7482 23.5671L92.7975 23.5043C92.8409 23.5014 92.8831 23.4885 92.9209 23.4667C92.9811 23.4305 93.0253 23.3721 93.0442 23.3036C93.0535 23.2667 93.0556 23.2283 93.0503 23.1906C93.045 23.153 93.0325 23.1167 93.0134 23.084C93.0134 23.0338 93.0134 22.9773 93.0134 22.9271C93.0134 22.8769 93.0134 22.7954 93.0134 22.7327C93.0134 22.4942 93.0134 22.2496 93.0134 22.0112C93.0134 21.4716 93.075 20.932 93.112 20.3925L93.1613 19.6647C93.1613 19.3949 93.1613 19.1314 93.1983 18.8617C93.1983 18.755 93.1983 18.6546 93.1983 18.548V18.021C93.1983 17.77 93.1983 17.5128 93.1983 17.2618C93.1983 16.7787 93.1983 16.2957 93.1983 15.8063C93.1983 15.5616 93.1983 15.3107 93.1983 15.066L93.2662 14.0935C93.2662 13.8488 93.3155 13.5979 93.3463 13.3532C93.3772 13.1085 93.4388 12.7697 93.4943 12.4811C93.5432 12.2028 93.6175 11.9298 93.7163 11.6655C93.7712 11.5356 93.8351 11.4098 93.9074 11.2891C93.9506 11.2585 93.9813 11.213 93.9938 11.161C94.0063 11.109 93.9997 11.0542 93.9753 11.0068ZM78.0791 12.6568C78.0791 12.5627 78.0791 12.4686 78.0791 12.3808L78.6525 12.3431L79.4541 12.2866L81.5321 12.111L82.901 11.998L83.6902 11.9479L84.4301 11.9039H84.7754L85.91 11.8726C87.2851 11.8349 88.6539 11.8287 90.029 11.8412C90.8532 11.851 91.6764 11.9033 92.4954 11.998L92.3782 12.0671L92.2118 12.1863C92.1069 12.2678 92.0021 12.3494 91.8973 12.4372L91.2807 12.9517C90.8861 13.2905 90.5038 13.6418 90.1153 13.9931C89.3815 14.6644 88.6539 15.342 87.9202 16.0133L86.6869 17.1175C86.132 16.7348 85.5585 16.3835 84.9789 16.0384C84.3993 15.6934 83.7457 15.342 83.1661 15.0158C82.8825 14.8652 82.605 14.7021 82.3152 14.5641L81.082 13.9367L80.749 13.7736C80.6318 13.7171 80.5085 13.6732 80.3914 13.623L79.0286 13.0583L78.6648 12.9078C78.4675 12.8262 78.264 12.7509 78.0482 12.6756L78.0791 12.6568ZM78.5724 22.2747C78.5169 21.8167 78.4614 21.3587 78.412 20.9007C78.3257 20.0349 78.2702 19.1691 78.2271 18.3033C78.2271 17.8516 78.1777 17.3999 78.1592 16.9544C78.1407 16.509 78.1161 16.0384 78.1099 15.5804C78.1099 15.2667 78.1099 14.953 78.1099 14.6393C78.1289 14.6261 78.1445 14.6083 78.1552 14.5875C78.166 14.5667 78.1716 14.5436 78.1716 14.5201C78.1716 14.1374 78.1346 13.7547 78.1222 13.372L78.6032 13.5602L79.2938 13.8488L80.4653 14.3382L81.4766 14.8338C81.7356 14.9593 82.0007 15.0848 82.2535 15.2228L83.2648 15.7686L82.864 16.258L82.4508 16.7725L81.3779 18.1402L80.4715 19.3134C80.3153 19.5142 80.1653 19.7233 80.0214 19.9408L79.8117 20.2356C79.7377 20.3486 79.6576 20.4615 79.5836 20.5807C79.5096 20.6999 79.3555 20.9383 79.2506 21.1203L78.9423 21.6535L78.6463 22.1868L78.5724 22.2747ZM91.478 22.9962L90.9785 22.9522L90.3989 22.8832L89.474 22.7515L88.7341 22.6448C88.4381 22.6009 88.1175 22.5695 87.8338 22.5444C87.3282 22.5005 86.8164 22.4754 86.3046 22.4754C86.0046 22.4754 85.7065 22.4754 85.4106 22.4754L84.1033 22.5319C83.7149 22.5319 83.3203 22.5821 82.9318 22.6072L81.9945 22.6825L81.0388 22.764L79.6268 22.9146L78.6587 23.0212V22.9962V22.9648C78.7943 22.7264 78.9362 22.4942 79.078 22.2621L79.4911 21.5845C79.7439 21.1642 80.0152 20.7564 80.2989 20.3298L80.8291 19.6083C81.4458 18.7801 82.1117 17.9582 82.7591 17.1364L83.1784 16.6156L83.6902 15.9882L84.1958 16.2768L84.8124 16.6282L85.3551 16.9607L86.4958 17.6508L86.5636 17.6822H86.6006C86.6649 17.6974 86.7322 17.6916 86.7931 17.6657C86.8539 17.6398 86.9052 17.5951 86.9398 17.5379V17.4814L88.099 16.4211C88.099 16.4901 88.1483 16.5529 88.1791 16.6219L88.2716 16.8289C88.4484 17.2179 88.6334 17.6027 88.8266 17.9833L89.1534 18.6107C89.252 18.7927 89.3507 18.9746 89.4555 19.1565C89.659 19.5204 89.8563 19.8843 90.0721 20.2545C90.2879 20.6246 90.4668 21.0324 90.6887 21.4151C90.9004 21.7959 91.1417 22.1589 91.4102 22.5005C91.4894 22.6032 91.5737 22.7016 91.663 22.7954C91.7257 22.8574 91.7916 22.916 91.8603 22.9711L91.478 22.9962ZM93.2908 12.0733C93.2477 12.249 93.2168 12.4247 93.186 12.6003C93.1552 12.776 93.1182 12.9893 93.0874 13.1838C93.0565 13.3783 93.038 13.5602 93.0134 13.7485C92.9887 13.9367 93.0134 13.9806 92.9764 14.0935L92.9455 14.5264C92.9455 14.7648 92.9024 15.0095 92.89 15.2479C92.8777 15.4863 92.89 15.8314 92.853 16.1263C92.816 16.4211 92.853 16.6972 92.853 16.9795C92.853 17.2618 92.853 17.5191 92.853 17.7826C92.853 18.2719 92.853 18.7613 92.8037 19.2506C92.7482 20.2796 92.6557 21.3022 92.6126 22.3311C92.6126 22.5193 92.6126 22.7013 92.6126 22.8895L92.4522 22.8079L92.2364 22.6636C92.1176 22.568 92.0063 22.4631 91.9035 22.3499C91.7986 22.2307 91.7 22.1053 91.6013 21.9798C91.1277 21.2779 90.7013 20.5443 90.3249 19.7839C90.1276 19.4138 89.9118 19.0562 89.7083 18.6923C89.5048 18.3284 89.2829 17.9394 89.0917 17.5567L88.8019 17.0046C88.6971 16.8038 88.5984 16.6031 88.5059 16.3772L88.6416 16.5403L88.6724 16.7223L88.7218 16.7913C88.7372 16.8176 88.7612 16.8375 88.7896 16.8478C88.8119 16.8534 88.8354 16.8522 88.8571 16.8444C88.8788 16.8365 88.8977 16.8223 88.9115 16.8036C88.9254 16.7848 88.9334 16.7624 88.9348 16.739C88.9361 16.7156 88.9306 16.6923 88.9191 16.6721C88.7896 16.4964 88.6539 16.327 88.5121 16.1639L89.6158 15.1538C90.3496 14.4825 91.0834 13.8049 91.8418 13.1587L92.3228 12.7509L92.5817 12.5313C92.6869 12.4445 92.784 12.3479 92.8715 12.2427C92.9093 12.2018 92.9312 12.1483 92.9332 12.0922C92.9343 12.0796 92.9343 12.067 92.9332 12.0545L93.1675 12.0984C93.2103 12.1064 93.2542 12.1064 93.297 12.0984L93.2908 12.0733Z" fill="#95165B"/>
<path d="M34.0685 13.9776L34.3182 14.3371L34.493 14.6517C34.699 15.0177 34.8988 15.3837 35.1173 15.7496L36.3659 17.8941C36.728 18.5361 37.0901 19.1782 37.4459 19.8202L38.0702 20.9053C38.245 21.2134 38.4198 21.5473 38.5884 21.8298C38.8318 22.2728 39.0691 22.7094 39.3125 23.146L38.7819 23.5762C38.7596 23.5988 38.7421 23.6258 38.7303 23.6556C38.7184 23.6854 38.7127 23.7173 38.7132 23.7495C38.7124 23.7826 38.7181 23.8156 38.73 23.8464C38.7419 23.8772 38.7598 23.9051 38.7826 23.9285C38.8054 23.952 38.8326 23.9704 38.8625 23.9827C38.8924 23.9949 38.9245 24.0008 38.9567 23.9999C39.0193 23.9978 39.0791 23.9728 39.1252 23.9293L39.7495 23.4285L40.0929 23.1139C40.0832 23.1631 40.092 23.2143 40.1174 23.2572C40.1429 23.3001 40.1832 23.3314 40.2302 23.345C40.2791 23.359 40.3313 23.3527 40.3756 23.3275C40.42 23.3022 40.453 23.2601 40.4675 23.2102C40.5155 23.059 40.5531 22.9046 40.5798 22.7479L41.0418 22.4012L41.6661 21.9325C41.7785 21.8491 41.8971 21.772 42.0095 21.695L43.6888 20.5457L44.8562 19.7496L47.6281 17.8812L48.7081 17.1493C49.1014 16.8796 49.5009 16.6164 49.888 16.3467L51.4362 15.2617L51.8795 14.9406L52.2665 14.6581C52.3028 14.6853 52.3465 14.6999 52.3914 14.6999C52.4362 14.6999 52.48 14.6853 52.5162 14.6581C53.3902 14.1253 54.2268 13.4832 55.0758 12.8797C55.467 12.5886 55.8624 12.3018 56.262 12.0193L56.4492 11.8909L56.6553 11.7433L56.7676 11.6534C56.822 11.6522 56.8742 11.6319 56.9158 11.5959C56.9573 11.5599 56.9855 11.5103 56.9958 11.4554C57.006 11.4005 56.9976 11.3437 56.972 11.2944C56.9464 11.2452 56.9051 11.2064 56.855 11.1847C56.8276 11.1411 56.7962 11.1003 56.7614 11.0627L56.6553 10.915L56.212 10.3693C55.9061 9.99048 55.5877 9.62451 55.2631 9.25855C54.9385 8.89258 54.6014 8.52661 54.283 8.15423L53.3341 7.06275L52.8159 6.42071L52.3352 5.8236L51.4112 4.6615C51.1116 4.28911 50.787 3.91673 50.5185 3.53792L50.2813 3.21048L49.9754 2.78031C49.8942 2.67116 49.8193 2.56201 49.7444 2.44644L49.3948 1.92639C49.3136 1.79798 49.2387 1.66315 49.1638 1.52832C49.0889 1.39349 49.0202 1.25224 48.9578 1.11099C49.2387 0.873432 49.5134 0.635875 49.7819 0.385478C49.8214 0.363087 49.8525 0.327559 49.8699 0.284692C49.8873 0.241824 49.8901 0.194149 49.8778 0.149447C49.8655 0.104745 49.8388 0.0656561 49.8021 0.0385593C49.7654 0.0114625 49.7208 -0.00204186 49.6757 0.000250303C49.6247 0.0018901 49.5759 0.0224061 49.5384 0.0580344L49.3324 0.224966L49.195 0.334114L48.783 0.642296C48.7268 0.475364 48.6769 0.302012 48.6269 0.13508C48.6163 0.0971319 48.5943 0.063621 48.564 0.039386C48.5337 0.015151 48.4967 0.00144616 48.4584 0.000250303H48.4147C48.3701 0.0123317 48.3319 0.042057 48.3085 0.0829475C48.2851 0.123838 48.2784 0.172578 48.2898 0.218546C48.3335 0.379057 48.3772 0.539569 48.4271 0.70008C48.4271 0.751444 48.4646 0.802807 48.4833 0.860591L48.3273 0.976159L48.0089 1.19445C47.8153 1.32928 47.6093 1.45127 47.3846 1.57968L46.7104 1.99059C46.2921 2.24099 45.8676 2.48497 45.4618 2.72894L45.0185 2.97934L44.1258 3.48014L43.0832 4.0644L42.178 4.57161L41.7972 4.78349L40.4113 5.61173C40.0742 5.81076 39.7308 6.00338 39.3937 6.20241L36.8965 7.73048L35.392 8.6486L34.6741 9.08519L34.3994 9.26497L33.5191 9.85565L33.1883 10.0804L32.6326 10.472C32.5816 10.5041 32.5438 10.5544 32.5265 10.6133C32.5255 10.6261 32.5255 10.639 32.5265 10.6518L32.358 10.594H32.2955H32.2206H32.1395C32.0821 10.6277 32.0396 10.6829 32.0208 10.7481C32.0071 10.7805 32 10.8155 32 10.8508C32 10.8862 32.0071 10.9211 32.0208 10.9535L34.0685 13.9776ZM55.6189 11.801C55.5881 11.7943 55.5562 11.7943 55.5253 11.801C55.4905 11.7915 55.4539 11.7915 55.4192 11.801C54.9759 12.0835 54.5452 12.3853 54.1144 12.6935L52.7035 13.7079L51.3925 14.6517C50.9867 14.9471 50.5747 15.2296 50.1439 15.5185L49.0826 16.2504L47.5844 17.297L45.2245 18.8892L43.6139 19.9871L42.4028 20.8282L41.6099 21.3739L41.3415 21.5666L40.7172 22.0224V21.9133C40.7796 21.4767 40.8233 21.0401 40.8608 20.6292C40.8982 20.2183 40.9357 19.7431 40.9731 19.3066C41.0106 18.87 41.0668 18.4591 41.123 18.0225V17.9262C41.1792 17.5474 41.2291 17.1621 41.2853 16.7833C41.3415 16.4045 41.4101 15.9487 41.4726 15.4992C41.535 15.0498 41.5849 14.7352 41.6474 14.3564C41.7285 13.8492 41.8159 13.3484 41.9033 12.8412C42.2363 12.9225 42.5713 12.9867 42.9084 13.0338H42.9459H43.1144H43.2143H43.3142H43.4328C43.9135 13.098 44.4005 13.1365 44.8812 13.2007H45.0123H45.0872C45.0963 13.2578 45.1248 13.3097 45.1677 13.3472C45.2106 13.3847 45.265 13.4052 45.3213 13.4052C45.3776 13.4052 45.432 13.3847 45.4749 13.3472C45.5178 13.3097 45.5463 13.2578 45.5554 13.2007C45.7614 12.4816 45.9799 11.7625 46.1797 11.0499C47.3284 10.9856 48.4833 11.0049 49.6383 11.0499L51.3051 11.1012C51.8732 11.1012 52.4476 11.1012 53.0157 11.1975H53.203L53.9771 11.3324C54.2955 11.3901 54.6014 11.4479 54.9385 11.48H55.3817H55.8187L55.6189 11.801ZM48.4271 2.62622C48.4646 2.45928 48.5021 2.29235 48.5458 2.13184C48.5852 1.98142 48.6331 1.83349 48.6893 1.68883L48.7705 1.49622L48.8641 1.68883C48.9328 1.81724 49.0015 1.94565 49.0764 2.06122L49.5009 2.74178C49.5571 2.83167 49.6258 2.92156 49.6882 3.01144L49.9567 3.39667L50.119 3.61497L50.4374 4.0323C50.7308 4.41752 51.0616 4.79633 51.3301 5.17514L52.2228 6.33724C52.8471 7.12696 53.4714 7.88457 54.0957 8.65502C54.4078 9.03383 54.72 9.41264 55.0508 9.78502C55.3817 10.1574 55.6751 10.517 55.9561 10.8893L56.1621 11.1333H55.8125C55.5253 11.1333 55.2381 11.1333 54.9447 11.0691C54.4016 10.9856 53.8647 10.8701 53.3278 10.7866C52.74 10.7079 52.1475 10.6735 51.5548 10.6839H49.8318H48.4147H48.1088C47.4845 10.6839 46.9101 10.6839 46.3108 10.7288C46.3795 10.5041 46.4419 10.2794 46.5043 10.0547C46.6542 9.51536 46.7978 8.97605 46.9476 8.43673C47.0974 7.89741 47.241 7.4223 47.3846 6.90866C47.678 5.84929 47.9527 4.78349 48.1962 3.69843C48.2711 3.33461 48.3481 2.9772 48.4271 2.62622ZM33.388 10.5041L33.669 10.3179L34.518 9.7465L34.8239 9.54105L35.4482 9.14298L37.9453 7.61491L39.5435 6.65184L40.48 6.1061L42.0282 5.2265L42.3341 5.05315L43.2143 4.57161L44.2944 3.96809L45.1621 3.48014L45.7115 3.21048L46.3857 2.81883L46.9164 2.51065L47.653 2.06122L47.9027 1.9007L48.1462 1.74661C48.1462 1.81724 48.09 1.88786 48.0651 1.95849C47.9839 2.20247 47.934 2.45928 47.8778 2.70968C47.7529 3.249 47.6343 3.79474 47.5032 4.33406C47.2535 5.40627 46.9726 6.47207 46.6791 7.54428C46.5418 8.03866 46.4045 8.53304 46.2734 9.03383C46.1423 9.53463 45.9737 10.1767 45.8114 10.7481C45.699 11.1397 45.5804 11.525 45.468 11.9166C45.3869 12.1799 45.3119 12.4431 45.237 12.7063H45.1871C44.8125 12.6357 44.4255 12.5972 44.0446 12.5587L43.2143 12.3981H43.1457H43.0146C42.7336 12.3532 42.4465 12.3083 42.1718 12.2441L41.9658 12.167L41.6723 12.0835H41.6349L41.3415 11.9872H41.2478H41.1667C40.917 11.9423 40.661 11.9166 40.4113 11.8781L39.7246 11.7946L38.9629 11.724L37.4209 11.602C36.9902 11.5699 36.5657 11.5185 36.1411 11.48L35.3108 11.3516L35.0986 11.3195L34.7365 11.2425L33.8126 11.0499L33.6065 10.9921L33.0759 10.838H32.9698L33.388 10.5041ZM33.2257 11.3516C33.4255 11.4094 33.6253 11.4736 33.85 11.5185L34.8738 11.7368C35.0799 11.7818 35.2859 11.8139 35.4981 11.846C35.7104 11.8781 36.0038 11.9359 36.2598 11.9616L37.2337 12.0707L37.989 12.1413L38.7257 12.2055L39.8182 12.3147C40.1678 12.3532 40.5174 12.4046 40.867 12.4495H40.7983L41.0106 12.4816C41.0323 12.5274 41.0629 12.5681 41.1004 12.6012C41.138 12.6343 41.1818 12.6592 41.2291 12.6742L41.6286 12.7962C41.535 13.3227 41.4476 13.8492 41.3602 14.3756C41.2728 14.9021 41.2229 15.2488 41.1604 15.6597C41.0418 16.4366 40.9232 17.2199 40.8171 18.0032C40.7609 18.4334 40.6985 18.8635 40.661 19.2873C40.6235 19.711 40.5798 20.1797 40.5424 20.6228C40.5424 20.9309 40.48 21.2648 40.4425 21.5537C40.405 21.8426 40.3738 22.0481 40.3301 22.2985V22.3434L39.7433 22.7929L39.6497 22.8635C39.3001 22.2214 38.9442 21.5794 38.5759 20.9374L38.064 20.0642L37.5021 19.0883C37.2961 18.7287 37.0963 18.3692 36.8778 18.016L36.2036 16.8604L35.6292 15.878L35.3608 15.4093C35.4104 15.3787 35.4462 15.329 35.4603 15.2712C35.4743 15.2134 35.4655 15.1523 35.4357 15.1012C35.3132 14.8487 35.1755 14.6042 35.0237 14.3692L34.5555 13.663C34.2558 13.22 33.9312 12.777 33.6378 12.3339L33.4005 11.9872L33.3443 11.8909L33.207 11.6534C33.1633 11.5763 33.1071 11.4993 33.0572 11.4222C33.0388 11.3952 33.0126 11.375 32.9823 11.3645L32.8512 11.1783L33.2257 11.3516Z" fill="#95165B"/>
<path d="M1.00628 26.0126L1 26V26.0063L1.00628 26.0126Z" fill="#95165B"/>
<path d="M19.7772 22.8432C19.8409 22.8781 19.9155 22.8871 19.9857 22.8684C20.0559 22.8497 20.1161 22.8046 20.154 22.7426C20.2482 22.5979 20.355 22.4595 20.4555 22.3149L20.6188 22.1011L21.2469 21.296L21.517 20.9815L21.9001 20.5539L21.9441 20.5979C21.9706 20.6241 22.0028 20.6439 22.0381 20.6558C22.0734 20.6676 22.111 20.6713 22.148 20.6664C22.1849 20.6616 22.2203 20.6484 22.2513 20.6278C22.2824 20.6072 22.3084 20.5797 22.3273 20.5476C22.34 20.5178 22.3466 20.4857 22.3466 20.4532C22.3466 20.4208 22.34 20.3887 22.3273 20.3589V20.3023L22.723 20.2331C22.7641 20.2316 22.8045 20.2212 22.8413 20.2028C22.8781 20.1843 22.9106 20.1582 22.9365 20.1262C22.9757 20.0576 22.9864 19.9764 22.9665 19.9C22.9465 19.8235 22.8974 19.758 22.8297 19.7174C22.7839 19.6913 22.7317 19.6782 22.679 19.6796H22.6225L22.1074 19.7803H21.9064L21.7431 19.6419C21.5421 19.4721 21.3474 19.296 21.1527 19.1136C20.7696 18.7551 20.399 18.3777 20.0158 18.013C19.6327 17.6482 19.2119 17.3211 18.8225 16.9815C18.6089 16.7928 18.3995 16.6 18.1943 16.4029C18.0059 16.2205 17.8238 16.0318 17.6479 15.8431C17.2669 15.4238 16.8816 15.0192 16.4922 14.6293C16.1216 14.2519 15.7385 13.8809 15.3616 13.5098C15.2046 13.3588 15.0538 13.2079 14.9094 13.0507C14.7649 12.8934 14.5514 12.6607 14.3881 12.4532C14.3881 12.4091 14.3881 12.3651 14.3881 12.3274C14.3899 12.2404 14.3794 12.1535 14.3566 12.0695C14.3462 12.032 14.3262 11.9978 14.2987 11.9703C14.2712 11.9427 14.2371 11.9228 14.1996 11.9123H14.1431C14.108 11.904 14.0714 11.904 14.0363 11.9123L13.9295 11.7299C13.8982 11.6779 13.8478 11.6403 13.7891 11.625C13.7305 11.6098 13.6681 11.6181 13.6155 11.6481C13.5636 11.6795 13.526 11.73 13.5108 11.7887C13.4955 11.8475 13.5038 11.9099 13.5338 11.9626L13.5904 12.0632C13.5636 12.0566 13.5355 12.0566 13.5087 12.0632L12.8115 12.5852L12.4535 12.8746L12.1646 13.1324L10.9963 14.2142C10.6006 14.579 10.2049 14.9438 9.82175 15.3211C9.43861 15.6985 9.01778 16.1262 8.62208 16.535C8.22638 16.9438 7.81811 17.3526 7.41612 17.7551L6.29182 18.8683L5.12355 20.0507L3.86735 21.3086L2.70536 22.4281L2.12751 23.0004L1.53081 23.6294C1.35494 23.8118 1.18536 24.0067 1.01577 24.2017C0.817209 24.4199 0.630599 24.6488 0.45676 24.8872C0.346728 25.0334 0.250031 25.1892 0.167833 25.3527C0.0953988 25.5107 0.0446892 25.6778 0.0170884 25.8495C-0.00569615 25.9082 -0.00569615 25.9732 0.0170884 26.0319C0.0326314 26.0585 0.0532844 26.0817 0.0778509 26.1002C0.102417 26.1187 0.130409 26.1322 0.160203 26.1398C0.189998 26.1474 0.221004 26.149 0.251424 26.1445C0.281844 26.14 0.311074 26.1295 0.33742 26.1137C0.36349 26.0988 0.386356 26.079 0.404687 26.0552C0.423018 26.0315 0.436449 26.0043 0.444198 25.9753C0.444198 25.9376 0.444198 25.8998 0.444198 25.8558L0.538413 25.9816L0.852464 26.3841C0.867332 26.4005 0.887204 26.4116 0.908993 26.4156L1.53709 27.2583L1.75065 27.5162L2.1966 28.0508L2.38503 28.2772L2.75561 28.686C2.95032 28.9061 3.14503 29.1263 3.34603 29.3149L3.81082 29.7992L4.09975 30.1074L4.94769 30.881C5.1738 31.1074 5.4062 31.3275 5.6386 31.5477C5.871 31.7678 6.10967 31.9816 6.34207 32.1766L7.01414 32.8055L7.72389 33.4345L8.24522 33.9062L8.46505 34.0949L8.24522 34.315C8.20956 34.3597 8.19161 34.416 8.1948 34.4732C8.19799 34.5303 8.2221 34.5843 8.26251 34.6247C8.30292 34.6652 8.35681 34.6893 8.41387 34.6925C8.47093 34.6957 8.52717 34.6777 8.57183 34.642L8.82935 34.3905L8.89844 34.4471C8.92522 34.454 8.95332 34.454 8.9801 34.4471C9.02341 34.4471 9.06495 34.4298 9.09557 34.3992C9.1262 34.3685 9.1434 34.3269 9.1434 34.2835C9.14312 34.2622 9.13852 34.2412 9.12988 34.2218C9.12125 34.2023 9.10875 34.1848 9.09316 34.1703L9.05547 34.1389L9.15597 34.0383C9.17034 34.121 9.18921 34.2029 9.21249 34.2835C9.22432 34.3212 9.24765 34.3542 9.2792 34.3779C9.31075 34.4016 9.34893 34.4148 9.38836 34.4156C9.43667 34.4156 9.483 34.3964 9.51716 34.3622C9.55132 34.328 9.57051 34.2816 9.57051 34.2332C9.57051 34.0823 9.57051 33.9313 9.57051 33.7804V33.642L10.1609 33.0131L10.8581 32.2709L11.0968 32.0005L12.4409 30.4156L13.4145 29.2458L13.7285 28.8621L13.8542 28.7112L14.3441 28.1577L15.0727 27.3338L15.349 27.0319L16.6995 25.6168L17.1203 25.1828L17.8803 24.403C18.232 24.0445 18.5901 23.6923 18.9418 23.3338L19.6453 22.6419C19.6502 22.6834 19.6647 22.7232 19.6876 22.7581C19.7105 22.793 19.7412 22.8221 19.7772 22.8432ZM14.0489 15.296C14.1305 14.7048 14.1871 14.1073 14.2562 13.5098C14.2562 13.3525 14.2938 13.2016 14.3127 13.0444L14.3504 13.0884C14.5325 13.2959 14.7272 13.5035 14.9219 13.7173L15.4935 14.2897L16.0525 14.8683C16.4231 15.2582 16.7937 15.6545 17.158 16.0507C17.3401 16.2519 17.5223 16.4532 17.717 16.6419C17.9117 16.8306 18.1064 17.013 18.3011 17.1891C18.7094 17.5476 19.1177 17.906 19.5134 18.2771C19.9091 18.6482 20.2608 19.0067 20.6377 19.3715L21.115 19.818H20.5309C19.9656 19.818 19.4066 19.818 18.8476 19.8809C18.2886 19.9438 17.7233 19.9878 17.1643 20.0193C16.6053 20.0507 16.0211 20.0633 15.4495 20.0759H14.3127L13.2449 20.1262L13.3454 19.6293C13.4019 19.3463 13.4522 19.0696 13.5024 18.7866C13.6029 18.2079 13.6971 17.6293 13.7851 17.057C13.873 16.4847 13.9672 15.9123 14.0489 15.3211V15.296ZM0.638909 25.4218H0.701719L0.95296 25.3652C0.961121 25.362 0.968118 25.3563 0.973046 25.349C0.977974 25.3417 0.980608 25.3331 0.980608 25.3243C0.980608 25.3155 0.977974 25.3069 0.973046 25.2997C0.968118 25.2924 0.961121 25.2867 0.95296 25.2835L0.720562 25.3338C0.795934 25.2206 0.871307 25.1074 0.959241 25.0004C1.21676 24.6734 1.49941 24.3715 1.78205 24.0633L2.02701 23.8118L2.29082 23.5413L3.50305 22.3652L4.75926 21.1639C5.13612 20.7992 5.50041 20.4281 5.871 20.0633C6.24157 19.6985 6.63728 19.3086 7.02042 18.9312C7.40356 18.5539 7.84323 18.145 8.23894 17.7425L8.79167 17.1828L9.36324 16.5979C9.77779 16.1765 10.1923 15.7677 10.6194 15.34L11.7437 14.2834L12.3718 13.6922C12.5603 13.5161 12.7424 13.3337 12.9371 13.1639C13.1318 12.9941 13.2449 12.906 13.4082 12.7865H13.4459L13.8228 12.4909L13.7725 12.818C13.7285 13.0884 13.6846 13.3588 13.6469 13.6293C13.6092 13.8997 13.5841 14.1639 13.5527 14.428C13.5213 14.6922 13.4899 14.9752 13.4522 15.2456C13.3726 15.8201 13.2889 16.3924 13.2009 16.9626C13.1193 17.5098 13.0376 18.0507 12.9434 18.5979C12.8932 18.8809 12.8492 19.1702 12.7927 19.4532L12.6671 20.0822C12.6671 20.1765 12.6294 20.2771 12.6105 20.3715L12.3593 21.3841C12.309 21.5853 12.2651 21.7866 12.2085 22.013L11.8756 23.2206C11.75 23.6734 11.6181 24.1262 11.4862 24.5791C11.4583 24.6476 11.4583 24.7244 11.4862 24.7929H11.191H10.7199L9.82175 24.8495L9.04291 24.9124L8.6158 24.9501C8.60859 24.9118 8.58842 24.8771 8.55868 24.8519C8.52894 24.8267 8.49144 24.8125 8.45249 24.8118C8.40692 24.8117 8.36311 24.8294 8.3303 24.8611C8.2975 24.8928 8.27825 24.936 8.27662 24.9816H8.05679C7.42869 25.0382 6.85083 25.0822 6.24158 25.1262L4.70273 25.252L2.73049 25.4218H2.43528H1.97048H1.4366H0.865026H0.708H0.638909ZM8.90473 33.6798L8.71001 33.881L8.30175 33.5162L7.61084 32.8873L6.80687 32.1829L6.05314 31.5099C5.80818 31.2898 5.56951 31.0571 5.33083 30.8307C5.09215 30.6043 4.87859 30.3904 4.65248 30.164L4.37611 29.8936L4.04322 29.5602C3.83595 29.3464 3.62239 29.1326 3.41512 28.9313L2.64255 28.0571L2.429 27.8055L1.97677 27.2709L1.78833 27.0445L1.41147 26.5665L0.802215 25.7866L0.720562 25.686H0.852464H1.16023H1.44288H1.86371C2.13379 25.686 2.40387 25.686 2.67396 25.686L4.65876 25.5665L6.21645 25.4721L7.18373 25.4218L8.01282 25.3841H8.352C8.37712 25.8327 8.40434 26.2814 8.43365 26.73C8.43365 26.9313 8.46505 27.1325 8.4839 27.359C8.50274 27.5854 8.4839 27.7112 8.52787 27.881C8.60324 28.7615 8.67861 29.642 8.77911 30.5162C8.8482 31.1452 8.94241 31.7741 9.03035 32.403C9.06803 32.7301 9.10572 33.032 9.13084 33.3779C9.13084 33.4345 9.13084 33.4848 9.13084 33.5414L8.90473 33.6798ZM18.7659 22.7866L17.5977 23.9564C17.1957 24.3589 16.8062 24.774 16.4105 25.1828C16.0148 25.5916 15.7133 25.9439 15.3365 26.3275L14.8214 26.8747L14.7084 27.0005L14.3943 27.359L13.6469 28.208L13.3705 28.5351L12.1709 29.9942C11.8003 30.4407 11.4297 30.881 11.0528 31.3213L10.6006 31.8559L10.5064 31.9565L10.2175 32.2647L9.47002 33.0697C9.47002 32.9062 9.43233 32.7427 9.41349 32.5854C9.39464 32.4282 9.35068 32.1263 9.31299 31.8999C9.27531 31.6735 9.23134 31.3967 9.19993 31.1452V31.0948L9.13712 30.6357C9.08059 30.2143 9.03663 29.7866 8.99266 29.3778C8.94869 28.969 8.91729 28.6042 8.8796 28.2143C8.84192 27.8244 8.79795 27.2835 8.76026 26.8244C8.72258 26.3652 8.70373 25.9879 8.67861 25.5665C8.67861 25.4847 8.67861 25.4093 8.67861 25.3275H8.96126L9.77779 25.2835H10.6697C10.9712 25.2835 11.2978 25.2835 11.5804 25.252H11.7375H11.794C11.8298 25.2417 11.8623 25.2222 11.8882 25.1954C11.9283 25.1554 11.9509 25.1011 11.951 25.0445C11.9573 25.0155 11.9573 24.9854 11.951 24.9564C12.0179 24.9176 12.0674 24.8546 12.0892 24.7803C12.2148 24.3526 12.3404 23.9187 12.4598 23.491L12.7927 22.3023C12.8429 22.1136 12.8932 21.9249 12.9371 21.7363L13.1821 20.73L14.0112 20.6922H14.9345H16.5864H17.4783L18.2258 20.4721C18.7827 20.4428 19.3417 20.4239 19.9028 20.4155H21.159C21.0962 20.4658 21.0459 20.5224 20.9894 20.579L20.7947 20.7677L20.4995 21.057L19.953 21.5916L18.7659 22.7866Z" fill="#95165B"/>
</svg>
