<svg width="94" height="88" viewBox="0 0 94 88" fill="none" xmlns="http://www.w3.org/2000/svg">
<path d="M46.0923 4.22833C36.1961 3.75022 25.9382 9.05361 18.5468 15.0564C10.3529 21.7056 7.08056 32.7639 7.00118 42.7863C6.84242 63.0437 22.71 79.972 43.164 82.6281C62.9036 85.2311 79.2298 73.9337 85.4304 56.1289C91.2694 39.3511 87.3709 18.775 71.5386 8.56665C63.7768 3.57315 53.6248 2.19197 44.5576 3.42264C35.7903 4.61789 23.3891 8.18594 18.5027 16.0658C18.1411 16.6501 19.0319 17.3584 19.4994 16.8095C25.9117 9.30151 38.8421 5.94595 48.4561 5.3616C59.3667 4.69757 70.0215 8.46926 77.2806 16.4819C91.3488 31.9936 86.824 59.6704 71.7062 72.8536C53.8541 88.4184 24.5975 79.547 13.9162 60.6177C7.45101 49.161 8.03315 34.331 14.7365 23.1487C20.7519 13.0821 34.4938 6.37093 46.0923 5.1137C46.1942 5.09314 46.2858 5.03782 46.3517 4.95712C46.4175 4.87642 46.4535 4.77532 46.4535 4.67101C46.4535 4.5667 46.4175 4.46561 46.3517 4.38491C46.2858 4.30421 46.1942 4.24888 46.0923 4.22833Z" fill="#333945"/>
<path d="M48.7319 12.6044C41.2206 10.3417 33.4308 18.7835 34.0328 25.7805C34.7336 33.6679 46.0005 34.9674 52.0024 33.4408C59.1003 31.6234 63.1075 24.6173 59.855 17.9929C56.4947 11.1959 45.713 10.2145 40.3761 14.8761C40.1874 15.0397 40.4389 15.3577 40.6456 15.2214C46.0365 11.5866 54.1228 12.7316 58.121 17.893C62.6134 23.7359 57.4292 30.224 51.607 32.0414C46.2162 33.7315 37.8873 32.314 35.7669 26.4801C33.0714 19.2106 42.5953 13.3586 48.642 13.1496C48.7052 13.1441 48.7646 13.117 48.8105 13.0727C48.8564 13.0285 48.8859 12.9697 48.8943 12.9062C48.9027 12.8426 48.8894 12.7781 48.8566 12.7232C48.8238 12.6683 48.7735 12.6264 48.7139 12.6044H48.7319Z" fill="#333945"/>
<path d="M22.4707 12.8468C16.565 18.337 19.1878 27.7944 23.0148 33.6654C28.2336 41.6351 39.4561 43.4061 48.4662 42.9279C57.0035 42.5029 65.5764 39.6781 70.8576 32.8861C75.7463 26.5989 78.2084 17.2389 73.409 10.2168C73.1057 9.78285 72.285 10.0485 72.5169 10.5887C75.1218 17.6729 75.327 23.7033 71.1342 30.2827C66.4864 37.5705 58.3684 40.6079 49.9113 41.4934C41.4543 42.3789 32.8189 40.9532 26.3513 35.5161C19.8836 30.079 18.8131 19.8601 22.9345 13.1567C23.0951 12.8999 22.7294 12.6342 22.5063 12.8379L22.4707 12.8468Z" fill="#333945"/>
<path d="M9.00664 38.9346C13.8647 55.6106 34.2722 61.1574 49.9811 60.9966C65.6901 60.8358 85.3794 49.5012 86 32.4143C85.9966 32.3125 85.9574 32.2153 85.8893 32.14C85.8213 32.0648 85.7288 32.0163 85.6286 32.0035C85.5284 31.9906 85.4268 32.014 85.3422 32.0697C85.2576 32.1253 85.1954 32.2095 85.1667 32.3071C82.9504 40.2476 79.5285 46.4464 72.9683 51.7967C66.0358 57.4417 57.2239 59.5586 48.3499 59.6568C32.3928 59.8265 16.4356 53.4044 9.73358 38.6041C9.54741 38.2022 8.8914 38.488 9.01551 38.8989L9.00664 38.9346Z" fill="#333945"/>
<path d="M14.0854 64.556C21.7094 73.9022 39.1524 76.0946 50.6063 75.9969C56.7711 75.8907 62.8584 74.6041 68.5379 72.207C73.1852 70.2543 81.1736 66.7129 82.9686 61.6803C83.1641 61.1389 82.3999 60.7927 82 61.1389C73.6003 69.4171 62.3744 74.2118 50.5796 74.559C38.3438 75.1182 23.922 71.8963 14.503 64.13C14.444 64.0838 14.3704 64.0604 14.2955 64.0641C14.2207 64.0678 14.1497 64.0984 14.0956 64.1503C14.0416 64.2021 14.0081 64.2717 14.0013 64.3463C13.9945 64.4208 14.0149 64.4953 14.0587 64.556H14.0854Z" fill="#333945"/>
<path d="M47.1263 19.3262C45.756 19.3173 45 21.0272 45 22.0836C45 23.7219 46.8334 24.2769 48.3265 23.8741C48.6593 23.7852 48.9666 23.6264 49.2255 23.4093C49.4844 23.1923 49.6882 22.9226 49.8217 22.6206C49.9553 22.3185 50.0151 21.9917 49.9968 21.6647C49.9784 21.3376 49.8823 21.0187 49.7157 20.7318C49.1487 19.568 47.2303 18.3773 45.9356 19.371C45.8747 19.4256 45.8285 19.493 45.8005 19.5678C45.7726 19.6426 45.7638 19.7227 45.7748 19.8013C45.7859 19.88 45.8165 19.955 45.8642 20.0203C45.9119 20.0856 45.9752 20.1392 46.049 20.1767C46.8523 20.4901 47.6744 20.3379 48.2131 21.072C48.5722 21.5733 48.6006 22.2895 47.9012 22.5133C47.2019 22.7371 46.4459 22.5133 46.4554 21.7792C46.4648 21.0451 47.1263 20.5259 47.5327 19.935C47.5742 19.8652 47.5955 19.7862 47.5945 19.7061C47.5936 19.626 47.5704 19.5475 47.5273 19.4785C47.4842 19.4096 47.4227 19.3526 47.349 19.3133C47.2753 19.274 47.192 19.2538 47.1074 19.2546L47.1263 19.3262Z" fill="#333945"/>
<path d="M46.2271 23.0957C37.4495 29.2828 32.5428 42.3016 29.813 52.2044C28.45 57.157 27.568 62.2344 27.1797 67.3632C26.8637 70.8283 26.6355 76.2632 29.497 78.8777C29.5963 78.9564 29.7182 78.9993 29.8439 79C29.9696 79.0006 30.092 78.9589 30.192 78.8814C30.2921 78.8038 30.3643 78.6947 30.3973 78.571C30.4303 78.4473 30.4224 78.3159 30.3747 78.1973C26.1527 70.5418 29.1546 59.7883 31.3578 51.8373C34.1842 41.6211 39.1962 31.4048 46.8591 23.8926C47.2629 23.4897 46.7187 22.7465 46.2359 23.0867L46.2271 23.0957Z" fill="#333945"/>
<path d="M47.4011 24.3255C44.7221 34.0259 43.8123 44.6732 44.0313 54.6952C44.2251 63.9044 45.7668 75.1144 51.1163 82.7872C51.4112 83.207 52.1863 82.9658 51.9588 82.412C50.4003 78.1335 48.4458 74.1229 47.3253 69.6567C46.139 64.7728 45.4721 59.7633 45.3371 54.722C44.899 44.4767 46.862 34.6423 48.2604 24.5756C48.3363 24.0039 47.5612 23.7449 47.418 24.3344L47.4011 24.3255Z" fill="#333945"/>
<path d="M49.0891 23.7925C53.639 30.8757 59.0792 37.4454 63.4133 44.7234C68.5614 53.1423 71.926 62.4999 73.3045 72.2329C73.4394 73.2334 75.1029 73.2777 74.995 72.2329C73.3764 54.5248 62.3253 36.1438 49.9163 23.1638C49.8271 23.0707 49.7062 23.0131 49.5767 23.002C49.4471 22.9908 49.318 23.0269 49.2137 23.1034C49.1094 23.1799 49.0372 23.2914 49.011 23.4168C48.9847 23.5422 49.0061 23.6727 49.0711 23.7836L49.0891 23.7925Z" fill="#333945"/>
<path d="M49.1723 22.7618C52.48 23.2818 55.823 23.2994 59.1307 23.9516C63.0807 24.7272 66.7755 26.7543 70.312 28.5699C76.9539 31.9807 82.1707 36.2376 85.7423 42.6714C85.8255 42.8098 85.9552 42.9139 86.1081 42.9651C86.2609 43.0162 86.427 43.0111 86.5765 42.9505C86.7259 42.89 86.8489 42.7781 86.9234 42.6348C86.9979 42.4916 87.0189 42.3265 86.9827 42.1691C85.3288 35.5325 77.9568 31.0112 72.2562 27.856C65.1128 23.8987 57.5296 21.0519 49.1811 22.2947C49.129 22.309 49.0831 22.34 49.0504 22.383C49.0177 22.426 49 22.4786 49 22.5326C49 22.5867 49.0177 22.6392 49.0504 22.6822C49.0831 22.7252 49.129 22.7563 49.1811 22.7706L49.1723 22.7618Z" fill="#333945"/>
<path d="M50.5293 20.8802C53.4919 16.6568 56.9163 14.7902 62.1184 13.543C64.4029 13.0249 66.7469 12.8079 69.0892 12.8979C70.954 12.9495 72.8274 14.0333 74.6224 13.8355C74.6883 13.8345 74.7529 13.8167 74.8099 13.7839C74.8669 13.7511 74.9143 13.7043 74.9476 13.6481C74.9809 13.5918 74.9989 13.5281 75 13.463C75.001 13.3979 74.985 13.3336 74.9535 13.2764C73.2108 9.41424 63.6258 11.47 60.6196 12.227C56.9338 13.1387 49.6231 16.1665 50.0152 20.7426C50.019 20.8006 50.0413 20.8559 50.0789 20.9007C50.1166 20.9454 50.1676 20.9772 50.2247 20.9915C50.2818 21.0058 50.342 21.002 50.3967 20.9804C50.4514 20.9589 50.4978 20.9208 50.5293 20.8716V20.8802Z" fill="#333945"/>
<path d="M46.9488 4.16275C45.3182 6.86225 45.1082 10.4616 45.0081 13.494C45.0081 14.9427 44.748 19.7389 47.1689 19.9998C47.2572 20.0025 47.3438 19.9781 47.4147 19.9307C47.4855 19.8833 47.5364 19.8156 47.559 19.7389C47.6891 18.992 47.2289 18.5691 46.9588 17.8402C46.5339 16.4249 46.3617 14.9579 46.4486 13.494C46.4859 10.4611 47.0081 7.4488 47.9992 4.54968C48.0055 4.44306 47.9753 4.33727 47.9127 4.24657C47.8501 4.15587 47.758 4.08462 47.649 4.04245C47.54 4.00027 47.4192 3.98919 47.3029 4.0107C47.1866 4.03222 47.0805 4.08528 46.9988 4.16275H46.9488Z" fill="#333945"/>
<path d="M26.2689 11.8095C34.5365 12.7209 40.4471 16.5764 46.6366 21.7534C46.7821 21.9069 46.9819 21.9956 47.1919 21.9998C47.402 22.0041 47.6051 21.9237 47.7566 21.7762C47.9081 21.6288 47.9956 21.4264 47.9998 21.2136C48.0041 21.0007 47.9247 20.795 47.7791 20.6415C43.209 15.2821 33.5649 9.60377 26.1879 11.3082C25.882 11.3811 25.981 11.7821 26.2599 11.8095H26.2689Z" fill="#333945"/>
<path d="M45.4889 22.1634C31.9615 20.4971 8.80195 31.7822 8 46.4793C8 47.1053 8.88126 47.1846 9.09276 46.6204C14.1688 30.8918 29.9787 25.1522 45.4889 23.2038C45.6244 23.2038 45.7544 23.1499 45.8503 23.054C45.9462 22.9581 46 22.828 46 22.6924C46 22.5568 45.9462 22.4267 45.8503 22.3308C45.7544 22.2349 45.6244 22.1811 45.4889 22.1811V22.1634Z" fill="#333945"/>
<path d="M27.2427 26.1516C24.3368 29.0028 27.6467 31.7912 29.3146 34.4273C31.9883 38.6682 25.016 43.6264 27.3028 48.504C27.887 49.7391 28.5416 50.9367 29.263 52.0904C31.249 55.3361 27.1137 57.7569 25.3856 59.3618C23.9471 60.8566 23.0975 62.859 23.0042 64.9746C22.9354 67.6644 23.7178 69.8342 24.6635 72.2998C25.1965 73.6986 25.1019 76.0387 26.4689 76.8725C26.631 76.9738 26.8205 77.0166 27.0082 76.9942C27.196 76.9719 27.3714 76.8856 27.5074 76.7489C27.6434 76.6121 27.7325 76.4325 27.7608 76.2376C27.789 76.0428 27.755 75.8437 27.6639 75.6711C26.9246 74.4248 26.7354 72.0847 26.1852 70.6053C24.7581 66.8306 24.4657 63.1276 27.7155 60.0971C29.8648 58.1156 33.2435 55.4975 31.5327 52.0276C29.8218 48.5578 27.9304 46.2714 29.753 42.4967C30.5422 41.1567 31.1063 39.6861 31.4209 38.1482C31.7084 36.5826 31.5002 34.9621 30.8277 33.5307C29.8218 31.3878 26.3829 29.5049 28.0594 26.7792C28.3775 26.2682 27.6639 25.7392 27.2427 26.1426V26.1516Z" fill="#333945"/>
<path d="M33.2069 24.3336C33.2316 24.3394 33.2573 24.3395 33.2821 24.3339C33.3069 24.3284 33.3301 24.3173 33.35 24.3014C33.3699 24.2856 33.3859 24.2655 33.397 24.2425C33.408 24.2196 33.4138 24.1945 33.4138 24.169C33.4138 24.1435 33.408 24.1184 33.397 24.0955C33.3859 24.0725 33.3699 24.0524 33.35 24.0366C33.3301 24.0208 33.3069 24.0096 33.2821 24.0041C33.2573 23.9985 33.2316 23.9986 33.2069 24.0044C33.1822 23.9986 33.1565 23.9985 33.1317 24.0041C33.1069 24.0096 33.0837 24.0208 33.0638 24.0366C33.0439 24.0524 33.0278 24.0725 33.0168 24.0955C33.0057 24.1184 33 24.1435 33 24.169C33 24.1945 33.0057 24.2196 33.0168 24.2425C33.0278 24.2655 33.0439 24.2856 33.0638 24.3014C33.0837 24.3173 33.1069 24.3284 33.1317 24.3339C33.1565 24.3395 33.1822 24.3394 33.2069 24.3336Z" fill="#333945"/>
<path d="M27.7056 26.6823C30.7474 17.1028 35.3944 24.0139 36.7158 26.2376C37.1075 26.9237 37.5842 27.5573 38.1347 28.1232C39.3655 29.3726 40.8906 30.2903 42.5689 30.7916C44.5554 31.4054 46.9055 31.1296 48.9364 31.0407C51.1623 30.9428 53.069 31.601 55.2063 31.77C55.2946 31.7724 55.3819 31.7512 55.4593 31.7084C55.5366 31.6657 55.6013 31.603 55.6464 31.5269C55.6916 31.4508 55.7157 31.3639 55.7163 31.2753C55.7169 31.1867 55.6939 31.0996 55.6497 31.0229C54.6298 29.0127 52.2442 29.0572 50.1424 29.0216C47.7569 29.0216 45.5043 29.2884 43.1187 28.8793C40.1124 28.3634 38.9152 25.6772 37.3721 23.5425C34.0997 19.0952 27.7322 21.6657 26.8365 26.4244C26.8312 26.5319 26.8627 26.638 26.9258 26.725C26.9889 26.8121 27.0798 26.8748 27.1834 26.9029C27.287 26.9309 27.3971 26.9226 27.4953 26.8792C27.5935 26.8359 27.674 26.7601 27.7233 26.6645L27.7056 26.6823Z" fill="#333945"/>
<path d="M52.7406 30.6227C58.5582 30.7383 59.8353 35.7993 58.3365 40.4068C57.4497 43.0751 56.2702 43.9646 53.3259 44.3382C50.6654 44.6762 49.8762 46.046 48.7765 48.2874C47.6768 50.5288 47.0028 51.8452 44.4754 52.877C43.1183 53.351 41.7863 53.8943 40.4846 54.5047C39.5078 54.9452 38.7345 55.7415 38.3212 56.7324C37.9079 57.7233 37.8855 58.8347 38.2587 59.8415C38.2832 59.9163 38.3283 59.9826 38.3888 60.0328C38.4493 60.083 38.5226 60.1151 38.6005 60.1253C38.6783 60.1356 38.7574 60.1235 38.8288 60.0906C38.9001 60.0577 38.9607 60.0053 39.0036 59.9394C40.6531 57.0397 41.7883 55.8211 44.972 54.656C46.4175 54.1312 48.2887 53.3929 49.1578 52.0765C50.7453 49.6572 50.5945 46.464 54.266 46.0371C55.5341 45.8858 57.4142 45.5656 58.4341 44.6851C60.323 43.0663 62.2829 37.4626 61.4936 35.1856C60.3053 31.5744 56.758 27.8831 52.5899 29.5197C52.4572 29.554 52.3416 29.6359 52.2652 29.75C52.1888 29.8641 52.1569 30.0024 52.1755 30.1385C52.1941 30.2747 52.262 30.3992 52.3662 30.4885C52.4704 30.5778 52.6036 30.6255 52.7406 30.6227Z" fill="#333945"/>
<path d="M39.1103 56.7373C37.1859 62.59 44.8304 63.8975 48.6083 65.9254C52.1999 67.8467 45.4778 70.1771 44.2362 70.7285C42.9946 71.28 41.1323 72.0449 40.5026 73.3436C39.199 76.0119 38.2057 79.8722 40.7155 82.1759C40.8859 82.299 41.0942 82.3574 41.3035 82.3408C41.5128 82.3242 41.7095 82.2336 41.8585 82.0853C42.0075 81.9369 42.0991 81.7403 42.1172 81.5306C42.1352 81.3208 42.0785 81.1113 41.957 80.9396C38.9596 77.1771 42.7197 73.2724 46.0365 71.956C47.4212 71.4655 48.7597 70.8523 50.0361 70.1237C51.2954 69.341 52.129 67.4998 51.3575 66.1389C48.6615 61.3714 40.3519 63.8174 40.1834 56.9241C40.1775 56.7948 40.1264 56.6718 40.0392 56.5765C39.9519 56.4812 39.8341 56.4197 39.7062 56.4027C39.5783 56.3857 39.4486 56.4144 39.3396 56.4837C39.2307 56.553 39.1495 56.6585 39.1103 56.7818V56.7373Z" fill="#333945"/>
<path d="M78.7158 16.7112C78.7299 16.7112 78.7435 16.7055 78.7534 16.6956C78.7634 16.6856 78.769 16.6721 78.769 16.6579C78.769 16.6438 78.7634 16.6303 78.7534 16.6203C78.7435 16.6103 78.7299 16.6047 78.7158 16.6047C78.7017 16.6047 78.6882 16.6103 78.6782 16.6203C78.6682 16.6303 78.6626 16.6438 78.6626 16.6579C78.6626 16.6721 78.6682 16.6856 78.6782 16.6956C78.6882 16.7055 78.7017 16.7112 78.7158 16.7112Z" fill="#333945"/>
<path d="M78.6364 16.6314C78.3437 18.4904 78.459 18.099 78.7428 20.4027C79.1152 23.4625 77.2529 26.0063 75.3906 28.2478C72.3487 31.9124 71.4353 36.7688 68.5708 40.5757C65.7064 44.3826 67.4978 47.3801 72.3133 46.3661C72.4332 46.3351 72.5394 46.2649 72.6153 46.1667C72.6911 46.0685 72.7323 45.9478 72.7323 45.8236C72.7323 45.6993 72.6911 45.5786 72.6153 45.4804C72.5394 45.3822 72.4332 45.312 72.3133 45.281C71.6127 45.1743 68.5531 44.9875 68.8724 43.5732C69.1916 42.159 70.8855 40.4156 71.6747 39.1971C74.0248 35.5947 75.2221 31.69 77.8205 28.1677C80.3036 24.7967 81.9531 20.0914 78.7694 16.6047C78.7621 16.5937 78.7522 16.5847 78.7406 16.5784C78.729 16.5722 78.716 16.5689 78.7029 16.5689C78.6897 16.5689 78.6767 16.5722 78.6651 16.5784C78.6535 16.5847 78.6436 16.5937 78.6364 16.6047V16.6314Z" fill="#333945"/>
<path d="M68.1539 45.0053C69.9275 47.1845 73.1556 46.4018 75.692 46.2506C78.4057 46.0905 80.2325 48.4297 80.3389 50.8669C80.401 52.3612 78.8757 53.4819 77.7671 54.2379C75.3993 55.8479 69.7324 57.7958 70.5306 61.4604C70.6281 61.9051 71.2489 61.8339 71.4174 61.4604C73.1911 56.5861 79.9931 56.7551 81.7756 51.9698C82.6092 49.7461 80.9331 47.0155 79.2748 45.6368C78.2298 44.9347 76.9823 44.6 75.7274 44.6851C73.1734 44.6228 70.9651 45.0409 68.3667 44.6851C68.3293 44.6744 68.2894 44.6763 68.2532 44.6905C68.217 44.7048 68.1865 44.7306 68.1663 44.764C68.1462 44.7973 68.1375 44.8364 68.1416 44.8752C68.1458 44.914 68.1626 44.9503 68.1894 44.9786L68.1539 45.0053Z" fill="#333945"/>
<path d="M72.5522 57.7335C70.8673 59.219 67.932 61.8164 69.608 64.1825C70.367 65.1683 71.3964 65.9102 72.5699 66.3174C75.0884 67.2069 73.6429 69.5997 73.9799 71.5744C73.9994 71.6368 74.0344 71.6931 74.0817 71.738C74.129 71.7829 74.187 71.8149 74.2501 71.8309C74.3132 71.847 74.3794 71.8466 74.4423 71.8297C74.5053 71.8128 74.5628 71.7801 74.6095 71.7345C76.1703 70.1423 76.6846 67.109 74.9554 65.4101C74.3169 64.7785 73.1818 64.6451 72.3925 64.2181C69.475 62.6081 72.3127 60.2509 73.2793 58.2939C73.3446 58.1933 73.3691 58.0715 73.3479 57.9533C73.3267 57.8352 73.2614 57.7296 73.1652 57.6581C73.0691 57.5866 72.9494 57.5546 72.8305 57.5687C72.7116 57.5827 72.6026 57.6416 72.5256 57.7335H72.5522Z" fill="#333945"/>
<path d="M32.6361 21.6035C31.5012 22.1974 30.4993 23.0177 29.692 24.0141C28.726 24.9686 27.8502 26.0109 27.0759 27.1274C27.0051 27.2496 26.9777 27.3922 26.9984 27.532C27.0191 27.6718 27.0866 27.8004 27.1897 27.8966C27.2929 27.9928 27.4256 28.051 27.5661 28.0616C27.7065 28.0721 27.8464 28.0344 27.9627 27.9547C29.0003 27.4299 29.7363 26.1757 30.3482 25.2861C31.1449 24.1558 32.0804 23.1307 33.1327 22.2351C33.4963 21.9238 33.0352 21.4256 32.6361 21.6124V21.6035Z" fill="#333945"/>
<path d="M35.2523 22.9021C33.6499 24.0225 32.2444 25.4022 31.0932 26.985C30.0823 28.2659 28.353 30.2406 28.4328 31.9396C28.4385 32.0401 28.4728 32.1368 28.5318 32.2182C28.5907 32.2996 28.6717 32.3623 28.7651 32.3989C28.8586 32.4355 28.9605 32.4443 29.0588 32.4244C29.1571 32.4045 29.2477 32.3566 29.3196 32.2865C30.4281 31.228 31.04 29.3511 31.9268 28.1058C33.0885 26.4335 34.5074 24.9391 35.6336 23.249C35.7755 23.0355 35.4917 22.7598 35.2789 22.9021H35.2523Z" fill="#333945"/>
<path d="M37.4069 25.4371C35.7814 26.6722 34.3779 28.1762 33.2567 29.8847C32.1836 31.3435 30.3923 33.3449 30.3657 35.2218C30.3687 35.2933 30.3899 35.3627 30.4273 35.4236C30.4647 35.4845 30.517 35.5347 30.5793 35.5695C30.6416 35.6043 30.7117 35.6225 30.783 35.6224C30.8543 35.6223 30.9243 35.6038 30.9865 35.5687C32.4231 34.5903 33.1591 32.5622 34.0814 31.1211C35.2697 29.3421 36.7418 27.6787 37.8591 25.8374C37.8907 25.7745 37.9013 25.7032 37.8895 25.6338C37.8777 25.5645 37.844 25.5007 37.7934 25.452C37.7428 25.4032 37.678 25.372 37.6084 25.3629C37.5388 25.3538 37.4682 25.3674 37.4069 25.4015V25.4371Z" fill="#333945"/>
<path d="M40.733 28.6125C38.0942 30.5273 35.7821 32.8582 33.8867 35.5147C31.9977 38.0408 29.2308 41.6876 28.9736 44.8808C28.9736 45.1743 29.355 45.3077 29.5589 45.112C31.5011 43.1997 32.5476 40.1577 34.0374 37.8807C36.0258 34.6936 38.4733 31.8192 41.3006 29.3507C41.6997 29.0127 41.1676 28.3367 40.733 28.6392V28.6125Z" fill="#333945"/>
<path d="M46.2223 29.4841C44.6349 30.1957 43.8722 31.6099 42.9056 32.9886C41.1319 35.4702 39.0656 37.765 37.1589 40.1043C34.6581 43.2174 30.6496 46.5796 29.9135 50.6C29.8925 50.7163 29.912 50.8363 29.9686 50.9399C30.0252 51.0435 30.1157 51.1245 30.2247 51.1693C30.3338 51.2141 30.4548 51.22 30.5677 51.186C30.6805 51.152 30.7783 51.0801 30.8447 50.9824C35.7843 43.7333 41.7793 37.2313 46.8076 29.9911C47.056 29.6264 46.5859 29.2973 46.2489 29.4485L46.2223 29.4841Z" fill="#333945"/>
<path d="M55.144 29.7332C49.9738 32.4994 46.2757 37.2314 42.4712 41.5186C38.6667 45.8058 33.9133 49.2124 31.1286 54.2557C31.0357 54.4208 31.012 54.6162 31.0628 54.7989C31.1135 54.9815 31.2345 55.1365 31.3991 55.2297C31.5638 55.3228 31.7586 55.3466 31.9407 55.2957C32.1228 55.2448 32.2773 55.1235 32.3702 54.9584C35.5273 50.2531 39.8551 46.7931 43.8458 42.7994C47.8365 38.8057 51.8273 34.5897 55.8003 30.507C55.8938 30.4165 55.9503 30.2943 55.9589 30.1642C55.9675 30.0341 55.9275 29.9055 55.8467 29.8033C55.7659 29.7012 55.6501 29.6329 55.5219 29.6117C55.3936 29.5905 55.2621 29.618 55.1529 29.6887L55.144 29.7332Z" fill="#333945"/>
<path d="M58.8069 31.9658C56.0399 33.0687 54.3195 35.577 52.3241 37.6494C49.034 41.0827 45.5487 44.2137 42.4182 47.816C36.8667 54.2557 29.6922 59.9216 25.4886 67.313C25.4051 67.4919 25.3922 67.6959 25.4524 67.8839C25.5125 68.072 25.6414 68.2303 25.8131 68.3271C25.9847 68.4239 26.1866 68.452 26.378 68.4058C26.5695 68.3596 26.7365 68.2425 26.8455 68.0779C31.0402 60.8377 37.9397 55.0829 43.4026 48.7677C48.3245 43.0751 54.1953 38.2898 59.268 32.7574C59.5518 32.4461 59.268 31.7968 58.8069 31.9835V31.9658Z" fill="#333945"/>
<path d="M58.8688 36.5732C52.7053 41.1539 47.8898 48.0295 42.7462 53.6598C42.1077 54.3536 43.163 55.3942 43.8104 54.6916C46.4709 51.8275 49.0516 48.9367 51.65 46.046C54.2484 43.1552 57.2459 40.3445 59.4186 37.0713C59.6049 36.7778 59.2147 36.3419 58.9043 36.5732H58.8688Z" fill="#333945"/>
<path d="M38.6484 58.2938C36.2807 59.1834 34.2676 61.763 32.565 63.5598C30.2416 66.006 28.5478 68.9503 26.056 71.2541C25.2756 71.9746 26.455 73.1043 27.2354 72.3927C29.5233 70.2757 31.1373 67.6516 33.1858 65.3388C34.9593 63.3196 38.1518 61.4516 39.2159 59.0144C39.3578 58.6763 39.1184 58.1248 38.6484 58.3027V58.2938Z" fill="#333945"/>
<path d="M41.0959 62.4476C38.3075 64.241 35.8626 66.5217 33.8774 69.1813C31.8111 71.6986 29.3636 73.8958 27.5811 76.6355C27.0579 77.436 28.3527 78.1565 28.8759 77.3738C30.6494 74.7675 32.9906 72.6771 34.9593 70.2576C36.9279 67.8381 39.2957 65.3475 41.3796 62.839C41.4279 62.8001 41.4587 62.7436 41.4653 62.6818C41.472 62.6201 41.4539 62.5583 41.4151 62.5099C41.3763 62.4616 41.3199 62.4306 41.2584 62.424C41.1969 62.4173 41.1352 62.4354 41.087 62.4743L41.0959 62.4476Z" fill="#333945"/>
<path d="M44.6169 63.7107C42.0858 65.8545 39.7421 68.2114 37.6112 70.7557C35.4386 73.3175 32.9822 75.8081 31.1731 78.619C30.845 79.1349 31.5633 79.5975 31.9978 79.2328C34.5252 77.089 36.5293 74.2692 38.6576 71.7608C40.7859 69.2524 42.861 66.5838 44.8652 63.8975C44.9805 63.7462 44.741 63.6039 44.6169 63.7107Z" fill="#333945"/>
<path d="M48.2796 65.8187C46.9639 66.7562 45.7875 67.8763 44.7856 69.1455C43.7747 70.3108 42.2671 71.6717 41.9656 73.2106C41.9568 73.2539 41.9605 73.2987 41.9763 73.34C41.9921 73.3812 42.0193 73.417 42.0547 73.4432C42.0902 73.4694 42.1323 73.4849 42.1763 73.4878C42.2202 73.4907 42.264 73.4809 42.3026 73.4597C43.7037 72.7125 44.5905 71.1024 45.5926 69.9016C46.7093 68.7277 47.6964 67.4364 48.5368 66.05C48.6166 65.8899 48.4481 65.6853 48.2707 65.792L48.2796 65.8187Z" fill="#333945"/>
<path d="M39.4736 76.7146C39.1543 77.2839 38.8705 77.871 38.5069 78.4225C38.0292 78.9807 37.6321 79.6035 37.3275 80.2727C37.1768 80.762 37.8241 81.0911 38.2143 80.7531C38.7118 80.2195 39.1354 79.6211 39.4736 78.974C39.9127 78.3739 40.1433 77.6458 40.1298 76.9014C40.123 76.8326 40.0954 76.7676 40.0507 76.715C40.0059 76.6624 39.9462 76.6249 39.8795 76.6074C39.8128 76.59 39.7424 76.5935 39.6777 76.6174C39.6131 76.6414 39.5573 76.6846 39.5179 76.7413L39.4736 76.7146Z" fill="#333945"/>
<path d="M69.5195 40.647C69.6537 42.1858 69.9087 43.7116 70.2822 45.2102C70.3166 45.3264 70.3804 45.4318 70.4674 45.5159C70.5545 45.6001 70.6617 45.6602 70.7788 45.6905H70.9561C71.0262 45.7082 71.0996 45.7076 71.1694 45.689C71.2393 45.6703 71.3032 45.6341 71.3552 45.5838C71.9493 44.97 71.4793 44.1783 71.3552 43.4578C71.1859 42.392 70.8664 41.3557 70.4063 40.3801C70.2024 40.0065 69.5195 40.1666 69.5195 40.6025V40.647Z" fill="#333945"/>
<path d="M72.2065 36.0573C72.1131 37.8047 72.3943 39.5518 73.0312 41.1809C73.5012 42.6931 73.7761 44.739 74.6097 46.0733C74.6335 46.1119 74.6668 46.1438 74.7064 46.1659C74.746 46.188 74.7905 46.1996 74.8358 46.1996C74.8811 46.1996 74.9256 46.188 74.9652 46.1659C75.0048 46.1438 75.0381 46.1119 75.0619 46.0733C75.7093 44.8369 75.1418 43.3336 74.7604 42.0616C74.0432 40.1088 73.4857 38.1008 73.0933 36.0573C73.0933 35.9394 73.0465 35.8262 72.9634 35.7428C72.8802 35.6594 72.7675 35.6125 72.6499 35.6125C72.5323 35.6125 72.4195 35.6594 72.3363 35.7428C72.2532 35.8262 72.2065 35.9394 72.2065 36.0573Z" fill="#333945"/>
<path d="M74.4417 31.2364C74.5747 36.342 76.3129 43.1019 79.6119 47.1934C79.651 47.234 79.7014 47.262 79.7565 47.2738C79.8116 47.2857 79.8689 47.2808 79.9213 47.2598C79.9736 47.2388 80.0185 47.2027 80.0502 47.156C80.082 47.1093 80.0992 47.0542 80.0996 46.9977C79.7804 44.4361 78.4856 42.0345 77.6165 39.6063C76.642 36.8513 75.9148 34.0145 75.4438 31.1297C75.3551 30.5693 74.4239 30.7117 74.4417 31.2631V31.2364Z" fill="#333945"/>
<path d="M77.1554 28.3278C79.1862 36.2441 82.2546 43.9379 84.9683 51.6584C84.9956 51.7176 85.0428 51.7652 85.1017 51.7927C85.1605 51.8203 85.2272 51.8261 85.2899 51.809C85.3526 51.792 85.4073 51.7532 85.4442 51.6996C85.4811 51.646 85.4979 51.581 85.4916 51.5161C84.0727 43.4576 80.3568 35.9327 78.255 28.0343C78.2358 27.9619 78.2026 27.894 78.1572 27.8344C78.1118 27.7749 78.0552 27.7249 77.9905 27.6874C77.9259 27.6498 77.8545 27.6253 77.7804 27.6154C77.7064 27.6055 77.6311 27.6103 77.5589 27.6296C77.4867 27.6489 77.419 27.6822 77.3596 27.7277C77.3002 27.7733 77.2504 27.8301 77.2129 27.8949C77.1755 27.9597 77.1511 28.0313 77.1412 28.1056C77.1313 28.1799 77.1362 28.2554 77.1554 28.3278Z" fill="#333945"/>
<path d="M78.7956 24.5565C80.9418 31.1475 84.5068 37.1335 87.3713 43.422C87.5487 43.8134 88.1428 43.5288 88.0542 43.1374C87.4156 40.3623 86.0854 38.0052 84.835 35.4525C83.0613 31.8057 81.4384 28.0077 79.8421 24.2808C79.576 23.6671 78.5739 23.8894 78.7868 24.5654L78.7956 24.5565Z" fill="#333945"/>
<path d="M79.3813 20.9987C79.7183 23.0535 81.1549 24.628 82.3786 26.2647C83.8596 28.2216 84.4803 30.6589 86.2184 32.4379C86.2504 32.4674 86.291 32.4859 86.3342 32.4907C86.3774 32.4954 86.421 32.4862 86.4587 32.4644C86.4963 32.4425 86.526 32.4092 86.5434 32.3692C86.5608 32.3293 86.565 32.2848 86.5554 32.2422C85.9411 30.0983 84.9859 28.0678 83.7266 26.2291C82.5294 24.4501 80.7913 22.9023 80.2326 20.7674C80.0907 20.2159 79.2926 20.465 79.3458 20.9987H79.3813Z" fill="#333945"/>
<path d="M73.5191 58.3472C73.058 59.6904 73.5191 61.2559 73.7497 62.608C73.9802 63.9601 74.1221 66.2995 75.3015 67.2513C75.3254 67.2739 75.3545 67.2902 75.3862 67.2985C75.4179 67.3069 75.4512 67.3071 75.4831 67.2991C75.5149 67.2911 75.5442 67.2752 75.5683 67.2529C75.5923 67.2305 75.6104 67.2024 75.6208 67.1712C76.1263 65.9081 75.2661 64.2002 74.9734 62.9193C74.6276 61.4161 74.6098 59.6993 73.9359 58.3027C73.8472 58.1159 73.5723 58.1871 73.5191 58.3561V58.3472Z" fill="#333945"/>
<path d="M76.1265 56.1858C75.945 57.9983 76.1973 59.828 76.8625 61.523C77.368 63.1686 77.7493 65.339 78.8844 66.6822C78.9204 66.716 78.9644 66.7402 79.0122 66.7525C79.0601 66.7647 79.1102 66.7646 79.158 66.7522C79.2058 66.7398 79.2497 66.7154 79.2856 66.6814C79.3215 66.6474 79.3482 66.6048 79.3632 66.5576C79.6204 64.9921 78.7248 63.3554 78.237 61.8699C77.6763 59.9921 77.2437 58.0781 76.9423 56.1414C76.9161 56.0532 76.8623 55.976 76.7888 55.921C76.7153 55.866 76.6261 55.8364 76.5344 55.8364C76.4427 55.8364 76.3535 55.866 76.28 55.921C76.2065 55.976 76.1526 56.0532 76.1265 56.1414V56.1858Z" fill="#333945"/>
<path d="M78.8579 54.0601C79.0269 55.5407 79.403 56.99 79.9753 58.3654C80.5251 59.9754 81.004 61.6299 81.6868 63.1954C81.9883 63.8804 82.9638 63.3555 82.8485 62.7151C82.4757 61.1053 81.9987 59.5216 81.4207 57.974C81.047 56.5342 80.5576 55.1271 79.9575 53.7665C79.8872 53.663 79.7866 53.5839 79.6695 53.5402C79.5525 53.4964 79.4247 53.4903 79.304 53.5225C79.1833 53.5547 79.0756 53.6237 78.9956 53.72C78.9157 53.8163 78.8676 53.9352 78.8579 54.0601Z" fill="#333945"/>
<path d="M80.791 49.9419C80.8846 51.1695 81.1844 52.3725 81.6778 53.4999C82.0678 54.7101 82.5237 55.8979 83.0435 57.058C83.3272 57.6451 84.2761 57.227 84.1076 56.6221C83.7795 55.4658 83.3006 54.3361 82.8927 53.1975C82.5727 52.005 82.0861 50.864 81.4472 49.8084C81.4075 49.7438 81.3482 49.6936 81.278 49.6652C81.2078 49.6368 81.1304 49.6316 81.0571 49.6505C80.9838 49.6694 80.9184 49.7113 80.8705 49.7701C80.8226 49.829 80.7948 49.9016 80.791 49.9774V49.9419Z" fill="#333945"/>
<path d="M24.4509 3.24524C13.6138 6.17157 4.43508 15.1907 2.892 26.2112C2.84765 26.5492 3.33541 26.8427 3.51278 26.4691C8.16864 16.685 13.6581 8.00387 24.7169 4.18807C24.8268 4.14164 24.9159 4.05647 24.9674 3.94865C25.0189 3.84083 25.0292 3.71783 24.9965 3.60287C24.9637 3.48791 24.8901 3.38896 24.7896 3.32471C24.6891 3.26046 24.5686 3.23535 24.4509 3.25413V3.24524Z" fill="#333945"/>
<path d="M1.08273 35.4614C-0.522362 38.1299 -0.36274 43.2269 1.69462 45.6641C1.96066 45.9755 2.43066 45.6641 2.44839 45.3617C2.55481 43.8584 1.96066 42.3284 1.76556 40.8429C1.58541 39.1768 1.66921 37.4926 2.01386 35.8527C2.03487 35.7364 2.01542 35.6164 1.95878 35.5128C1.90213 35.4091 1.81173 35.3282 1.70268 35.2834C1.59364 35.2386 1.47257 35.2327 1.35972 35.2667C1.24687 35.3007 1.14909 35.3726 1.08273 35.4703V35.4614Z" fill="#333945"/>
<path d="M20.0522 81.0997C23.2358 85.3427 29.0886 88.5628 34.6399 87.3263C34.7186 87.3046 34.788 87.2577 34.8375 87.1926C34.8869 87.1275 34.9137 87.0479 34.9137 86.9661C34.9137 86.8842 34.8869 86.8047 34.8375 86.7396C34.788 86.6745 34.7186 86.6275 34.6399 86.6058C32.4495 86.0454 30.206 85.8497 28.0422 85.2004C25.2639 84.2958 22.7653 82.6872 20.7882 80.5304C20.4335 80.1568 19.7418 80.655 20.0522 81.0819V81.0997Z" fill="#333945"/>
<path d="M87.0167 19.967C92.0451 27.6786 93.1181 35.9239 92.5505 44.8719C92.5505 45.1476 92.9762 45.201 93.0383 44.9342C95.1578 36.3064 93.9251 26.2555 87.8237 19.3443C87.4424 18.9174 86.7152 19.4689 87.0167 19.9492V19.967Z" fill="#333945"/>
<path d="M91.0426 55.0918C89.0561 59.8419 87.7614 64.663 84.835 68.9861C84.6576 69.2441 85.0478 69.5109 85.2607 69.3063C89.2335 65.6415 91.2376 60.5357 92.1599 55.3854C92.1794 55.2493 92.1484 55.1109 92.0728 54.9962C91.9972 54.8816 91.8822 54.7989 91.7498 54.7637C91.6173 54.7286 91.4766 54.7435 91.3544 54.8057C91.2322 54.8678 91.137 54.9728 91.0869 55.1007L91.0426 55.0918Z" fill="#333945"/>
<path d="M60.5096 0.790137C64.4381 0.91467 67.1783 3.15625 70.5303 4.71291C70.5939 4.75204 70.6687 4.76889 70.7428 4.76082C70.817 4.75275 70.8864 4.72023 70.9402 4.66834C70.9939 4.61645 71.029 4.54813 71.0399 4.4741C71.0508 4.40007 71.0369 4.3245 71.0003 4.25926C69.1292 0.887984 64.1366 -0.295075 60.5096 0.0607324C60.4132 0.0607324 60.3207 0.0991563 60.2525 0.167551C60.1843 0.235946 60.146 0.32871 60.146 0.425435C60.146 0.52216 60.1843 0.614923 60.2525 0.683318C60.3207 0.751713 60.4132 0.790137 60.5096 0.790137Z" fill="#333945"/>
<path d="M57.1127 87.9843C59.0282 88.0643 62.4866 87.9042 63.5331 86.0185C63.5674 85.957 63.585 85.8876 63.584 85.8173C63.583 85.7469 63.5636 85.678 63.5276 85.6175C63.4916 85.5571 63.4404 85.5072 63.3791 85.473C63.3178 85.4387 63.2485 85.4213 63.1783 85.4225C62.2641 85.6288 61.3728 85.9268 60.518 86.312C59.4044 86.6455 58.2554 86.8455 57.0949 86.908C56.9574 86.908 56.8254 86.9628 56.7281 87.0604C56.6308 87.158 56.5762 87.2903 56.5762 87.4283C56.5762 87.5663 56.6308 87.6987 56.7281 87.7963C56.8254 87.8939 56.9574 87.9487 57.0949 87.9487L57.1127 87.9843Z" fill="#333945"/>
</svg>
